<svg width="601" height="601" viewBox="0 0 601 601" fill="none" xmlns="http://www.w3.org/2000/svg">
<path d="M500.29 200.667V140.667C500.29 103.33 500.29 84.6613 493.023 70.4007C486.633 57.8563 476.433 47.6577 463.89 41.2663C449.63 34 430.96 34 393.623 34H140.29C102.953 34 84.2844 34 70.0237 41.2663C57.4794 47.6577 47.2807 57.8563 40.8894 70.4007C33.623 84.6613 33.623 103.33 33.623 140.667V500.667L166.956 434M566.956 567.333L493.83 518.58C483.84 511.923 478.846 508.593 473.443 506.233C468.646 504.14 463.623 502.62 458.47 501.7C452.666 500.667 446.663 500.667 434.66 500.667H273.623C236.286 500.667 217.618 500.667 203.357 493.4C190.813 487.01 180.614 476.81 174.223 464.267C166.956 450.007 166.956 431.337 166.956 394V307.333C166.956 269.997 166.956 251.327 174.223 237.067C180.614 224.523 190.813 214.324 203.357 207.933C217.618 200.667 236.286 200.667 273.623 200.667H460.29C497.626 200.667 516.296 200.667 530.556 207.933C543.1 214.324 553.3 224.523 559.69 237.067C566.956 251.327 566.956 269.997 566.956 307.333V567.333Z" stroke="white" stroke-width="66.6667" stroke-linecap="round" stroke-linejoin="round"/>
</svg>
