<svg width="667" height="501" viewBox="0 0 667 501" fill="none" xmlns="http://www.w3.org/2000/svg">
<path d="M575.2 25.5H91.8669C55.0479 25.5 25.2002 55.3477 25.2002 92.1667V408.833C25.2002 445.652 55.0479 475.5 91.8669 475.5H575.2C612.019 475.5 641.867 445.652 641.867 408.833V92.1667C641.867 55.3477 612.019 25.5 575.2 25.5Z" stroke="white" stroke-width="50"/>
<path d="M171.033 158.833H496.033V342.166H171.033V158.833Z" stroke="white" stroke-width="50" stroke-linejoin="round"/>
<path d="M171.034 204.667V108.833C171.034 62.8083 208.342 25.5 254.367 25.5M456.45 158.833H558.534C604.559 158.833 641.867 196.142 641.867 242.167M204.367 342.167H108.534C62.5085 342.167 25.2002 304.858 25.2002 258.833M496.034 292.167V392.167C496.034 438.192 458.725 475.5 412.7 475.5" stroke="white" stroke-width="50" stroke-linecap="round" stroke-linejoin="round"/>
</svg>
