<svg width="534" height="667" viewBox="0 0 534 667" fill="none" xmlns="http://www.w3.org/2000/svg">
<path d="M34 233.333H500.667M367.333 533.333V433.333M167.333 533.333H167.667M267.333 533.333H267.667M267.333 433.333H267.667M167.333 433.333H167.667M367.333 333.333H367.667M267.333 333.333H267.667M167.333 333.333H167.667M140.667 633.333H394C431.337 633.333 450.007 633.333 464.267 626.067C476.81 619.677 487.01 609.477 493.4 596.934C500.667 582.674 500.667 564.003 500.667 526.667V140C500.667 102.663 500.667 83.9948 493.4 69.7342C487.01 57.1898 476.81 46.9912 464.267 40.5998C450.007 33.3335 431.337 33.3335 394 33.3335H140.667C103.33 33.3335 84.6613 33.3335 70.4007 40.5998C57.8563 46.9912 47.6577 57.1898 41.2663 69.7342C34 83.9948 34 102.663 34 140V526.667C34 564.003 34 582.674 41.2663 596.934C47.6577 609.477 57.8563 619.677 70.4007 626.067C84.6613 633.333 103.33 633.333 140.667 633.333Z" stroke="white" stroke-width="66.6667" stroke-linecap="round" stroke-linejoin="round"/>
</svg>
