<svg width="668" height="601" viewBox="0 0 668 601" fill="none" xmlns="http://www.w3.org/2000/svg">
<path d="M334 433.666C389.23 433.666 434 388.896 434 333.667C434 278.437 389.23 233.667 334 233.667C278.77 233.667 234 278.437 234 333.667C234 388.896 278.77 433.666 334 433.666Z" stroke="white" stroke-width="66.6667" stroke-linecap="round" stroke-linejoin="round"/>
<path d="M34 460.333V207C34 169.663 34 150.995 41.2663 136.734C47.6577 124.19 57.8563 113.991 70.4007 107.599C84.6613 100.333 103.33 100.333 140.667 100.333H175.821C179.919 100.333 181.968 100.333 183.859 100.117C193.722 98.9868 202.568 93.5195 207.99 85.2028C209.029 83.6088 209.945 81.7758 211.778 78.1108C215.443 70.7805 217.276 67.1152 219.354 63.9272C230.197 47.2938 247.889 36.3592 267.617 34.0995C271.397 33.6665 275.493 33.6665 283.69 33.6665H384.31C392.507 33.6665 396.603 33.6665 400.383 34.0995C420.11 36.3592 437.803 47.2938 448.647 63.9272C450.723 67.1148 452.557 70.7815 456.223 78.1108C458.053 81.7762 458.97 83.6088 460.01 85.2028C465.433 93.5195 474.277 98.9868 484.14 100.117C486.033 100.333 488.08 100.333 492.18 100.333H527.333C564.67 100.333 583.34 100.333 597.6 107.599C610.143 113.991 620.343 124.19 626.733 136.734C634 150.995 634 169.663 634 207V460.333C634 497.67 634 516.34 626.733 530.6C620.343 543.143 610.143 553.343 597.6 559.733C583.34 567 564.67 567 527.333 567H140.667C103.33 567 84.6613 567 70.4007 559.733C57.8563 553.343 47.6577 543.143 41.2663 530.6C34 516.34 34 497.67 34 460.333Z" stroke="white" stroke-width="66.6667" stroke-linecap="round" stroke-linejoin="round"/>
</svg>
