<svg width="601" height="601" viewBox="0 0 601 601" fill="none" xmlns="http://www.w3.org/2000/svg">
<path fill-rule="evenodd" clip-rule="evenodd" d="M300.666 67.1667C171.8 67.1667 67.3332 171.634 67.3332 300.5C67.3332 429.367 171.8 533.833 300.666 533.833C418.216 533.833 515.463 446.91 531.636 333.833H334C315.59 333.833 300.666 318.91 300.666 300.5C300.666 282.09 315.59 267.167 334 267.167H567.333C585.743 267.167 600.666 282.09 600.666 300.5C600.666 466.187 466.353 600.5 300.666 600.5C134.981 600.5 0.666504 466.187 0.666504 300.5C0.666504 134.815 134.981 0.5 300.666 0.5C372.08 0.5 437.743 25.493 489.26 67.1803C503.57 78.7607 505.783 99.7497 494.203 114.061C482.623 128.372 461.633 130.585 447.323 119.005C407.24 86.5707 356.266 67.1667 300.666 67.1667Z" fill="white"/>
</svg>
