<svg width="347" height="651" viewBox="0 0 347 651" fill="none" xmlns="http://www.w3.org/2000/svg">
<path fill-rule="evenodd" clip-rule="evenodd" d="M321.528 28.8995C286.68 -7.82438 228.66 -9.34198 191.936 25.5047L191.935 25.5057L28.8589 180.26L28.8587 180.261C-7.86468 215.11 -9.38277 273.128 25.4646 309.853L25.4655 309.854C60.3148 346.576 118.335 348.092 155.057 313.246L155.057 313.246L162.823 305.876V559.335C162.823 609.962 203.863 651.002 254.49 651.002C305.117 651.002 346.157 609.962 346.157 559.335V102.001M162.823 122.062L63.2766 216.529L63.2764 216.529C46.585 232.369 45.8929 258.74 61.7338 275.436L162.823 144.23V122.062ZM162.823 144.231L61.7348 275.437C77.5742 292.126 103.947 292.817 120.64 276.976L162.823 236.946V144.231ZM212.823 189.498V92.6682C212.823 85.477 214.645 78.7113 217.852 72.8075L225.913 62.3451C233.373 55.312 243.428 51.0015 254.49 51.0015C277.503 51.0015 296.157 69.656 296.157 92.6682V98.7326C294.743 107.407 290.585 115.706 283.718 122.222L283.718 122.222L212.823 189.498ZM212.823 258.428L296.157 179.348V559.335C296.157 582.348 277.503 601.002 254.49 601.002C231.477 601.002 212.823 582.348 212.823 559.335V258.428ZM225.913 62.3451C222.703 65.3707 219.974 68.9002 217.852 72.8071L225.913 62.3451Z" fill="white"/>
</svg>
