<svg width="668" height="534" viewBox="0 0 668 534" fill="none" xmlns="http://www.w3.org/2000/svg">
<path d="M387.787 378.576L529.503 232.886L634 333.146M166.161 500.333L332.96 332.886L533.09 500.333M266.292 199.552C266.292 236.37 236.444 266.22 199.625 266.22C162.806 266.22 132.958 236.37 132.958 199.552C132.958 162.733 162.806 132.885 199.625 132.885C236.444 132.885 266.292 162.733 266.292 199.552ZM336.09 69.0912L331.91 64.9085C320.38 53.3782 314.613 47.6132 307.887 43.4905C301.92 39.8352 295.417 37.1415 288.617 35.5085C280.943 33.6665 272.79 33.6665 256.484 33.6665H140.667C103.33 33.6665 84.6613 33.6665 70.4007 40.9328C57.8563 47.3242 47.6577 57.5228 41.2663 70.0672C34 84.3278 34 102.996 34 140.333V393.666C34 431.003 34 449.673 41.2663 463.933C47.6577 476.477 57.8563 486.676 70.4007 493.066C84.6613 500.333 103.33 500.333 140.667 500.333H527.333C564.67 500.333 583.34 500.333 597.6 493.066C610.143 486.676 620.343 476.477 626.733 463.933C634 449.673 634 431.003 634 393.666V207C634 169.663 634 150.995 626.733 136.734C620.343 124.19 610.143 113.991 597.6 107.599C583.34 100.333 564.67 100.333 527.333 100.333H411.517C395.21 100.333 387.057 100.333 379.383 98.4912C372.583 96.8582 366.08 94.1645 360.113 90.5092C353.387 86.3865 347.62 80.6215 336.09 69.0912Z" stroke="white" stroke-width="66.6667" stroke-linecap="round" stroke-linejoin="round"/>
</svg>
