<svg width="667" height="667" viewBox="0 0 667 667" fill="none" xmlns="http://www.w3.org/2000/svg">
<path d="M33.333 233.333H633.333M166.666 33.3335V100M500 33.3335V100M133.333 366.667H200M133.333 500H200M300 366.667H366.666M300 500H366.666M466.666 366.667H533.333M466.666 500H533.333M140 633.333H526.666C564.003 633.333 582.673 633.333 596.933 626.067C609.476 619.677 619.676 609.477 626.066 596.934C633.333 582.674 633.333 564.003 633.333 526.667V206.667C633.333 169.33 633.333 150.661 626.066 136.401C619.676 123.856 609.476 113.658 596.933 107.266C582.673 100 564.003 100 526.666 100H140C102.663 100 83.9943 100 69.7337 107.266C57.1893 113.658 46.9907 123.856 40.5993 136.401C33.333 150.661 33.333 169.33 33.333 206.667V526.667C33.333 564.003 33.333 582.674 40.5993 596.934C46.9907 609.477 57.1893 619.677 69.7337 626.067C83.9943 633.333 102.663 633.333 140 633.333Z" stroke="white" stroke-width="66.6667" stroke-linecap="round" stroke-linejoin="round"/>
</svg>
