<svg width="321" height="733" viewBox="0 0 321 733" fill="none" xmlns="http://www.w3.org/2000/svg">
<path d="M319.435 255.779L306.304 325.416C302.013 348.346 281.373 366.305 259.316 366.305H214.859V687.186C214.859 712.475 196.815 733 172.999 733H108.223C84.407 733 65.0323 712.43 65.0323 687.163V366.305H43.4477C19.6316 366.305 0.256836 345.758 0.256836 320.468V251.725C0.256836 226.458 19.6316 205.888 43.4477 205.888H65.0323V137.488C65.0323 62.1924 122.448 0.916279 193.275 0.274884C193.725 0.251977 194.111 0 194.583 0H280.965C292.873 0 300.683 10.2394 300.683 22.8841V137.419C300.683 150.086 292.873 160.417 280.965 160.417H216.168L216.147 205.888H280.922C293.066 205.888 304.266 211.363 311.604 220.892C318.963 230.398 321.817 243.135 319.435 255.779ZM195.377 251.725C195.077 251.748 194.841 251.908 194.54 251.908C182.611 251.885 172.934 241.623 172.956 228.978V228.818L172.999 137.488C172.999 124.82 182.654 114.581 194.583 114.581H259.359V45.8368H195.42C195.055 45.8368 194.755 46.043 194.369 46.043C146.865 46.043 108.223 87.0694 108.223 137.488V229.161C108.223 241.829 98.5465 252.091 86.617 252.091C86.0377 252.091 85.5442 251.77 84.9649 251.725H43.4477V320.468H86.617C98.5465 320.468 108.223 330.731 108.223 343.398C108.223 344.589 107.751 345.597 107.579 346.743V687.186L172.999 687.163V343.627C172.999 343.536 172.956 343.467 172.956 343.398C172.956 330.731 182.611 320.468 194.54 320.468H259.316C260.882 320.468 263.671 318.063 263.95 316.46L276.159 251.725H195.377Z" fill="white"/>
</svg>
