<svg width="667" height="534" viewBox="0 0 667 534" fill="none" xmlns="http://www.w3.org/2000/svg">
<path d="M616.998 234L558.318 120.824C542.098 89.285 533.988 73.515 522.045 62.004C511.485 51.8233 498.812 44.0907 484.928 39.355C469.232 34 451.498 34 416.032 34H251.299C215.833 34 198.1 34 182.401 39.355C168.518 44.0907 155.846 51.8233 145.285 62.004C133.343 73.515 125.233 89.285 109.012 120.824L50.3317 234M616.998 234C623.602 246.843 625.858 252.153 628.188 258.9C630.255 264.89 631.752 271.063 632.652 277.34C633.665 284.403 633.665 291.623 633.665 306.067V340.667C633.665 396.673 633.665 424.673 622.765 446.067C613.178 464.883 597.882 480.18 579.065 489.767C557.672 500.667 529.672 500.667 473.665 500.667H193.665C137.66 500.667 109.657 500.667 88.266 489.767C69.4497 480.18 54.1517 464.883 44.5644 446.067C33.665 424.673 33.665 396.673 33.665 340.667V306.067C33.665 291.623 33.665 284.403 34.6787 277.34C35.5787 271.063 37.0734 264.89 39.1424 258.9C41.472 252.153 43.727 246.843 50.3317 234M616.998 234H50.3317M433.665 367.333H500.332" stroke="white" stroke-width="66.6667" stroke-linecap="round" stroke-linejoin="round"/>
</svg>
