<svg width="600" height="661" viewBox="0 0 600 661" fill="none" xmlns="http://www.w3.org/2000/svg">
<path d="M283.332 231.077L233.332 331.077H366.665L316.665 431.077M566.665 331.077C566.665 479.78 384.665 587.537 321.379 620.51C314.535 624.077 311.112 625.86 306.365 626.783C302.665 627.503 297.332 627.503 293.632 626.783C288.885 625.86 285.462 624.077 278.619 620.51C215.331 587.537 33.332 479.78 33.332 331.077V204.997C33.332 178.347 33.332 165.022 37.6907 153.567C41.541 143.449 47.798 134.42 55.9207 127.261C65.1154 119.158 77.592 114.48 102.545 105.122L281.272 38.0996C288.202 35.5009 291.665 34.2016 295.232 33.6862C298.392 33.2296 301.605 33.2296 304.765 33.6862C308.332 34.2016 311.795 35.5009 318.725 38.0996L497.452 105.122C522.405 114.48 534.882 119.158 544.075 127.261C552.199 134.42 558.455 143.449 562.305 153.567C566.665 165.022 566.665 178.347 566.665 204.997V331.077Z" stroke="white" stroke-width="66.6667" stroke-linecap="round" stroke-linejoin="round"/>
</svg>
