<svg width="668" height="667" viewBox="0 0 668 667" fill="none" xmlns="http://www.w3.org/2000/svg">
<path fill-rule="evenodd" clip-rule="evenodd" d="M0.957031 133.666C0.957031 60.0283 60.6524 0.333008 134.29 0.333008H534.29C607.927 0.333008 667.624 60.0283 667.624 133.666V533.666C667.624 607.303 607.927 667 534.29 667H134.29C60.6524 667 0.957031 607.303 0.957031 533.666V133.666ZM134.29 66.9997C97.4714 66.9997 67.6237 96.8473 67.6237 133.666V533.666C67.6237 570.486 97.4714 600.333 134.29 600.333H534.29C571.11 600.333 600.957 570.486 600.957 533.666V133.666C600.957 96.8473 571.11 66.9997 534.29 66.9997H134.29ZM334.29 233.666C279.06 233.666 234.29 278.436 234.29 333.666C234.29 388.896 279.06 433.666 334.29 433.666C389.52 433.666 434.29 388.896 434.29 333.666C434.29 278.436 389.52 233.666 334.29 233.666ZM167.624 333.666C167.624 241.619 242.243 167 334.29 167C426.337 167 500.957 241.619 500.957 333.666C500.957 425.713 426.337 500.333 334.29 500.333C242.243 500.333 167.624 425.713 167.624 333.666ZM517.624 200.333C545.237 200.333 567.624 177.947 567.624 150.333C567.624 122.719 545.237 100.333 517.624 100.333C490.01 100.333 467.624 122.719 467.624 150.333C467.624 177.947 490.01 200.333 517.624 200.333Z" fill="white"/>
</svg>
