<svg width="601" height="661" viewBox="0 0 601 661" fill="none" xmlns="http://www.w3.org/2000/svg">
<path d="M283.999 231.077L233.999 331.077H367.332L317.332 431.077M567.332 331.077C567.332 479.78 385.332 587.537 322.046 620.51C315.202 624.077 311.779 625.86 307.032 626.783C303.332 627.503 297.999 627.503 294.299 626.783C289.552 625.86 286.129 624.077 279.286 620.51C215.998 587.537 33.999 479.78 33.999 331.077V204.997C33.999 178.347 33.999 165.022 38.3577 153.567C42.208 143.449 48.465 134.42 56.5877 127.261C65.7824 119.158 78.259 114.48 103.212 105.122L281.939 38.0996C288.869 35.5009 292.332 34.2016 295.899 33.6862C299.059 33.2296 302.272 33.2296 305.432 33.6862C308.999 34.2016 312.462 35.5009 319.392 38.0996L498.119 105.122C523.072 114.48 535.549 119.158 544.742 127.261C552.866 134.42 559.122 143.449 562.972 153.567C567.332 165.022 567.332 178.347 567.332 204.997V331.077Z" stroke="white" stroke-width="66.6667" stroke-linecap="round" stroke-linejoin="round"/>
</svg>
