<svg width="669" height="567" viewBox="0 0 669 567" fill="none" xmlns="http://www.w3.org/2000/svg">
<path fill-rule="evenodd" clip-rule="evenodd" d="M440.055 182.69L464.338 196.711C483.78 207.936 490.443 232.794 479.218 252.236L349.543 476.836C327.601 514.844 279.001 527.865 241.001 505.923C202.992 483.977 189.968 435.382 211.913 397.373L214.813 392.348L171.513 367.348L168.609 372.373C132.859 434.294 154.076 513.473 215.997 549.223C277.917 584.973 357.097 563.757 392.847 501.836L522.517 277.236C547.551 233.882 532.693 178.444 489.338 153.411L466.667 140.323L440.055 182.69Z" fill="white"/>
<path d="M282.214 225.611C300.339 194.215 289.58 154.069 258.184 135.936L199.439 102.019C171.684 85.9941 136.189 95.5066 120.164 123.265L44.7178 253.936C4.65525 323.332 28.4302 412.065 97.8261 452.127L228.497 527.573C178.534 498.727 161.414 434.84 190.264 384.873L282.214 225.611Z" stroke="white" stroke-width="50"/>
<path fill-rule="evenodd" clip-rule="evenodd" d="M472.772 23.2273C391.422 -23.7436 287.397 4.13143 240.434 85.4814L220.847 119.406L264.147 144.406L283.73 110.481C316.897 53.0439 390.339 33.3648 447.772 66.5231L489.926 90.8648C463.247 101.675 440.955 121.105 426.601 146.056L299.83 365.631C288.605 385.073 263.747 391.731 244.305 380.506L204.405 357.473L191.905 379.123L179.405 400.773L219.305 423.811C262.659 448.84 318.097 433.986 343.13 390.631L469.901 171.056C491.843 133.052 540.443 120.027 578.447 141.973L603.447 98.6689L472.772 23.2273Z" fill="white"/>
<path fill-rule="evenodd" clip-rule="evenodd" d="M313.88 391.294L292.226 378.794L304.726 357.144L426.601 146.06C462.351 84.1354 541.526 62.9229 603.446 98.6687C665.367 134.419 686.584 213.598 650.834 275.519L557.98 436.348C535.051 476.06 484.267 489.669 444.551 466.739L394.292 437.723L419.292 394.423L469.551 423.439C473.307 425.609 477.455 427.016 481.756 427.583C486.057 428.149 490.427 427.862 494.617 426.74C498.808 425.617 502.736 423.68 506.177 421.039C509.619 418.398 512.507 415.105 514.676 411.348L607.534 250.515C629.476 212.515 616.455 163.915 578.446 141.973C540.442 120.031 491.842 133.052 469.901 171.056L369.792 344.452L348.142 331.952L313.88 391.294Z" fill="white"/>
</svg>
