<svg width="534" height="667" viewBox="0 0 534 667" fill="none" xmlns="http://www.w3.org/2000/svg">
<path d="M33.6665 233.333H500.333M367 533.333V433.333M167 533.333H167.333M267 533.333H267.333M267 433.333H267.333M167 433.333H167.333M367 333.333H367.333M267 333.333H267.333M167 333.333H167.333M140.333 633.333H393.666C431.003 633.333 449.673 633.333 463.933 626.067C476.477 619.677 486.676 609.477 493.066 596.934C500.333 582.674 500.333 564.003 500.333 526.667V140C500.333 102.663 500.333 83.9948 493.066 69.7342C486.676 57.1898 476.477 46.9912 463.933 40.5998C449.673 33.3335 431.003 33.3335 393.666 33.3335H140.333C102.996 33.3335 84.3278 33.3335 70.0672 40.5998C57.5228 46.9912 47.3242 57.1898 40.9328 69.7342C33.6665 83.9948 33.6665 102.663 33.6665 140V526.667C33.6665 564.003 33.6665 582.674 40.9328 596.934C47.3242 609.477 57.5228 619.677 70.0672 626.067C84.3278 633.333 102.996 633.333 140.333 633.333Z" stroke="white" stroke-width="66.6667" stroke-linecap="round" stroke-linejoin="round"/>
</svg>
