<svg width="601" height="661" viewBox="0 0 601 661" fill="none" xmlns="http://www.w3.org/2000/svg">
<path d="M283.666 231.077L233.666 331.077H366.999L316.999 431.077M566.999 331.077C566.999 479.78 384.999 587.537 321.713 620.51C314.869 624.077 311.446 625.86 306.699 626.783C302.999 627.503 297.666 627.503 293.966 626.783C289.219 625.86 285.796 624.077 278.953 620.51C215.665 587.537 33.666 479.78 33.666 331.077V204.997C33.666 178.347 33.666 165.022 38.0247 153.567C41.875 143.449 48.132 134.42 56.2547 127.261C65.4493 119.158 77.926 114.48 102.879 105.122L281.606 38.0996C288.536 35.5009 291.999 34.2016 295.566 33.6862C298.726 33.2296 301.939 33.2296 305.099 33.6862C308.666 34.2016 312.129 35.5009 319.059 38.0996L497.786 105.122C522.739 114.48 535.216 119.158 544.409 127.261C552.533 134.42 558.789 143.449 562.639 153.567C566.999 165.022 566.999 178.347 566.999 204.997V331.077Z" stroke="white" stroke-width="66.6667" stroke-linecap="round" stroke-linejoin="round"/>
</svg>
