<svg width="601" height="600" viewBox="0 0 601 600" fill="none" xmlns="http://www.w3.org/2000/svg">
<path d="M167.333 433.333V266.667M300.667 433.333V166.667M434 433.333V333.333M34 460V140C34 102.663 34 83.9948 41.2663 69.7342C47.6577 57.1902 57.8563 46.9912 70.4007 40.5998C84.6613 33.3335 103.33 33.3335 140.667 33.3335H460.667C498.003 33.3335 516.673 33.3335 530.933 40.5998C543.477 46.9912 553.677 57.1902 560.067 69.7342C567.333 83.9948 567.333 102.663 567.333 140V460C567.333 497.337 567.333 516.007 560.067 530.267C553.677 542.81 543.477 553.01 530.933 559.4C516.673 566.667 498.003 566.667 460.667 566.667H140.667C103.33 566.667 84.6613 566.667 70.4007 559.4C57.8563 553.01 47.6577 542.81 41.2663 530.267C34 516.007 34 497.337 34 460Z" stroke="white" stroke-width="66.6667" stroke-linecap="round" stroke-linejoin="round"/>
</svg>
