<svg width="601" height="667" viewBox="0 0 601 667" fill="none" xmlns="http://www.w3.org/2000/svg">
<path d="M200.91 33.6665V167M400.91 33.6665V133.667M34.2432 267H567.576M300.91 633.666C242.033 633.666 198.097 579.456 210.287 521.857L212.354 512.093C219.602 477.846 202.372 443.107 170.723 428.153L100.566 395.003C60.0722 375.87 34.2432 335.1 34.2432 290.313V88.0495C34.2432 58.0145 58.5912 33.6665 88.6262 33.6665H513.193C543.23 33.6665 567.576 58.0145 567.576 88.0495V290.313C567.576 335.1 541.746 375.87 501.253 395.003L431.096 428.153C399.446 443.107 382.216 477.846 389.466 512.093L391.533 521.857C403.723 579.456 359.786 633.666 300.91 633.666Z" stroke="white" stroke-width="66.6667" stroke-linecap="round" stroke-linejoin="round"/>
</svg>
