<svg width="801" height="601" viewBox="0 0 801 601" fill="none" xmlns="http://www.w3.org/2000/svg">
<path fill-rule="evenodd" clip-rule="evenodd" d="M32.7875 69.3688C0.957031 113.18 0.957031 175.675 0.957031 300.667C0.957031 425.656 0.957031 488.153 32.7875 531.963C43.0674 546.113 55.5104 558.556 69.6594 568.836C113.47 600.666 175.966 600.667 300.957 600.667H500.957C625.947 600.667 688.444 600.666 732.254 568.836C746.404 558.556 758.847 546.113 769.127 531.963C800.957 488.153 800.957 425.656 800.957 300.667C800.957 175.675 800.957 113.18 769.127 69.3688C758.847 55.2198 746.404 42.7768 732.254 32.4968C688.444 0.666506 625.947 0.666504 500.957 0.666504H300.957C175.966 0.666504 113.47 0.666506 69.6594 32.4968C55.5104 42.7768 43.0674 55.2198 32.7875 69.3688ZM500.957 67.3332H300.957C236.976 67.3332 194.346 67.4248 162.047 70.9242C130.995 74.2885 117.492 80.1492 108.845 86.4315C100.356 92.5995 92.89 100.065 86.722 108.554C80.4397 117.201 74.579 130.704 71.2147 161.756C67.7154 194.055 67.6237 236.686 67.6237 300.667C67.6237 364.646 67.7154 407.276 71.2147 439.576C74.579 470.63 80.4397 484.133 86.722 492.78C92.89 501.266 100.356 508.733 108.845 514.903C117.492 521.183 130.995 527.043 162.047 530.41C194.346 533.91 236.976 534 300.957 534H500.957C564.937 534 607.567 533.91 639.867 530.41C670.92 527.043 684.424 521.183 693.07 514.903C701.557 508.733 709.024 501.266 715.194 492.78C721.474 484.133 727.334 470.63 730.7 439.576C734.2 407.276 734.29 364.646 734.29 300.667C734.29 236.686 734.2 194.055 730.7 161.756C727.334 130.704 721.474 117.201 715.194 108.554C709.024 100.065 701.557 92.5995 693.07 86.4315C684.424 80.1492 670.92 74.2885 639.867 70.9242C607.567 67.4248 564.937 67.3332 500.957 67.3332ZM284.226 138.502C294.503 132.538 307.178 132.496 317.495 138.391L550.827 271.726C561.214 277.659 567.624 288.703 567.624 300.666C567.624 312.629 561.214 323.673 550.827 329.606L317.495 462.939C307.178 468.836 294.503 468.793 284.226 462.829C273.949 456.866 267.624 445.883 267.624 433.999V167.333C267.624 155.45 273.949 144.466 284.226 138.502ZM334.29 376.559L467.104 300.666L334.29 224.772V376.559Z" fill="white"/>
</svg>
