<svg width="667" height="667" viewBox="0 0 667 667" fill="none" xmlns="http://www.w3.org/2000/svg">
<path d="M33.3333 233.333H633.333M166.667 33.3335V100M500 33.3335V100M133.333 366.667H200M133.333 500H200M300 366.667H366.667M300 500H366.667M466.667 366.667H533.333M466.667 500H533.333M140 633.333H526.667C564.003 633.333 582.673 633.333 596.933 626.067C609.477 619.677 619.677 609.477 626.067 596.934C633.333 582.674 633.333 564.003 633.333 526.667V206.667C633.333 169.33 633.333 150.661 626.067 136.401C619.677 123.856 609.477 113.658 596.933 107.266C582.673 100 564.003 100 526.667 100H140C102.663 100 83.9946 100 69.7339 107.266C57.1896 113.658 46.9909 123.856 40.5996 136.401C33.3332 150.661 33.3333 169.33 33.3333 206.667V526.667C33.3333 564.003 33.3332 582.674 40.5996 596.934C46.9909 609.477 57.1896 619.677 69.7339 626.067C83.9946 633.333 102.663 633.333 140 633.333Z" stroke="white" stroke-width="66.6667" stroke-linecap="round" stroke-linejoin="round"/>
</svg>
