<svg width="667" height="667" viewBox="0 0 667 667" fill="none" xmlns="http://www.w3.org/2000/svg">
<path fill-rule="evenodd" clip-rule="evenodd" d="M333.49 0.333008C149.394 0.333008 0.15625 149.571 0.15625 333.666C0.15625 388.333 13.3354 439.987 36.7021 485.562L0.835417 636.208C-0.151554 640.361 -0.0588406 644.698 1.10473 648.806C2.26829 652.913 4.46397 656.655 7.48268 659.673C10.5014 662.692 14.2426 664.888 18.3501 666.051C22.4575 667.215 26.7945 667.307 30.9479 666.321L181.594 630.454C227.169 653.82 278.823 667 333.49 667C517.585 667 666.823 517.762 666.823 333.666C666.823 149.571 517.585 0.333008 333.49 0.333008ZM50.1562 333.666C50.1562 177.187 177.01 50.333 333.49 50.333C489.969 50.333 616.823 177.187 616.823 333.666C616.823 490.145 489.969 617 333.49 617C283.973 617 237.49 604.32 197.044 582.045C191.601 579.05 185.238 578.187 179.194 579.625L58.8854 608.27L87.5313 487.962C88.97 481.918 88.107 475.555 85.1104 470.112C62.8354 429.662 50.1562 383.183 50.1562 333.666ZM241.919 425.237C291.815 475.129 358.344 508.6 432.556 516.566C481.623 521.829 516.823 481.404 516.823 439.412V410.262C516.823 393.276 511.347 376.742 501.208 363.114C491.068 349.485 476.805 339.489 460.535 334.608L458.215 333.912L455.84 333.445L422.415 326.862C411.666 324.08 400.452 323.595 389.503 325.439C378.554 327.282 368.117 331.413 358.873 337.562C347.993 328.991 338.165 319.163 329.594 308.283C335.745 299.038 339.877 288.599 341.721 277.649C343.566 266.699 343.081 255.483 340.298 244.733L333.706 211.312L333.24 208.937L332.544 206.616C327.663 190.348 317.668 176.087 304.041 165.948C290.415 155.809 273.883 150.333 256.898 150.333H227.74C185.752 150.333 145.323 185.525 150.585 234.595C158.552 308.804 192.019 375.341 241.919 425.237ZM382.135 382.825C385.836 379.125 390.468 376.497 395.542 375.218C400.615 373.94 405.941 374.059 410.952 375.562L446.173 382.5C452.142 384.292 457.375 387.961 461.094 392.962C464.814 397.963 466.823 404.03 466.823 410.262V439.412C466.823 455.416 453.806 468.558 437.894 466.85C398.136 462.602 359.846 449.454 325.865 428.383C308.24 417.463 291.936 404.542 277.277 389.879C262.614 375.22 249.693 358.916 238.773 341.291C217.703 307.308 204.556 269.017 200.306 229.258C198.598 213.346 211.74 200.333 227.74 200.333H256.894C263.125 200.335 269.19 202.345 274.189 206.065C279.187 209.786 282.854 215.019 284.644 220.987L291.59 256.2C293.094 261.212 293.213 266.538 291.934 271.612C290.655 276.686 288.027 281.32 284.327 285.02L279.66 289.687C276.572 292.762 274.351 296.599 273.223 300.808C271.673 306.654 272.373 312.979 275.735 318.404C284.886 333.181 295.715 346.851 308.006 359.141C320.297 371.435 333.968 382.265 348.748 391.416C354.173 394.775 360.494 395.479 366.344 393.929C370.553 392.799 374.389 390.579 377.465 387.491L382.135 382.825Z" fill="white"/>
</svg>
