<svg width="600" height="600" viewBox="0 0 600 600" fill="none" xmlns="http://www.w3.org/2000/svg">
<path d="M500 200V140C500 102.663 500 83.9943 492.733 69.7337C486.343 57.1893 476.144 46.9907 463.6 40.5993C449.34 33.333 430.67 33.333 393.333 33.333H140C102.663 33.333 83.9948 33.333 69.7342 40.5993C57.1898 46.9907 46.9912 57.1893 40.5998 69.7337C33.3335 83.9943 33.3335 102.663 33.3335 140V500L166.667 433.333M566.667 566.666L493.54 517.913C483.55 511.256 478.557 507.926 473.153 505.566C468.357 503.473 463.333 501.953 458.18 501.033C452.377 500 446.373 500 434.37 500H273.333C235.997 500 217.328 500 203.067 492.733C190.523 486.343 180.324 476.143 173.933 463.6C166.667 449.34 166.667 430.67 166.667 393.333V306.666C166.667 269.33 166.667 250.66 173.933 236.4C180.324 223.856 190.523 213.657 203.067 207.266C217.328 200 235.997 200 273.333 200H460C497.337 200 516.007 200 530.267 207.266C542.81 213.657 553.01 223.856 559.4 236.4C566.667 250.66 566.667 269.33 566.667 306.666V566.666Z" stroke="white" stroke-width="66.6667" stroke-linecap="round" stroke-linejoin="round"/>
</svg>
