<svg width="651" height="651" viewBox="0 0 651 651" fill="none" xmlns="http://www.w3.org/2000/svg">
<path d="M325.334 325.5V25.5C408.179 25.5 475.334 92.6595 475.334 175.5C475.334 258.341 408.179 325.5 325.334 325.5ZM325.334 325.5V625.5C242.493 625.5 175.334 558.345 175.334 475.5C175.334 392.655 242.493 325.5 325.334 325.5ZM325.334 325.5H625.334C625.334 408.345 558.179 475.5 475.334 475.5C392.489 475.5 325.334 408.345 325.334 325.5ZM325.334 325.5H25.334C25.334 242.659 92.4934 175.5 175.334 175.5C258.175 175.5 325.334 242.659 325.334 325.5Z" stroke="white" stroke-width="50" stroke-linejoin="round"/>
</svg>
