<svg width="667" height="600" viewBox="0 0 667 600" fill="none" xmlns="http://www.w3.org/2000/svg">
<path d="M333.333 433.333C388.563 433.333 433.333 388.563 433.333 333.333C433.333 278.103 388.563 233.333 333.333 233.333C278.103 233.333 233.333 278.103 233.333 333.333C233.333 388.563 278.103 433.333 333.333 433.333Z" stroke="white" stroke-width="66.6667" stroke-linecap="round" stroke-linejoin="round"/>
<path d="M33.333 460V206.667C33.333 169.33 33.333 150.661 40.5993 136.401C46.9907 123.856 57.1893 113.658 69.7337 107.266C83.9943 100 102.663 100 140 100H175.154C179.252 100 181.301 100 183.192 99.7835C193.055 98.6538 201.901 93.1865 207.323 84.8698C208.362 83.2758 209.278 81.4428 211.111 77.7778C214.776 70.4475 216.609 66.7822 218.687 63.5942C229.53 46.9608 247.222 36.0262 266.95 33.7665C270.73 33.3335 274.826 33.3335 283.023 33.3335H383.643C391.84 33.3335 395.936 33.3335 399.716 33.7665C419.443 36.0262 437.136 46.9608 447.98 63.5942C450.056 66.7818 451.89 70.4485 455.556 77.7778C457.386 81.4432 458.303 83.2758 459.343 84.8698C464.766 93.1865 473.61 98.6538 483.473 99.7835C485.366 100 487.413 100 491.513 100H526.666C564.003 100 582.673 100 596.933 107.266C609.476 113.658 619.676 123.856 626.066 136.401C633.333 150.661 633.333 169.33 633.333 206.667V460C633.333 497.337 633.333 516.007 626.066 530.267C619.676 542.81 609.476 553.01 596.933 559.4C582.673 566.667 564.003 566.667 526.666 566.667H140C102.663 566.667 83.9943 566.667 69.7337 559.4C57.1893 553.01 46.9907 542.81 40.5993 530.267C33.333 516.007 33.333 497.337 33.333 460Z" stroke="white" stroke-width="66.6667" stroke-linecap="round" stroke-linejoin="round"/>
</svg>
