<svg width="601" height="601" viewBox="0 0 601 601" fill="none" xmlns="http://www.w3.org/2000/svg">
<path fill-rule="evenodd" clip-rule="evenodd" d="M113.016 146.678L169.438 244.484C191.26 193.517 241.872 157.809 300.823 157.809C300.843 157.809 300.866 157.809 300.886 157.809L497.28 157.856C453.103 97.1896 381.543 57.8094 300.823 57.8094C225.172 57.8094 157.593 92.3768 113.016 146.678ZM528.152 215.006L415.14 214.979C433.06 238.851 443.68 268.518 443.68 300.667C443.68 326.655 436.715 351.104 424.529 372.152C424.523 372.164 424.518 372.172 424.512 372.184L326.449 542.186C448.529 529.384 543.68 426.138 543.68 300.667C543.68 270.472 538.183 241.617 528.152 215.006ZM261.532 540.366L317.983 442.504C312.358 443.178 306.632 443.524 300.823 443.524C247.935 443.524 201.797 414.769 177.131 372.178C177.054 372.044 176.977 371.912 176.901 371.778L78.8912 201.88C65.4412 232.046 57.9661 265.464 57.9661 300.667C57.9661 421.412 146.102 521.598 261.532 540.366ZM226.59 343.558C241.462 369.221 269.155 386.381 300.823 386.381C332.498 386.381 360.195 369.215 375.063 343.544C382.355 330.955 386.538 316.344 386.538 300.667C386.538 253.344 348.186 214.978 300.869 214.952C300.855 214.952 300.838 214.952 300.823 214.952C253.486 214.956 215.109 253.329 215.109 300.667C215.109 316.229 219.231 330.744 226.424 343.269C226.476 343.361 226.538 343.466 226.59 343.558C226.587 343.552 226.594 343.564 226.59 343.558ZM55.4264 128.057C109.675 51.0611 199.362 0.666504 300.823 0.666504C421.452 0.666504 525.392 71.8622 573.029 174.402C590.875 212.816 600.823 255.618 600.823 300.667C600.823 466.352 466.509 600.666 300.823 600.666C291.9 600.666 283.063 600.275 274.323 599.509C121.036 586.078 0.823242 457.426 0.823242 300.667C0.823242 236.456 21.0287 176.879 55.4264 128.057Z" fill="white"/>
</svg>
