<svg width="601" height="600" viewBox="0 0 601 600" fill="none" xmlns="http://www.w3.org/2000/svg">
<path d="M33.6665 300H33.9998M167 300H167.333M433.666 300H434M300.333 300H300.667M567 300H567.333M183.666 33.333H140.333C102.996 33.333 84.3278 33.333 70.0672 40.5993C57.5228 46.9907 47.3242 57.1893 40.9328 69.7337C33.6665 83.9943 33.6665 102.663 33.6665 140V183.333M417 33.333H460.333C497.67 33.333 516.34 33.333 530.6 40.5993C543.143 46.9907 553.343 57.1893 559.733 69.7337C567 83.9943 567 102.663 567 140V183.333M567 416.666V460C567 497.336 567 516.006 559.733 530.266C553.343 542.81 543.143 553.01 530.6 559.4C516.34 566.666 497.67 566.666 460.333 566.666H417M33.6665 416.666V460C33.6665 497.336 33.6665 516.006 40.9328 530.266C47.3242 542.81 57.5228 553.01 70.0672 559.4C84.3278 566.666 102.996 566.666 140.333 566.666H183.666" stroke="white" stroke-width="66.6667" stroke-linecap="round" stroke-linejoin="round"/>
</svg>
