<svg width="668" height="534" viewBox="0 0 668 534" fill="none" xmlns="http://www.w3.org/2000/svg">
<path d="M234.243 300H434.243M336.333 68.7577L332.153 64.575C320.623 53.0447 314.857 47.2797 308.13 43.157C302.163 39.5017 295.66 36.808 288.86 35.175C281.186 33.333 273.033 33.333 256.727 33.333H140.91C103.573 33.333 84.9045 33.333 70.6438 40.5993C58.0995 46.9907 47.9008 57.1893 41.5095 69.7337C34.2432 83.9943 34.2432 102.663 34.2432 140V393.333C34.2432 430.67 34.2432 449.34 41.5095 463.6C47.9008 476.143 58.0995 486.343 70.6438 492.733C84.9045 500 103.573 500 140.91 500H527.576C564.913 500 583.583 500 597.843 492.733C610.387 486.343 620.586 476.143 626.976 463.6C634.243 449.34 634.243 430.67 634.243 393.333V206.666C634.243 169.33 634.243 150.661 626.976 136.4C620.586 123.856 610.387 113.657 597.843 107.266C583.583 99.9997 564.913 99.9997 527.576 99.9997H411.76C395.453 99.9997 387.3 99.9997 379.626 98.1577C372.826 96.5247 366.323 93.831 360.356 90.1757C353.63 86.053 347.863 80.288 336.333 68.7577Z" stroke="white" stroke-width="66.6667" stroke-linecap="round" stroke-linejoin="round"/>
</svg>
