<svg width="601" height="601" viewBox="0 0 601 601" fill="none" xmlns="http://www.w3.org/2000/svg">
<path d="M33.5767 134C33.5767 78.7712 78.3483 33.9995 133.577 33.9995C188.805 33.9995 233.577 78.7712 233.577 134C233.577 189.228 188.805 234 133.577 234C78.3483 234 33.5767 189.228 33.5767 134Z" stroke="white" stroke-width="66.6667" stroke-linecap="round" stroke-linejoin="round"/>
<path d="M366.91 134C366.91 78.7712 411.68 33.9995 466.91 33.9995C522.14 33.9995 566.91 78.7712 566.91 134C566.91 189.228 522.14 234 466.91 234C411.68 234 366.91 189.228 366.91 134Z" stroke="white" stroke-width="66.6667" stroke-linecap="round" stroke-linejoin="round"/>
<path d="M366.91 467.333C366.91 412.103 411.68 367.333 466.91 367.333C522.14 367.333 566.91 412.103 566.91 467.333C566.91 522.563 522.14 567.333 466.91 567.333C411.68 567.333 366.91 522.563 366.91 467.333Z" stroke="white" stroke-width="66.6667" stroke-linecap="round" stroke-linejoin="round"/>
<path d="M33.5767 467.333C33.5767 412.103 78.3483 367.333 133.577 367.333C188.805 367.333 233.577 412.103 233.577 467.333C233.577 522.563 188.805 567.333 133.577 567.333C78.3483 567.333 33.5767 522.563 33.5767 467.333Z" stroke="white" stroke-width="66.6667" stroke-linecap="round" stroke-linejoin="round"/>
</svg>
