<svg width="601" height="600" viewBox="0 0 601 600" fill="none" xmlns="http://www.w3.org/2000/svg">
<path d="M500.667 200V140C500.667 102.663 500.667 83.9943 493.4 69.7337C487.01 57.1893 476.81 46.9907 464.267 40.5993C450.007 33.333 431.337 33.333 394 33.333H140.667C103.33 33.333 84.6613 33.333 70.4007 40.5993C57.8563 46.9907 47.6577 57.1893 41.2663 69.7337C34 83.9943 34 102.663 34 140V500L167.333 433.333M567.333 566.666L494.207 517.913C484.217 511.256 479.223 507.926 473.82 505.566C469.023 503.473 464 501.953 458.847 501.033C453.043 500 447.04 500 435.037 500H274C236.663 500 217.995 500 203.734 492.733C191.19 486.343 180.991 476.143 174.6 463.6C167.333 449.34 167.333 430.67 167.333 393.333V306.666C167.333 269.33 167.333 250.66 174.6 236.4C180.991 223.856 191.19 213.657 203.734 207.266C217.995 200 236.663 200 274 200H460.667C498.003 200 516.673 200 530.933 207.266C543.477 213.657 553.677 223.856 560.067 236.4C567.333 250.66 567.333 269.33 567.333 306.666V566.666Z" stroke="white" stroke-width="66.6667" stroke-linecap="round" stroke-linejoin="round"/>
</svg>
