<svg width="668" height="600" viewBox="0 0 668 600" fill="none" xmlns="http://www.w3.org/2000/svg">
<path d="M367.333 566.666V500C367.333 407.953 292.713 333.333 200.667 333.333C108.619 333.333 34 407.953 34 500V566.666H367.333ZM367.333 566.666H634V533.333C634 435.15 559.38 366.666 467.333 366.666C420.223 366.666 377.677 387.516 347.363 421.036M300.667 133.333C300.667 188.561 255.895 233.333 200.667 233.333C145.438 233.333 100.667 188.561 100.667 133.333C100.667 78.1047 145.438 33.333 200.667 33.333C255.895 33.333 300.667 78.1047 300.667 133.333ZM534 200C534 236.82 504.153 266.666 467.333 266.666C430.513 266.666 400.667 236.82 400.667 200C400.667 163.181 430.513 133.333 467.333 133.333C504.153 133.333 534 163.181 534 200Z" stroke="white" stroke-width="66.6667" stroke-linecap="round" stroke-linejoin="round"/>
</svg>
