<svg width="667" height="668" viewBox="0 0 667 668" fill="none" xmlns="http://www.w3.org/2000/svg">
<path d="M233.333 567.333C233.333 604.153 188.561 634 133.333 634C78.1047 634 33.333 604.153 33.333 567.333C33.333 530.513 78.1047 500.667 133.333 500.667C188.561 500.667 233.333 530.513 233.333 567.333ZM233.333 567.333V100.667L633.333 34V500.667M633.333 500.667C633.333 537.487 588.563 567.333 533.333 567.333C478.103 567.333 433.333 537.487 433.333 500.667C433.333 463.847 478.103 434 533.333 434C588.563 434 633.333 463.847 633.333 500.667ZM233.333 234L633.333 167.333" stroke="white" stroke-width="66.6667" stroke-linecap="round" stroke-linejoin="round"/>
</svg>
