<svg width="667" height="666" viewBox="0 0 667 666" fill="none" xmlns="http://www.w3.org/2000/svg">
<path d="M333.333 498.577H333.666M200 316.17C235.383 284.5 282.11 265.243 333.333 265.243C384.556 265.243 431.283 284.5 466.666 316.17M266.666 407.373C284.36 391.54 307.72 381.91 333.333 381.91C358.946 381.91 382.306 391.54 400 407.373M33.333 418.543V336.213C33.333 297.923 33.333 278.777 38.268 261.146C42.6397 245.529 49.824 230.839 59.468 217.8C70.3553 203.08 85.4677 191.326 115.692 167.818L202.359 100.411C249.202 63.9771 272.623 45.7601 298.486 38.7578C321.306 32.5788 345.36 32.5788 368.18 38.7578C394.043 45.7601 417.463 63.9771 464.306 100.411L550.973 167.818C581.2 191.326 596.31 203.08 607.196 217.8C616.843 230.839 624.026 245.529 628.396 261.146C633.333 278.777 633.333 297.923 633.333 336.213V418.543C633.333 493.217 633.333 530.553 618.8 559.073C606.016 584.163 585.62 604.56 560.533 617.343C532.01 631.877 494.673 631.877 420 631.877H246.666C171.993 631.877 134.656 631.877 106.134 617.343C81.046 604.56 60.6487 584.163 47.8653 559.073C33.333 530.553 33.333 493.217 33.333 418.543Z" stroke="white" stroke-width="66.6667" stroke-linecap="round" stroke-linejoin="round"/>
</svg>
