<svg width="576" height="601" viewBox="0 0 576 601" fill="none" xmlns="http://www.w3.org/2000/svg">
<path fill-rule="evenodd" clip-rule="evenodd" d="M0.333984 58.5705C0.333984 14.9314 46.7175 -13.072 85.3345 7.25277L545 249.182C586.31 270.923 586.31 330.075 545 351.818L85.3348 593.747C46.7178 614.073 0.333984 586.069 0.333984 542.43V58.5705ZM517.991 300.499L414.05 245.793L354.786 300.499L414.05 355.205L517.991 300.499ZM359.599 383.864L312.037 339.959L138.29 500.343L359.599 383.864ZM312.037 261.039L359.599 217.136L138.29 100.657L312.037 261.039ZM58.3253 105.764L269.289 300.499L58.3253 495.234V105.764Z" fill="white"/>
</svg>
