<svg width="456" height="667" viewBox="0 0 456 667" fill="none" xmlns="http://www.w3.org/2000/svg">
<path d="M228.268 167V233.666M406.021 467.37L422.015 227.46C422.248 223.954 422.365 222.201 422.441 220.547C424.965 166.571 401.161 114.721 358.585 81.4471C357.281 80.4274 355.875 79.3734 353.065 77.2654C348.495 73.8367 346.208 72.1224 344.111 70.6318C274.745 21.3448 181.788 21.3448 112.423 70.6318C110.325 72.1224 108.04 73.8367 103.468 77.2654C100.657 79.3734 99.2518 80.4274 97.9471 81.4471C55.3714 114.721 31.5694 166.571 34.0918 220.547C34.1691 222.201 34.2858 223.954 34.5194 227.46L50.5134 467.37C56.7521 560.95 134.478 633.666 228.268 633.666C322.055 633.666 399.781 560.95 406.021 467.37Z" stroke="white" stroke-width="66.6667" stroke-linecap="round"/>
</svg>
