<svg width="534" height="667" viewBox="0 0 534 667" fill="none" xmlns="http://www.w3.org/2000/svg">
<path d="M166.666 33.3335V100M266.666 33.3335V100M366.666 33.3335V100M300 233.333H166.666M366.666 366.667H166.666M140 633.333H393.333C430.67 633.333 449.34 633.333 463.6 626.067C476.143 619.677 486.343 609.477 492.733 596.934C500 582.674 500 564.003 500 526.667V173.333C500 135.997 500 117.328 492.733 103.067C486.343 90.5232 476.143 80.3245 463.6 73.9332C449.34 66.6668 430.67 66.6668 393.333 66.6668H140C102.663 66.6668 83.9943 66.6668 69.7337 73.9332C57.1893 80.3245 46.9907 90.5232 40.5993 103.067C33.333 117.328 33.333 135.996 33.333 173.333V526.667C33.333 564.003 33.333 582.674 40.5993 596.934C46.9907 609.477 57.1893 619.677 69.7337 626.067C83.9943 633.333 102.663 633.333 140 633.333Z" stroke="white" stroke-width="66.6667" stroke-linecap="round" stroke-linejoin="round"/>
</svg>
