<svg width="667" height="534" viewBox="0 0 667 534" fill="none" xmlns="http://www.w3.org/2000/svg">
<path d="M33.333 140.333C33.333 102.996 33.333 84.3278 40.5993 70.0672C46.9907 57.5228 57.1893 47.3242 69.7337 40.9328C83.9943 33.6665 102.663 33.6665 140 33.6665H255.817C272.123 33.6665 280.276 33.6665 287.95 35.5085C294.75 37.1415 301.253 39.8352 307.22 43.4905C313.946 47.6132 319.713 53.3782 331.243 64.9085L335.423 69.0912C346.953 80.6215 352.72 86.3865 359.446 90.5092C365.413 94.1645 371.916 96.8582 378.716 98.4912C386.39 100.333 394.543 100.333 410.85 100.333H526.666C564.003 100.333 582.673 100.333 596.933 107.599C609.476 113.991 619.676 124.19 626.066 136.734C633.333 150.995 633.333 169.663 633.333 207V393.666C633.333 431.003 633.333 449.673 626.066 463.933C619.676 476.477 609.476 486.676 596.933 493.066C582.673 500.333 564.003 500.333 526.666 500.333H140C102.663 500.333 83.9943 500.333 69.7337 493.066C57.1893 486.676 46.9907 476.477 40.5993 463.933C33.333 449.673 33.333 431.003 33.333 393.666V140.333Z" stroke="white" stroke-width="66.6667" stroke-linecap="round" stroke-linejoin="round"/>
</svg>
