<svg width="668" height="600" viewBox="0 0 668 600" fill="none" xmlns="http://www.w3.org/2000/svg">
<path d="M500.667 466.666H501M514 366.666H534C565.063 366.666 580.593 366.666 592.847 371.74C609.18 378.506 622.16 391.486 628.927 407.82C634 420.073 634 435.603 634 466.666C634 497.73 634 513.26 628.927 525.513C622.16 541.846 609.18 554.826 592.847 561.593C580.593 566.666 565.063 566.666 534 566.666H134C102.937 566.666 87.406 566.666 75.1543 561.593C58.8193 554.826 45.841 541.846 39.0747 525.513C34 513.26 34 497.73 34 466.666C34 435.603 34 420.073 39.0747 407.82C45.841 391.486 58.8193 378.506 75.1543 371.74C87.406 366.666 102.937 366.666 134 366.666H154M334 400V33.333M334 400L234 300M334 400L434 300" stroke="white" stroke-width="66.6667" stroke-linecap="round" stroke-linejoin="round"/>
</svg>
