<svg width="600" height="668" viewBox="0 0 600 668" fill="none" xmlns="http://www.w3.org/2000/svg">
<path d="M200 300.667V134C200 78.7717 244.77 34 300 34C355.23 34 400 78.7717 400 134V299.577M246.666 634H353.333C428.006 634 465.343 634 493.866 619.467C518.953 606.683 539.35 586.287 552.133 561.2C566.666 532.677 566.666 495.34 566.666 420.667V340.667C566.666 303.33 566.666 284.66 559.4 270.4C553.01 257.856 542.81 247.658 530.266 241.266C516.006 234 497.336 234 460 234H140C102.663 234 83.9943 234 69.7337 241.266C57.1893 247.658 46.9907 257.856 40.5993 270.4C33.333 284.66 33.333 303.33 33.333 340.667V420.667C33.333 495.34 33.333 532.677 47.8653 561.2C60.6487 586.287 81.046 606.683 106.134 619.467C134.656 634 171.993 634 246.666 634Z" stroke="white" stroke-width="66.6667" stroke-linecap="round" stroke-linejoin="round"/>
</svg>
