<svg width="668" height="667" viewBox="0 0 668 667" fill="none" xmlns="http://www.w3.org/2000/svg">
<path d="M634 533.666V333.666C634 167.981 499.687 33.6665 334 33.6665C168.315 33.6665 34 167.981 34 333.666V533.666M159 633.666C135.767 633.666 124.151 633.666 114.491 631.746C74.822 623.853 43.812 592.843 35.9213 553.176C34 543.516 34 531.9 34 508.666V453.667C34 434.997 34 425.663 37.633 418.533C40.829 412.26 45.9283 407.163 52.2003 403.966C59.3307 400.333 68.665 400.333 87.3333 400.333H147.333C166.002 400.333 175.336 400.333 182.466 403.966C188.738 407.163 193.838 412.26 197.034 418.533C200.667 425.663 200.667 434.997 200.667 453.667V592C200.667 599.743 200.667 603.617 200.026 606.837C197.396 620.06 187.059 630.397 173.836 633.027C170.616 633.667 166.744 633.666 159 633.666ZM509 633.666C501.257 633.666 497.383 633.667 494.163 633.027C480.94 630.397 470.603 620.06 467.973 606.837C467.333 603.617 467.333 599.743 467.333 592V453.667C467.333 434.997 467.333 425.663 470.967 418.533C474.163 412.26 479.26 407.163 485.533 403.966C492.663 400.333 501.997 400.333 520.667 400.333H580.667C599.337 400.333 608.67 400.333 615.8 403.966C622.073 407.163 627.17 412.26 630.367 418.533C634 425.663 634 434.997 634 453.667V508.666C634 531.9 634 543.516 632.08 553.176C624.187 592.843 593.177 623.853 553.51 631.746C543.85 633.666 532.233 633.666 509 633.666Z" stroke="white" stroke-width="66.6667" stroke-linecap="round" stroke-linejoin="round"/>
</svg>
