<svg width="668" height="668" viewBox="0 0 668 668" fill="none" xmlns="http://www.w3.org/2000/svg">
<path d="M33.666 117.667C33.666 403.013 264.986 634.333 550.333 634.333C563.206 634.333 575.969 633.863 588.609 632.937C603.113 631.873 610.363 631.344 616.966 627.544C622.433 624.397 627.616 618.817 630.356 613.133C633.666 606.273 633.666 598.27 633.666 582.267V488.357C633.666 474.897 633.666 468.167 631.449 462.4C629.496 457.303 626.316 452.767 622.196 449.187C617.533 445.133 611.206 442.833 598.559 438.233L491.666 399.363C476.949 394.013 469.589 391.337 462.609 391.79C456.453 392.19 450.529 394.293 445.496 397.86C439.789 401.903 435.763 408.617 427.706 422.047L400.333 467.667C312.003 427.663 240.396 355.963 200.333 267.667L245.954 240.294C259.381 232.238 266.095 228.209 270.139 222.502C273.706 217.469 275.809 211.546 276.209 205.39C276.663 198.409 273.986 191.051 268.636 176.335L229.766 69.4405C225.166 56.7922 222.866 50.4678 218.813 45.8035C215.233 41.6832 210.696 38.5052 205.6 36.5485C199.831 34.3335 193.102 34.3335 179.643 34.3335H85.733C69.7287 34.3335 61.7263 34.3335 54.8653 37.6418C49.1827 40.3822 43.604 45.5672 40.456 51.0345C36.6554 57.6358 36.1243 64.8875 35.0623 79.3912C34.137 92.0288 33.666 104.793 33.666 117.667Z" stroke="white" stroke-width="66.6667" stroke-linecap="round" stroke-linejoin="round"/>
</svg>
