<svg width="667" height="667" viewBox="0 0 667 667" fill="none" xmlns="http://www.w3.org/2000/svg">
<path d="M233.577 367C233.577 440.636 293.273 500.333 366.91 500.333C403.73 500.333 437.063 485.41 461.19 461.28M233.577 367H100.243M233.577 367C233.577 315.266 263.039 270.416 306.1 248.309M461.19 461.28C485.32 437.153 500.243 403.82 500.243 367C500.243 330.18 485.32 296.847 461.19 272.72M461.19 461.28L576.673 576.763M100.243 367C100.243 385.41 85.3193 400.333 66.91 400.333C48.5007 400.333 33.5767 385.41 33.5767 367C33.5767 348.59 48.5007 333.666 66.91 333.666C85.3193 333.666 100.243 348.59 100.243 367ZM306.1 248.309L245.96 97.9572M306.1 248.309C324.333 238.949 345.003 233.666 366.91 233.666C403.73 233.666 437.063 248.591 461.19 272.72M576.673 157.237C570.64 151.204 566.91 142.871 566.91 133.667C566.91 115.257 581.833 100.333 600.243 100.333C618.653 100.333 633.577 115.257 633.577 133.667C633.577 152.076 618.653 167 600.243 167C591.04 167 582.707 163.269 576.673 157.237ZM576.673 157.237L461.19 272.72M245.96 97.9572C258.238 93.0418 266.91 81.0335 266.91 66.9998C266.91 48.5905 251.986 33.6665 233.577 33.6665C215.167 33.6665 200.243 48.5905 200.243 66.9998C200.243 85.4092 215.167 100.333 233.577 100.333C237.952 100.333 242.131 99.4902 245.96 97.9572ZM576.673 576.763C570.64 582.796 566.91 591.13 566.91 600.333C566.91 618.743 581.833 633.666 600.243 633.666C618.653 633.666 633.577 618.743 633.577 600.333C633.577 581.923 618.653 567 600.243 567C591.04 567 582.707 570.73 576.673 576.763Z" stroke="white" stroke-width="66.6667" stroke-linecap="round" stroke-linejoin="round"/>
</svg>
