<svg width="667" height="667" viewBox="0 0 667 667" fill="none" xmlns="http://www.w3.org/2000/svg">
<path d="M300 466.667C300 485.077 314.923 500 333.333 500C351.743 500 366.666 485.077 366.666 466.667H300ZM207.188 413.073C225.165 409.103 236.519 391.313 232.549 373.337C228.578 355.36 210.787 344.007 192.811 347.977L207.188 413.073ZM473.856 347.977C455.879 344.007 438.086 355.36 434.116 373.337C430.146 391.313 441.499 409.103 459.476 413.073L473.856 347.977ZM433.333 166.667C433.333 221.895 388.563 266.667 333.333 266.667V333.333C425.379 333.333 499.999 258.714 499.999 166.667H433.333ZM333.333 266.667C278.103 266.667 233.333 221.895 233.333 166.667H166.666C166.666 258.714 241.286 333.333 333.333 333.333V266.667ZM233.333 166.667C233.333 111.438 278.103 66.6667 333.333 66.6667V0C241.286 0 166.666 74.6193 166.666 166.667H233.333ZM333.333 66.6667C388.563 66.6667 433.333 111.438 433.333 166.667H499.999C499.999 74.6193 425.379 0 333.333 0V66.6667ZM300 300V466.667H366.666V300H300ZM599.999 500C599.999 507.563 596.689 517.277 585.609 528.92C574.369 540.733 556.526 552.887 531.926 563.82C482.813 585.647 412.629 600 333.333 600V666.667C419.723 666.667 499.536 651.17 559.003 624.74C588.693 611.543 614.783 594.97 633.903 574.877C653.186 554.617 666.666 529.257 666.666 500H599.999ZM333.333 600C254.038 600 183.852 585.647 134.739 563.82C110.14 552.887 92.2968 540.733 81.0548 528.92C69.9762 517.277 66.6662 507.563 66.6662 500H-0.000488281C-0.000488281 529.257 13.4788 554.617 32.7618 574.877C51.8812 594.97 77.9722 611.543 107.663 624.74C167.128 651.17 246.942 666.667 333.333 666.667V600ZM66.6662 500C66.6662 489.413 73.6012 473.78 98.7848 456.087C123.376 438.813 160.514 423.383 207.188 413.073L192.811 347.977C140.704 359.487 94.5088 377.617 60.4615 401.537C27.0072 425.04 -0.000488281 458.233 -0.000488281 500H66.6662ZM459.476 413.073C506.153 423.383 543.289 438.813 567.879 456.087C593.066 473.78 599.999 489.413 599.999 500H666.666C666.666 458.233 639.659 425.04 606.203 401.537C572.156 377.617 525.963 359.487 473.856 347.977L459.476 413.073Z" fill="white"/>
</svg>
