<svg width="668" height="600" viewBox="0 0 668 600" fill="none" xmlns="http://www.w3.org/2000/svg">
<path d="M567.333 33.3335H234C203.001 33.3335 187.501 33.3335 174.785 36.7408C140.276 45.9875 113.321 72.9425 104.074 107.451C100.667 120.168 100.667 136.307 100.667 167.306M100.667 167.306C111.143 166.667 124.058 166.667 140.667 166.667H527.333C564.67 166.667 583.34 166.667 597.6 173.933C610.143 180.324 620.343 190.523 626.733 203.067C634 217.328 634 235.997 634 273.333V460C634 497.337 634 516.007 626.733 530.267C620.343 542.81 610.143 553.01 597.6 559.4C583.34 566.667 564.67 566.667 527.333 566.667H140.667C103.33 566.667 84.6613 566.667 70.4007 559.4C57.8563 553.01 47.6577 542.81 41.2663 530.267C34 516.007 34 497.337 34 460V273.333C34 235.997 34 217.328 41.2663 203.067C47.6577 190.523 57.8563 180.324 70.4007 173.933C78.3177 169.899 87.593 168.105 100.667 167.306ZM400.667 300H534M400.667 433.333H534M267.333 366.667C267.333 403.487 237.486 433.333 200.667 433.333C163.848 433.333 134 403.487 134 366.667C134 329.847 163.848 300 200.667 300C237.486 300 267.333 329.847 267.333 366.667Z" stroke="white" stroke-width="66.6667" stroke-linecap="round" stroke-linejoin="round"/>
</svg>
