<svg width="668" height="667" viewBox="0 0 668 667" fill="none" xmlns="http://www.w3.org/2000/svg">
<path d="M434.243 333.667C434.243 388.896 389.473 433.666 334.243 433.666C279.013 433.666 234.243 388.896 234.243 333.667C234.243 278.437 279.013 233.667 334.243 233.667C389.473 233.667 434.243 278.437 434.243 333.667Z" stroke="white" stroke-width="66.6667" stroke-linecap="round" stroke-linejoin="round"/>
<path d="M364.396 35.6682C357.536 33.6665 349.773 33.6665 334.243 33.6665C318.713 33.6665 310.95 33.6665 304.09 35.6682C294.05 38.5978 285.18 44.6025 278.73 52.8368C274.323 58.4625 271.44 65.6718 265.673 80.0905C257.383 100.817 234.374 111.49 213.196 104.433L194.169 98.0935C180.673 93.5948 173.925 91.3452 167.308 90.9598C157.589 90.3935 147.916 92.6772 139.477 97.5298C133.731 100.834 128.702 105.864 118.642 115.923C107.95 126.615 102.604 131.96 99.2085 138.063C94.2188 147.028 92.1082 157.311 93.1628 167.517C93.8805 174.463 96.6882 181.483 102.304 195.522C111.098 217.507 102.638 242.626 82.3338 254.811L73.0835 260.362C58.9202 268.86 51.8385 273.11 46.6945 278.96C42.1425 284.136 38.7102 290.2 36.6128 296.766C34.2432 304.186 34.2432 312.526 34.2432 329.21C34.2432 348.963 34.2432 358.836 37.3972 367.293C40.1842 374.763 44.7172 381.456 50.6178 386.82C57.2958 392.886 66.3748 396.52 84.5318 403.783C103.088 411.203 112.642 431.803 106.322 450.763L99.1502 472.28C94.1828 487.18 91.6988 494.633 91.4732 501.953C91.2015 510.756 93.2595 519.473 97.4388 527.223C100.915 533.673 106.469 539.226 117.576 550.333C128.684 561.44 134.238 566.993 140.685 570.47C148.436 574.65 157.154 576.71 165.956 576.436C173.277 576.21 180.728 573.726 195.631 568.76L213.197 562.903C234.374 555.846 257.383 566.516 265.673 587.243C271.44 601.66 274.323 608.87 278.73 614.496C285.18 622.73 294.05 628.736 304.09 631.666C310.95 633.666 318.713 633.666 334.243 633.666C349.773 633.666 357.536 633.666 364.396 631.666C374.436 628.736 383.306 622.73 389.756 614.496C394.163 608.87 397.046 601.66 402.813 587.243C411.103 566.516 434.113 555.846 455.286 562.91L472.84 568.763C487.743 573.73 495.196 576.213 502.516 576.44C511.32 576.71 520.036 574.653 527.786 570.473C534.233 566.996 539.79 561.443 550.896 550.336C562.003 539.23 567.556 533.673 571.033 527.227C575.213 519.477 577.27 510.756 577 501.956C576.773 494.636 574.29 487.183 569.323 472.28L562.156 450.78C555.833 431.813 565.39 411.207 583.953 403.783C602.11 396.52 611.19 392.886 617.87 386.82C623.77 381.456 628.303 374.763 631.09 367.293C634.243 358.836 634.243 348.963 634.243 329.21C634.243 312.526 634.243 304.186 631.873 296.766C629.776 290.2 626.343 284.136 621.793 278.96C616.646 273.11 609.566 268.86 595.403 260.362L586.14 254.805C565.836 242.622 557.373 217.504 566.17 195.519C571.783 181.481 574.593 174.461 575.31 167.514C576.363 157.308 574.253 147.026 569.263 138.06C565.866 131.958 560.523 126.612 549.83 115.92C539.77 105.861 534.74 100.831 528.996 97.5275C520.556 92.6745 510.883 90.3912 501.163 90.9572C494.547 91.3428 487.8 93.5922 474.303 98.0908L455.29 104.429C434.113 111.488 411.103 100.817 402.813 80.0905C397.046 65.6718 394.163 58.4625 389.756 52.8368C383.306 44.6025 374.436 38.5978 364.396 35.6682Z" stroke="white" stroke-width="66.6667" stroke-linecap="round" stroke-linejoin="round"/>
</svg>
