<svg width="668" height="600" viewBox="0 0 668 600" fill="none" xmlns="http://www.w3.org/2000/svg">
<path d="M34 200H250.667M250.667 200H634M250.667 200L417.333 33.333M417.333 33.333H527.333C562.223 33.333 580.813 33.333 594.737 39.263M417.333 33.333H140.667C103.33 33.333 84.6613 33.333 70.4007 40.5993C57.8563 46.9907 47.6577 57.1893 41.2663 69.7337C34 83.9943 34 102.663 34 140V460C34 497.336 34 516.006 41.2663 530.266C47.6577 542.81 57.8563 553.01 70.4007 559.4C84.6613 566.666 103.33 566.666 140.667 566.666H527.333C564.67 566.666 583.34 566.666 597.6 559.4C610.143 553.01 620.343 542.81 626.733 530.266C634 516.006 634 497.336 634 460V140C634 102.663 634 83.9943 626.733 69.7337C620.343 57.1893 610.143 46.9907 597.6 40.5993C596.667 40.1233 595.713 39.6787 594.737 39.263M594.737 39.263L434 200.005M234 33.333L67.3333 200M434 383.333L267.333 483.333V283.333L434 383.333Z" stroke="white" stroke-width="66.6667" stroke-linejoin="round"/>
</svg>
