<svg width="700" height="585" viewBox="0 0 700 585" fill="none" xmlns="http://www.w3.org/2000/svg">
<path fill-rule="evenodd" clip-rule="evenodd" d="M444.935 67.4811C388.121 67.4811 342.068 113.536 342.068 170.348C342.068 177.301 342.751 184.06 344.048 190.572C346.135 201.062 343.061 211.917 335.785 219.756C328.508 227.596 317.911 231.466 307.295 230.163C233.687 221.133 166.731 190.718 112.814 145.379C113.864 165.443 120.82 186.756 135.914 209.084L158.54 242.553L121.385 258.409L114.216 261.469C119.545 267.563 125.951 273.823 133.104 279.973C141.22 286.949 149.064 292.749 154.89 296.803C157.784 298.816 160.132 300.366 161.705 301.383C162.49 301.889 163.079 302.259 163.442 302.486L163.813 302.716L163.841 302.736L215.464 334.033L161.447 361.043C158.773 362.379 156.104 363.573 153.446 364.633C164.289 373.769 177.487 382.183 191.528 388.819L237.856 410.719L199.057 444.193C177.878 462.466 156.574 476.086 128.963 483.286C169.875 505.116 216.753 517.519 266.628 517.519C426.798 517.519 555.801 389.699 555.801 233.053V215.729L569.975 205.773C592.101 190.235 607.745 169.222 618.945 145.201H567.975H546.928L537.881 126.197C521.318 91.4105 485.888 67.4811 444.935 67.4811ZM68.9421 310.803C62.6584 317.999 59.6791 327.673 61.0457 337.376C64.8061 364.076 80.7951 387.073 98.4627 404.626C103.261 409.393 108.392 413.969 113.78 418.333C112.957 418.563 112.127 418.783 111.29 418.993C95.2444 423.009 73.6234 423.846 37.5664 420.313C23.6261 418.946 10.3194 426.443 4.26175 439.073C-1.79592 451.699 0.688079 466.769 10.4787 476.786C75.2124 543.016 166.119 584.186 266.628 584.186C457.048 584.186 613.241 436.329 622.075 249.733C665.051 213.629 686.568 164.757 698.175 120.287C700.785 110.297 698.615 99.6618 692.301 91.4904C685.991 83.3191 676.248 78.5341 665.925 78.5341H587.471C557.318 31.8171 504.771 0.814453 444.935 0.814453C355.968 0.814453 283.005 69.3445 275.958 156.497C213.659 140.351 158.998 105.119 118.602 57.3355C111.234 48.6198 99.9194 44.2794 88.6127 45.8318C77.3061 47.3841 67.5794 54.6131 62.8331 64.9921C42.6771 109.065 38.7927 159.901 61.3534 211.548L53.5634 214.873C38.1367 221.456 30.0057 238.479 34.5781 254.616C40.7401 276.366 54.6911 295.569 68.9421 310.803Z" fill="white"/>
</svg>
