<svg width="667" height="665" viewBox="0 0 667 665" fill="none" xmlns="http://www.w3.org/2000/svg">
<path d="M200.243 431.543C200.243 431.543 253.577 498.21 333.577 498.21C413.577 498.21 466.91 431.543 466.91 431.543M33.5767 418.21V335.88C33.5767 297.59 33.5767 278.443 38.5117 260.813C42.8833 245.195 50.0677 230.506 59.7117 217.467C70.599 202.747 85.7113 190.993 115.936 167.485L202.603 100.077C249.446 63.6436 272.867 45.4266 298.73 38.4243C321.55 32.2453 345.603 32.2453 368.423 38.4243C394.287 45.4266 417.707 63.6436 464.55 100.077L551.217 167.485C581.443 190.993 596.553 202.747 607.44 217.467C617.087 230.506 624.27 245.195 628.64 260.813C633.577 278.443 633.577 297.59 633.577 335.88V418.21C633.577 492.883 633.577 530.22 619.043 558.74C606.26 583.83 585.863 604.227 560.777 617.01C532.253 631.543 494.917 631.543 420.243 631.543H246.91C172.236 631.543 134.9 631.543 106.378 617.01C81.2897 604.227 60.8923 583.83 48.109 558.74C33.5767 530.22 33.5767 492.883 33.5767 418.21Z" stroke="white" stroke-width="66.6667" stroke-linecap="round" stroke-linejoin="round"/>
</svg>
