<svg width="684" height="575" viewBox="0 0 684 575" fill="none" xmlns="http://www.w3.org/2000/svg">
<path d="M71.4661 254.715C71.4661 254.715 344.208 143.124 438.799 103.832C475.058 88.1154 598.029 37.8196 598.029 37.8196C598.029 37.8196 654.783 15.8196 650.054 69.2529C648.474 91.2571 635.862 168.27 623.249 251.57C604.333 369.449 583.837 498.324 583.837 498.324C583.837 498.324 580.687 534.474 553.887 540.761C527.083 547.049 482.941 518.757 475.058 512.47C468.754 507.753 356.82 437.028 315.833 402.453C304.795 393.024 292.183 374.161 317.408 352.157C374.162 300.295 441.954 235.853 482.941 194.99C501.858 176.128 520.779 132.12 441.954 185.557C330.02 262.57 219.662 334.87 219.662 334.87C219.662 334.87 194.441 350.586 147.145 336.44C99.8495 322.295 44.6703 303.436 44.6703 303.436C44.6703 303.436 6.83697 279.857 71.4745 254.715H71.4661Z" stroke="white" stroke-width="66.67"/>
</svg>
