<svg width="71" height="71" viewBox="0 0 71 71" fill="none" xmlns="http://www.w3.org/2000/svg">
<path d="M46.1436 3.96603e-07C52.7342 3.96603e-07 59.0549 2.61812 63.7152 7.2784C68.3755 11.9387 70.9936 18.2594 70.9936 24.85C70.9936 31.4406 68.3755 37.7613 63.7152 42.4216C59.0549 47.0819 52.7342 49.7 46.1436 49.7H17.7386C15.1713 49.6984 12.6348 49.1398 10.3042 48.0628C7.97363 46.9858 5.90442 45.4161 4.23932 43.4619C2.57422 41.5077 1.35287 39.2155 0.659526 36.7436C-0.0338207 34.2716 -0.182659 31.6786 0.223277 29.1435C0.629214 26.6084 1.58026 24.1916 3.01082 22.0597C4.44137 19.9278 6.31738 18.1316 8.50942 16.795C10.7015 15.4584 13.1574 14.6133 15.7077 14.3179C18.258 14.0225 20.8421 14.2839 23.2816 15.084C25.1965 10.6071 28.3838 6.79116 32.448 4.10964C36.5123 1.42813 41.2745 -0.00086915 46.1436 3.96603e-07ZM21.2936 53.25C21.9957 53.25 22.6821 53.4582 23.2659 53.8483C23.8497 54.2384 24.3047 54.7928 24.5734 55.4415C24.8421 56.0902 24.9124 56.8039 24.7754 57.4926C24.6384 58.1812 24.3003 58.8138 23.8038 59.3102C23.3074 59.8067 22.6748 60.1448 21.9862 60.2818C21.2976 60.4188 20.5838 60.3485 19.9351 60.0798C19.2864 59.8111 18.732 59.3561 18.3419 58.7723C17.9518 58.1885 17.7436 57.5021 17.7436 56.8C17.7436 55.8593 18.1169 54.9571 18.7816 54.2915C19.4463 53.6259 20.348 53.2513 21.2886 53.25H21.2936ZM35.4936 63.9C36.1957 63.9 36.8821 64.1082 37.4659 64.4983C38.0497 64.8884 38.5047 65.4428 38.7734 66.0915C39.0421 66.7402 39.1124 67.4539 38.9754 68.1426C38.8384 68.8312 38.5003 69.4638 38.0038 69.9602C37.5074 70.4567 36.8748 70.7948 36.1862 70.9318C35.4976 71.0688 34.7838 70.9985 34.1351 70.7298C33.4864 70.4611 32.932 70.0061 32.5419 69.4223C32.1518 68.8385 31.9436 68.1521 31.9436 67.45C31.9436 66.5085 32.3176 65.6055 32.9834 64.9398C33.6491 64.274 34.5521 63.9 35.4936 63.9ZM49.6936 56.8C50.3957 56.8 51.0821 57.0082 51.6659 57.3983C52.2497 57.7884 52.7047 58.3428 52.9734 58.9915C53.2421 59.6402 53.3124 60.3539 53.1754 61.0426C53.0384 61.7312 52.7003 62.3638 52.2038 62.8602C51.7074 63.3567 51.0748 63.6948 50.3862 63.8318C49.6975 63.9688 48.9838 63.8985 48.3351 63.6298C47.6864 63.3611 47.132 62.9061 46.7419 62.3223C46.3518 61.7385 46.1436 61.0521 46.1436 60.35C46.1436 59.4085 46.5176 58.5055 47.1834 57.8398C47.8491 57.174 48.7521 56.8 49.6936 56.8Z" fill="white"/>
</svg>
