<svg width="392" height="533" viewBox="0 0 392 533" fill="none" xmlns="http://www.w3.org/2000/svg">
<path fill-rule="evenodd" clip-rule="evenodd" d="M94.2516 97.7167C94.2516 44.1963 138.448 0 191.968 0H200.852C254.372 0 298.568 44.1963 298.568 97.7167V222.083C298.568 275.604 254.372 319.8 200.852 319.8H191.968C138.448 319.8 94.2516 275.604 94.2516 222.083V97.7167ZM200.852 71.0667H191.968C176.59 71.0667 165.318 82.338 165.318 97.7167V222.083C165.318 237.462 176.59 248.733 191.968 248.733H200.852C216.23 248.733 227.502 237.462 227.502 222.083V97.7167C227.502 82.338 216.23 71.0667 200.852 71.0667ZM11.384 188.074C18.0478 181.41 27.0859 177.667 36.5099 177.667C45.9339 177.667 54.972 181.41 61.6358 188.074C68.2995 194.738 72.0432 203.776 72.0432 213.2C72.0432 282.307 127.303 337.567 196.41 337.567C265.516 337.567 320.777 282.307 320.777 213.2C320.777 203.776 324.52 194.738 331.184 188.074C337.848 181.41 346.886 177.667 356.31 177.667C365.734 177.667 374.772 181.41 381.436 188.074C388.1 194.738 391.843 203.776 391.843 213.2C391.843 308.581 322.628 388.484 231.943 405.316V461.933H285.243C294.667 461.933 303.705 465.677 310.369 472.341C317.033 479.005 320.777 488.043 320.777 497.467C320.777 506.891 317.033 515.929 310.369 522.593C303.705 529.256 294.667 533 285.243 533H231.943H160.877H107.577C98.1525 533 89.1145 529.256 82.4507 522.593C75.7869 515.929 72.0432 506.891 72.0432 497.467C72.0432 488.043 75.7869 479.005 82.4507 472.341C89.1145 465.677 98.1525 461.933 107.577 461.933H160.877V405.316C70.1913 388.484 0.976562 308.581 0.976562 213.2C0.976562 203.776 4.72024 194.738 11.384 188.074Z" fill="black"/>
</svg>
