<svg width="523" height="533" viewBox="0 0 523 533" fill="none" xmlns="http://www.w3.org/2000/svg">
<path fill-rule="evenodd" clip-rule="evenodd" d="M488.876 283.77L502.674 232.281C518.777 172.18 526.828 142.129 520.765 116.123C515.978 95.5885 505.208 76.9352 489.819 62.5216C470.33 44.2684 440.28 36.2163 380.188 20.114L380.177 20.1109C320.074 4.00654 290.022 -4.0455 264.018 2.01832C243.482 6.80604 224.829 17.5755 210.416 32.9648C194.787 49.6517 186.636 74.0805 174.508 118.483C172.475 125.926 170.329 133.935 168.019 142.557L168.005 142.608L154.209 194.095L154.209 194.097C138.105 254.197 130.053 284.247 136.116 310.253C140.904 330.789 151.674 349.442 167.063 363.855C186.551 382.107 216.598 390.159 276.688 406.261L276.706 406.266L276.731 406.273C330.888 420.783 360.639 428.755 385.025 425.746C387.695 425.418 390.299 424.957 392.866 424.358C413.398 419.571 432.052 408.801 446.465 393.412C464.719 373.922 472.773 343.872 488.876 283.77ZM266.584 193.907C255.921 191.049 244.959 197.378 242.102 208.041C239.245 218.705 245.572 229.664 256.235 232.521L384.955 267.011C395.619 269.868 406.578 263.541 409.435 252.877C412.292 242.214 405.965 231.255 395.302 228.398L266.584 193.907ZM245.878 271.129C235.215 268.272 224.256 274.599 221.399 285.262C218.539 295.925 224.869 306.887 235.532 309.744L312.764 330.439C323.427 333.297 334.386 326.967 337.243 316.303C340.1 305.64 333.773 294.681 323.11 291.824L245.878 271.129ZM34.7463 390.394L20.9502 338.905L20.9494 338.902C4.84562 278.802 -3.20604 248.752 2.85767 222.746C7.6454 202.212 18.4149 183.559 33.8041 169.146C51.7712 152.317 78.7132 144.16 129.899 130.371L129.398 132.24L115.156 185.394L115.154 185.4C107.475 214.058 101.065 237.976 97.4963 257.934C93.7717 278.763 92.4061 298.856 97.1831 319.343C103.767 347.578 118.574 373.227 139.735 393.046C155.089 407.427 173.172 416.289 193.073 423.477C211.996 430.313 235.698 436.677 264.063 444.278L264.724 444.454L267.57 445.217L267.712 445.254C293.721 452.223 315.718 458.117 334.237 461.799C343.368 463.614 352.352 465.048 361.259 465.794C359.743 467.401 358.178 468.963 356.561 470.48C337.071 488.733 307.021 496.784 246.927 512.885L246.918 512.888C186.815 528.994 156.764 537.045 130.758 530.982C110.224 526.195 91.5705 515.425 77.157 500.037C58.9038 480.547 50.8517 450.497 34.7494 390.405L34.7463 390.394Z" fill="black"/>
</svg>
