<svg width="534" height="533" viewBox="0 0 534 533" fill="none" xmlns="http://www.w3.org/2000/svg">
<path d="M201.681 43.845L223.301 82.5852C242.812 117.546 234.98 163.409 204.249 194.139C204.249 194.139 166.978 231.416 234.557 298.997C302.115 366.555 339.415 329.305 339.415 329.305C370.146 298.574 416.007 290.742 450.969 310.253L489.708 331.873C542.502 361.335 548.734 435.369 502.333 481.773C474.451 509.656 440.292 531.352 402.532 532.781C338.969 535.193 231.019 519.107 122.733 410.821C14.4485 302.535 -1.63883 194.586 0.771001 131.021C2.20244 93.2619 23.8983 59.1042 51.7812 31.2216C98.184 -15.1812 172.218 -8.94642 201.681 43.845Z" fill="black"/>
</svg>
