<svg width="71" height="71" viewBox="0 0 71 71" fill="none" xmlns="http://www.w3.org/2000/svg">
<path d="M27.5366 71C23.1723 71 19.6336 67.024 19.6336 62.125C19.6336 57.226 23.1723 53.25 27.5366 53.25C31.901 53.25 35.4396 57.226 35.4396 62.125C35.4396 67.024 31.9017 71 27.5366 71ZM55.1961 71C50.8317 71 47.2931 67.024 47.2931 62.125C47.2931 57.226 50.8317 53.25 55.1961 53.25C59.5605 53.25 63.097 57.226 63.097 62.125C63.097 67.024 59.5605 71 55.1961 71ZM3.67851 8.53349C1.62803 8.45894 0 6.57105 0 4.26639C0 1.96173 1.62803 0.071 3.67851 0H8.22677C11.791 0 14.8731 2.77752 15.6477 6.68323L20.5985 31.72C21.3731 35.625 24.4552 38.4025 28.0194 38.4025H57.701L63.3987 12.7985H26.4738C24.4439 12.6948 22.8457 10.8161 22.8457 8.5342C22.8457 6.25226 24.4439 4.3736 26.4738 4.26994H63.3994C64.5895 4.28948 65.757 4.59847 66.8009 5.17022C67.8448 5.74197 68.7338 6.55929 69.3911 7.55156C70.1105 8.61257 70.6043 9.81 70.8419 11.0696C71.0796 12.3293 71.0561 13.6243 70.7728 14.8745L65.0743 40.47C64.2294 44.2699 61.1892 46.936 57.701 46.9353H28.0187C20.8925 46.9353 14.7247 41.3774 13.1797 33.5674L8.22677 8.53349H3.67851Z" fill="white"/>
</svg>
