<svg width="86" height="71" viewBox="0 0 86 71" fill="none" xmlns="http://www.w3.org/2000/svg">
<path d="M13.845 0C6.23664 0 0 6.49697 0 14.4215V56.5785C0 64.503 6.23664 71 13.845 71H71.355C78.9634 71 85.2 64.503 85.2 56.5785V14.4215C85.2 6.49697 78.9634 0 71.355 0H13.845ZM13.845 6.65601H71.355C72.5691 6.66506 73.7612 6.98059 74.8207 7.57333L42.6 25.7153L10.3793 7.57333C11.4388 6.98055 12.6309 6.66502 13.845 6.65601ZM12.78 24.0595L39.5593 39.1361C40.4867 39.6617 41.5345 39.9379 42.6005 39.9379C43.6664 39.9379 44.7142 39.6617 45.6416 39.1361L72.42 24.0595V64.2351C72.0681 64.2971 71.7122 64.3332 71.355 64.343H13.845C13.4878 64.3332 13.1319 64.2971 12.78 64.2351V24.0595Z" fill="white"/>
</svg>
