<svg width="481" height="533" viewBox="0 0 481 533" fill="none" xmlns="http://www.w3.org/2000/svg">
<path d="M189.816 265.511L436.934 176.713V324.349C422.25 315.904 404.788 311.005 386.056 311.005C333.873 311.005 291.571 349.008 291.571 395.886C291.571 442.763 333.873 480.766 386.056 480.766C438.24 480.766 480.544 442.763 480.544 395.886V146.371C480.544 116.524 480.544 91.4921 478.207 71.5478C477.876 68.729 477.484 65.9268 477.053 63.3121C474.801 49.6865 470.822 36.9755 463.141 26.3614C459.298 21.054 454.533 16.2712 448.596 12.1599C447.482 11.3891 446.325 10.6419 445.129 9.91913L444.889 9.77495C424.328 -2.51763 401.215 -1.63845 377.403 3.81228C354.375 9.08392 325.825 19.8191 290.817 32.9828L229.935 55.8733C213.527 62.0428 199.623 67.2697 188.71 72.6836C177.1 78.4437 167.1 85.2374 159.6 95.3612C152.1 105.485 148.985 116.395 147.552 128.241C146.206 139.374 146.207 152.912 146.208 168.893V376.583C131.521 368.138 114.062 363.24 95.33 363.24C43.1466 363.24 0.84375 401.242 0.84375 448.12C0.84375 494.997 43.1466 533 95.33 533C147.513 533 189.816 494.997 189.816 448.12V265.511Z" fill="black"/>
</svg>
