<svg width="437" height="533" viewBox="0 0 437 533" fill="none" xmlns="http://www.w3.org/2000/svg">
<path d="M218.572 0C218.572 0 0.543457 61.7749 0.543457 72.6763V293.128C0.543457 404.565 161.643 502.678 206.46 529.326C210.045 531.721 214.26 533 218.572 533C222.884 533 227.1 531.721 230.685 529.326C276.713 503.889 436.601 404.565 436.601 293.128V72.6763C436.601 61.7749 218.572 0 218.572 0ZM279.136 278.592H230.685L268.235 390.03C268.712 390.745 269.043 391.548 269.21 392.392C269.377 393.236 269.376 394.105 269.208 394.948C269.039 395.792 268.706 396.594 268.227 397.309C267.748 398.023 267.133 398.637 266.418 399.114C265.702 399.591 264.899 399.923 264.055 400.09C263.211 400.257 262.343 400.256 261.499 400.087C260.655 399.918 259.853 399.585 259.139 399.106C258.424 398.628 257.81 398.013 257.333 397.297L149.53 250.733C147.87 249.04 146.743 246.897 146.29 244.57C145.836 242.243 146.076 239.834 146.979 237.641C147.881 235.449 149.408 233.57 151.368 232.236C153.329 230.903 155.638 230.175 158.009 230.142H206.46L168.91 118.705C167.946 117.259 167.596 115.49 167.937 113.786C168.278 112.082 169.282 110.584 170.727 109.62C172.173 108.656 173.942 108.306 175.646 108.647C177.349 108.988 178.848 109.991 179.812 111.437L287.615 258.001C289.275 259.694 290.401 261.837 290.855 264.164C291.308 266.491 291.069 268.9 290.166 271.093C289.263 273.285 287.737 275.165 285.776 276.498C283.816 277.831 281.507 278.559 279.136 278.592Z" fill="black"/>
</svg>
