<svg width="480" height="527" viewBox="0 0 480 527" fill="none" xmlns="http://www.w3.org/2000/svg">
<path d="M462.236 292.459L416.352 318.427C392.018 332.199 361.493 328.096 341.66 308.387C317.116 283.997 317.318 244.088 341.861 219.697C361.852 199.83 392.775 195.54 417.303 209.421L462.236 234.85C467.336 237.734 471.579 241.92 474.531 246.981C477.483 252.042 479.038 257.795 479.038 263.654C479.038 269.513 477.483 275.267 474.531 280.328C471.579 285.389 467.336 289.575 462.236 292.459ZM12.1188 26.7717C7.74571 22.4257 0.44474 24.0992 0.453156 30.2646V497.022C0.453156 503.616 8.24984 505.335 12.9266 500.687L189.57 325.12C223.404 291.492 223.403 236.751 189.567 203.124L12.1188 26.7717ZM242.951 210.278C260.152 227.375 287.929 227.375 305.131 210.279C325.852 189.686 321.187 155.002 295.763 140.614L49.8672 1.46011C42.0703 -3.0205 37.9316 6.50345 44.3097 12.8428L242.951 210.278ZM304.863 317.716C287.809 300.768 260.272 300.769 243.22 317.717L44.5583 515.169C38.5608 521.13 42.5146 530.003 49.8672 525.826L295.576 386.781C320.782 372.517 325.405 338.131 304.863 317.716Z" fill="black"/>
</svg>
