<svg width="55" height="53" viewBox="0 0 55 53" fill="none" xmlns="http://www.w3.org/2000/svg">
<path d="M55 47.5V52.5H37.5V47.5H43.65L27.5 9.025C27.025 7.85 26.25 6.9 25.15 6.15C24.05 5.4 22.85 5 21.525 5C19.75 5 18.2 5.675 16.9 6.975C15.6 8.275 15 9.8 15 11.6V20H17.5C23.025 20 27.5 24.475 27.5 30V52.5H17.5C19.025 50.4 20 47.825 20 45C20 38.1 14.4 32.5 7.5 32.5C5.725 32.5 4.025 32.875 2.5 33.55V20H10V11.6C10 9.5 10.575 7.5 11.575 5.8C12.6 4.05 13.975 2.65 15.75 1.575C17.5 0.525 19.425 0 21.525 0C23.875 0 26 0.65 27.9 1.925C29.8 3.2 31.25 4.925 32.175 7.025L49.15 47.5H55ZM15 45C15 49.15 11.65 52.5 7.5 52.5C3.35 52.5 0 49.15 0 45C0 40.85 3.35 37.5 7.5 37.5C11.65 37.5 15 40.85 15 45ZM10 45C10 43.625 8.875 42.5 7.5 42.5C6.125 42.5 5 43.625 5 45C5 46.375 6.125 47.5 7.5 47.5C8.875 47.5 10 46.375 10 45Z" fill="white"/>
</svg>
