<svg width="596" height="533" viewBox="0 0 596 533" fill="none" xmlns="http://www.w3.org/2000/svg">
<path d="M50.186 30.8592C61.7537 29.5101 73.1149 34.6904 79.6861 44.3102C125.919 111.993 181.449 140.15 243.064 146.555C246.088 120.182 253.201 94.124 266.572 71.1818C286.185 37.5206 318.086 12.7387 363.654 3.58133C426.621 -9.07237 474.565 13.7426 502.385 41.6839L558.533 31.1822C570.529 28.9392 582.731 33.8646 589.813 43.8058C596.891 53.7469 597.562 66.896 591.527 77.5058L537.644 172.254C542.558 308.993 504.579 404.42 423.603 470.165C380.648 505.038 319.182 524.818 251.713 530.925C183.716 537.08 106.854 529.637 30.4465 507.314C17.0416 503.398 7.8445 491.08 7.89401 477.11C7.94321 463.136 17.2268 450.884 30.659 447.062C69.0839 436.129 98.3298 426.677 124.766 410.17C87.2114 390.22 59.5398 364.142 39.9552 334.411C12.7345 293.085 2.64084 247.017 0.636906 205.466C-1.36672 163.919 4.63412 125.439 10.9543 97.6661C14.552 81.8565 18.7541 65.9733 24.5463 50.8004C28.7531 39.8648 38.6187 32.2086 50.186 30.8592Z" fill="black"/>
</svg>
