<svg width="516" height="533" viewBox="0 0 516 533" fill="none" xmlns="http://www.w3.org/2000/svg">
<path d="M501.968 402.907C479.12 362.293 441.699 316.29 380.777 290.139C345.934 314.515 303.606 328.867 257.974 328.867C212.316 328.867 169.988 314.516 135.143 290.139C74.2225 316.29 36.8003 362.294 13.9655 402.907C-16.3404 456.777 7.4201 533 59.833 533C112.247 533 257.975 533 257.975 533C257.975 533 403.688 533 456.103 533C508.515 533 532.275 456.777 501.968 402.907Z" fill="black"/>
<path d="M257.979 290.446C338.189 290.446 403.191 232.377 403.191 160.756V129.689C403.191 58.0698 338.189 0 257.979 0C177.758 0 112.745 58.0698 112.745 129.69V160.757C112.745 232.377 177.759 290.446 257.979 290.446Z" fill="black"/>
</svg>
