<svg width="534" height="534" viewBox="0 0 534 534" fill="none" xmlns="http://www.w3.org/2000/svg">
<path d="M119.677 0.130859C135.334 0.130859 150.837 3.21467 165.302 9.20622C179.767 15.1978 192.91 23.9797 203.981 35.0507C215.052 46.1216 223.834 59.2647 229.825 73.7296C235.817 88.1945 238.9 103.698 238.9 119.355V238.578H119.677C88.0568 238.578 57.7318 226.017 35.373 203.658C13.0142 181.3 0.453176 150.975 0.453176 119.355C0.453176 87.7345 13.0142 57.4094 35.373 35.0507C57.7318 12.6919 88.0568 0.130859 119.677 0.130859ZM119.677 294.683H238.9V413.907C238.9 437.487 231.908 460.538 218.808 480.144C205.707 499.751 187.087 515.032 165.302 524.055C143.516 533.079 119.545 535.44 96.4174 530.84C73.2903 526.24 52.0467 514.885 35.373 498.211C18.6993 481.537 7.3443 460.294 2.74403 437.167C-1.85624 414.039 0.504783 390.068 9.52854 368.282C18.5523 346.497 33.8335 327.877 53.4397 314.776C73.0459 301.676 96.0966 294.683 119.677 294.683ZM414.229 0.130859C445.849 0.130859 476.174 12.6919 498.533 35.0507C520.892 57.4094 533.453 87.7345 533.453 119.355C533.453 150.975 520.892 181.3 498.533 203.658C476.174 226.017 445.849 238.578 414.229 238.578H295.006V119.355C295.006 87.7345 307.567 57.4094 329.926 35.0507C352.284 12.6919 382.609 0.130859 414.229 0.130859ZM295.006 294.683H414.229C437.81 294.683 460.86 301.676 480.467 314.776C500.073 327.877 515.354 346.497 524.378 368.282C533.401 390.068 535.762 414.039 531.162 437.167C526.562 460.294 515.207 481.537 498.533 498.211C481.86 514.885 460.616 526.24 437.489 530.84C414.362 535.44 390.39 533.079 368.604 524.055C346.819 515.032 328.199 499.751 315.099 480.144C301.998 460.538 295.006 437.487 295.006 413.907V294.683Z" fill="black"/>
</svg>
