<svg width="55" height="55" viewBox="0 0 55 55" fill="none" xmlns="http://www.w3.org/2000/svg">
<g clip-path="url(#clip0_713_190)">
<path d="M36.6668 27.4999C38.4901 27.4999 40.2388 28.2243 41.5281 29.5136C42.8174 30.8029 43.5418 32.5516 43.5418 34.3749V48.1249C43.5418 49.3899 42.5105 50.4166 41.2432 50.4166H13.7501C13.1423 50.4166 12.5594 50.1752 12.1296 49.7454C11.6999 49.3156 11.4584 48.7327 11.4584 48.1249V34.3749C11.4584 32.5516 12.1828 30.8029 13.4721 29.5136C14.7614 28.2243 16.5101 27.4999 18.3334 27.4999H36.6668ZM32.0834 36.6666H22.9168C22.3327 36.6673 21.7708 36.8909 21.3461 37.2919C20.9214 37.6929 20.6658 38.2409 20.6316 38.824C20.5973 39.4071 20.7871 39.9812 21.1619 40.4291C21.5368 40.8771 22.0686 41.1649 22.6486 41.2339L22.9168 41.2499H32.0834C32.6675 41.2493 33.2293 41.0256 33.6541 40.6247C34.0788 40.2237 34.3344 39.6757 34.3686 39.0926C34.4028 38.5095 34.2131 37.9353 33.8382 37.4874C33.4633 37.0395 32.9316 36.7516 32.3515 36.6827L32.0834 36.6666ZM27.5001 18.3333C29.9293 18.3333 32.1911 19.0918 34.0474 20.3866C34.5461 20.7343 34.8862 21.2658 34.993 21.8642C35.0998 22.4627 34.9645 23.0791 34.6169 23.5778C34.2692 24.0764 33.7377 24.4166 33.1392 24.5234C32.5408 24.6302 31.9244 24.4949 31.4257 24.1472C30.2746 23.3435 28.904 22.9139 27.5001 22.9166C26.0357 22.9166 24.6859 23.3704 23.5745 24.1472C23.328 24.3267 23.0482 24.4552 22.7515 24.5252C22.4548 24.5952 22.1471 24.6053 21.8464 24.5549C21.5457 24.5045 21.2581 24.3946 21.0004 24.2317C20.7427 24.0687 20.5202 23.856 20.3457 23.6059C20.1713 23.3559 20.0485 23.0735 19.9846 22.7754C19.9207 22.4773 19.9168 22.1695 19.9734 21.8699C20.0299 21.5703 20.1457 21.285 20.3138 21.0307C20.482 20.7764 20.6992 20.5582 20.9528 20.3889C22.8728 19.0485 25.1585 18.3309 27.5001 18.3333ZM27.5001 11.4583C31.8955 11.4583 35.9357 13.0074 39.0959 15.5902C39.5558 15.9782 39.8446 16.5315 39.9 17.1306C39.9554 17.7298 39.773 18.3267 39.3921 18.7925C39.0111 19.2582 38.4623 19.5555 37.8641 19.6201C37.2659 19.6847 36.6662 19.5114 36.1947 19.1377C33.7425 17.1299 30.6694 16.0356 27.5001 16.0416C24.2001 16.0416 21.1797 17.2012 18.8101 19.1354C18.5774 19.3292 18.3086 19.4749 18.0193 19.5642C17.73 19.6535 17.4258 19.6846 17.1244 19.6556C16.8229 19.6267 16.5302 19.5383 16.2632 19.3956C15.9961 19.2528 15.76 19.0586 15.5685 18.824C15.3769 18.5895 15.2338 18.3193 15.1473 18.0291C15.0608 17.7389 15.0326 17.4345 15.0645 17.1333C15.0964 16.8322 15.1876 16.5404 15.3329 16.2747C15.4782 16.0091 15.6748 15.7748 15.9111 15.5856C19.1807 12.9113 23.2761 11.4528 27.5001 11.4583ZM27.5001 4.58328C33.5713 4.57465 39.4402 6.7654 44.0207 10.7502C44.4677 11.1519 44.739 11.7131 44.7761 12.3129C44.8132 12.9128 44.6133 13.5032 44.2193 13.957C43.8253 14.4108 43.2688 14.6916 42.6697 14.7391C42.0706 14.7865 41.4768 14.5967 41.0163 14.2106C37.2692 10.9499 32.4673 9.15794 27.5001 9.16661C22.5298 9.15708 17.7251 10.9527 13.9793 14.2197C13.5204 14.6184 12.9219 14.8185 12.3155 14.776C11.7091 14.7334 11.1444 14.4517 10.7457 13.9929C10.347 13.534 10.1469 12.9355 10.1895 12.3291C10.232 11.7227 10.5137 11.158 10.9726 10.7593C15.5537 6.76987 21.4254 4.57574 27.5001 4.58328Z" fill="white"/>
</g>
<defs>
<clipPath id="clip0_713_190">
<rect width="55" height="55" fill="white"/>
</clipPath>
</defs>
</svg>
