<svg width="534" height="534" viewBox="0 0 534 534" fill="none" xmlns="http://www.w3.org/2000/svg">
<path fill-rule="evenodd" clip-rule="evenodd" d="M266.669 0C119.41 0 0.0385742 119.372 0.0385742 266.631C0.0385742 413.886 119.41 533.261 266.669 533.261C413.925 533.261 533.3 413.887 533.3 266.631C533.3 119.371 413.925 0 266.669 0ZM70.0386 266.631C70.0386 158.032 158.07 70 266.669 70C375.266 70 463.3 158.032 463.3 266.631C463.3 375.227 375.265 463.262 266.669 463.262C158.071 463.262 70.0386 375.227 70.0386 266.631ZM385.615 266.63L197.806 160.205V373.055L385.615 266.63Z" fill="black"/>
</svg>
