<svg width="481" height="533" viewBox="0 0 481 533" fill="none" xmlns="http://www.w3.org/2000/svg">
<path d="M189.516 265.511L436.634 176.713V324.349C421.95 315.904 404.489 311.005 385.756 311.005C333.573 311.005 291.271 349.008 291.271 395.886C291.271 442.763 333.573 480.766 385.756 480.766C437.94 480.766 480.244 442.763 480.244 395.886V146.371C480.244 116.524 480.244 91.4921 477.907 71.5478C477.576 68.729 477.185 65.9268 476.753 63.3121C474.501 49.6865 470.522 36.9755 462.842 26.3614C458.999 21.054 454.234 16.2712 448.296 12.1599C447.182 11.3891 446.025 10.6419 444.829 9.91913L444.589 9.77495C424.028 -2.51763 400.915 -1.63845 377.103 3.81228C354.075 9.08392 325.525 19.8191 290.517 32.9828L229.635 55.8733C213.227 62.0428 199.324 67.2697 188.41 72.6836C176.801 78.4437 166.8 85.2374 159.3 95.3612C151.8 105.485 148.685 116.395 147.252 128.241C145.906 139.374 145.907 152.912 145.908 168.893V376.583C131.221 368.138 113.762 363.24 95.0302 363.24C42.8468 363.24 0.543945 401.242 0.543945 448.12C0.543945 494.997 42.8468 533 95.0302 533C147.214 533 189.516 494.997 189.516 448.12V265.511Z" fill="black"/>
</svg>
