<svg width="593" height="533" viewBox="0 0 593 533" fill="none" xmlns="http://www.w3.org/2000/svg">
<path fill-rule="evenodd" clip-rule="evenodd" d="M230.532 533H362.136C454.555 533 500.763 533 533.957 511.224C548.325 501.796 560.664 489.682 570.267 475.575C592.445 442.985 592.445 397.615 592.445 306.878C592.445 216.143 592.445 170.773 570.267 138.183C560.664 124.075 548.325 111.961 533.957 102.534C512.626 88.5411 485.925 83.5397 445.041 81.7521C425.53 81.7521 408.735 67.2374 404.909 48.4544C399.168 20.2804 373.972 0 344.71 0H247.959C218.695 0 193.499 20.2804 187.76 48.4544C183.934 67.2374 167.137 81.7521 147.627 81.7521C106.744 83.5397 80.0414 88.5411 58.7122 102.534C44.3422 111.961 32.0042 124.075 22.4025 138.183C0.223148 170.773 0.223145 216.143 0.223145 306.878C0.223145 397.615 0.223148 442.985 22.4025 475.575C32.0042 489.682 44.3422 501.796 58.7122 511.224C91.9062 533 138.115 533 230.532 533ZM296.334 185.742C228.193 185.742 172.955 239.977 172.955 306.878C172.955 373.781 228.193 428.014 296.334 428.014C364.475 428.014 419.715 373.781 419.715 306.878C419.715 239.977 364.475 185.742 296.334 185.742ZM296.334 234.197C255.45 234.197 222.306 266.737 222.306 306.878C222.306 347.019 255.45 379.561 296.334 379.561C337.218 379.561 370.362 347.019 370.362 306.878C370.362 266.737 337.218 234.197 296.334 234.197ZM436.164 209.969C436.164 196.589 447.212 185.742 460.842 185.742H493.743C507.37 185.742 518.418 196.589 518.418 209.969C518.418 223.351 507.37 234.197 493.743 234.197H460.842C447.212 234.197 436.164 223.351 436.164 209.969Z" fill="black"/>
</svg>
