<svg width="534" height="533" viewBox="0 0 534 533" fill="none" xmlns="http://www.w3.org/2000/svg">
<path fill-rule="evenodd" clip-rule="evenodd" d="M0.574219 266.5C0.574219 140.871 0.574216 78.056 39.6023 39.0281C78.6302 -3.17693e-06 141.445 0 267.074 0C392.702 0 455.519 -3.17693e-06 494.545 39.0281C533.574 78.056 533.574 140.871 533.574 266.5C533.574 392.128 533.574 454.945 494.545 493.971C455.519 533 392.702 533 267.074 533C141.445 533 78.6302 533 39.6023 493.971C0.574216 454.945 0.574219 392.128 0.574219 266.5ZM267.074 113.262C278.113 113.262 287.062 122.211 287.062 133.25V271.545L332.892 225.717C340.698 217.912 353.351 217.912 361.157 225.717C368.962 233.523 368.962 246.177 361.157 253.982L281.207 333.932C277.46 337.682 272.375 339.788 267.074 339.788C261.774 339.788 256.689 337.682 252.942 333.932L172.991 253.982C165.185 246.177 165.185 233.523 172.991 225.717C180.796 217.912 193.452 217.912 201.258 225.717L247.087 271.545V133.25C247.087 122.211 256.036 113.262 267.074 113.262ZM160.474 379.762C149.436 379.762 140.487 388.712 140.487 399.75C140.487 410.788 149.436 419.737 160.474 419.737H373.674C384.713 419.737 393.662 410.788 393.662 399.75C393.662 388.712 384.713 379.762 373.674 379.762H160.474Z" fill="black"/>
</svg>
