<svg width="535" height="533" viewBox="0 0 535 533" fill="none" xmlns="http://www.w3.org/2000/svg">
<path d="M400.783 0H134.15C60.5594 0 0.833496 59.4592 0.833496 132.783V292.23V318.893C0.833496 392.218 60.5594 451.677 134.15 451.677H174.145C181.344 451.677 190.943 456.476 195.476 462.342L235.471 515.402C253.069 538.866 281.865 538.866 299.463 515.402L339.458 462.342C344.524 455.676 352.523 451.677 360.788 451.677H400.783C474.374 451.677 534.1 392.218 534.1 318.893V132.783C534.1 59.4592 474.374 0 400.783 0ZM160.813 266.633C145.882 266.633 134.15 254.635 134.15 239.97C134.15 225.305 146.149 213.307 160.813 213.307C175.478 213.307 187.477 225.305 187.477 239.97C187.477 254.635 175.745 266.633 160.813 266.633ZM267.467 266.633C252.535 266.633 240.803 254.635 240.803 239.97C240.803 225.305 252.802 213.307 267.467 213.307C282.132 213.307 294.13 225.305 294.13 239.97C294.13 254.635 282.398 266.633 267.467 266.633ZM374.12 266.633C359.189 266.633 347.457 254.635 347.457 239.97C347.457 225.305 359.455 213.307 374.12 213.307C388.785 213.307 400.783 225.305 400.783 239.97C400.783 254.635 389.052 266.633 374.12 266.633Z" fill="black"/>
</svg>
