<svg width="616" height="431" viewBox="0 0 616 431" fill="none" xmlns="http://www.w3.org/2000/svg">
<path fill-rule="evenodd" clip-rule="evenodd" d="M246.228 295.236V122.778C307.451 151.587 354.867 179.416 410.947 209.42C364.694 235.071 307.451 263.853 246.228 295.236ZM587.423 37.0072C576.862 23.0934 558.862 12.2627 539.7 8.67694C483.375 -2.01902 131.987 -2.04945 75.6923 8.67694C60.3254 11.5577 46.6417 18.5208 34.8869 29.3394C-14.6423 75.3101 0.877772 321.836 12.8162 361.77C17.8365 379.055 24.3264 391.521 32.4996 399.703C43.0299 410.522 57.4476 417.971 74.0084 421.311C120.385 430.904 359.306 436.267 538.72 422.752C555.25 419.871 569.882 412.182 581.422 400.904C627.217 355.117 624.095 94.7464 587.423 37.0072Z" fill="black"/>
</svg>
