<svg width="533" height="533" viewBox="0 0 533 533" fill="none" xmlns="http://www.w3.org/2000/svg">
<path fill-rule="evenodd" clip-rule="evenodd" d="M266.5 533C140.871 533 78.056 533 39.0281 493.971C-3.17693e-06 454.945 0 392.128 0 266.5C0 140.871 -3.17693e-06 78.056 39.0281 39.0281C78.056 -3.17693e-06 140.871 0 266.5 0C392.128 0 454.945 -3.17693e-06 493.971 39.0281C533 78.056 533 140.871 533 266.5C533 392.128 533 454.945 493.971 493.971C454.945 533 392.128 533 266.5 533ZM293.828 334.712L293.79 334.727L293.777 334.732C232.229 359.351 201.454 371.661 183.875 359.714C179.707 356.881 176.112 353.286 173.28 349.118C161.334 331.54 173.645 300.762 198.267 239.206C203.519 226.075 206.145 219.511 210.661 214.36C211.812 213.048 213.048 211.813 214.359 210.662C219.511 206.145 226.075 203.519 239.205 198.267C300.761 173.645 331.539 161.334 349.118 173.28C353.286 176.113 356.881 179.708 359.714 183.876C371.66 201.455 359.35 232.23 334.732 293.777L334.727 293.79L334.711 293.829C329.469 306.931 326.844 313.49 322.332 318.633C321.18 319.947 319.946 321.181 318.633 322.332C313.489 326.845 306.93 329.469 293.828 334.712Z" fill="black"/>
</svg>
