<svg width="534" height="533" viewBox="0 0 534 533" fill="none" xmlns="http://www.w3.org/2000/svg">
<path fill-rule="evenodd" clip-rule="evenodd" d="M267.477 0C120.293 0 0.976562 119.316 0.976562 266.5C0.976562 316.858 14.9691 364.023 39.2875 404.235L15.5224 485.035C9.51069 505.476 28.5018 524.467 48.9399 518.454L129.742 494.688C169.953 519.009 217.119 533 267.477 533C414.659 533 533.977 413.683 533.977 266.5C533.977 119.316 414.659 0 267.477 0ZM207.2 326.801C261.099 380.701 312.568 387.805 330.741 388.474C358.382 389.492 385.296 368.383 395.788 343.897C398.36 337.901 397.718 330.687 393.411 325.167C378.826 306.488 359.081 293.105 339.789 279.782C331.453 274.015 319.99 275.801 313.85 283.969L297.842 308.357C296.064 311.061 292.533 311.992 289.724 310.385C278.891 304.191 263.095 293.63 251.732 282.266C240.382 270.916 230.462 255.835 224.895 245.7C223.432 243.035 224.242 239.743 226.681 237.931L251.292 219.655C258.631 213.301 259.921 202.51 254.519 194.606C242.559 177.108 228.626 154.868 208.46 140.159C202.952 136.142 195.985 135.691 190.233 138.156C165.719 148.662 144.507 175.567 145.526 203.258C146.195 221.432 153.3 272.901 207.2 326.801Z" fill="black"/>
</svg>
