<svg width="538" height="533" viewBox="0 0 538 533" fill="none" xmlns="http://www.w3.org/2000/svg">
<path d="M241.803 507.306C241.803 523.226 228.005 535.778 212.436 532.464C99.3226 508.402 12.4899 413.29 0.866951 296.06C-0.599808 281.266 11.5932 269.18 26.4595 269.18H107.213C122.08 269.18 134.131 281.231 134.131 296.097C134.131 340.698 170.286 376.851 214.885 376.851C229.752 376.851 241.803 388.902 241.803 403.769V507.306Z" fill="black"/>
<path d="M403.311 455.678C403.311 476.41 425.599 488.921 441.489 475.608C462.784 457.767 481.276 436.693 496.21 413.139C506.603 396.752 493.774 376.851 474.366 376.851H430.229C415.362 376.851 403.311 388.902 403.311 403.769V455.678Z" fill="black"/>
<path d="M268.721 0C337.415 0 400.099 25.7317 447.658 68.0819C464.231 82.8389 452.39 107.672 430.199 107.672H426.301C383.87 107.672 349.474 142.068 349.474 184.498C349.474 193.207 344.554 201.167 336.767 205.062L334.594 206.147C327.017 209.936 318.096 209.936 310.519 206.147L308.347 205.062C300.559 201.167 295.639 193.207 295.639 184.498C295.639 142.068 261.243 107.672 218.812 107.672H214.885C200.018 107.672 187.967 95.6201 187.967 80.7538V32.083C187.967 20.3239 195.572 9.78952 207.02 7.10446C226.834 2.45788 247.49 0 268.721 0Z" fill="black"/>
<path d="M37.8612 215.342C20.8431 215.342 8.04093 199.686 13.4509 183.551C29.617 135.336 59.0604 93.211 97.4376 61.5192C112.763 48.8634 134.135 60.8766 134.135 80.7526C134.135 125.352 170.29 161.506 214.89 161.506H218.818C231.515 161.506 241.808 171.8 241.808 184.497C241.808 213.597 258.247 240.2 284.277 253.212L286.446 254.299C309.181 265.667 335.94 265.667 358.675 254.299L360.847 253.212C386.874 240.2 403.316 213.597 403.316 184.497C403.316 171.8 413.609 161.506 426.307 161.506H497.892C508.592 161.506 518.393 167.802 522.021 177.867C532.301 206.378 537.906 237.123 537.906 269.177C537.906 280.046 537.26 290.765 536.008 301.295C534.498 314.009 523.319 323.013 510.517 323.013H430.234C385.634 323.013 349.48 359.169 349.48 403.767V506.275C349.48 518.033 341.873 528.569 330.425 531.253C328.624 531.675 326.815 532.079 324.998 532.467C309.429 535.778 295.644 523.223 295.644 507.306V403.767C295.644 359.169 259.488 323.013 214.89 323.013C200.023 323.013 187.971 310.962 187.971 296.095C187.971 251.497 151.816 215.342 107.217 215.342H37.8612Z" fill="black"/>
</svg>
