<svg width="515" height="533" viewBox="0 0 515 533" fill="none" xmlns="http://www.w3.org/2000/svg">
<path d="M501.431 402.907C478.583 362.293 441.162 316.29 380.24 290.139C345.397 314.515 303.069 328.867 257.436 328.867C211.779 328.867 169.45 314.516 134.606 290.139C73.6854 316.29 36.2632 362.294 13.4284 402.907C-16.8775 456.777 6.88299 533 59.2959 533C111.71 533 257.438 533 257.438 533C257.438 533 403.151 533 455.566 533C507.978 533 531.738 456.777 501.431 402.907Z" fill="black"/>
<path d="M257.442 290.446C337.651 290.446 402.654 232.377 402.654 160.756V129.689C402.654 58.0698 337.651 0 257.442 0C177.221 0 112.208 58.0698 112.208 129.69V160.757C112.208 232.377 177.222 290.446 257.442 290.446Z" fill="black"/>
</svg>
