<svg width="631" height="534" viewBox="0 0 631 534" fill="none" xmlns="http://www.w3.org/2000/svg">
<path fill-rule="evenodd" clip-rule="evenodd" d="M415.678 171.729L438.538 184.928C456.84 195.495 463.112 218.897 452.545 237.199L330.469 448.637C309.814 484.418 264.062 496.676 228.288 476.02C192.507 455.36 180.246 409.612 200.906 373.831L203.636 369.101L162.873 345.566L160.139 350.296C126.484 408.588 146.457 483.128 204.75 516.782C263.042 550.437 337.581 530.464 371.236 472.172L493.308 260.734C516.874 219.92 502.887 167.732 462.073 144.165L440.731 131.845L415.678 171.729Z" fill="black"/>
<path d="M267.086 212.134C284.149 182.578 274.021 144.785 244.465 127.714L189.162 95.7854C163.034 80.6994 129.618 89.6545 114.532 115.786L43.5077 238.799C5.79296 304.129 28.1747 387.662 93.5038 425.377L216.517 496.401C169.483 469.246 153.365 409.102 180.524 362.064L267.086 212.134Z" stroke="black" stroke-width="50"/>
<path fill-rule="evenodd" clip-rule="evenodd" d="M446.477 21.6108C369.894 -22.6074 271.965 3.63406 227.755 80.2168L209.315 112.154L250.078 135.689L268.514 103.752C299.737 49.6802 368.874 31.1543 422.942 62.3695L462.626 85.2847C437.511 95.4617 416.525 113.752 403.012 137.242L283.67 343.95C273.103 362.252 249.701 368.52 231.399 357.953L193.837 336.269L182.07 356.651L170.302 377.032L207.864 398.719C248.678 422.282 300.866 408.298 324.433 367.484L443.774 160.777C464.43 125 510.182 112.738 545.959 133.398L569.494 92.6315L446.477 21.6108Z" fill="black"/>
<path fill-rule="evenodd" clip-rule="evenodd" d="M296.897 368.108L276.512 356.341L288.279 335.959L403.012 137.246C436.667 78.9497 511.202 58.9803 569.495 92.6314C627.787 126.286 647.76 200.825 614.105 259.118L526.692 410.522C505.107 447.907 457.299 460.718 419.91 439.133L372.597 411.816L396.132 371.054L443.445 398.37C446.982 400.412 450.886 401.737 454.935 402.27C458.984 402.803 463.098 402.534 467.043 401.477C470.988 400.42 474.686 398.596 477.926 396.11C481.165 393.624 483.884 390.524 485.926 386.987L573.342 235.579C593.998 199.806 581.741 154.054 545.96 133.398C510.182 112.742 464.43 125 443.775 160.777L349.533 324.011L329.152 312.244L296.897 368.108Z" fill="black"/>
</svg>
