<svg width="540" height="533" viewBox="0 0 540 533" fill="none" xmlns="http://www.w3.org/2000/svg">
<path fill-rule="evenodd" clip-rule="evenodd" d="M369.154 11.627C373.915 21.7416 369.573 33.7996 359.458 38.5593L226.343 101.203H323.848C425.623 101.203 476.513 101.203 508.128 132.82C539.747 164.438 539.747 215.327 539.747 317.101C539.747 418.876 539.747 469.766 508.128 501.382C476.513 533 425.623 533 323.848 533H215.899C114.123 533 63.2354 533 31.6176 501.382C3.21714e-06 469.766 0 418.876 0 317.101C0 215.327 3.21714e-06 164.438 31.6176 132.82C52.5082 111.93 81.8113 104.842 128.646 102.437L342.221 1.93128C352.336 -2.82848 364.394 1.51244 369.154 11.627ZM60.7215 236.139C60.7215 195.151 93.9489 161.924 134.937 161.924H404.81C445.798 161.924 479.025 195.151 479.025 236.139C479.025 277.128 445.798 310.354 404.81 310.354H134.937C93.9489 310.354 60.7215 277.128 60.7215 236.139ZM148.43 337.342C114.895 337.342 87.7089 364.529 87.7089 398.063C87.7089 431.598 114.895 458.785 148.43 458.785C181.966 458.785 209.152 431.598 209.152 398.063C209.152 364.529 181.966 337.342 148.43 337.342ZM296.861 377.823C285.683 377.823 276.62 386.885 276.62 398.063C276.62 409.241 285.683 418.304 296.861 418.304H431.797C442.976 418.304 452.038 409.241 452.038 398.063C452.038 386.885 442.976 377.823 431.797 377.823H296.861ZM371.076 269.873V249.633C371.076 238.455 362.014 229.392 350.835 229.392C339.657 229.392 330.595 238.455 330.595 249.633V269.873H134.937C116.306 269.873 101.203 254.771 101.203 236.139C101.203 217.507 116.306 202.405 134.937 202.405H404.81C423.442 202.405 438.544 217.507 438.544 236.139C438.544 254.771 423.442 269.873 404.81 269.873H371.076ZM128.19 398.063C128.19 386.885 137.252 377.822 148.43 377.822C159.609 377.822 168.671 386.885 168.671 398.063C168.671 409.241 159.609 418.303 148.43 418.303C137.252 418.303 128.19 409.241 128.19 398.063Z" fill="black"/>
</svg>
