<svg width="533" height="534" viewBox="0 0 533 534" fill="none" xmlns="http://www.w3.org/2000/svg">
<path d="M378.164 0.261475H154.837C57.8305 0.261475 0 58.092 0 155.098V378.158C0 475.431 57.8305 533.261 154.837 533.261H377.897C474.903 533.261 532.734 475.431 532.734 378.425V155.098C533 58.092 475.17 0.261475 378.164 0.261475ZM266.5 370.163C209.469 370.163 163.098 323.792 163.098 266.761C163.098 209.73 209.469 163.359 266.5 163.359C323.531 163.359 369.902 209.73 369.902 266.761C369.902 323.792 323.531 370.163 266.5 370.163ZM424.268 130.313C422.936 133.511 421.07 136.443 418.672 139.108C416.007 141.506 413.075 143.372 409.877 144.704C406.679 146.037 403.215 146.836 399.75 146.836C392.555 146.836 385.892 144.171 380.829 139.108C378.43 136.443 376.565 133.511 375.232 130.313C373.9 127.115 373.1 123.651 373.1 120.186C373.1 116.722 373.9 113.257 375.232 110.059C376.565 106.595 378.43 103.93 380.829 101.265C386.958 95.1355 396.286 92.204 404.814 94.0695C406.679 94.336 408.278 94.869 409.877 95.6685C411.476 96.2015 413.075 97.001 414.674 98.067C416.007 98.8665 417.339 100.199 418.672 101.265C421.07 103.93 422.936 106.595 424.268 110.059C425.601 113.257 426.4 116.722 426.4 120.186C426.4 123.651 425.601 127.115 424.268 130.313Z" fill="black"/>
</svg>
