<svg width="55" height="55" viewBox="0 0 55 55" fill="none" xmlns="http://www.w3.org/2000/svg">
<path d="M31.797 10.3125V44.6875C31.797 45.3713 31.5254 46.027 31.0419 46.5105C30.5584 46.994 29.9026 47.2656 29.2189 47.2656C28.5351 47.2656 27.8793 46.994 27.3958 46.5105C26.9123 46.027 26.6407 45.3713 26.6407 44.6875V14.865L21.9507 17.6795C21.365 18.0164 20.6704 18.11 20.0165 17.94C19.3625 17.77 18.8014 17.3501 18.4539 16.7706C18.1065 16.1911 18.0004 15.4983 18.1585 14.8414C18.3167 14.1845 18.7264 13.6159 19.2995 13.258L27.8933 8.10176C28.2845 7.86724 28.7309 7.74071 29.1869 7.73506C29.643 7.72942 30.0924 7.84487 30.4893 8.06963C30.8862 8.29439 31.2163 8.62042 31.4461 9.01444C31.6758 9.40847 31.7969 9.85639 31.797 10.3125Z" fill="white"/>
</svg>
