<svg width="527" height="533" viewBox="0 0 527 533" fill="none" xmlns="http://www.w3.org/2000/svg">
<path d="M151.765 19.7407C151.765 8.83832 142.927 0 132.025 0C121.122 0 112.284 8.83832 112.284 19.7407V61.3084C74.3993 64.3419 49.5286 71.7871 31.2565 90.0591C12.9845 108.331 5.53935 133.202 2.50586 171.086H524.752C521.72 133.202 514.274 108.331 496.002 90.0591C477.73 71.7871 452.859 64.3419 414.975 61.3084V19.7407C414.975 8.83832 406.137 0 395.234 0C384.332 0 375.494 8.83832 375.494 19.7407V59.5618C357.982 59.2222 338.355 59.2222 316.271 59.2222H210.988C188.903 59.2222 169.276 59.2222 151.765 59.5618V19.7407Z" fill="black"/>
<path fill-rule="evenodd" clip-rule="evenodd" d="M0.419678 269.79C0.419678 247.707 0.419681 228.079 0.759221 210.568H526.5C526.839 228.079 526.839 247.707 526.839 269.79V322.432C526.839 421.694 526.839 471.327 496.002 502.162C465.167 533 415.533 533 316.271 533H210.988C111.725 533 62.0937 533 31.2566 502.162C0.419681 471.327 0.419678 421.694 0.419678 322.432V269.79ZM395.234 322.432C409.772 322.432 421.555 310.648 421.555 296.111C421.555 281.574 409.772 269.79 395.234 269.79C380.697 269.79 368.913 281.574 368.913 296.111C368.913 310.648 380.697 322.432 395.234 322.432ZM395.234 427.716C409.772 427.716 421.555 415.932 421.555 401.395C421.555 386.858 409.772 375.074 395.234 375.074C380.697 375.074 368.913 386.858 368.913 401.395C368.913 415.932 380.697 427.716 395.234 427.716ZM289.951 296.111C289.951 310.648 278.167 322.432 263.63 322.432C249.092 322.432 237.309 310.648 237.309 296.111C237.309 281.574 249.092 269.79 263.63 269.79C278.167 269.79 289.951 281.574 289.951 296.111ZM289.951 401.395C289.951 415.932 278.167 427.716 263.63 427.716C249.092 427.716 237.309 415.932 237.309 401.395C237.309 386.858 249.092 375.074 263.63 375.074C278.167 375.074 289.951 386.858 289.951 401.395ZM132.025 322.432C146.561 322.432 158.346 310.648 158.346 296.111C158.346 281.574 146.561 269.79 132.025 269.79C117.488 269.79 105.704 281.574 105.704 296.111C105.704 310.648 117.488 322.432 132.025 322.432ZM132.025 427.716C146.561 427.716 158.346 415.932 158.346 401.395C158.346 386.858 146.561 375.074 132.025 375.074C117.488 375.074 105.704 386.858 105.704 401.395C105.704 415.932 117.488 427.716 132.025 427.716Z" fill="black"/>
</svg>
