<svg width="541" height="533" viewBox="0 0 541 533" fill="none" xmlns="http://www.w3.org/2000/svg">
<path fill-rule="evenodd" clip-rule="evenodd" d="M293.435 22.5446C293.435 10.1909 283.337 0 270.891 0C258.537 0 248.346 10.1909 248.346 22.5446V73.5857C218.588 101.09 189.01 180.177 179.631 294.974C193.789 281.989 218.768 272.339 248.346 269.093V415.812H293.435V269.093C323.106 272.43 348.085 281.989 362.243 295.065C352.773 180.265 323.195 101.09 293.435 73.5857V22.5446ZM62.8267 267.726C39.6314 267.726 18.2025 271.536 0.916748 277.997C23.9475 170.135 110.047 85.6349 218.794 64.8703C182.176 110.489 159.753 202.057 152.132 293.24C133.96 277.997 100.77 267.726 62.8267 267.726ZM249.78 524.3C244.414 518.937 241.08 511.428 241.08 503.203V437.009H300.667V503.203C300.667 519.65 287.438 533 270.875 533C262.65 533 255.141 529.661 249.78 524.3ZM389.672 293.185C382.049 202.057 359.625 110.489 323.119 64.8703C431.755 85.6886 517.799 170.189 540.833 277.997C523.545 271.536 502.061 267.726 478.921 267.726C440.979 267.726 407.841 277.942 389.672 293.185Z" fill="black"/>
</svg>
