<svg width="527" height="533" viewBox="0 0 527 533" fill="none" xmlns="http://www.w3.org/2000/svg">
<path d="M151.346 19.7407C151.346 8.83832 142.507 0 131.605 0C120.702 0 111.864 8.83832 111.864 19.7407V61.3084C73.9795 64.3419 49.1088 71.7871 30.8367 90.0591C12.5647 108.331 5.11955 133.202 2.08606 171.086H524.332C521.3 133.202 513.854 108.331 495.582 90.0591C477.31 71.7871 452.439 64.3419 414.555 61.3084V19.7407C414.555 8.83832 405.717 0 394.815 0C383.912 0 375.074 8.83832 375.074 19.7407V59.5618C357.563 59.2222 337.935 59.2222 315.852 59.2222H210.568C188.484 59.2222 168.856 59.2222 151.346 59.5618V19.7407Z" fill="black"/>
<path fill-rule="evenodd" clip-rule="evenodd" d="M0 269.79C0 247.707 2.99063e-06 228.079 0.339544 210.568H526.08C526.42 228.079 526.42 247.707 526.42 269.79V322.432C526.42 421.694 526.42 471.327 495.582 502.162C464.747 533 415.113 533 315.852 533H210.568C111.305 533 61.674 533 30.8369 502.162C3.13771e-06 471.327 0 421.694 0 322.432V269.79ZM394.815 322.432C409.352 322.432 421.136 310.648 421.136 296.111C421.136 281.574 409.352 269.79 394.815 269.79C380.278 269.79 368.494 281.574 368.494 296.111C368.494 310.648 380.278 322.432 394.815 322.432ZM394.815 427.716C409.352 427.716 421.136 415.932 421.136 401.395C421.136 386.858 409.352 375.074 394.815 375.074C380.278 375.074 368.494 386.858 368.494 401.395C368.494 415.932 380.278 427.716 394.815 427.716ZM289.531 296.111C289.531 310.648 277.747 322.432 263.21 322.432C248.673 322.432 236.889 310.648 236.889 296.111C236.889 281.574 248.673 269.79 263.21 269.79C277.747 269.79 289.531 281.574 289.531 296.111ZM289.531 401.395C289.531 415.932 277.747 427.716 263.21 427.716C248.673 427.716 236.889 415.932 236.889 401.395C236.889 386.858 248.673 375.074 263.21 375.074C277.747 375.074 289.531 386.858 289.531 401.395ZM131.605 322.432C146.141 322.432 157.926 310.648 157.926 296.111C157.926 281.574 146.141 269.79 131.605 269.79C117.068 269.79 105.284 281.574 105.284 296.111C105.284 310.648 117.068 322.432 131.605 322.432ZM131.605 427.716C146.141 427.716 157.926 415.932 157.926 401.395C157.926 386.858 146.141 375.074 131.605 375.074C117.068 375.074 105.284 386.858 105.284 401.395C105.284 415.932 117.068 427.716 131.605 427.716Z" fill="black"/>
</svg>
