<svg width="534" height="533" viewBox="0 0 534 533" fill="none" xmlns="http://www.w3.org/2000/svg">
<path fill-rule="evenodd" clip-rule="evenodd" d="M39.7752 39.0281C0.747067 78.056 0.74707 140.871 0.74707 266.5C0.74707 392.128 0.747067 454.945 39.7752 493.971C78.8031 533 141.618 533 267.247 533C392.875 533 455.692 533 494.718 493.971C533.747 454.945 533.747 392.128 533.747 266.5C533.747 140.871 533.747 78.056 494.718 39.0281C455.692 -3.04985e-06 392.875 0 267.247 0C141.618 0 78.8031 -3.04985e-06 39.7752 39.0281ZM287.235 159.9C287.235 148.861 278.286 139.913 267.247 139.913C256.209 139.913 247.26 148.861 247.26 159.9V266.5C247.26 271.801 249.365 276.885 253.115 280.633L319.74 347.258C327.546 355.063 340.199 355.063 348.005 347.258C355.811 339.452 355.811 326.798 348.005 318.992L287.235 258.22V159.9Z" fill="black"/>
</svg>
