<svg width="535" height="533" viewBox="0 0 535 533" fill="none" xmlns="http://www.w3.org/2000/svg">
<path d="M401.102 0H134.102C60.4096 0 0.601562 59.4592 0.601562 132.783V292.23V318.893C0.601562 392.218 60.4096 451.677 134.102 451.677H174.152C181.361 451.677 190.973 456.476 195.512 462.342L235.562 515.402C253.184 538.866 282.02 538.866 299.642 515.402L339.692 462.342C344.765 455.676 352.775 451.677 361.052 451.677H401.102C474.794 451.677 534.602 392.218 534.602 318.893V132.783C534.602 59.4592 474.794 0 401.102 0ZM160.802 266.633C145.85 266.633 134.102 254.635 134.102 239.97C134.102 225.305 146.117 213.307 160.802 213.307C175.487 213.307 187.502 225.305 187.502 239.97C187.502 254.635 175.754 266.633 160.802 266.633ZM267.602 266.633C252.65 266.633 240.902 254.635 240.902 239.97C240.902 225.305 252.917 213.307 267.602 213.307C282.287 213.307 294.302 225.305 294.302 239.97C294.302 254.635 282.554 266.633 267.602 266.633ZM374.402 266.633C359.45 266.633 347.702 254.635 347.702 239.97C347.702 225.305 359.717 213.307 374.402 213.307C389.087 213.307 401.102 225.305 401.102 239.97C401.102 254.635 389.354 266.633 374.402 266.633Z" fill="black"/>
</svg>
