<svg width="55" height="50" viewBox="0 0 55 50" fill="none" xmlns="http://www.w3.org/2000/svg">
<path d="M15 0C11.0218 0 7.20644 1.58035 4.3934 4.3934C1.58035 7.20644 0 11.0218 0 15C0 18.9782 1.58035 22.7936 4.3934 25.6066C7.20644 28.4196 11.0218 30 15 30C18.9782 30 22.7936 28.4196 25.6066 25.6066C28.4196 22.7936 30 18.9782 30 15C30 11.0218 28.4196 7.20644 25.6066 4.3934C22.7936 1.58035 18.9782 0 15 0ZM51.25 10C50.2554 10 49.3016 10.3951 48.5984 11.0983C47.8951 11.8016 47.5 12.7554 47.5 13.75C47.5 14.7446 47.8951 15.6984 48.5984 16.4017C49.3016 17.1049 50.2554 17.5 51.25 17.5C52.2446 17.5 53.1984 17.1049 53.9016 16.4017C54.6049 15.6984 55 14.7446 55 13.75C55 12.7554 54.6049 11.8016 53.9016 11.0983C53.1984 10.3951 52.2446 10 51.25 10ZM40 15C38.0109 15 36.1032 15.7902 34.6967 17.1967C33.2902 18.6032 32.5 20.5109 32.5 22.5C32.5 24.4891 33.2902 26.3968 34.6967 27.8033C36.1032 29.2098 38.0109 30 40 30C41.9891 30 43.8968 29.2098 45.3033 27.8033C46.7098 26.3968 47.5 24.4891 47.5 22.5C47.5 20.5109 46.7098 18.6032 45.3033 17.1967C43.8968 15.7902 41.9891 15 40 15ZM40 32.5C37.6794 32.5 35.4538 33.4219 33.8128 35.0628C32.1719 36.7038 31.25 38.9294 31.25 41.25C31.25 43.5706 32.1719 45.7962 33.8128 47.4372C35.4538 49.0781 37.6794 50 40 50C42.3206 50 44.5462 49.0781 46.1872 47.4372C47.8281 45.7962 48.75 43.5706 48.75 41.25C48.75 38.9294 47.8281 36.7038 46.1872 35.0628C44.5462 33.4219 42.3206 32.5 40 32.5Z" fill="white"/>
</svg>
