<svg width="481" height="533" viewBox="0 0 481 533" fill="none" xmlns="http://www.w3.org/2000/svg">
<path fill-rule="evenodd" clip-rule="evenodd" d="M113.831 12.2963C58.1829 22.6994 15.8364 68.0553 9.40764 124.14L8.98924 127.791C-1.85969 222.439 -1.85969 318.011 8.98924 412.659C15.5808 470.164 60.7797 515.709 118.384 522.888L145.447 526.26C158.634 527.904 165.227 528.725 171.813 529.412C217.61 534.196 263.781 534.196 309.579 529.412C316.164 528.725 322.757 527.904 335.944 526.26L360.094 523.251C419.366 515.863 465.822 468.909 472.418 409.714L472.877 405.61C483.409 311.082 483.102 215.665 471.955 121.206C465.54 66.8286 424.411 22.9241 370.437 12.8339L361.829 11.2247C281.77 -3.74162 199.621 -3.74162 119.562 11.225L113.831 12.2963ZM92.1289 93.7666C99.2164 85.3039 111.823 84.1889 120.285 91.2764C135.667 104.158 178.772 126.587 240.702 126.587C302.631 126.587 345.738 104.158 361.12 91.2764C369.581 84.1889 382.187 85.3039 389.276 93.7666C396.362 102.23 395.248 114.836 386.784 121.923C363.814 141.162 311.49 166.562 240.702 166.562C169.915 166.562 117.591 141.162 94.619 121.923C86.1563 114.836 85.0413 102.23 92.1289 93.7666Z" fill="black"/>
</svg>
