<svg width="533" height="533" viewBox="0 0 533 533" fill="none" xmlns="http://www.w3.org/2000/svg">
<path fill-rule="evenodd" clip-rule="evenodd" d="M266.5 533C140.871 533 78.056 533 39.0281 493.971C-3.17693e-06 454.945 0 392.128 0 266.5C0 140.871 -3.17693e-06 78.056 39.0281 39.0281C78.056 -3.17693e-06 140.871 0 266.5 0C392.128 0 454.945 -3.17693e-06 493.971 39.0281C533 78.056 533 140.871 533 266.5C533 392.128 533 454.945 493.971 493.971C454.945 533 392.128 533 266.5 533ZM179.887 119.924C179.887 108.885 170.939 99.937 159.9 99.937C148.861 99.937 139.912 108.885 139.912 119.924V153.237H106.6C95.5613 153.237 86.6125 162.186 86.6125 173.225C86.6125 184.264 95.5613 193.212 106.6 193.212H139.912V226.525C139.912 237.563 148.861 246.512 159.9 246.512C170.939 246.512 179.887 237.563 179.887 226.525V193.212H213.2C224.238 193.212 233.188 184.264 233.188 173.225C233.188 162.186 224.238 153.237 213.2 153.237H179.887V119.924ZM319.8 153.237C308.762 153.237 299.812 162.186 299.812 173.224C299.812 184.263 308.762 193.212 319.8 193.212H426.4C437.438 193.212 446.387 184.263 446.387 173.224C446.387 162.186 437.438 153.237 426.4 153.237H319.8ZM319.8 313.137C308.762 313.137 299.812 322.087 299.812 333.125C299.812 344.163 308.762 353.112 319.8 353.112H426.4C437.438 353.112 446.387 344.163 446.387 333.125C446.387 322.087 437.438 313.137 426.4 313.137H319.8ZM134.058 318.992C126.253 311.187 113.597 311.187 105.792 318.992C97.9862 326.798 97.9862 339.452 105.792 347.258L131.634 373.1L105.792 398.943C97.9865 406.748 97.9865 419.402 105.792 427.207C113.598 435.013 126.253 435.013 134.059 427.207L159.9 401.368L185.741 427.207C193.547 435.013 206.202 435.013 214.007 427.207C221.813 419.402 221.813 406.748 214.007 398.943L188.167 373.1L214.007 347.258C221.813 339.452 221.813 326.798 214.007 318.992C206.203 311.187 193.547 311.187 185.742 318.992L159.9 344.832L134.058 318.992ZM319.8 393.087C308.762 393.087 299.812 402.037 299.812 413.075C299.812 424.113 308.762 433.062 319.8 433.062H426.4C437.438 433.062 446.387 424.113 446.387 413.075C446.387 402.037 437.438 393.087 426.4 393.087H319.8Z" fill="black"/>
</svg>
