<svg width="540" height="533" viewBox="0 0 540 533" fill="none" xmlns="http://www.w3.org/2000/svg">
<path fill-rule="evenodd" clip-rule="evenodd" d="M292.518 22.5446C292.518 10.1909 282.42 0 269.974 0C257.62 0 247.429 10.1909 247.429 22.5446V73.5857C217.672 101.09 188.093 180.177 178.714 294.974C192.872 281.989 217.851 272.339 247.429 269.093V415.812H292.518V269.093C322.19 272.43 347.168 281.989 361.326 295.065C351.856 180.265 322.278 101.09 292.518 73.5857V22.5446ZM61.91 267.726C38.7147 267.726 17.2857 271.536 0 277.997C23.0308 170.135 109.13 85.6349 217.877 64.8703C181.259 110.489 158.836 202.057 151.215 293.24C133.043 277.997 99.8528 267.726 61.91 267.726ZM248.863 524.3C243.498 518.937 240.163 511.428 240.163 503.203V437.009H299.75V503.203C299.75 519.65 286.521 533 269.958 533C261.734 533 254.224 529.661 248.863 524.3ZM388.755 293.185C381.132 202.057 358.709 110.489 322.202 64.8703C430.838 85.6886 516.883 170.189 539.917 277.997C522.628 271.536 501.144 267.726 478.005 267.726C440.062 267.726 406.924 277.942 388.755 293.185Z" fill="black"/>
</svg>
