<svg width="268" height="534" viewBox="0 0 268 534" fill="none" xmlns="http://www.w3.org/2000/svg">
<path fill-rule="evenodd" clip-rule="evenodd" d="M58.727 268.852V526.468C58.727 530.91 60.9478 533.131 65.3895 533.131H167.548C171.99 533.131 174.21 530.91 174.21 526.468V264.41H249.719C254.16 264.41 256.381 262.189 256.381 257.748L263.044 177.798C263.044 173.356 260.823 171.135 256.381 171.135H174.21V115.614C174.21 102.289 185.315 91.185 200.86 91.185H258.602C265.265 91.185 267.485 88.9642 267.485 84.5225V6.79336C267.485 2.3517 265.265 0.130859 260.823 0.130859H163.106C105.365 0.130859 58.727 42.3267 58.727 95.6267V171.135H7.64786C3.20619 171.135 0.985352 173.356 0.985352 177.798V257.748C0.985352 262.189 3.20619 264.41 7.64786 264.41H58.727V268.852Z" fill="black"/>
</svg>
