<svg width="533" height="534" viewBox="0 0 533 534" fill="none" xmlns="http://www.w3.org/2000/svg">
<path fill-rule="evenodd" clip-rule="evenodd" d="M528.244 213.567H272.131C272.131 240.202 272.131 293.467 271.968 320.102H420.378C414.691 346.738 394.528 384.034 366.037 402.811C366.037 402.811 365.983 402.968 365.928 402.942C328.05 427.952 278.063 433.627 240.947 426.169C182.769 414.61 136.727 372.417 118.033 318.827C118.142 318.747 118.224 318.009 118.306 317.955C106.605 284.715 106.605 240.202 118.306 213.567H118.278C133.353 164.612 180.782 119.947 239.042 107.721C285.9 97.7862 338.772 108.541 377.657 144.925C382.827 139.864 449.222 75.0367 454.202 69.7629C321.356 -50.5481 108.645 -8.22607 29.0523 147.137H29.0251C29.0251 147.137 29.0525 147.143 28.8893 147.436C-10.4856 223.746 -8.85292 313.664 29.1613 386.324C29.0525 386.404 28.9709 386.453 28.8893 386.533C63.3388 453.387 126.034 504.658 201.572 524.182C281.818 545.223 383.942 530.842 452.351 468.968L452.434 469.046C510.394 416.841 546.475 327.912 528.244 213.567Z" fill="black"/>
</svg>
