<svg width="507" height="533" viewBox="0 0 507 533" fill="none" xmlns="http://www.w3.org/2000/svg">
<path fill-rule="evenodd" clip-rule="evenodd" d="M348.652 211.916H348.643H158.393H158.384C122.957 211.915 92.7694 211.914 68.6723 214.639C64.5813 215.103 60.5046 215.66 56.4576 216.339C42.279 218.719 28.4652 222.616 15.6865 229.358L15.686 112.424C15.6814 97.5484 15.6785 87.2372 17.5952 78.2378C26.019 38.6806 60.604 8.78035 103.373 1.63095C113.157 -0.0045574 124.426 -0.00268897 141.499 0.000242533L144.602 0.000509395C152.15 -0.000290105 157.193 -0.00055492 162.135 0.408789C183.357 2.16716 203.627 9.56173 220.275 21.7877C224.155 24.6379 227.777 27.8463 233.081 32.5471L245.715 43.7412C264.253 60.1653 270.854 65.7901 278.431 69.524C282.927 71.7405 287.718 73.5013 292.71 74.7621C301.209 76.9085 310.592 77.0606 336.765 77.0606H346.167H346.18C373.709 77.0604 396.168 77.0601 413.997 79.0461C432.505 81.108 448.855 85.5527 462.495 96.4216C464.749 98.2191 466.902 100.126 468.941 102.135C481.445 114.451 486.677 129.44 489.075 146.35C491.349 162.354 491.349 182.422 491.349 206.607V206.692V229.358C478.57 222.616 464.757 218.719 450.577 216.339C446.531 215.66 442.454 215.103 438.363 214.639C414.265 211.914 384.079 211.915 348.652 211.916ZM13.7539 416.995C0.331059 347.228 -6.38049 312.343 9.88109 287.255C14.031 280.854 19.1486 275.057 25.0719 270.055C48.283 250.446 85.8006 250.446 160.836 250.446H346.199C421.234 250.446 458.752 250.446 481.965 270.055C487.886 275.057 493.006 280.854 497.155 287.255C513.415 312.34 506.705 347.22 493.287 416.972L493.283 416.995L493.283 416.996C483.619 467.22 478.788 492.332 462.049 508.996C457.705 513.319 452.847 517.151 447.567 520.416C427.225 533 400.216 533 346.199 533H160.836C106.82 533 79.8118 533 59.4685 520.416C54.1902 517.151 49.3308 513.319 44.9877 508.996C28.2477 492.332 23.4164 467.22 13.7539 416.995ZM199.155 385.3C187.895 385.3 178.769 393.927 178.769 404.566C178.769 415.207 187.895 423.831 199.155 423.831H307.879C319.136 423.831 328.263 415.207 328.263 404.566C328.263 393.927 319.136 385.3 307.879 385.3H199.155Z" fill="black"/>
</svg>
