<svg width="71" height="71" viewBox="0 0 71 71" fill="none" xmlns="http://www.w3.org/2000/svg">
<g clip-path="url(#clip0_805_346)">
<g clip-path="url(#clip1_805_346)">
<path d="M35.4998 6.10245e-05C30.2626 -0.0096697 25.0888 1.14443 20.3522 3.37893C15.6157 5.61343 11.4348 8.87249 8.11193 12.9205L18.4046 30.7612C19.4456 27.0251 21.6794 23.7316 24.7656 21.3827C27.8518 19.0338 31.6213 17.7581 35.4998 17.7501H66.2262C63.1176 12.3509 58.6402 7.86705 53.2456 4.75068C47.8509 1.63431 41.7299 -0.00432031 35.4998 6.10245e-05ZM4.756 17.7674C1.8899 22.7295 0.2684 28.3121 0.0301843 34.0375C-0.208031 39.7629 0.94413 45.4609 3.38812 50.6439C5.83211 55.827 9.49519 60.3409 14.064 63.7997C18.6329 67.2584 23.9715 69.559 29.6234 70.5046L39.9373 52.6639C38.4893 53.0486 36.998 53.2456 35.4998 53.2501C32.3853 53.2452 29.327 52.4209 26.6319 50.86C23.9368 49.2992 21.6998 47.0567 20.1456 44.3577L20.1283 44.3751L4.756 17.7674ZM35.4998 23.0751C33.0424 23.0751 30.6401 23.8038 28.5968 25.1691C26.5535 26.5343 24.961 28.4748 24.0206 30.7452C23.0802 33.0156 22.8341 35.5138 23.3135 37.9241C23.7929 40.3343 24.9763 42.5482 26.714 44.2859C28.4517 46.0235 30.6656 47.2069 33.0758 47.6863C35.486 48.1657 37.9843 47.9197 40.2546 46.9793C42.525 46.0388 44.4655 44.4463 45.8308 42.403C47.1961 40.3597 47.9248 37.9575 47.9248 35.5001C47.9248 32.2047 46.6157 29.0444 44.2856 26.7143C41.9554 24.3841 38.7951 23.0751 35.4998 23.0751ZM48.1575 23.0751C50.8821 25.8338 52.6226 29.413 53.1101 33.2596C53.5976 37.1063 52.805 41.0065 50.8547 44.3577L50.8721 44.3751L35.4998 71.0001C41.2313 70.9965 46.8769 69.6061 51.9545 66.9476C57.0322 64.289 61.3911 60.4412 64.6592 55.7327C67.9273 51.0241 70.0074 45.5947 70.7221 39.9079C71.4367 34.2211 70.7647 28.4458 68.7633 23.0751H48.1575Z" fill="white"/>
</g>
</g>
<defs>
<clipPath id="clip0_805_346">
<rect width="71" height="71" fill="white"/>
</clipPath>
<clipPath id="clip1_805_346">
<rect width="71" height="71" fill="white"/>
</clipPath>
</defs>
</svg>
