<svg width="576" height="533" viewBox="0 0 576 533" fill="none" xmlns="http://www.w3.org/2000/svg">
<path d="M334.695 89.8938C366.661 85.7901 384.718 66.8741 394.195 46.014C405.252 21.7381 393.966 -0.544703 382.498 0.0101479C371.031 0.529489 363.582 16.4027 354.891 31.6988C350.208 39.9195 342.42 46.9816 329.397 48.6462C271.828 56.0457 259.226 102.908 260.602 127.206H302.127C301.872 119.723 303.452 93.9376 334.695 89.8938Z" fill="#010002"/>
<path d="M2.69198 217.671C2.69198 217.671 2.66756 217.973 2.63205 218.517C1.38919 225.615 0.62793 232.87 0.62793 240.316C0.62793 244.18 0.856528 247.993 1.1961 251.759C-0.881265 333.302 3.37999 532.891 95.0037 533C210.129 533.144 223.336 375.322 223.336 375.322L287.992 375.273L352.634 375.322C352.634 375.322 365.84 533.133 480.967 533C572.591 532.88 576.839 333.289 574.774 251.746C575.101 247.98 575.343 244.164 575.343 240.303C575.343 232.868 574.57 225.599 573.339 218.501C573.303 217.958 573.279 217.656 573.279 217.656L573.205 217.631C562.499 158.626 510.978 113.841 448.894 113.841C417.907 113.841 389.552 125.031 367.569 143.525H367.533H341.313H234.673H208.451H208.415C186.421 125.031 158.077 113.841 127.09 113.841C65.0062 113.841 13.4849 158.626 2.77853 217.631L2.69198 217.671ZM417.976 243.383C417.976 238.518 421.935 234.559 426.8 234.559H455.288V206.057C455.288 201.192 459.248 197.222 464.124 197.222H477.367C482.232 197.222 486.191 201.181 486.191 206.057V234.559H514.68C519.545 234.559 523.504 238.518 523.504 243.383V256.613C523.504 261.478 519.545 265.437 514.68 265.437H486.191V293.939C486.191 298.804 482.232 302.774 477.367 302.774H464.124C459.259 302.774 455.288 298.815 455.288 293.939V265.437H426.8C421.935 265.437 417.976 261.478 417.976 256.613V243.383ZM153.658 232.675C163.23 232.675 170.994 240.436 170.994 250.01C170.994 259.583 163.233 267.346 153.658 267.346C144.086 267.346 136.336 259.585 136.336 250.01C136.336 240.425 144.086 232.675 153.658 232.675ZM113.58 195.302C123.152 195.302 130.914 203.063 130.914 212.638C130.914 222.212 123.152 229.974 113.58 229.974C104.008 229.974 96.2576 222.212 96.2576 212.638C96.2465 203.052 104.008 195.302 113.58 195.302ZM113.58 273.285C123.152 273.285 130.914 281.046 130.914 290.619C130.914 300.191 123.152 307.941 113.58 307.941C104.008 307.941 96.2576 300.18 96.2576 290.619C96.2465 281.046 104.008 273.285 113.58 273.285ZM73.5043 232.675C83.0766 232.675 90.8378 240.436 90.8378 250.01C90.8378 259.583 83.0766 267.346 73.5043 267.346C63.932 267.346 56.1818 259.585 56.1818 250.01C56.1685 240.425 63.9298 232.675 73.5043 232.675Z" fill="#010002"/>
</svg>
