<svg width="585" height="441" viewBox="0 0 585 441" fill="none" xmlns="http://www.w3.org/2000/svg">
<path fill-rule="evenodd" clip-rule="evenodd" d="M83.2325 50.7341C65.1467 50.7341 50.4853 65.3955 50.4853 83.4813V227.849C50.4853 253.909 71.6092 275.033 97.6693 275.033H126.807V181.032C126.807 180.998 126.807 180.964 126.807 180.93V97.9181C126.807 80.7947 131.235 64.7058 139.009 50.7341H83.2325ZM223.991 50.7341C197.931 50.7341 176.807 71.858 176.807 97.9181V116.228H433.325C433.367 116.228 433.41 116.228 433.453 116.228H487.462C504.586 116.228 520.675 120.657 534.646 128.43V83.4813C534.646 65.3955 519.985 50.7341 501.899 50.7341H223.991ZM534.646 213.412C534.646 187.352 513.522 166.228 487.462 166.228H458.325V300.033C458.325 300.07 458.325 300.107 458.324 300.144V343.343C458.324 360.467 453.896 376.556 446.122 390.527H501.899C519.985 390.527 534.646 375.866 534.646 357.78V213.412ZM361.141 390.527C387.201 390.527 408.324 369.403 408.324 343.343V325.033H180.806C180.764 325.033 180.722 325.033 180.681 325.033H97.6693C80.5459 325.033 64.457 320.605 50.4853 312.831V357.78C50.4853 375.866 65.1467 390.527 83.2325 390.527H361.141ZM408.325 256.611C408.325 256.648 408.324 256.685 408.324 256.723V275.033H176.807V166.228H398.912C398.954 166.228 398.996 166.228 399.037 166.228H408.325V256.611ZM0.485352 227.849V357.78C0.485352 403.48 37.5325 440.527 83.2325 440.527H361.141H501.899C547.599 440.527 584.646 403.48 584.646 357.78V213.412V83.4813C584.646 37.7813 547.599 0.734131 501.899 0.734131H223.991H83.2325C37.5325 0.734131 0.485352 37.7813 0.485352 83.4813V227.849Z" fill="black"/>
</svg>
