<svg width="437" height="533" viewBox="0 0 437 533" fill="none" xmlns="http://www.w3.org/2000/svg">
<path d="M218.823 0C218.823 0 0.794434 61.7749 0.794434 72.6763V293.128C0.794434 404.565 161.894 502.678 206.711 529.326C210.296 531.721 214.511 533 218.823 533C223.135 533 227.351 531.721 230.936 529.326C276.964 503.889 436.852 404.565 436.852 293.128V72.6763C436.852 61.7749 218.823 0 218.823 0ZM279.387 278.592H230.936L268.486 390.03C268.963 390.745 269.294 391.548 269.461 392.392C269.628 393.236 269.627 394.105 269.459 394.948C269.29 395.792 268.957 396.594 268.478 397.309C267.999 398.023 267.384 398.637 266.669 399.114C265.953 399.591 265.15 399.923 264.306 400.09C263.462 400.257 262.594 400.256 261.75 400.087C260.906 399.918 260.104 399.585 259.39 399.106C258.675 398.628 258.061 398.013 257.584 397.297L149.781 250.733C148.121 249.04 146.994 246.897 146.541 244.57C146.087 242.243 146.327 239.834 147.23 237.641C148.132 235.449 149.659 233.57 151.619 232.236C153.58 230.903 155.889 230.175 158.26 230.142H206.711L169.161 118.705C168.197 117.259 167.847 115.49 168.188 113.786C168.529 112.082 169.533 110.584 170.978 109.62C172.424 108.656 174.193 108.306 175.897 108.647C177.6 108.988 179.099 109.991 180.063 111.437L287.866 258.001C289.526 259.694 290.652 261.837 291.106 264.164C291.559 266.491 291.32 268.9 290.417 271.093C289.514 273.285 287.988 275.165 286.027 276.498C284.067 277.831 281.758 278.559 279.387 278.592Z" fill="black"/>
</svg>
