<svg width="484" height="534" viewBox="0 0 484 534" fill="none" xmlns="http://www.w3.org/2000/svg">
<path fill-rule="evenodd" clip-rule="evenodd" d="M437.403 300.701L449.342 84.0479C453.92 39.0378 418.573 0.130859 373.563 0.130859H260.651V50.9896C260.651 61.4157 252.005 70.0617 241.579 70.0617C231.153 70.0617 222.507 61.4157 222.507 50.9896V0.130859H158.685V127.278C158.685 137.704 150.039 146.35 139.613 146.35C129.187 146.35 120.541 137.704 120.541 127.278V0.130859H109.605C64.5947 0.130859 29.2478 39.0378 33.8251 84.0479L45.7647 300.701C45.9069 303.282 48.2782 305.284 50.8628 305.284H432.305C434.889 305.284 437.261 303.282 437.403 300.701ZM178.006 431.413V469.557C178.006 504.65 206.487 533.131 241.579 533.131C276.672 533.131 305.153 504.65 305.153 469.557V431.413H429.502C456.458 431.413 480.616 411.833 482.904 385.132C484.176 369.366 478.581 354.871 468.155 344.699C460.018 336.307 449.337 330.967 437.131 329.95C435.605 329.696 434.08 329.696 432.3 329.696H50.8588C49.0787 329.696 47.553 329.696 46.0272 329.95C20.3435 332.493 0 354.362 0 380.555C0 394.541 5.59446 407.255 15.0033 416.41C24.1579 425.819 36.8726 431.413 50.8588 431.413H178.006Z" fill="black"/>
</svg>
