<svg width="437" height="533" viewBox="0 0 437 533" fill="none" xmlns="http://www.w3.org/2000/svg">
<path d="M218.032 0C218.032 0 0.00292969 61.7749 0.00292969 72.6763V293.128C0.00292969 404.565 161.102 502.678 205.919 529.326C209.505 531.721 213.72 533 218.032 533C222.344 533 226.559 531.721 230.145 529.326C276.173 503.889 436.061 404.565 436.061 293.128V72.6763C436.061 61.7749 218.032 0 218.032 0ZM278.595 278.592H230.145L267.694 390.03C268.171 390.745 268.503 391.548 268.67 392.392C268.837 393.236 268.836 394.105 268.667 394.948C268.498 395.792 268.165 396.594 267.686 397.309C267.208 398.023 266.593 398.637 265.877 399.114C265.161 399.591 264.359 399.923 263.515 400.09C262.671 400.257 261.802 400.256 260.959 400.087C260.115 399.918 259.313 399.585 258.598 399.106C257.883 398.628 257.27 398.013 256.793 397.297L148.989 250.733C147.329 249.04 146.203 246.897 145.749 244.57C145.296 242.243 145.535 239.834 146.438 237.641C147.341 235.449 148.867 233.57 150.828 232.236C152.789 230.903 155.097 230.175 157.468 230.142H205.919L168.37 118.705C167.406 117.259 167.056 115.49 167.397 113.786C167.737 112.082 168.741 110.584 170.187 109.62C171.632 108.656 173.402 108.306 175.105 108.647C176.809 108.988 178.307 109.991 179.271 111.437L287.074 258.001C288.734 259.694 289.861 261.837 290.314 264.164C290.768 266.491 290.528 268.9 289.626 271.093C288.723 273.285 287.197 275.165 285.236 276.498C283.275 277.831 280.966 278.559 278.595 278.592Z" fill="black"/>
</svg>
