<svg width="534" height="533" viewBox="0 0 534 533" fill="none" xmlns="http://www.w3.org/2000/svg">
<path fill-rule="evenodd" clip-rule="evenodd" d="M0.9375 131.911C0.9375 108.391 0.9375 96.6316 2.78568 86.8361C10.9217 43.7143 44.6518 9.98416 87.7736 1.84818C97.5691 0 109.329 0 132.848 0C143.153 0 148.306 0 153.257 0.463177C174.606 2.45953 194.857 10.8476 211.364 24.5316C215.191 27.7045 218.833 31.3466 226.114 38.6281L226.122 38.6358L240.787 53.3C262.529 75.0405 273.399 85.9108 286.415 93.1532C293.565 97.1315 301.152 100.273 309.022 102.517C323.347 106.6 338.718 106.6 369.464 106.6H379.423C449.577 106.6 484.651 106.6 507.453 127.106C509.55 128.992 511.546 130.988 513.43 133.086C533.938 155.885 533.938 190.962 533.938 261.114V319.8C533.938 420.302 533.938 470.556 502.714 501.777C471.494 533 421.24 533 320.737 533H214.137C113.634 533 63.3824 533 32.1598 501.777C0.937503 470.556 0.9375 420.302 0.9375 319.8V131.911ZM274.101 213.2C274.101 202.161 283.05 193.212 294.088 193.212H427.338C438.377 193.212 447.326 202.161 447.326 213.2C447.326 224.238 438.377 233.187 427.338 233.187H294.088C283.05 233.187 274.101 224.238 274.101 213.2ZM381.593 26.6499C391.339 26.6499 396.213 26.6499 400.304 27.208C427.452 30.9099 449.041 52.3173 453.987 79.9499C450.046 79.039 445.95 78.3347 441.699 77.7812C424.659 75.562 403.123 75.5623 376.409 75.5628H367.498C342.399 75.5628 332.887 75.4176 324.213 72.8565C319.178 71.3697 314.326 69.2873 309.75 66.6505C301.867 62.108 295.044 55.2451 277.295 36.8601L267.438 26.6499H381.593Z" fill="black"/>
</svg>
