<svg width="593" height="533" viewBox="0 0 593 533" fill="none" xmlns="http://www.w3.org/2000/svg">
<path fill-rule="evenodd" clip-rule="evenodd" d="M230.842 533H362.446C454.865 533 501.073 533 534.268 511.224C548.635 501.796 560.974 489.682 570.577 475.575C592.755 442.985 592.755 397.615 592.755 306.878C592.755 216.143 592.755 170.773 570.577 138.183C560.974 124.075 548.635 111.961 534.268 102.534C512.936 88.5411 486.235 83.5397 445.351 81.7521C425.841 81.7521 409.045 67.2374 405.219 48.4544C399.478 20.2804 374.282 0 345.02 0H248.269C219.005 0 193.809 20.2804 188.07 48.4544C184.244 67.2374 167.447 81.7521 147.937 81.7521C107.054 83.5397 80.3514 88.5411 59.0223 102.534C44.6523 111.961 32.3142 124.075 22.7125 138.183C0.533207 170.773 0.533203 216.143 0.533203 306.878C0.533203 397.615 0.533207 442.985 22.7125 475.575C32.3142 489.682 44.6523 501.796 59.0223 511.224C92.2163 533 138.425 533 230.842 533ZM296.644 185.742C228.504 185.742 173.265 239.977 173.265 306.878C173.265 373.781 228.504 428.014 296.644 428.014C364.785 428.014 420.025 373.781 420.025 306.878C420.025 239.977 364.785 185.742 296.644 185.742ZM296.644 234.197C255.76 234.197 222.617 266.737 222.617 306.878C222.617 347.019 255.76 379.561 296.644 379.561C337.528 379.561 370.672 347.019 370.672 306.878C370.672 266.737 337.528 234.197 296.644 234.197ZM436.474 209.969C436.474 196.589 447.522 185.742 461.152 185.742H494.053C507.68 185.742 518.728 196.589 518.728 209.969C518.728 223.351 507.68 234.197 494.053 234.197H461.152C447.522 234.197 436.474 223.351 436.474 209.969Z" fill="black"/>
</svg>
