<svg width="71" height="60" viewBox="0 0 71 60" fill="none" xmlns="http://www.w3.org/2000/svg">
<path d="M4.78408 25.4343C26.6316 15.8099 54.9046 4.08149 58.8072 2.45795C69.0454 -1.791 72.186 -0.976872 70.6232 8.43457C69.4982 15.1985 66.2527 37.5943 63.666 51.5331C62.1276 59.7976 58.6841 60.7789 53.2676 57.2029C50.6643 55.4815 37.5214 46.7809 34.6688 44.7377C32.0654 42.8759 28.4736 40.6354 32.9774 36.2248C34.5796 34.6525 45.0868 24.6131 53.2723 16.7929C53.4972 16.5843 53.6349 16.2984 53.6578 15.9925C53.6806 15.6867 53.5869 15.3835 53.3955 15.1438C53.2041 14.9042 52.9291 14.7458 52.6258 14.7005C52.3224 14.6552 52.0131 14.7263 51.76 14.8995C40.7243 22.2275 25.4293 32.3939 23.4823 33.7185C20.5413 35.7183 17.7163 36.6374 12.6454 35.1771C8.81372 34.0727 5.07202 32.7615 3.61494 32.2582C-1.99564 30.3318 -0.663991 27.8341 4.78408 25.4343Z" fill="white"/>
</svg>
