<svg width="47" height="55" viewBox="0 0 47 55" fill="none" xmlns="http://www.w3.org/2000/svg">
<g clip-path="url(#clip0_3_340)">
<path d="M12.8527 55C9.43213 54.9825 6.15815 53.6092 3.74873 51.1812C1.33932 48.7532 -0.00881749 45.4688 -2.53521e-05 42.0482V12.4045C-0.0129637 9.13225 1.27268 5.98848 3.57482 3.66296C5.87697 1.33744 9.00759 0.0201147 12.2798 0L26.8193 0C27.153 0.00197868 27.4722 0.136262 27.707 0.37338C27.9418 0.610498 28.0729 0.931078 28.0716 1.26476V10.1206C28.0721 12.541 29.0278 14.8633 30.731 16.5831C32.4341 18.3028 34.7471 19.2809 37.1674 19.3049C38.3306 19.3049 39.3491 19.3124 40.2536 19.3224C40.9592 19.3274 41.5751 19.3323 42.1236 19.3323C42.5119 19.3323 43.0119 19.3274 43.5573 19.3199C44.1862 19.3124 44.8937 19.3049 45.5277 19.3049C45.8539 19.3074 46.1658 19.4391 46.395 19.6711C46.6243 19.9032 46.7522 20.2167 46.7507 20.5429V42.6522C46.7629 45.9099 45.4825 49.0394 43.1904 51.3542C40.8982 53.6691 37.7814 54.9802 34.5238 55H12.8527ZM12.8801 37.5115C12.8846 38.0535 13.1005 38.5723 13.482 38.9574C13.8635 39.3425 14.3802 39.5633 14.9222 39.5729H29.7334C30.2754 39.5633 30.7921 39.3425 31.1736 38.9574C31.555 38.5723 31.771 38.0535 31.7755 37.5115C31.7743 36.9707 31.5587 36.4525 31.1758 36.0706C30.7929 35.6887 30.2742 35.4743 29.7334 35.4744H14.9222C14.3814 35.4743 13.8626 35.6887 13.4798 36.0706C13.0969 36.4525 12.8813 36.9707 12.8801 37.5115ZM12.8801 23.7874C12.8818 24.3278 13.0977 24.8454 13.4805 25.2269C13.8633 25.6083 14.3818 25.8223 14.9222 25.822H24.1233C24.6637 25.8223 25.1822 25.6083 25.565 25.2269C25.9478 24.8454 26.1638 24.3278 26.1654 23.7874C26.1609 23.2454 25.945 22.7265 25.5635 22.3415C25.182 21.9564 24.6653 21.7355 24.1233 21.726H14.9222C14.3802 21.7355 13.8635 21.9564 13.482 22.3415C13.1005 22.7265 12.8846 23.2454 12.8801 23.7874ZM37.5314 15.2881C36.0697 15.2735 34.6728 14.6825 33.6444 13.6437C32.616 12.6049 32.0391 11.2021 32.0392 9.74035V2.49337C32.0356 2.23228 32.1107 1.97616 32.2547 1.75833C32.3987 1.5405 32.6049 1.37104 32.8465 1.27199C33.0881 1.17295 33.3539 1.1489 33.6094 1.20297C33.8648 1.25704 34.0981 1.38674 34.2788 1.57519C37.2216 4.66322 42.3648 10.0682 45.2409 13.0902C45.4189 13.2746 45.5388 13.5073 45.5857 13.7592C45.6327 14.0112 45.6046 14.2714 45.5051 14.5076C45.4055 14.7437 45.2388 14.9455 45.0256 15.0878C44.8125 15.2301 44.5622 15.3067 44.3059 15.308C43.6944 15.308 43.053 15.3118 42.4047 15.3118C40.6812 15.3093 38.9109 15.3006 37.5314 15.2881Z" fill="white"/>
</g>
<defs>
<clipPath id="clip0_3_340">
<rect width="46.7507" height="55" fill="white"/>
</clipPath>
</defs>
</svg>
