<svg width="55" height="55" viewBox="0 0 55 55" fill="none" xmlns="http://www.w3.org/2000/svg">
<g clip-path="url(#clip0_3_190)">
<path d="M39.4145 55H15.5811C6.26193 55 0 48.4616 0 38.7295V16.2705C0 6.5384 6.26193 0 15.5826 0H39.4159C48.7381 0 55 6.5384 55 16.2705V38.7295C55 48.4616 48.7366 55 39.4145 55ZM17.3411 36.4115C15.9595 36.4115 14.5413 37.4638 12.5994 39.9315L12.4945 40.0642C11.2581 41.6291 9.9858 43.2403 8.72373 44.8096C8.53039 45.0518 8.39068 45.3323 8.31382 45.6326C8.23695 45.9328 8.2247 46.2459 8.27787 46.5513C8.32123 46.8304 8.42417 47.097 8.57968 47.3329C8.73519 47.5687 8.93964 47.7684 9.17913 47.9182C10.9985 48.9993 13.0847 49.5481 15.2005 49.5022H38.3739C39.6862 49.5119 40.9918 49.3139 42.2422 48.9155C43.6362 48.4512 44.9138 47.6919 45.9878 46.6892C47.0618 45.6866 47.9071 44.4642 48.466 43.1053C49.6129 40.3744 49.8109 37.6273 49.0079 35.5689C48.6932 34.7596 48.2126 34.0252 47.597 33.4129L47.586 33.4019C46.046 31.7482 44.3226 30.2754 42.449 29.0121C41.828 28.6034 41.1038 28.3791 40.3605 28.3653C38.4098 28.3653 36.9989 30.0615 36.6131 30.5815C36.1269 31.2363 35.7053 31.9323 35.2594 32.6693C35.165 32.8252 35.0702 32.9817 34.9749 33.1386L34.9558 33.1701C33.6409 35.3503 32.1508 37.8209 29.5643 39.2693C28.5541 39.8551 27.4107 40.1724 26.2431 40.1911C24.0372 40.1911 22.2728 38.9935 20.8545 38.0314C20.1376 37.517 19.3769 37.0665 18.5812 36.685C18.1922 36.5091 17.7709 36.4159 17.3441 36.4115H17.3411ZM17.8721 11C16.512 10.999 15.1821 11.4014 14.0507 12.1563C12.9193 12.9112 12.0373 13.9847 11.5161 15.2409C10.9949 16.4972 10.858 17.8799 11.1227 19.214C11.3874 20.5481 12.0419 21.7737 13.0032 22.7358C13.9646 23.6979 15.1898 24.3533 16.5237 24.619C17.8576 24.8847 19.2403 24.7488 20.497 24.2286C21.7537 23.7083 22.8278 22.827 23.5835 21.6962C24.3393 20.5654 24.7427 19.2358 24.7427 17.8757C24.7409 16.0536 24.0167 14.3065 22.7287 13.0176C21.4407 11.7287 19.6942 11.0031 17.8721 11Z" fill="white"/>
</g>
<defs>
<clipPath id="clip0_3_190">
<rect width="55" height="55" fill="white"/>
</clipPath>
</defs>
</svg>
