<svg width="55" height="55" viewBox="0 0 55 55" fill="none" xmlns="http://www.w3.org/2000/svg">
<g clip-path="url(#clip0_3_223)">
<path d="M19.4832 54.6531C19.1811 54.4505 18.9338 54.1764 18.7632 53.8552C18.5927 53.5339 18.5042 53.1755 18.5057 52.8117V39.5707C18.503 39.3691 18.5401 39.169 18.6149 38.9818C18.6896 38.7946 18.8005 38.6239 18.9412 38.4795C19.0819 38.3352 19.2496 38.2199 19.4348 38.1404C19.6201 38.0608 19.8192 38.0186 20.0207 38.016L33.3674 38.0578C33.7731 38.0651 34.1593 38.2328 34.4417 38.5241C34.7241 38.8155 34.8797 39.2068 34.8744 39.6125V47.1218C34.8762 47.5378 34.7601 47.9458 34.5394 48.2985C34.3188 48.6511 34.0026 48.934 33.6277 49.1143L21.5131 54.8042C21.2373 54.9323 20.9371 54.9991 20.6331 55C20.2239 55.0003 19.8239 54.8796 19.4832 54.6531ZM34.1975 33.121L19.2185 33.0733C18.992 33.0724 18.7682 33.0242 18.5615 32.9317C18.3548 32.8393 18.1697 32.7047 18.018 32.5365L1.57885 14.4591C0.559256 13.3272 -0.00343672 11.8568 -1.54229e-05 10.3334V6.03167C-0.0121431 5.25116 0.129687 4.47593 0.417365 3.75027C0.705043 3.02462 1.13293 2.36278 1.67656 1.80261C2.22018 1.24243 2.86889 0.794894 3.5856 0.48559C4.3023 0.176285 5.07294 0.0112774 5.85345 0L49.1487 0C49.9289 0.0115654 50.6991 0.176712 51.4154 0.486006C52.1317 0.7953 52.78 1.24268 53.3234 1.8026C53.8668 2.36251 54.2945 3.02399 54.5822 3.74925C54.8698 4.4745 55.0118 5.24933 55 6.02947V10.2417C55.003 11.8492 54.3735 13.3934 53.2473 14.5405L35.3584 32.6333C35.2097 32.7863 35.0321 32.908 34.8357 32.9914C34.6394 33.0748 34.4284 33.1181 34.2151 33.1188L34.1975 33.121Z" fill="white"/>
</g>
<defs>
<clipPath id="clip0_3_223">
<rect width="55" height="55" fill="white"/>
</clipPath>
</defs>
</svg>
