<svg width="55" height="55" viewBox="0 0 55 55" fill="none" xmlns="http://www.w3.org/2000/svg">
<path d="M27.5 30.0781C28.9239 30.0781 30.0781 28.9239 30.0781 27.5C30.0781 26.0761 28.9239 24.9219 27.5 24.9219C26.0761 24.9219 24.9219 26.0761 24.9219 27.5C24.9219 28.9239 26.0761 30.0781 27.5 30.0781Z" fill="white"/>
<path d="M27.5 5.15625C15.1798 5.15625 5.15625 15.1798 5.15625 27.5C5.15625 39.8202 15.1798 49.8438 27.5 49.8438C39.8202 49.8438 49.8438 39.8202 49.8438 27.5C49.8438 15.1798 39.8202 5.15625 27.5 5.15625ZM38.7868 17.3304L33.7509 29.9202C33.4051 30.7849 32.8872 31.5703 32.2288 32.2288C31.5703 32.8872 30.7849 33.4051 29.9202 33.7509L17.3304 38.7868C17.1742 38.8493 17.0031 38.8646 16.8383 38.8308C16.6735 38.797 16.5223 38.7156 16.4033 38.5967C16.2844 38.4777 16.203 38.3265 16.1692 38.1617C16.1354 37.9969 16.1507 37.8258 16.2132 37.6696L21.2491 25.0798C21.5949 24.2151 22.1128 23.4297 22.7712 22.7712C23.4297 22.1128 24.2151 21.5949 25.0798 21.2491L37.6696 16.2132C37.8258 16.1507 37.9969 16.1354 38.1617 16.1692C38.3265 16.203 38.4777 16.2844 38.5967 16.4033C38.7156 16.5223 38.797 16.6735 38.8308 16.8383C38.8646 17.0031 38.8493 17.1742 38.7868 17.3304Z" fill="white"/>
</svg>
