<svg width="55" height="55" viewBox="0 0 55 55" fill="none" xmlns="http://www.w3.org/2000/svg">
<path d="M13.8783 19.0208C14.0244 18.7877 14.1764 18.5585 14.3343 18.3333H40.6655C40.8237 18.5578 40.9749 18.7893 41.1216 19.0208L45.7508 16.3487L48.0424 20.3178L42.971 23.2466C43.3422 24.5987 43.5416 26.0264 43.5416 27.4999V29.7916H50.4166V34.3749H43.5416C43.5451 36.4909 43.1276 38.5865 42.3133 40.5395L48.0424 43.8487L45.7508 47.8178L39.962 44.4766C37.421 47.6151 33.7886 49.6785 29.7916 50.2539V32.0833H25.2083V50.2562C21.2109 49.6802 17.5785 47.616 15.0378 44.4766L9.24908 47.8178L6.95742 43.8487L12.6866 40.5418C11.8732 38.5877 11.4556 36.4916 11.4583 34.3749H4.58325V29.7916H11.4583V27.4999C11.4583 26.0264 11.6576 24.601 12.0289 23.2466L6.95742 20.3178L9.24908 16.3487L13.8783 19.0208ZM18.3333 13.7499C18.3333 11.3188 19.299 8.98719 21.0181 7.26811C22.7372 5.54902 25.0688 4.58325 27.4999 4.58325C29.9311 4.58325 32.2626 5.54902 33.9817 7.26811C35.7008 8.98719 36.6666 11.3188 36.6666 13.7499H18.3333Z" fill="white"/>
</svg>
