<svg width="68" height="55" viewBox="0 0 68 55" fill="none" xmlns="http://www.w3.org/2000/svg">
<g clip-path="url(#clip0_3_219)">
<path d="M44.6131 55C44.3101 55.0054 44.009 54.9505 43.7275 54.8383C43.446 54.7261 43.1897 54.5589 42.9735 54.3466C42.7573 54.1342 42.5856 53.8809 42.4684 53.6015C42.3511 53.322 42.2908 53.022 42.2908 52.719C42.2908 52.4159 42.3511 52.1159 42.4684 51.8365C42.5856 51.557 42.7573 51.3037 42.9735 51.0914C43.1897 50.879 43.446 50.7119 43.7275 50.5997C44.009 50.4875 44.3101 50.4325 44.6131 50.4379H49.4809C51.4558 50.4553 53.357 49.6885 54.767 48.3056C56.1771 46.9228 56.9809 45.0369 57.002 43.0621V32.186H48.9867V35.2169C48.9847 37.0548 48.253 38.8167 46.9524 40.1152C45.6518 41.4138 43.8887 42.1427 42.0508 42.1417H25.1709C23.3337 42.1415 21.5716 41.4122 20.2717 40.1138C18.9718 38.8154 18.2403 37.0541 18.238 35.2169V32.186H10.2249V43.076C10.2477 45.0444 11.0492 46.9237 12.4539 48.3028C13.8587 49.6819 15.7525 50.4485 17.721 50.435H22.6959C22.9989 50.4296 23.3 50.4846 23.5815 50.5968C23.863 50.7089 24.1193 50.8761 24.3355 51.0885C24.5517 51.3008 24.7234 51.5541 24.8406 51.8335C24.9579 52.113 25.0182 52.413 25.0182 52.716C25.0182 53.0191 24.9579 53.3191 24.8406 53.5985C24.7234 53.878 24.5517 54.1313 24.3355 54.3436C24.1193 54.556 23.863 54.7231 23.5815 54.8353C23.3 54.9475 22.9989 55.0025 22.6959 54.9971H17.7181C14.5286 55.0204 11.4599 53.779 9.18371 51.5447C6.90752 49.3104 5.60932 46.2653 5.57333 43.076V32.186H2.32906C2.02626 32.1914 1.72542 32.1365 1.44409 32.0244C1.16276 31.9122 0.906594 31.7452 0.690538 31.533C0.474482 31.3208 0.30287 31.0676 0.185722 30.7884C0.068575 30.5091 0.00823975 30.2093 0.00823975 29.9064C0.00823975 29.6036 0.068575 29.3038 0.185722 29.0245C0.30287 28.7452 0.474482 28.4921 0.690538 28.2799C0.906594 28.0677 1.16276 27.9006 1.44409 27.7885C1.72542 27.6764 2.02626 27.6214 2.32906 27.6269H64.9C65.2028 27.6214 65.5036 27.6764 65.785 27.7885C66.0663 27.9006 66.3225 28.0677 66.5385 28.2799C66.7546 28.4921 66.9262 28.7452 67.0433 29.0245C67.1605 29.3038 67.2208 29.6036 67.2208 29.9064C67.2208 30.2093 67.1605 30.5091 67.0433 30.7884C66.9262 31.0676 66.7546 31.3208 66.5385 31.533C66.3225 31.7452 66.0663 31.9122 65.785 32.0244C65.5036 32.1365 65.2028 32.1914 64.9 32.186H61.6521V43.0621C61.6176 46.258 60.3168 49.3098 58.035 51.5478C55.7533 53.7859 52.6769 55.0274 49.4809 55H44.6131ZM19.0667 22.9871C18.8503 22.981 18.6444 22.8925 18.491 22.7397C18.3377 22.587 18.2485 22.3814 18.2417 22.165V18.359C18.2444 16.5226 18.9759 14.7625 20.2756 13.4651C21.5753 12.1678 23.3368 11.4394 25.1731 11.44H42.053C42.9633 11.4363 43.8654 11.6127 44.7073 11.9589C45.5493 12.3051 46.3144 12.8144 46.9588 13.4574C47.6032 14.1005 48.1141 14.8646 48.4621 15.7058C48.8101 16.547 48.9884 17.4487 48.9867 18.359V22.165C48.978 22.3821 48.8871 22.5879 48.7324 22.7405C48.5777 22.8932 48.3708 22.9813 48.1536 22.9871H19.0667ZM57.0005 17.6081V11.935C56.9788 9.96084 56.175 8.07588 54.7653 6.69367C53.3556 5.31145 51.4551 4.54486 49.4809 4.56207H44.6131C44.0033 4.56834 43.4159 4.33254 42.9797 3.90638C42.5435 3.48023 42.2941 2.8985 42.2862 2.28874C42.2885 1.98561 42.3505 1.68592 42.4688 1.40679C42.587 1.12766 42.7591 0.874573 42.9752 0.662005C43.1913 0.449436 43.4472 0.281555 43.7282 0.167963C44.0093 0.0543713 44.3099 -0.0027029 44.6131 4.62314e-06H49.4809C52.6764 -0.0279546 55.7524 1.21305 58.0339 3.45064C60.3153 5.68823 61.6158 8.73959 61.6499 11.935V17.6081C61.639 18.2176 61.3893 18.7984 60.9545 19.2256C60.5196 19.6528 59.9344 19.8922 59.3248 19.8922C58.7152 19.8922 58.13 19.6528 57.6952 19.2256C57.2603 18.7984 57.0106 18.2176 56.9998 17.6081H57.0005ZM5.57259 17.6081V11.924C5.60724 8.73425 6.90472 5.68826 9.1808 3.45328C11.4569 1.21829 14.526 -0.0234692 17.7159 4.62314e-06H22.6937C23.305 -0.0056631 23.8934 0.231629 24.3298 0.659714C24.7661 1.0878 25.0146 1.67164 25.0206 2.28287C25.0177 2.58542 24.9552 2.88443 24.8367 3.16281C24.7182 3.44119 24.5459 3.69347 24.3298 3.90522C24.1137 4.11697 23.858 4.28404 23.5772 4.39688C23.2965 4.50971 22.9963 4.5661 22.6937 4.5628H17.7159C15.748 4.55047 13.8553 5.31801 12.4519 6.69752C11.0485 8.07703 10.2485 9.95622 10.2271 11.924V17.6059C10.2162 18.2161 9.9662 18.7977 9.5308 19.2255C9.0954 19.6532 8.50945 19.8929 7.89909 19.8929C7.28874 19.8929 6.70279 19.6532 6.26739 19.2255C5.83199 18.7977 5.58196 18.2161 5.57113 17.6059L5.57259 17.6081Z" fill="white"/>
</g>
<defs>
<clipPath id="clip0_3_219">
<rect width="67.221" height="55" fill="white"/>
</clipPath>
</defs>
</svg>
