<svg width="47" height="55" viewBox="0 0 47 55" fill="none" xmlns="http://www.w3.org/2000/svg">
<g clip-path="url(#clip0_3_233)">
<path d="M23.3872 55C22.6628 54.9737 21.9617 54.7372 21.3694 54.3193C15.4961 50.5429 10.3377 45.7566 6.13307 40.1819C2.11936 34.9071 2.16764e-08 28.9231 2.16764e-08 22.8766C-0.000132724 19.8548 0.609434 16.8641 1.79221 14.0834C2.97499 11.3027 4.70666 8.7892 6.88357 6.69342C11.2835 2.38708 17.2 -0.0169523 23.3566 -3.33688e-05C36.2561 -3.33688e-05 46.7507 10.2614 46.7507 22.8766C46.7507 28.9231 44.6313 34.9071 40.6176 40.1844C36.395 45.7437 31.2387 50.5273 25.3788 54.3218C24.7965 54.7396 24.1035 54.9755 23.3872 55ZM23.3566 15.8871C21.3156 15.8897 19.359 16.7019 17.9161 18.1453C16.4731 19.5887 15.6616 21.5456 15.6596 23.5866C15.6559 24.5883 15.854 25.5804 16.2421 26.5038C16.6302 27.4271 17.2004 28.2629 17.9186 28.9611C19.0012 30.0135 20.3671 30.7274 21.8492 31.0155C23.3313 31.3035 24.8652 31.1532 26.2632 30.5828C27.6611 30.0125 28.8624 29.0469 29.72 27.8043C30.5776 26.5617 31.0543 25.096 31.0917 23.5866C31.074 21.5439 30.2523 19.5904 28.8045 18.1493C27.3567 16.7081 25.3994 15.8954 23.3566 15.8871Z" fill="white"/>
</g>
<defs>
<clipPath id="clip0_3_233">
<rect width="46.7507" height="55" fill="white"/>
</clipPath>
</defs>
</svg>
