<svg width="55" height="55" viewBox="0 0 55 55" fill="none" xmlns="http://www.w3.org/2000/svg">
<g clip-path="url(#clip0_3_196)">
<path d="M38.72 55C37.7987 54.9972 36.8871 54.8128 36.0372 54.4574C35.1873 54.102 34.4158 53.5825 33.7668 52.9286C33.1178 52.2747 32.6042 51.4994 32.2551 50.6468C31.9061 49.7942 31.7286 48.8812 31.7328 47.96V38.5858C31.726 37.6636 31.9017 36.7492 32.2497 35.8953C32.5977 35.0413 33.1113 34.2646 33.7607 33.6098C34.4101 32.9551 35.1826 32.4353 36.0337 32.0803C36.8848 31.7253 37.7978 31.5422 38.72 31.5414H48.0157C48.937 31.5446 49.8487 31.7294 50.6986 32.0853C51.5485 32.4411 52.3198 32.9611 52.9685 33.6154C53.6172 34.2697 54.1305 35.0454 54.4791 35.8983C54.8277 36.7512 55.0047 37.6645 55 38.5858V47.96C55.0043 49.8188 54.2716 51.6035 52.9624 52.9231C51.6533 54.2427 49.8745 54.9895 48.0157 55H38.72ZM6.98423 55C5.12557 54.9891 3.34697 54.2422 2.03791 52.9227C0.728859 51.6032 -0.00395275 49.8187 -4.06719e-05 47.96V38.5858C-0.00448005 37.6646 0.172711 36.7515 0.521401 35.8988C0.87009 35.0461 1.38344 34.2705 2.0321 33.6163C2.68075 32.9621 3.45199 32.4422 4.30172 32.0863C5.15144 31.7304 6.06298 31.5455 6.98423 31.5421H16.28C17.2018 31.5433 18.1144 31.7267 18.9651 32.0818C19.8159 32.4369 20.588 32.9567 21.2371 33.6113C21.8862 34.2659 22.3994 35.0425 22.7473 35.8962C23.0952 36.7499 23.2709 37.6639 23.2642 38.5858V47.96C23.2685 48.881 23.0911 49.7938 22.7423 50.6462C22.3935 51.4987 21.8801 52.274 21.2314 52.9278C20.5828 53.5816 19.8116 54.1012 18.962 54.4568C18.1123 54.8123 17.201 54.9969 16.28 55H6.98423ZM38.72 23.4586C37.7981 23.458 36.8854 23.2752 36.0345 22.9205C35.1836 22.5659 34.4112 22.0465 33.7618 21.3922C33.1124 20.7379 32.5988 19.9616 32.2506 19.108C31.9024 18.2545 31.7264 17.3404 31.7328 16.4186V7.04367C31.7282 6.12216 31.9054 5.2088 32.2543 4.35586C32.6031 3.50291 33.1167 2.72713 33.7657 2.0729C34.4147 1.41867 35.1863 0.898834 36.0364 0.543141C36.8865 0.187449 37.7984 0.00288124 38.72 0L48.0157 0C49.875 0.0106691 51.6543 0.758084 52.9635 2.07842C54.2727 3.39876 55.005 5.18429 55 7.04367V16.4171C55.0044 17.3382 54.8272 18.2511 54.4784 19.1036C54.1297 19.9561 53.6163 20.7315 52.9676 21.3854C52.3189 22.0392 51.5476 22.5588 50.6979 22.9143C49.8482 23.2698 48.9368 23.4543 48.0157 23.4571L38.72 23.4586ZM6.98276 23.4586C6.06177 23.4552 5.15048 23.2704 4.30098 22.9146C3.45148 22.5588 2.68044 22.0391 2.03193 21.3851C1.38342 20.7312 0.87016 19.9558 0.5215 19.1034C0.172841 18.2509 -0.00438339 17.3381 -4.06719e-05 16.4171V7.04367C-0.00473091 5.18441 0.727714 3.3991 2.03683 2.07884C3.34595 0.758593 5.125 0.0110553 6.98423 0L16.28 0C17.2013 0.00316958 18.1129 0.187955 18.9627 0.543786C19.8125 0.899616 20.5838 1.41951 21.2325 2.07372C21.8812 2.72793 22.3946 3.50362 22.7432 4.35642C23.0918 5.20921 23.2689 6.12238 23.2642 7.04367V16.4171C23.2707 17.3388 23.0949 18.2526 22.7469 19.106C22.3989 19.9594 21.8855 20.7356 21.2364 21.3899C20.5873 22.0442 19.8152 22.5636 18.9646 22.9184C18.114 23.2732 17.2016 23.4563 16.28 23.4571L6.98276 23.4586Z" fill="white"/>
</g>
<defs>
<clipPath id="clip0_3_196">
<rect width="55" height="55" fill="white"/>
</clipPath>
</defs>
</svg>
