<svg width="62" height="55" viewBox="0 0 62 55" fill="none" xmlns="http://www.w3.org/2000/svg">
<g clip-path="url(#clip0_3_194)">
<path d="M44.3522 54.9992H16.758C11.5889 54.9992 7.32508 53.5081 4.42682 50.6873C1.52857 47.8664 0 43.7158 0 38.6868V16.3132C0 11.2842 1.53101 7.13441 4.42764 4.31194C7.32426 1.48946 11.5898 0 16.758 0H44.3522C49.5294 0 53.7933 1.49679 56.6826 4.32823C59.5719 7.15967 61.1102 11.3567 61.1102 16.4452H48.1825V16.5495C45.3143 16.5395 42.5568 17.6557 40.503 19.6579C39.4958 20.6269 38.6944 21.7891 38.147 23.0751C37.5996 24.361 37.3173 25.7443 37.3172 27.1419C37.3571 29.9862 38.5233 32.6985 40.5602 34.6842C42.597 36.6699 45.3382 37.7668 48.1825 37.7343H61.1102V38.6868C61.1102 43.7158 59.5792 47.8656 56.6826 50.6881C53.7859 53.5105 49.5205 54.9992 44.3522 54.9992ZM14.4758 11.8912C13.8695 11.8854 13.2852 12.1178 12.8485 12.5384C12.4118 12.9589 12.1576 13.534 12.1406 14.1401C12.15 14.7535 12.3999 15.3387 12.8365 15.7697C13.2731 16.2006 13.8615 16.4429 14.475 16.4443H31.7235C32.0346 16.4639 32.3463 16.4195 32.6395 16.3139C32.9327 16.2083 33.2012 16.0437 33.4283 15.8304C33.6555 15.617 33.8365 15.3594 33.9603 15.0734C34.0841 14.7874 34.1479 14.479 34.1479 14.1674C34.1479 13.8557 34.0841 13.5474 33.9603 13.2614C33.8365 12.9754 33.6555 12.7177 33.4283 12.5044C33.2012 12.291 32.9327 12.1265 32.6395 12.0209C32.3463 11.9153 32.0346 11.8709 31.7235 11.8904L14.4758 11.8912ZM58.8288 33.1788H48.3365C46.892 33.1962 45.484 32.7245 44.3415 31.8403C43.199 30.9561 42.3893 29.7115 42.0438 28.3087C41.8723 27.4214 41.902 26.5068 42.1309 25.6325C42.3598 24.7582 42.7819 23.9464 43.3662 23.2569C43.9592 22.556 44.6963 21.9913 45.5273 21.6012C46.3583 21.2112 47.2637 21.005 48.1817 20.9967H58.8288C59.4261 20.9901 60.0017 21.2207 60.4293 21.6378C60.857 22.0549 61.1018 22.6246 61.1102 23.2219V30.9552C61.0925 31.5493 60.8446 32.1133 60.419 32.5281C59.9933 32.943 59.4231 33.1763 58.8288 33.1788ZM48.6144 24.5736C48.01 24.5711 47.4287 24.805 46.9946 25.2255C46.7787 25.4326 46.6066 25.681 46.4885 25.9559C46.3703 26.2308 46.3086 26.5266 46.3069 26.8258C46.3173 27.439 46.568 28.0237 47.005 28.4542C47.4419 28.8846 48.0304 29.1264 48.6437 29.1276H49.6476C49.9586 29.1471 50.2703 29.1027 50.5635 28.9971C50.8567 28.8915 51.1252 28.7269 51.3524 28.5136C51.5795 28.3002 51.7606 28.0426 51.8843 27.7566C52.0081 27.4706 52.0719 27.1622 52.0719 26.8506C52.0719 26.539 52.0081 26.2306 51.8843 25.9446C51.7606 25.6586 51.5795 25.401 51.3524 25.1876C51.1252 24.9743 50.8567 24.8097 50.5635 24.7041C50.2703 24.5985 49.9586 24.5541 49.6476 24.5736H48.6144Z" fill="white"/>
</g>
<defs>
<clipPath id="clip0_3_194">
<rect width="61.1102" height="55" fill="white"/>
</clipPath>
</defs>
</svg>
