<svg width="55" height="55" viewBox="0 0 55 55" fill="none" xmlns="http://www.w3.org/2000/svg">
<g clip-path="url(#clip0_3_203)">
<path d="M27.5 55C22.0603 55 16.7427 53.3867 12.22 50.3642C7.69727 47.3417 4.17253 43.0457 2.09164 38.0197C0.0107485 32.9937 -0.532815 27.4635 0.529706 22.1285C1.59223 16.7936 4.2131 11.8936 8.0608 8.04834C11.9085 4.20309 16.8102 1.58536 22.1458 0.526258C27.4815 -0.532847 33.0113 0.0142559 38.036 2.09837C43.0607 4.18247 47.3544 7.70996 50.374 12.2346C53.3936 16.7593 55.0035 22.0779 55 27.5176C54.9893 34.8062 52.088 41.7929 46.9326 46.945C41.7771 52.0972 34.7886 54.994 27.5 55ZM24.3694 16.5829C23.788 16.5816 23.2145 16.718 22.6959 16.9811C22.0322 17.3505 21.5093 17.9291 21.2087 18.6267C21.0126 19.263 20.8532 19.9102 20.7313 20.5649C20.392 22.8569 20.2414 25.173 20.2811 27.4897C20.2591 29.7336 20.3921 31.9764 20.6793 34.2019C20.7064 34.3012 20.7284 34.4018 20.7453 34.5033C20.8632 35.2249 21.0543 35.9326 21.3158 36.6153C21.5948 37.1572 22.0173 37.612 22.5372 37.9301C23.0571 38.2483 23.6543 38.4175 24.2638 38.4193H24.3701C25.2256 38.2944 26.0579 38.0435 26.84 37.675C29.6465 36.5097 35.1949 32.8797 37.4308 30.4583L37.5914 30.2999C37.8536 30.0299 38.1016 29.7464 38.3343 29.4507C38.7514 28.8929 38.9746 28.214 38.9701 27.5176C38.9783 26.7685 38.7351 26.0382 38.2793 25.4437C38.247 25.4107 38.1854 25.3433 38.1055 25.256C37.9287 25.0631 37.6611 24.7713 37.4059 24.5161C35.2513 22.2075 29.5834 18.3744 26.5753 17.1923C25.8681 16.8984 25.1271 16.6937 24.3694 16.5829Z" fill="white"/>
</g>
<defs>
<clipPath id="clip0_3_203">
<rect width="55" height="55" fill="white"/>
</clipPath>
</defs>
</svg>
