<svg width="69" height="55" viewBox="0 0 69 55" fill="none" xmlns="http://www.w3.org/2000/svg">
<g clip-path="url(#clip0_3_257)">
<path d="M34.3413 55C20.1469 55 7.38539 45.0817 0.201653 28.4651C0.068605 28.1547 0 27.8205 0 27.4828C0 27.1451 0.068605 26.8109 0.201653 26.5005C7.37585 9.90587 20.1381 0 34.3413 0H34.375C41.5508 0.0659035 48.496 2.54257 54.0943 7.03193C60.0248 11.6138 65.021 18.3487 68.5483 26.5005C68.6814 26.8109 68.75 27.1451 68.75 27.4828C68.75 27.8205 68.6814 28.1547 68.5483 28.4651C61.3646 45.0817 48.5907 55 34.375 55H34.3413ZM20.9609 27.5C20.9484 30.1517 21.7231 32.7474 23.1868 34.9585C24.6506 37.1695 26.7376 38.8965 29.1835 39.9207C31.6294 40.9449 34.3242 41.2202 36.9267 40.7118C39.5292 40.2033 41.9223 38.934 43.8029 37.0646C45.6835 35.1952 46.9671 32.8098 47.4911 30.2103C48.0151 27.6109 47.7559 24.9145 46.7463 22.4625C45.7368 20.0105 44.0223 17.9132 41.82 16.4363C39.6177 14.9594 37.0267 14.1692 34.375 14.1658C32.6186 14.1604 30.8784 14.501 29.2537 15.1682C27.629 15.8355 26.1516 16.8162 24.906 18.0544C23.6603 19.2926 22.6708 20.7641 21.9939 22.3848C21.317 24.0055 20.966 25.7436 20.9609 27.5ZM25.9945 27.4941C25.9986 26.9456 26.0556 26.3987 26.1646 25.861H26.3318C28.1091 25.8648 29.8187 25.1791 31.1007 23.9482C32.3828 22.7172 33.1375 21.037 33.2061 19.261C33.5936 19.1943 33.9862 19.1612 34.3794 19.162C36.0204 19.1756 37.6208 19.6745 38.9789 20.5958C40.337 21.5171 41.3922 22.8196 42.0115 24.3394C42.6309 25.8591 42.7867 27.5282 42.4594 29.1363C42.132 30.7444 41.3362 32.2198 40.1721 33.3766C39.008 34.5333 37.5277 35.3198 35.9175 35.637C34.3073 35.9541 32.6393 35.7877 31.1235 35.1588C29.6077 34.5299 28.3118 33.4665 27.3991 32.1026C26.4864 30.7387 25.9977 29.1352 25.9945 27.4941Z" fill="white"/>
</g>
<defs>
<clipPath id="clip0_3_257">
<rect width="68.75" height="55" fill="white"/>
</clipPath>
</defs>
</svg>
