<svg width="55" height="45" viewBox="0 0 55 45" fill="none" xmlns="http://www.w3.org/2000/svg">
<g clip-path="url(#clip0_3_247)">
<path d="M24.1927 44.9988C22.7207 44.8869 21.3262 44.2942 20.2239 43.3121L11.4078 35.9583H6.88093C3.3866 35.9583 0.825795 33.4268 0.362329 29.5115C-0.119311 24.7928 -0.119311 20.0373 0.362329 15.3186C0.868329 11.6109 3.54866 9.04347 6.88093 9.04347H11.4078L20.0567 1.79813C21.2744 0.751893 22.7944 0.121906 24.3951 0C27.0029 0 29.4353 1.8788 30.3153 4.88913C30.6003 6.1198 30.7937 7.36989 30.8939 8.62913L31.0135 9.73427C31.4637 13.4266 31.4637 31.5575 31.0135 35.2748L30.8939 36.4203C30.8061 37.644 30.6187 38.8585 30.3337 40.0517C29.4537 43.0584 27.1136 45.0039 24.4567 45.0039C24.3702 45.001 24.2866 45.001 24.1927 44.9988ZM45.7278 44.4495C45.2278 44.0848 44.8885 43.5405 44.7812 42.9309C44.6739 42.3214 44.8068 41.694 45.1521 41.1803C48.5453 36.1827 50.4153 29.5475 50.4153 22.5001C50.4153 15.4528 48.5467 8.82053 45.1514 3.82287C44.8063 3.3093 44.6733 2.6821 44.7803 2.07267C44.8874 1.46325 45.2261 0.918892 45.7256 0.553667C45.9722 0.37805 46.2516 0.253736 46.5471 0.188096C46.8427 0.122455 47.1484 0.116824 47.4462 0.171536C47.7439 0.226247 48.0277 0.340189 48.2806 0.506604C48.5335 0.673019 48.7505 0.888521 48.9185 1.14033C52.8397 6.9168 55.0001 14.5039 55.0001 22.5001C55.0001 30.4964 52.8397 38.0864 48.9185 43.8599C48.7108 44.169 48.4306 44.4225 48.1023 44.5983C47.774 44.7741 47.4077 44.8668 47.0353 44.8683C46.5665 44.8681 46.1095 44.7217 45.7278 44.4495ZM37.8232 36.8559C37.3232 36.491 36.9842 35.9465 36.8772 35.3369C36.7703 34.7273 36.9038 34.0999 37.2497 33.5867C39.3563 30.2787 40.4381 26.4218 40.3591 22.5009C40.4384 18.5798 39.3566 14.7229 37.2497 11.4151C36.9039 10.902 36.7703 10.2749 36.8768 9.66539C36.9833 9.05588 37.3217 8.5113 37.821 8.14587C38.0684 7.97069 38.3484 7.84687 38.6444 7.78173C38.9405 7.71659 39.2466 7.71146 39.5446 7.76663C39.8427 7.8218 40.1267 7.93615 40.3798 8.10294C40.6329 8.26972 40.85 8.48555 41.0183 8.73767C43.6577 12.837 45.0247 17.6259 44.9468 22.5009C45.0247 27.3758 43.6577 32.1647 41.0183 36.2641C40.8506 36.5165 40.6338 36.7327 40.3809 36.8997C40.128 37.0668 39.8441 37.1813 39.5461 37.2365C39.248 37.2917 38.942 37.2865 38.646 37.2211C38.35 37.1557 38.0702 37.0315 37.8232 36.8559Z" fill="white"/>
</g>
<defs>
<clipPath id="clip0_3_247">
<rect width="55" height="45.001" fill="white"/>
</clipPath>
</defs>
</svg>
