<svg width="55" height="61" viewBox="0 0 55 61" fill="none" xmlns="http://www.w3.org/2000/svg">
<path d="M29.9957 28.8167L39.9016 18.9108L7.90596 0.928062C5.78542 -0.217632 3.79888 -0.378431 2.05689 0.874463L29.9957 28.8167ZM41.59 40.4143L51.8879 34.6222C53.8979 33.4966 55 31.902 55 30.1332C55 28.3678 53.8979 26.7698 51.8912 25.6442L42.5682 20.4082L32.0727 30.9004L41.59 40.4143ZM0.334998 3.3099C0.120599 3.96985 0 4.70684 0 5.51419V54.7757C0 56.052 0.281399 57.1508 0.790596 58.0252L27.9154 30.897L0.334998 3.3099ZM29.9957 32.974L3.02168 59.9514C3.53758 60.149 4.09368 60.2529 4.67992 60.2529C5.72512 60.2529 6.81386 59.9447 7.92271 59.3283L38.9268 41.9184L29.9957 32.974Z" fill="white"/>
</svg>
