<svg width="55" height="50" viewBox="0 0 55 50" fill="none" xmlns="http://www.w3.org/2000/svg">
<g clip-path="url(#clip0_3_262)">
<path d="M47.6191 49.5H7.36934C6.51283 49.4445 5.66944 49.2611 4.86721 48.9559C3.91256 48.5747 3.04358 48.0069 2.31121 47.2856C1.57883 46.5643 0.997795 45.7041 0.602143 44.7553C0.208864 43.8302 0.00421234 42.8359 0.000182759 41.8306C-0.00384682 40.8253 0.192827 39.8294 0.578676 38.9011L20.7043 3.94094C21.4082 2.68258 22.4576 1.65199 23.7285 0.970942C24.8772 0.334708 26.1686 0.000620597 27.4817 9.08049e-06C28.8695 -0.0021018 30.2329 0.36385 31.4331 1.06055C32.6332 1.75725 33.6271 2.75976 34.3135 3.96588L54.3012 38.6562C54.6911 39.5258 54.924 40.4576 54.9891 41.4084C55.0443 42.4222 54.8951 43.4367 54.5503 44.3917C54.2055 45.3466 53.6721 46.2225 52.9819 46.9671C51.5967 48.4834 49.6701 49.3933 47.6191 49.5ZM27.4957 33.7487C27.1806 33.7487 26.8686 33.8108 26.5774 33.9314C26.2863 34.052 26.0218 34.2287 25.799 34.4515C25.5762 34.6743 25.3994 34.9389 25.2789 35.23C25.1583 35.5211 25.0962 35.8331 25.0962 36.1482C25.0962 36.4633 25.1583 36.7753 25.2789 37.0664C25.3994 37.3576 25.5762 37.6221 25.799 37.8449C26.0218 38.0677 26.2863 38.2444 26.5774 38.365C26.8686 38.4856 27.1806 38.5477 27.4957 38.5477C28.1345 38.5421 28.7449 38.2832 29.1931 37.828C29.6413 37.3728 29.8906 36.7584 29.8863 36.1196C29.883 35.4884 29.6295 34.8843 29.1813 34.4398C28.7331 33.9953 28.1269 33.7468 27.4957 33.7487ZM27.4957 16.7486C26.8606 16.7429 26.2492 16.9893 25.7956 17.4338C25.3419 17.8782 25.083 18.4844 25.0757 19.1195V26.829C25.0865 27.4657 25.3456 28.0729 25.7976 28.5214C26.2497 28.9699 26.8589 29.2241 27.4957 29.2299C28.1308 29.2278 28.7392 28.9738 29.1874 28.5237C29.6356 28.0736 29.8869 27.4642 29.8863 26.829V19.1195C29.883 18.4883 29.6295 17.8841 29.1813 17.4397C28.7331 16.9952 28.1269 16.7467 27.4957 16.7486Z" fill="white"/>
</g>
<defs>
<clipPath id="clip0_3_262">
<rect width="55" height="49.4985" fill="white"/>
</clipPath>
</defs>
</svg>
