<svg width="56" height="55" viewBox="0 0 56 55" fill="none" xmlns="http://www.w3.org/2000/svg">
<g clip-path="url(#clip0_3_188)">
<path d="M27.5 5.67175e-07C32.2458 0.0191743 36.9087 1.24435 41.051 3.56044C45.1932 5.87654 48.6788 9.20754 51.1802 13.2406H27.2456C24.2459 13.323 21.3492 14.3528 18.9706 16.1825C16.592 18.0121 14.8536 20.5477 14.0044 23.4259L6.36556 9.93025C8.90568 6.78188 12.1281 4.25199 15.7894 2.53169C19.4507 0.811394 23.4551 -0.0543039 27.5 5.67175e-07ZM27.5 37.1759C26.2624 37.1784 25.0365 36.9365 23.8926 36.4641C22.7487 35.9916 21.7094 35.298 20.8343 34.4228C19.9592 33.5477 19.2655 32.5084 18.793 31.3645C18.3206 30.2206 18.0787 28.9947 18.0812 27.7571C18.0662 25.2306 19.0457 22.7997 20.808 20.9892C22.5703 19.1788 24.974 18.1343 27.5 18.0813C28.7376 18.0787 29.9635 18.3206 31.1074 18.793C32.2513 19.2655 33.2906 19.9592 34.1657 20.8343C35.0408 21.7094 35.7345 22.7487 36.207 23.8926C36.6794 25.0365 36.9213 26.2624 36.9187 27.5C36.9696 28.7625 36.7626 30.0222 36.3106 31.2021C35.8586 32.382 35.1709 33.4575 34.2896 34.3629C33.4082 35.2683 32.3517 35.9847 31.1844 36.4683C30.017 36.9519 28.7634 37.1927 27.5 37.1759ZM22.9164 54.7456C16.5168 53.5937 10.7219 50.2389 6.53639 45.2626C2.35082 40.2863 0.038411 34.0024 0 27.5C0.00275019 22.7691 1.23086 18.1196 3.56469 14.0044L14.5138 32.8474C15.5849 35.4091 17.3889 37.5974 19.6992 39.1375C22.0095 40.6777 24.7234 41.5011 27.5 41.5044C28.6191 41.4595 29.7295 41.2886 30.8103 40.9949L22.9164 54.7456ZM27.7544 55L38.7062 36.1577C40.6801 33.7036 41.7572 30.6494 41.7594 27.5C41.7683 23.7813 40.3033 20.2107 37.6853 17.5698H53.4724C54.6996 20.7344 55.3047 24.1061 55.2544 27.5C55 42.5232 42.7776 55 27.7544 55Z" fill="white"/>
</g>
<defs>
<clipPath id="clip0_3_188">
<rect width="55.2544" height="55" fill="white"/>
</clipPath>
</defs>
</svg>
