<svg width="55" height="55" viewBox="0 0 55 55" fill="none" xmlns="http://www.w3.org/2000/svg">
<g clip-path="url(#clip0_713_198)">
<path d="M52.2202 35.0441C51.4502 34.0587 47.1281 34.5766 45.1871 34.8081C44.5981 34.8791 44.5088 34.3658 45.0381 33.9923C48.4848 31.5723 54.1315 32.2735 54.7892 33.0825C55.4492 33.9006 54.615 39.561 51.3861 42.2652C50.8888 42.6777 50.4167 42.4577 50.6367 41.91C51.3631 40.095 52.9902 36.0295 52.2179 35.0441M49.7131 37.9041C43.6929 42.35 34.9617 44.7104 27.445 44.7104C16.9102 44.7104 7.42273 40.8146 0.242936 34.3337C-0.320814 33.825 0.183352 33.1306 0.861686 33.5248C8.60752 38.0325 18.1844 40.7458 28.0775 40.7458C35.2106 40.7108 42.2666 39.2669 48.84 36.497C49.8575 36.0662 50.71 37.1685 49.7131 37.9041ZM50.8177 26.3587C49.0738 26.3587 47.7331 25.8798 46.7958 24.9241C45.8586 23.9662 45.3911 22.5935 45.3911 20.806C45.3911 18.975 45.87 17.5404 46.8279 16.4977C47.7858 15.4573 49.115 14.9348 50.8177 14.9348C52.1286 14.9348 53.1529 15.251 53.8908 15.8858C54.6311 16.5183 55 17.3639 55 18.4181C55 19.4745 54.6013 20.2743 53.8083 20.8152C53.0108 21.3583 51.8375 21.6287 50.2906 21.6287C49.4886 21.6287 48.7919 21.5508 48.2006 21.3973C48.2854 22.3391 48.5696 23.0152 49.0554 23.4231C49.5413 23.831 50.2769 24.0373 51.2623 24.0373C51.6565 24.0373 52.0415 24.0121 52.4127 23.9616C52.9794 23.8757 53.5403 23.7555 54.0925 23.6018C54.1274 23.5961 54.1626 23.5931 54.1979 23.5927C54.4363 23.5927 54.5554 23.7531 54.5554 24.0785V25.0502C54.5554 25.2748 54.5256 25.4329 54.4638 25.5245C54.3661 25.6397 54.2371 25.7241 54.0925 25.7675C53.0468 26.165 51.9365 26.3655 50.8177 26.3587ZM50.1211 19.7289C50.8406 19.7289 51.3608 19.6189 51.684 19.4012C52.0094 19.1835 52.1698 18.8489 52.1698 18.3975C52.1698 17.5106 51.6427 17.0683 50.5886 17.0683C49.2365 17.0683 48.455 17.8979 48.2419 19.5593C48.8056 19.6739 49.4336 19.7289 50.1211 19.7289ZM27.5711 26.0425C27.3877 26.0425 27.2525 26.0012 27.1677 25.9164C27.0852 25.8316 27.0417 25.6964 27.0417 25.5154V15.7804C27.0417 15.5833 27.0852 15.4458 27.1677 15.3679C27.2525 15.29 27.3877 15.2533 27.5711 15.2533H29.0904C29.4136 15.2533 29.6106 15.4068 29.6817 15.7162L29.8513 16.2868C30.5961 15.7941 31.2698 15.4458 31.8679 15.2418C32.4638 15.0356 33.0825 14.9348 33.715 14.9348C34.9823 14.9348 35.8761 15.3862 36.3963 16.2868C37.0236 15.8536 37.7056 15.5053 38.4244 15.251C39.0569 15.0402 39.7123 14.9348 40.3883 14.9348C41.3738 14.9348 42.1369 15.2098 42.68 15.7598C43.2208 16.3075 43.4913 17.0752 43.4913 18.0606V25.5154C43.4913 25.6987 43.4523 25.8316 43.3767 25.9164C43.2988 26.0012 43.1613 26.0425 42.9642 26.0425H40.9361C40.7527 26.0425 40.6198 26.0012 40.535 25.9164C40.4502 25.8316 40.409 25.6964 40.409 25.5154V18.7366C40.409 17.7787 39.9781 17.2998 39.1211 17.2998C38.3602 17.2998 37.5925 17.4831 36.8179 17.8498V25.5154C36.8179 25.6987 36.779 25.8316 36.7034 25.9164C36.6254 26.0012 36.4879 26.0425 36.2908 26.0425H34.265C34.0817 26.0425 33.9465 26.0012 33.8617 25.9164C33.7792 25.8316 33.7356 25.6964 33.7356 25.5154V18.7366C33.7356 17.7787 33.3071 17.2998 32.4477 17.2998C31.6594 17.2998 30.8848 17.49 30.1263 17.8704V25.5154C30.1263 25.6987 30.0873 25.8316 30.0094 25.9164C29.9315 26.0012 29.794 26.0425 29.5969 26.0425H27.5711ZM22.8869 13.5827C22.3506 13.5827 21.9244 13.436 21.599 13.1404C21.2736 12.8448 21.1131 12.4437 21.1131 11.9373C21.1131 11.4308 21.2736 11.0275 21.599 10.7318C21.9221 10.4362 22.3506 10.2896 22.8869 10.2896C23.4209 10.2896 23.8494 10.4362 24.1748 10.7318C24.3383 10.8856 24.4664 11.073 24.5502 11.2811C24.6341 11.4893 24.6718 11.7131 24.6606 11.9373C24.6606 12.4414 24.5002 12.8448 24.1748 13.1404C23.8517 13.436 23.4209 13.5827 22.8869 13.5827ZM21.8717 26.0425C21.6883 26.0425 21.5554 25.9989 21.4706 25.9164C21.3859 25.8316 21.3446 25.6964 21.3446 25.5131V15.7804C21.3446 15.5833 21.3859 15.4458 21.4706 15.3679C21.5554 15.29 21.6906 15.2533 21.8717 15.2533H23.8998C24.0969 15.2533 24.2344 15.29 24.3123 15.3679C24.3902 15.4458 24.4269 15.5833 24.4269 15.7804V25.5131C24.4269 25.6964 24.3879 25.8316 24.3123 25.9164C24.2344 25.9989 24.0969 26.0425 23.8998 26.0425H21.8717ZM13.4361 26.0425C13.2527 26.0425 13.1175 26.0012 13.0327 25.9164C12.9502 25.8316 12.9067 25.6964 12.9067 25.5154V15.7804C12.9067 15.5833 12.9502 15.4458 13.0327 15.3679C13.1175 15.29 13.2527 15.2533 13.4361 15.2533H14.9554C15.2786 15.2533 15.4756 15.4068 15.5467 15.7162L15.8217 16.8552C16.3831 16.2364 16.9148 15.7964 17.4144 15.5375C17.9163 15.2762 18.4456 15.1479 19.0094 15.1479H19.3073C19.5021 15.1479 19.6442 15.1846 19.7267 15.2625C19.8115 15.3404 19.855 15.4779 19.855 15.675V17.4464C19.855 17.6298 19.8161 17.765 19.7381 17.8498C19.6602 17.9323 19.5227 17.9758 19.3256 17.9758C19.1986 17.9736 19.0716 17.966 18.9452 17.9529C18.7485 17.9374 18.5513 17.9306 18.354 17.9323C18.0331 17.9323 17.6367 17.9781 17.1715 18.0698C16.7086 18.1614 16.3144 18.2783 15.9913 18.4181V25.5154C15.9913 25.6987 15.95 25.8316 15.8744 25.9164C15.7965 26.0012 15.659 26.0425 15.4619 26.0425H13.4361ZM0.788352 30.3921C0.605019 30.3921 0.472102 30.3531 0.387311 30.2775C0.302519 30.1995 0.261269 30.0598 0.261269 29.865V15.7804C0.261269 15.5833 0.302519 15.4458 0.387311 15.3679C0.472102 15.29 0.605019 15.2533 0.788352 15.2533H2.31002C2.63085 15.2533 2.83023 15.4068 2.90127 15.7162L3.04794 16.2662C3.48954 15.8451 4.0097 15.5149 4.57877 15.2946C5.15887 15.0586 5.77896 14.9364 6.40523 14.9348C7.77106 14.9348 8.85044 15.4343 9.64564 16.4335C10.4431 17.435 10.8396 18.7848 10.8396 20.4898C10.8396 21.6585 10.6425 22.6783 10.2484 23.5514C9.85419 24.4223 9.32023 25.096 8.64419 25.5681C7.96271 26.0411 7.14985 26.288 6.32044 26.2739C5.74294 26.2739 5.19523 26.1823 4.67273 25.9989C4.18485 25.8343 3.73348 25.5767 3.34356 25.2404V29.865C3.34356 30.0598 3.3046 30.1995 3.22898 30.2775C3.15106 30.3531 3.01127 30.3921 2.81648 30.3921H0.788352ZM5.41294 23.9525C6.20127 23.9525 6.78106 23.6843 7.1546 23.1504C7.52814 22.6141 7.71606 21.7685 7.71606 20.6158C7.71606 19.4471 7.53273 18.5946 7.16606 18.0606C6.79939 17.5243 6.21502 17.2585 5.41294 17.2585C4.6796 17.2585 3.9921 17.4487 3.34356 17.8268V23.3818C3.96231 23.7623 4.6521 23.9525 5.41294 23.9525Z" fill="white"/>
</g>
<defs>
<clipPath id="clip0_713_198">
<rect width="55" height="55" fill="white"/>
</clipPath>
</defs>
</svg>
