<svg width="47" height="55" viewBox="0 0 47 55" fill="none" xmlns="http://www.w3.org/2000/svg">
<g clip-path="url(#clip0_3_254)">
<path d="M23.5988 54.9999C23.2604 55.0007 22.9268 54.9192 22.627 54.7624L12.7244 49.6385C10.198 48.3939 7.91864 46.7008 5.99725 44.6417C2.25591 40.5157 0.162811 35.1579 0.116566 29.5884L0 11.3405C0.00318898 10.3021 0.330448 9.2906 0.936114 8.44713C1.54178 7.60367 2.39564 6.97031 3.37855 6.63544L21.5623 0.291607C22.6566 -0.0915362 23.8476 -0.09768 24.9458 0.274153L43.1981 6.39732C44.1856 6.7189 45.0478 7.34136 45.6638 8.17749C46.2799 9.01362 46.6189 10.0215 46.6334 11.06L46.7512 29.321C46.7772 34.8849 44.7555 40.264 41.0713 44.4335C39.1762 46.5145 36.9187 48.2337 34.4089 49.5075L24.5992 54.7524C24.2954 54.9124 23.9578 54.9979 23.6143 55.0018L23.5988 54.9999ZM16.2227 24.7674C15.6689 24.7651 15.1366 24.9815 14.7416 25.3696C14.5506 25.556 14.3992 25.7791 14.2965 26.0254C14.1937 26.2717 14.1417 26.5363 14.1435 26.8032C14.1454 27.0701 14.2011 27.3338 14.3073 27.5787C14.4135 27.8236 14.568 28.0445 14.7615 28.2283L20.0307 33.2973C20.4207 33.6736 20.9419 33.8831 21.4837 33.8814H21.5056C22.054 33.8806 22.5802 33.6646 22.9711 33.2799L33.6927 22.7091C33.8838 22.5228 34.0354 22.2999 34.1384 22.0537C34.2413 21.8074 34.2936 21.543 34.2919 21.2761C34.2903 21.0092 34.2349 20.7454 34.1289 20.5004C34.0229 20.2554 33.8686 20.0344 33.6752 19.8504C33.2791 19.4726 32.7519 19.263 32.2045 19.2658C31.6571 19.2686 31.1321 19.4835 30.7399 19.8654L21.4731 28.9993L17.6794 25.3515C17.2878 24.9758 16.7654 24.767 16.2227 24.7693V24.7674Z" fill="white"/>
</g>
<defs>
<clipPath id="clip0_3_254">
<rect width="46.7512" height="55" fill="white"/>
</clipPath>
</defs>
</svg>
