<svg width="58" height="55" viewBox="0 0 58 55" fill="none" xmlns="http://www.w3.org/2000/svg">
<g clip-path="url(#clip0_3_199)">
<path d="M29.0423 55L28.2936 54.5368C21.6574 50.4162 15.477 45.6033 9.85602 40.1789C5.96334 36.2451 2.98676 31.5007 1.13862 26.2842C-0.515399 21.3032 -0.369249 15.8997 1.5516 11.0154C2.51305 8.60726 3.99444 6.44111 5.88994 4.6717C7.78545 2.9023 10.0483 1.57331 12.5169 0.779649C13.3523 0.491458 14.2149 0.288943 15.0913 0.175228H15.4386C16.244 0.056946 17.057 -0.001623 17.871 3.03873e-07H18.189C19.9932 0.0533914 21.7793 0.375749 23.4883 0.956421H23.6604C23.756 0.999191 23.8439 1.05734 23.9206 1.12856C24.5523 1.31828 25.1632 1.57148 25.7439 1.88428L26.8431 2.37368C27.1301 2.53847 27.406 2.7218 27.6691 2.92253C27.8343 3.04295 27.9778 3.14639 28.0882 3.21509L28.2063 3.28379C28.466 3.42713 28.7163 3.58673 28.9559 3.76161C32.1112 1.3228 35.9865 -0.000187105 39.9744 3.03873e-07H40.1018C41.9305 -0.0133367 43.7493 0.270841 45.4868 0.841404C47.9385 1.62971 50.185 2.95171 52.0647 4.71227C53.9443 6.47282 55.4102 8.62816 56.3571 11.0232C58.2464 15.9098 58.4039 21.2963 56.8032 26.285C54.979 31.5199 52.0016 36.278 48.0913 40.2075C42.4986 45.6186 36.3559 50.4307 29.7633 54.5654L29.0408 54.9992L29.0423 55ZM43.2458 9.0254C42.7633 9.02967 42.2939 9.18287 41.9018 9.46405C41.5097 9.74523 41.214 10.1407 41.0551 10.5963C40.8604 11.1832 40.9026 11.823 41.1726 12.3792C41.4427 12.9355 41.9193 13.3644 42.5009 13.5744C43.4168 13.9295 44.2032 14.5541 44.7564 15.3659C45.3095 16.1776 45.6032 17.138 45.5987 18.1203V18.2091C45.5408 18.8561 45.738 19.5001 46.1483 20.0038C46.5669 20.4901 47.1606 20.7914 47.8002 20.8421C48.3854 20.8204 48.9421 20.584 49.364 20.1779C49.7859 19.7718 50.0435 19.2245 50.0875 18.6406V18.2947C50.1359 16.3267 49.5753 14.3916 48.4822 12.7543C47.3891 11.117 45.817 9.85723 43.9807 9.14737C43.7452 9.06663 43.4979 9.02542 43.2489 9.0254H43.2458Z" fill="white"/>
</g>
<defs>
<clipPath id="clip0_3_199">
<rect width="57.8947" height="55" fill="white"/>
</clipPath>
</defs>
</svg>
