<svg width="53" height="55" viewBox="0 0 53 55" fill="none" xmlns="http://www.w3.org/2000/svg">
<g clip-path="url(#clip0_3_235)">
<path d="M28.0374 55H24.2135C23.4575 55.0214 22.7049 54.8918 21.9997 54.6186C21.2945 54.3454 20.6509 53.9341 20.1067 53.409C19.5625 52.8839 19.1286 52.2554 18.8304 51.5604C18.5323 50.8654 18.3758 50.1178 18.3703 49.3616C18.3112 48.0243 17.7423 46.7605 16.7803 45.8297C15.8183 44.8989 14.5363 44.3719 13.1979 44.357C12.3288 44.316 11.4674 44.5368 10.7252 44.9909C9.8219 45.5233 8.79394 45.8076 7.74543 45.8149C6.73591 45.8122 5.74436 45.5476 4.86767 45.0471C3.99098 44.5465 3.25914 43.8271 2.74366 42.9591L0.805915 39.6576C0.289481 38.81 0.0115568 37.8387 0.00150347 36.8462C-0.00854984 35.8538 0.249641 34.877 0.748799 34.0192C1.28449 33.1028 2.0615 32.3511 2.99511 31.846C3.73845 31.4365 4.35228 30.827 4.76707 30.0866C5.09887 29.5267 5.31588 28.9064 5.40545 28.2619C5.49502 27.6173 5.45536 26.9614 5.28877 26.3323C5.12425 25.6821 4.83189 25.0712 4.42876 24.5352C4.02563 23.9992 3.5198 23.5489 2.94078 23.2104C2.28579 22.8431 1.711 22.3484 1.25029 21.7553C0.789585 21.1623 0.452298 20.483 0.258321 19.7576C0.0643451 19.0321 0.0176084 18.2751 0.120868 17.5313C0.224127 16.7875 0.475292 16.0719 0.859547 15.4267L2.74018 12.1823C3.52171 10.8626 4.79125 9.9036 6.27429 9.51257C7.75733 9.12154 9.33468 9.32994 10.6653 10.0927C11.4239 10.4985 12.2713 10.71 13.1317 10.7084C14.0469 10.7136 14.9483 10.4855 15.751 10.0457C16.5536 9.6059 17.2309 8.96885 17.719 8.19466C18.1746 7.47184 18.4007 6.62801 18.3675 5.77422C18.3182 4.74478 18.5935 3.72585 19.1546 2.86134C19.6828 2.01048 20.4136 1.30378 21.2817 0.804455C22.1498 0.305128 23.1281 0.0287371 24.1292 0L28.0917 0C29.1006 0.0110021 30.0899 0.27964 30.9658 0.780418C31.8417 1.2812 32.575 1.9975 33.0963 2.86134C33.6474 3.72902 33.9115 4.74809 33.8513 5.77422C33.8184 6.62759 34.0434 7.47107 34.497 8.19466C34.987 8.96929 35.6661 9.60649 36.4704 10.0463C37.2746 10.486 38.1775 10.7139 39.0941 10.7084C39.9604 10.7096 40.8138 10.4982 41.5793 10.0927C42.9055 9.32998 44.4791 9.12161 45.9581 9.51291C47.4371 9.90421 48.7018 10.8635 49.4773 12.1823L51.3579 15.4267C51.7495 16.0698 52.0068 16.7856 52.1141 17.5309C52.2214 18.2762 52.1765 19.0355 51.9822 19.763C51.7879 20.4905 51.4481 21.171 50.9835 21.7636C50.5188 22.3561 49.9389 22.8483 49.2787 23.2104C48.6985 23.549 48.1919 24.0003 47.7888 24.5378C47.3858 25.0753 47.0945 25.688 46.9321 26.3399C46.7687 26.9692 46.7329 27.6249 46.8269 28.2683C46.921 28.9116 47.1429 29.5297 47.4796 30.0859C47.8759 30.8297 48.4812 31.4413 49.2209 31.8453C50.1501 32.3661 50.9332 33.1125 51.4979 34.0157C51.9898 34.8759 52.244 35.8514 52.2345 36.8422C52.2249 37.8331 51.9519 38.8035 51.4436 39.6541L49.4759 42.9556C49.0904 43.6149 48.578 44.1912 47.9682 44.6509C47.3584 45.1107 46.6635 45.4449 45.9236 45.6342C45.1837 45.8234 44.4137 45.8639 43.658 45.7534C42.9024 45.6429 42.1762 45.3834 41.5215 44.9902C40.7767 44.5424 39.9172 44.3221 39.0488 44.3563C37.705 44.362 36.415 44.8853 35.4471 45.8174C34.4791 46.7496 33.9076 48.0189 33.8513 49.3616C33.8476 50.1159 33.6934 50.8618 33.3977 51.5557C33.102 52.2496 32.6707 52.8775 32.1293 53.4026C31.5878 53.9277 30.947 54.3395 30.2444 54.6138C29.5417 54.8881 28.7914 55.0194 28.0374 55ZM26.1568 19.7459C24.0668 19.7212 22.0523 20.5265 20.5553 21.9852C19.0583 23.4439 18.2011 25.4369 18.1718 27.5268C18.1696 28.5535 18.3754 29.57 18.7769 30.5149C19.1785 31.4598 19.7673 32.3135 20.5079 33.0245C22.0227 34.4859 24.0492 35.2966 26.154 35.2834C27.7027 35.311 29.2243 34.8744 30.5228 34.0299C31.8214 33.1853 32.8374 31.9714 33.4401 30.5445C34.0428 29.1176 34.2047 27.5429 33.9048 26.0232C33.605 24.5035 32.8571 23.1083 31.7576 22.0173C30.2641 20.5481 28.2489 19.7313 26.154 19.7459H26.1568Z" fill="white"/>
</g>
<defs>
<clipPath id="clip0_3_235">
<rect width="52.2397" height="55" fill="white"/>
</clipPath>
</defs>
</svg>
