<svg width="55" height="55" viewBox="0 0 55 55" fill="none" xmlns="http://www.w3.org/2000/svg">
<mask id="mask0_713_176" style="mask-type:luminance" maskUnits="userSpaceOnUse" x="1" y="5" width="53" height="45">
<path fill-rule="evenodd" clip-rule="evenodd" d="M24.0626 45.8333C26.4707 45.8365 28.8556 45.3638 31.0804 44.4424C33.3052 43.5209 35.326 42.1689 37.0266 40.4639C38.7315 38.7633 40.0835 36.7426 41.005 34.5178C41.9264 32.293 42.3991 29.908 42.3959 27.5C42.3991 25.0919 41.9264 22.707 41.005 20.4822C40.0835 18.2574 38.7315 16.2366 37.0266 14.536C35.326 12.8311 33.3052 11.479 31.0804 10.5576C28.8556 9.63613 26.4707 9.16343 24.0626 9.16664C21.6545 9.16343 19.2696 9.63613 17.0448 10.5576C14.82 11.479 12.7992 12.8311 11.0986 14.536C9.39371 16.2366 8.04167 18.2574 7.12021 20.4822C6.19875 22.707 5.72605 25.0919 5.72926 27.5C5.72605 29.908 6.19875 32.293 7.12021 34.5178C8.04167 36.7426 9.39371 38.7633 11.0986 40.4639C12.7992 42.1689 14.82 43.5209 17.0448 44.4424C19.2696 45.3638 21.6545 45.8365 24.0626 45.8333Z" fill="white" stroke="white" stroke-width="8.33333" stroke-linecap="round"/>
<path d="M41.8884 45.3246C44.2325 42.9863 46.0914 40.2079 47.3584 37.149C48.6253 34.09 49.2753 30.8109 49.271 27.5C49.2753 24.1891 48.6253 20.9099 47.3584 17.851C46.0914 14.7921 44.2325 12.0137 41.8884 9.67542" stroke="white" stroke-width="8.33333" stroke-linecap="round"/>
</mask>
<g mask="url(#mask0_713_176)">
<path d="M0 0H55V55H0V0Z" fill="white"/>
</g>
</svg>
