<svg width="55" height="55" viewBox="0 0 55 55" fill="none" xmlns="http://www.w3.org/2000/svg">
<path d="M4.72082 23.0542C5.88957 24.2229 7.74582 24.3375 9.00624 23.2833C19.7083 14.4833 35.2458 14.4833 45.9708 23.2604C47.2542 24.3146 49.1333 24.2229 50.3021 23.0542C51.6542 21.7021 51.5625 19.4562 50.0729 18.2417C36.9875 7.53957 18.0583 7.53957 4.94999 18.2417C3.46041 19.4333 3.34582 21.6792 4.72082 23.0542ZM22.5042 40.8375L25.8729 44.2062C26.7667 45.1 28.2104 45.1 29.1042 44.2062L32.4729 40.8375C33.55 39.7604 33.3208 37.9041 31.9458 37.1937C30.5596 36.482 29.0238 36.1107 27.4656 36.1107C25.9074 36.1107 24.3716 36.482 22.9854 37.1937C21.6792 37.9041 21.4271 39.7604 22.5042 40.8375ZM13.9562 32.2896C15.0792 33.4125 16.8437 33.5271 18.15 32.5875C20.8841 30.6531 24.1508 29.6143 27.5 29.6143C30.8492 29.6143 34.1159 30.6531 36.85 32.5875C38.1562 33.5042 39.9208 33.4125 41.0437 32.2896L41.0667 32.2666C42.4417 30.8916 42.35 28.5542 40.7687 27.4312C32.8854 21.725 22.1375 21.725 14.2312 27.4312C12.65 28.5771 12.5583 30.8917 13.9562 32.2896Z" fill="white"/>
</svg>
