<svg width="55" height="55" viewBox="0 0 55 55" fill="none" xmlns="http://www.w3.org/2000/svg">
<path d="M27.5001 38.9583C28.7157 38.9583 29.8814 38.4754 30.741 37.6159C31.6005 36.7563 32.0834 35.5905 32.0834 34.375C32.0834 33.1594 31.6005 31.9936 30.741 31.1341C29.8814 30.2745 28.7157 29.7916 27.5001 29.7916C26.2845 29.7916 25.1187 30.2745 24.2592 31.1341C23.3996 31.9936 22.9167 33.1594 22.9167 34.375C22.9167 35.5905 23.3996 36.7563 24.2592 37.6159C25.1187 38.4754 26.2845 38.9583 27.5001 38.9583ZM41.2501 18.3333C42.4657 18.3333 43.6314 18.8162 44.491 19.6757C45.3505 20.5353 45.8334 21.7011 45.8334 22.9166V45.8333C45.8334 47.0489 45.3505 48.2147 44.491 49.0742C43.6314 49.9337 42.4657 50.4166 41.2501 50.4166H13.7501C12.5345 50.4166 11.3687 49.9337 10.5092 49.0742C9.64963 48.2147 9.16675 47.0489 9.16675 45.8333V22.9166C9.16675 21.7011 9.64963 20.5353 10.5092 19.6757C11.3687 18.8162 12.5345 18.3333 13.7501 18.3333H16.0417V13.75C16.0417 10.711 17.249 7.79655 19.3978 5.64769C21.5467 3.49884 24.4611 2.29163 27.5001 2.29163C29.0048 2.29163 30.4948 2.588 31.885 3.16384C33.2752 3.73967 34.5383 4.58369 35.6023 5.64769C36.6663 6.7117 37.5104 7.97486 38.0862 9.36504C38.662 10.7552 38.9584 12.2452 38.9584 13.75V18.3333H41.2501ZM27.5001 6.87496C25.6767 6.87496 23.928 7.59929 22.6387 8.8886C21.3494 10.1779 20.6251 11.9266 20.6251 13.75V18.3333H34.3751V13.75C34.3751 11.9266 33.6508 10.1779 32.3614 8.8886C31.0721 7.59929 29.3234 6.87496 27.5001 6.87496Z" fill="white"/>
</svg>
