<svg width="55" height="55" viewBox="0 0 55 55" fill="none" xmlns="http://www.w3.org/2000/svg">
<path d="M41.0781 35.75L30.0781 27.5L41.0781 19.25C41.3983 19.0099 41.6582 18.6985 41.8372 18.3405C42.0162 17.9825 42.1094 17.5877 42.1094 17.1875C42.1094 16.7873 42.0162 16.3925 41.8372 16.0345C41.6582 15.6765 41.3983 15.3651 41.0781 15.125L27.3281 4.8125C26.9451 4.52523 26.4896 4.35029 26.0128 4.30729C25.5359 4.2643 25.0565 4.35494 24.6283 4.56906C24.2 4.78318 23.8399 5.11232 23.5882 5.5196C23.3365 5.92688 23.2031 6.39621 23.2031 6.875V22.3438L13.5781 15.125C13.0311 14.7147 12.3435 14.5386 11.6667 14.6353C10.9898 14.732 10.379 15.0936 9.96876 15.6406C9.5585 16.1876 9.38235 16.8752 9.47905 17.5521C9.57575 18.229 9.93738 18.8397 10.4844 19.25L21.4844 27.5L10.4844 35.75C10.2135 35.9531 9.98535 36.2076 9.81285 36.499C9.64035 36.7903 9.52693 37.1127 9.47905 37.4479C9.43117 37.7831 9.44977 38.1244 9.5338 38.4523C9.61782 38.7803 9.76562 39.0885 9.96876 39.3594C10.1719 39.6302 10.4264 39.8584 10.7177 40.0309C11.009 40.2034 11.3315 40.3168 11.6667 40.3647C12.0018 40.4126 12.3431 40.394 12.6711 40.31C12.9991 40.2259 13.3073 40.0781 13.5781 39.875L23.2031 32.6562V48.125C23.2031 48.6038 23.3365 49.0731 23.5882 49.4804C23.8399 49.8877 24.2 50.2168 24.6283 50.4309C25.0565 50.6451 25.5359 50.7357 26.0128 50.6927C26.4896 50.6497 26.9451 50.4748 27.3281 50.1875L41.0781 39.875C41.3983 39.6349 41.6582 39.3235 41.8372 38.9655C42.0162 38.6075 42.1094 38.2127 42.1094 37.8125C42.1094 37.4123 42.0162 37.0175 41.8372 36.6595C41.6582 36.3015 41.3983 35.9901 41.0781 35.75ZM28.3594 12.0313L35.2344 17.1875L28.3594 22.3438V12.0313ZM28.3594 42.9688V32.6562L35.2344 37.8125L28.3594 42.9688Z" fill="white"/>
</svg>
