<svg width="55" height="51" viewBox="0 0 55 51" fill="none" xmlns="http://www.w3.org/2000/svg">
<path d="M50.7692 0H4.23077C3.1087 0 2.03259 0.44574 1.23916 1.23916C0.44574 2.03259 0 3.1087 0 4.23077V40.1923C0 41.3144 0.44574 42.3905 1.23916 43.1839C2.03259 43.9773 3.1087 44.4231 4.23077 44.4231H8.46154V48.6538C8.46154 49.2149 8.68441 49.7529 9.08112 50.1496C9.47783 50.5464 10.0159 50.7692 10.5769 50.7692C11.138 50.7692 11.676 50.5464 12.0727 50.1496C12.4694 49.7529 12.6923 49.2149 12.6923 48.6538V44.4231H42.3077V48.6538C42.3077 49.2149 42.5306 49.7529 42.9273 50.1496C43.324 50.5464 43.862 50.7692 44.4231 50.7692C44.9841 50.7692 45.5222 50.5464 45.9189 50.1496C46.3156 49.7529 46.5385 49.2149 46.5385 48.6538V44.4231H50.7692C51.8913 44.4231 52.9674 43.9773 53.7608 43.1839C54.5543 42.3905 55 41.3144 55 40.1923V4.23077C55 3.1087 54.5543 2.03259 53.7608 1.23916C52.9674 0.44574 51.8913 0 50.7692 0ZM48.6538 25.3846H41.012C40.4919 27.6665 39.1495 29.6767 37.2411 31.0315C35.3327 32.3862 32.9921 32.9905 30.6664 32.7288C28.3408 32.4671 26.193 31.3578 24.6334 29.6129C23.0737 27.8679 22.2116 25.6096 22.2116 23.2692C22.2116 20.9289 23.0737 18.6705 24.6334 16.9256C26.193 15.1806 28.3408 14.0714 30.6664 13.8097C32.9921 13.548 35.3327 14.1522 37.2411 15.507C39.1495 16.8617 40.4919 18.872 41.012 21.1538H48.6538C49.2149 21.1538 49.7529 21.3767 50.1496 21.7734C50.5464 22.1701 50.7692 22.7082 50.7692 23.2692C50.7692 23.8303 50.5464 24.3683 50.1496 24.765C49.7529 25.1617 49.2149 25.3846 48.6538 25.3846ZM37.0192 23.2692C37.0192 24.3152 36.7091 25.3377 36.128 26.2073C35.5469 27.077 34.7209 27.7549 33.7546 28.1551C32.7882 28.5554 31.7249 28.6601 30.699 28.4561C29.6732 28.252 28.7309 27.7483 27.9913 27.0087C27.2517 26.2691 26.748 25.3268 26.5439 24.301C26.3399 23.2751 26.4446 22.2118 26.8449 21.2454C27.2451 20.2791 27.923 19.4531 28.7927 18.872C29.6623 18.2909 30.6848 17.9808 31.7308 17.9808C33.1312 17.9877 34.4723 18.5471 35.4626 19.5374C36.4529 20.5277 37.0123 21.8688 37.0192 23.2692Z" fill="white"/>
</svg>
