<svg width="55" height="55" viewBox="0 0 55 55" fill="none" xmlns="http://www.w3.org/2000/svg">
<path d="M45.8105 9.16671C45.8105 6.64587 43.7709 4.58337 41.2501 4.58337H24.8188C23.6042 4.58337 22.4355 5.06462 21.5647 5.93546L10.5188 16.9813C9.648 17.8521 9.16675 19.0209 9.16675 20.2355V45.8334C9.16675 48.3542 11.2292 50.4167 13.7501 50.4167H41.273C43.7938 50.4167 45.8334 48.3542 45.8334 45.8334L45.8105 9.16671ZM18.3334 43.5417C17.073 43.5417 16.0417 42.5105 16.0417 41.25C16.0417 39.9896 17.073 38.9584 18.3334 38.9584C19.5938 38.9584 20.6251 39.9896 20.6251 41.25C20.6251 42.5105 19.5938 43.5417 18.3334 43.5417ZM36.6667 43.5417C35.4063 43.5417 34.3751 42.5105 34.3751 41.25C34.3751 39.9896 35.4063 38.9584 36.6667 38.9584C37.9272 38.9584 38.9584 39.9896 38.9584 41.25C38.9584 42.5105 37.9272 43.5417 36.6667 43.5417ZM18.3334 34.375C17.073 34.375 16.0417 33.3438 16.0417 32.0834V27.5C16.0417 26.2396 17.073 25.2084 18.3334 25.2084C19.5938 25.2084 20.6251 26.2396 20.6251 27.5V32.0834C20.6251 33.3438 19.5938 34.375 18.3334 34.375ZM27.5001 43.5417C26.2397 43.5417 25.2084 42.5105 25.2084 41.25V36.6667C25.2084 35.4063 26.2397 34.375 27.5001 34.375C28.7605 34.375 29.7917 35.4063 29.7917 36.6667V41.25C29.7917 42.5105 28.7605 43.5417 27.5001 43.5417ZM27.5001 29.7917C26.2397 29.7917 25.2084 28.7605 25.2084 27.5C25.2084 26.2396 26.2397 25.2084 27.5001 25.2084C28.7605 25.2084 29.7917 26.2396 29.7917 27.5C29.7917 28.7605 28.7605 29.7917 27.5001 29.7917ZM36.6667 34.375C35.4063 34.375 34.3751 33.3438 34.3751 32.0834V27.5C34.3751 26.2396 35.4063 25.2084 36.6667 25.2084C37.9272 25.2084 38.9584 26.2396 38.9584 27.5V32.0834C38.9584 33.3438 37.9272 34.375 36.6667 34.375Z" fill="white"/>
</svg>
