<svg width="73" height="49" viewBox="0 0 73 49" fill="none" xmlns="http://www.w3.org/2000/svg">
<path d="M66.6332 8.89112C65.8591 8.84789 65.1279 8.99357 64.4526 9.17441C63.7972 9.34993 63.0097 9.61243 62.0951 9.91733L62.0284 9.93957L61.7558 10.0303C60.1203 10.5746 58.8939 10.9827 57.8652 11.6433C55.7965 12.972 54.3088 15.036 53.7025 17.4188C53.4011 18.6036 53.4017 19.8961 53.4026 21.6199L53.4027 21.9071V26.6408L53.4026 26.928C53.4017 28.6518 53.4011 29.9443 53.7025 31.1291C54.3088 33.5119 55.7965 35.5759 57.8652 36.9046C58.8939 37.5652 60.1203 37.9733 61.7559 38.5176L62.0284 38.6083L62.0951 38.6306C63.0097 38.9355 63.7972 39.198 64.4526 39.3735C65.1279 39.5543 65.8591 39.7 66.6332 39.6568C69.1835 39.5144 71.4188 37.9033 72.3603 35.5289C72.6461 34.8082 72.7392 34.0684 72.7811 33.3706C72.8219 32.6933 72.8219 31.8632 72.8219 30.8991V17.6485C72.8219 16.6845 72.8219 15.8545 72.7811 15.1773C72.7392 14.4795 72.6461 13.7397 72.3603 13.019C71.4188 10.6446 69.1835 9.0335 66.6332 8.89112Z" fill="white"/>
<path d="M32.4082 0.144211C30.2942 -2.06265e-05 30.1081 -1.13679e-05 26.7908 2.06818e-07H24.1845C20.8672 -1.13679e-05 18.2537 -2.06265e-05 16.1397 0.144211C13.985 0.291225 12.1726 0.596164 10.4893 1.29342C6.32584 3.01798 3.01798 6.32584 1.29342 10.4893C0.596164 12.1726 0.291225 13.985 0.144211 16.1397C-2.06265e-05 18.2537 -1.13679e-05 20.8672 2.06818e-07 24.1845V24.3634C-1.13679e-05 27.6807 -2.06265e-05 30.2942 0.144211 32.4082C0.291225 34.5629 0.596164 36.3753 1.29342 38.0586C3.01798 42.2221 6.32584 45.5299 10.4893 47.2545C12.1726 47.9517 13.985 48.2567 16.1397 48.4037C18.2537 48.5479 20.8672 48.5479 24.1845 48.5479H26.7908C30.1081 48.5479 30.2942 48.5479 32.4082 48.4037C34.5629 48.2567 36.3753 47.9517 38.0586 47.2545C42.2221 45.5299 45.5299 42.2221 47.2545 38.0586C47.9517 36.3753 48.2567 34.5629 48.4037 32.4082C48.5479 30.2942 48.5479 27.6807 48.5479 24.3634V24.1845C48.5479 20.8672 48.5479 18.2537 48.4037 16.1397C48.2567 13.985 47.9517 12.1726 47.2545 10.4893C45.5299 6.32584 42.2221 3.01798 38.0586 1.29342C36.3753 0.596164 34.5629 0.291225 32.4082 0.144211Z" fill="white"/>
</svg>
