<svg width="71" height="71" viewBox="0 0 71 71" fill="none" xmlns="http://www.w3.org/2000/svg">
<g clip-path="url(#clip0_805_369)">
<path d="M35.5 0C28.4788 0 21.6152 2.08204 15.7773 5.98283C9.93933 9.88362 5.3892 15.428 2.70229 21.9147C0.0153818 28.4015 -0.687637 35.5394 0.682138 42.4257C2.05191 49.312 5.43296 55.6375 10.3977 60.6023C15.3625 65.5671 21.688 68.9481 28.5743 70.3179C35.4606 71.6877 42.5985 70.9846 49.0853 68.2977C55.5721 65.6108 61.1164 61.0607 65.0172 55.2227C68.918 49.3848 71 42.5212 71 35.5C70.9725 26.0933 67.2236 17.0797 60.572 10.4281C53.9204 3.77646 44.9068 0.0274724 35.5 0ZM48.8125 40.825H34.6125C33.9117 40.808 33.2444 40.522 32.7487 40.0263C32.253 39.5307 31.967 38.8633 31.95 38.1625V16.8625C31.95 16.1564 32.2305 15.4791 32.7298 14.9798C33.2292 14.4805 33.9064 14.2 34.6125 14.2C35.3187 14.2 35.9959 14.4805 36.4952 14.9798C36.9945 15.4791 37.275 16.1564 37.275 16.8625V35.5H48.8125C49.5187 35.5 50.1959 35.7805 50.6952 36.2798C51.1945 36.7791 51.475 37.4564 51.475 38.1625C51.475 38.8686 51.1945 39.5459 50.6952 40.0452C50.1959 40.5445 49.5187 40.825 48.8125 40.825Z" fill="white"/>
</g>
<defs>
<clipPath id="clip0_805_369">
<rect width="71" height="71" fill="white"/>
</clipPath>
</defs>
</svg>
