<svg width="88" height="88" viewBox="0 0 88 88" fill="none" xmlns="http://www.w3.org/2000/svg">
<path d="M9.40641 69.3066L9.3335 69.3796C8.34912 67.2285 7.72933 64.7858 7.47412 62.0879C7.72933 64.7493 8.42204 67.1556 9.40641 69.3066Z" fill="white"/>
<path d="M32.8126 37.8444C37.6048 37.8444 41.4897 33.9595 41.4897 29.1673C41.4897 24.3751 37.6048 20.4902 32.8126 20.4902C28.0204 20.4902 24.1355 24.3751 24.1355 29.1673C24.1355 33.9595 28.0204 37.8444 32.8126 37.8444Z" fill="white"/>
<path d="M59.0261 7.2915H28.474C15.2032 7.2915 7.29175 15.203 7.29175 28.4738V59.0259C7.29175 62.9998 7.98446 66.4634 9.33341 69.38C12.4688 76.3071 19.1772 80.2082 28.474 80.2082H59.0261C72.297 80.2082 80.2084 72.2967 80.2084 59.0259V50.6769V28.4738C80.2084 15.203 72.297 7.2915 59.0261 7.2915ZM74.2657 45.5728C71.422 43.13 66.8282 43.13 63.9845 45.5728L48.8178 58.5884C45.974 61.0311 41.3803 61.0311 38.5365 58.5884L37.297 57.5675C34.7084 55.3071 30.5886 55.0884 27.672 57.0571L14.0365 66.2082C13.2345 64.1665 12.7605 61.7967 12.7605 59.0259V28.4738C12.7605 18.1925 18.1928 12.7603 28.474 12.7603H59.0261C69.3074 12.7603 74.7397 18.1925 74.7397 28.4738V45.9738L74.2657 45.5728Z" fill="white"/>
</svg>
