<svg width="71" height="71" viewBox="0 0 71 71" fill="none" xmlns="http://www.w3.org/2000/svg">
<g clip-path="url(#clip0_805_324)">
<path d="M10.7576 11.2108V18.6845C10.7184 20.6263 11.4517 22.5043 12.7965 23.9057C14.1413 25.3071 15.9875 26.1173 17.9293 26.1581C19.8711 26.1173 21.7173 25.3071 23.0621 23.9057C24.4069 22.5043 25.1402 20.6263 25.101 18.6845V11.2108H46.6162V18.6845C46.5751 19.6519 46.7302 20.6176 47.0721 21.5235C47.414 22.4294 47.9357 23.2567 48.6057 23.9558C49.2757 24.6548 50.0802 25.2111 50.9708 25.5911C51.8613 25.9711 52.8196 26.167 53.7879 26.167C54.7562 26.167 55.7144 25.9711 56.605 25.5911C57.4956 25.2111 58.3001 24.6548 58.9701 23.9558C59.6401 23.2567 60.1617 22.4294 60.5036 21.5235C60.8456 20.6176 61.0006 19.6519 60.9596 18.6845V11.2108C66.9006 11.2108 71.7172 16.231 71.7172 22.4217V29.8946H0V22.4209C0 16.2296 4.81653 11.2108 10.7576 11.2108ZM71.7172 37.3689V59.7892C71.7172 65.9798 66.9006 71 60.9596 71H10.7576C4.81653 71 0 65.9798 0 59.7892V37.3682L71.7172 37.3689ZM53.7879 0C54.7588 0.0205217 55.6819 0.425674 56.3543 1.12643C57.0267 1.82719 57.3933 2.76622 57.3737 3.73718V18.6845C57.3737 19.6355 56.9959 20.5476 56.3235 21.2201C55.651 21.8925 54.7389 22.2703 53.7879 22.2703C52.8369 22.2703 51.9248 21.8925 51.2523 21.2201C50.5798 20.5476 50.202 19.6355 50.202 18.6845V3.73718C50.1824 2.76622 50.5491 1.82719 51.2215 1.12643C51.8939 0.425674 52.8169 0.0205217 53.7879 0ZM17.9293 0C18.9002 0.0205217 19.8233 0.425674 20.4957 1.12643C21.1681 1.82719 21.5348 2.76622 21.5152 3.73718V18.6845C21.5152 19.6355 21.1374 20.5476 20.4649 21.2201C19.7924 21.8925 18.8803 22.2703 17.9293 22.2703C16.9783 22.2703 16.0662 21.8925 15.3937 21.2201C14.7212 20.5476 14.3434 19.6355 14.3434 18.6845V3.73718C14.3238 2.76622 14.6905 1.82719 15.3629 1.12643C16.0353 0.425674 16.9583 0.0205217 17.9293 0Z" fill="white"/>
</g>
<defs>
<clipPath id="clip0_805_324">
<rect width="71" height="71" fill="white"/>
</clipPath>
</defs>
</svg>
