<svg width="71" height="71" viewBox="0 0 71 71" fill="none" xmlns="http://www.w3.org/2000/svg">
<path d="M42.3586 33.6611L53.0725 22.9472C53.4045 22.6181 53.6683 22.2266 53.8486 21.7953C54.0289 21.364 54.1223 20.9013 54.1233 20.4338C54.1243 19.9663 54.033 19.5032 53.8545 19.0711C53.6761 18.639 53.4141 18.2464 53.0835 17.9158C52.753 17.5852 52.3603 17.3232 51.9282 17.1448C51.4961 16.9663 51.033 16.875 50.5655 16.876C50.098 16.877 49.6353 16.9704 49.204 17.1507C48.7727 17.331 48.3812 17.5948 48.0521 17.9268L37.3389 28.6414C36.1351 28.3217 34.8685 28.3239 33.6658 28.6476C32.4631 28.9713 31.3666 29.6052 30.4859 30.4859C29.6052 31.3666 28.9713 32.4631 28.6476 33.6658C28.3239 34.8685 28.3217 36.1351 28.6414 37.3389L17.9275 48.0528C17.5955 48.3819 17.3318 48.7734 17.1514 49.2047C16.9711 49.636 16.8778 50.0987 16.8767 50.5662C16.8757 51.0337 16.967 51.4968 17.1455 51.9289C17.3239 52.361 17.5859 52.7537 17.9165 53.0842C18.2471 53.4148 18.6397 53.6768 19.0718 53.8553C19.5039 54.0337 19.967 54.125 20.4345 54.124C20.902 54.123 21.3647 54.0296 21.796 53.8493C22.2273 53.669 22.6188 53.4052 22.9479 53.0732L33.6611 42.3586C34.8649 42.6783 36.1315 42.6762 37.3342 42.3525C38.5369 42.0288 39.6335 41.3948 40.5142 40.5142C41.3948 39.6335 42.0288 38.5369 42.3525 37.3342C42.6762 36.1315 42.6783 34.8649 42.3586 33.6611ZM35.5 71C28.4788 71 21.6152 68.918 15.7773 65.0172C9.93933 61.1164 5.3892 55.572 2.70229 49.0853C0.0153815 42.5985 -0.687637 35.4606 0.682138 28.5743C2.05191 21.688 5.43296 15.3625 10.3977 10.3977C15.3625 5.43296 21.688 2.05191 28.5743 0.682138C35.4606 -0.687637 42.5985 0.0153815 49.0853 2.70229C55.572 5.3892 61.1164 9.93933 65.0172 15.7773C68.918 21.6152 71 28.4788 71 35.5C71 44.9152 67.2598 53.9448 60.6023 60.6023C53.9448 67.2598 44.9152 71 35.5 71Z" fill="white"/>
</svg>
