<svg width="71" height="71" viewBox="0 0 71 71" fill="none" xmlns="http://www.w3.org/2000/svg">
<path d="M54.8976 14.0091L37.9869 29.792L37.954 29.7591V1.63565C37.9542 1.31493 38.0487 1.00133 38.2256 0.733828C38.4025 0.466321 38.6541 0.25669 38.9492 0.130976C39.2443 0.0052625 39.5697 -0.0309941 39.8852 0.0267106C40.2007 0.0844153 40.4923 0.233538 40.7238 0.455554L54.8976 14.0091ZM56.7989 18.9753V33.0371H41.7394L56.7989 18.9753ZM14.0091 16.0905L29.792 33.0042L29.7591 33.0371H1.63565C1.31493 33.0369 1.00133 32.9424 0.733828 32.7655C0.466321 32.5886 0.25669 32.337 0.130976 32.0419C0.0052625 31.7468 -0.0309941 31.4213 0.0267106 31.1059C0.0844153 30.7904 0.233538 30.4988 0.455554 30.2673L14.0091 16.0905ZM33.0371 14.1892V29.2509L18.9753 14.1892H33.0371ZM29.2509 37.9555L14.1892 52.0158V37.954L29.2509 37.9555ZM33.0371 41.2335V69.3569C33.0369 69.6777 32.9424 69.9913 32.7655 70.2588C32.5886 70.5263 32.337 70.7359 32.0419 70.8616C31.7468 70.9873 31.4213 71.0236 31.1059 70.9659C30.7904 70.9082 30.4988 70.759 30.2673 70.537L16.0905 56.982L33.0042 41.1991L33.0371 41.2335ZM37.954 41.7417L52.0158 56.8011H37.954V41.7417ZM70.5393 40.7253L56.982 54.8976L41.1991 37.9869L41.232 37.954H69.3554C69.6762 37.9542 69.9898 38.0487 70.2573 38.2256C70.5248 38.4025 70.7344 38.6541 70.8601 38.9492C70.9858 39.2443 71.0221 39.5697 70.9644 39.8852C70.9067 40.2007 70.7576 40.4923 70.5355 40.7238L70.5393 40.7253Z" fill="white"/>
</svg>
