<svg width="68" height="71" viewBox="0 0 68 71" fill="none" xmlns="http://www.w3.org/2000/svg">
<g clip-path="url(#clip0_805_437)">
<path d="M60.6793 39.5496C60.0528 39.09 59.5433 38.4893 59.1921 37.7962C58.841 37.1031 58.658 36.337 58.658 35.56C58.658 34.783 58.841 34.0169 59.1921 33.3238C59.5433 32.6307 60.0528 32.03 60.6793 31.5704L66.521 27.2843C66.9759 26.9505 67.3132 26.4811 67.4845 25.9436C67.6558 25.4061 67.6524 24.8281 67.4746 24.2927C65.9688 19.7679 63.5612 15.5954 60.3973 12.0273C60.0229 11.6055 59.5245 11.3131 58.9736 11.1922C58.4227 11.0712 57.8476 11.128 57.331 11.3543L50.7495 14.2493C50.0383 14.562 49.2635 14.7028 48.4878 14.6603C47.712 14.6179 46.9572 14.3934 46.2843 14.005C45.6114 13.6167 45.0394 13.0754 44.6146 12.4249C44.1898 11.7744 43.9241 11.0331 43.8391 10.2608L43.047 3.03474C42.985 2.4744 42.7469 1.94814 42.3671 1.53157C41.9872 1.115 41.485 0.829574 40.9328 0.71629C36.2658 -0.23138 31.4566 -0.237483 26.7872 0.698341C26.2329 0.80907 25.7282 1.0935 25.3465 1.51037C24.9647 1.92724 24.7256 2.45489 24.664 3.01679L23.8794 10.1965C23.794 10.9688 23.5281 11.7101 23.1032 12.3606C22.6782 13.011 22.1061 13.5524 21.4332 13.9408C20.7603 14.3293 20.0055 14.5539 19.2297 14.5966C18.4539 14.6393 17.6789 14.4988 16.9674 14.1865L10.3486 11.2757C9.83303 11.0494 9.25896 10.9922 8.70886 11.1125C8.15875 11.2327 7.6609 11.5242 7.28678 11.9451C4.11176 15.5037 1.69165 19.6694 0.172869 24.1903C-0.00684387 24.7258 -0.0116874 25.3047 0.159038 25.8432C0.329763 26.3817 0.667221 26.8521 1.12269 27.1863L6.93228 31.4493C7.55893 31.9089 8.06851 32.5097 8.41976 33.203C8.771 33.8962 8.95404 34.6624 8.95404 35.4396C8.95404 36.2168 8.771 36.983 8.41976 37.6763C8.06851 38.3695 7.55893 38.9703 6.93228 39.43L1.08828 43.7139C0.633438 44.0476 0.29611 44.517 0.124777 45.0545C-0.0465554 45.592 -0.043072 46.17 0.134727 46.7054C1.64053 51.2302 4.04812 55.4027 7.21199 58.9708C7.58569 59.3936 8.08414 59.6867 8.63533 59.8077C9.18651 59.9287 9.76189 59.8713 10.2783 59.6439L16.8597 56.7488C17.571 56.4362 18.3458 56.2954 19.1215 56.3378C19.8973 56.3803 20.6521 56.6047 21.325 56.9931C21.9979 57.3814 22.5699 57.9228 22.9947 58.5732C23.4195 59.2237 23.6852 59.9651 23.7702 60.7373L24.5645 67.9634C24.6265 68.5237 24.8646 69.05 25.2445 69.4666C25.6243 69.8831 26.1265 70.1686 26.6788 70.2818C31.345 71.2337 36.1548 71.24 40.8236 70.3005C41.3779 70.1898 41.8825 69.9054 42.2643 69.4885C42.6461 69.0716 42.8852 68.544 42.9468 67.9821L43.7329 60.8024C43.8183 60.0301 44.0842 59.2888 44.5091 58.6383C44.9341 57.9878 45.5061 57.4465 46.1791 57.0581C46.852 56.6696 47.6068 56.445 48.3826 56.4023C49.1584 56.3596 49.9334 56.5001 50.6448 56.8124L57.2637 59.7232C57.7791 59.9506 58.3534 60.0083 58.9038 59.888C59.4541 59.7676 59.952 59.4755 60.3255 59.0538C63.5003 55.4966 65.9206 51.3324 67.4402 46.8131C67.6199 46.2775 67.6247 45.6987 67.454 45.1602C67.2833 44.6216 66.9458 44.1513 66.4903 43.8171L60.6793 39.5496ZM33.8069 47.926C31.3494 47.9261 28.9471 47.1975 26.9037 45.8324C24.8602 44.4672 23.2675 42.5268 22.3269 40.2564C21.3863 37.9861 21.14 35.4878 21.6193 33.0775C22.0985 30.6672 23.2817 28.4531 25.0193 26.7153C26.7568 24.9774 28.9707 23.7938 31.3809 23.3141C33.7911 22.8345 36.2894 23.0803 38.5599 24.0205C40.8304 24.9607 42.7712 26.553 44.1367 28.5962C45.5022 30.6394 46.2313 33.0416 46.2316 35.4991C46.2316 37.1308 45.9102 38.7465 45.2857 40.2541C44.6613 41.7616 43.746 43.1314 42.5922 44.2852C41.4384 45.439 40.0687 46.3542 38.5611 46.9787C37.0536 47.6031 35.4379 47.9245 33.8061 47.9245L33.8069 47.926Z" fill="white"/>
</g>
<defs>
<clipPath id="clip0_805_437">
<rect width="67.6136" height="71" fill="white"/>
</clipPath>
</defs>
</svg>
