<svg width="71" height="71" viewBox="0 0 71 71" fill="none" xmlns="http://www.w3.org/2000/svg">
<path d="M14.7917 0C10.8723 0.0118608 7.11689 1.57407 4.34548 4.34548C1.57407 7.11689 0.0118608 10.8723 0 14.7917V56.2083C0.0118608 60.1277 1.57407 63.8831 4.34548 66.6545C7.11689 69.4259 10.8723 70.9881 14.7917 71H56.2083C60.1277 70.9881 63.8831 69.4259 66.6545 66.6545C69.4259 63.8831 70.9881 60.1277 71 56.2083V14.7917C70.9881 10.8723 69.4259 7.11689 66.6545 4.34548C63.8831 1.57407 60.1277 0.0118608 56.2083 0H14.7917ZM50.2917 11.8333H56.2083C56.9929 11.8333 57.7454 12.145 58.3002 12.6998C58.855 13.2546 59.1667 14.0071 59.1667 14.7917C59.1667 15.5763 58.855 16.3287 58.3002 16.8835C57.7454 17.4383 56.9929 17.75 56.2083 17.75H50.2917C49.5071 17.75 48.7546 17.4383 48.1998 16.8835C47.645 16.3287 47.3333 15.5763 47.3333 14.7917C47.3333 14.0071 47.645 13.2546 48.1998 12.6998C48.7546 12.145 49.5071 11.8333 50.2917 11.8333ZM35.5 23.6667C37.8404 23.6667 40.1283 24.3607 42.0742 25.6609C44.0202 26.9612 45.5369 28.8093 46.4326 30.9716C47.3282 33.1338 47.5625 35.5131 47.106 37.8086C46.6494 40.104 45.5224 42.2125 43.8674 43.8674C42.2125 45.5224 40.104 46.6494 37.8086 47.106C35.5131 47.5625 33.1338 47.3282 30.9716 46.4326C28.8093 45.5369 26.9612 44.0202 25.6609 42.0742C24.3607 40.1283 23.6667 37.8404 23.6667 35.5C23.6607 33.9444 23.9627 32.4029 24.5553 30.9646C25.1479 29.5262 26.0193 28.2193 27.1193 27.1193C28.2193 26.0193 29.5262 25.1479 30.9646 24.5553C32.4029 23.9627 33.9444 23.6607 35.5 23.6667ZM5.91667 27.6111H19.6299C18.3967 30.0582 17.7529 32.7598 17.75 35.5C17.75 40.2076 19.6201 44.7224 22.9489 48.0511C26.2776 51.3799 30.7924 53.25 35.5 53.25C40.2076 53.25 44.7224 51.3799 48.0511 48.0511C51.3799 44.7224 53.25 40.2076 53.25 35.5C53.2471 32.7598 52.6033 30.0582 51.3701 27.6111H65.0833V56.2083C65.0894 57.3755 64.864 58.5323 64.4201 59.6118C63.9763 60.6913 63.3228 61.6721 62.4974 62.4974C61.6721 63.3228 60.6913 63.9763 59.6118 64.4201C58.5323 64.864 57.3755 65.0894 56.2083 65.0833H14.7917C13.6245 65.0894 12.4677 64.864 11.3882 64.4201C10.3087 63.9763 9.3279 63.3228 8.50257 62.4974C7.67724 61.6721 7.02375 60.6913 6.57988 59.6118C6.13602 58.5323 5.9106 57.3755 5.91667 56.2083V27.6111Z" fill="white"/>
</svg>
