<svg width="71" height="71" viewBox="0 0 71 71" fill="none" xmlns="http://www.w3.org/2000/svg">
<g clip-path="url(#clip0_805_281)">
<g opacity="0.9">
<path d="M70.8493 55.0115C70.6484 54.4061 69.371 53.5155 67.0169 52.3395C66.3795 51.9714 65.4723 51.467 64.2953 50.8264C63.1182 50.1858 62.0509 49.5973 61.0932 49.0609C60.1339 48.5229 59.2345 48.0022 58.3952 47.4989C58.261 47.3979 57.8403 47.1037 57.1329 46.6161C56.5636 46.2109 55.965 45.8483 55.3422 45.5314C54.8959 45.3066 54.4044 45.186 53.9048 45.1788C53.2327 45.1788 52.3925 45.6576 51.3843 46.6153C50.3728 47.577 49.4451 48.6232 48.6114 49.7425C47.7923 50.8437 46.8996 51.8882 45.9394 52.8689C44.9985 53.8276 44.2246 54.3067 43.6177 54.3062C43.2277 54.2875 42.8438 54.2024 42.4825 54.0546C42.0289 53.8865 41.6841 53.739 41.4475 53.627C41.2108 53.515 40.81 53.2736 40.2381 52.917C39.6661 52.5604 39.3466 52.3703 39.2796 52.3371C34.9414 49.9797 30.9539 47.0275 27.4328 43.5663C23.9694 40.0438 21.0159 36.0541 18.658 31.7132C18.6244 31.6459 18.4311 31.3267 18.0782 30.7555C17.7253 30.1844 17.4886 29.781 17.3682 29.5454C17.2079 29.2084 17.0649 28.8635 16.9398 28.5119C16.7917 28.1509 16.7066 27.7672 16.6882 27.3775C16.6882 26.7727 17.1673 25.9996 18.1255 25.0582C19.1061 24.0979 20.1506 23.2052 21.2519 22.3862C22.371 21.5524 23.4169 20.6248 24.3783 19.6132C25.3365 18.6045 25.8156 17.763 25.8156 17.0888C25.8087 16.5891 25.6881 16.0976 25.463 15.6514C25.1468 15.0283 24.7845 14.4297 24.3791 13.8607C23.891 13.1549 23.5967 12.7341 23.4963 12.5984C22.9925 11.757 22.4715 10.8579 21.9335 9.90123C21.3955 8.94457 20.8078 7.87931 20.1703 6.70544C19.5319 5.52947 19.0278 4.62199 18.658 3.98299C17.4821 1.63052 16.5914 0.353309 15.9861 0.151354C15.646 0.033899 15.2867 -0.0175115 14.9274 -0.000112875C13.7275 0.0389643 12.5353 0.207985 11.3719 0.503987C10.1907 0.751778 9.03447 1.10612 7.91731 1.56268C6.23435 2.26847 4.45251 4.31958 2.5718 7.71601C0.938525 10.5751 0.0539043 13.8005 2.3055e-05 17.0927C-0.00133957 17.9782 0.0577012 18.8628 0.176734 19.7403C0.320845 20.7201 0.531706 21.6891 0.807845 22.6402C1.11025 23.7157 1.35376 24.5141 1.53836 25.0353C1.72296 25.5565 2.06744 26.4892 2.5718 27.8335C3.07564 29.1783 3.37805 30.0019 3.47902 30.3043C4.55465 33.3869 5.95769 36.3453 7.66408 39.1288C10.7611 43.978 14.4076 48.4536 18.531 52.4665C22.5442 56.5897 27.0197 60.2362 31.8688 63.3335C34.6527 65.0397 37.6114 66.443 40.6941 67.5193C40.997 67.6198 41.8203 67.9224 43.1641 68.4273C44.5078 68.9322 45.4408 69.2767 45.9631 69.4608C46.4837 69.6459 47.2821 69.8899 48.3581 70.1929C49.3094 70.4684 50.2783 70.6793 51.2581 70.824C55.4225 71.3995 59.6595 70.5555 63.2855 68.4281C66.6803 66.5458 68.7314 64.7637 69.4388 63.0818C69.8959 61.9651 70.2503 60.8091 70.4975 59.6281C70.794 58.4649 70.9633 57.273 71.0024 56.0733C71.02 55.7128 70.968 55.3523 70.8493 55.0115Z" fill="white"/>
</g>
</g>
<defs>
<clipPath id="clip0_805_281">
<rect width="71" height="71" fill="white"/>
</clipPath>
</defs>
</svg>
