<svg width="68" height="71" viewBox="0 0 68 71" fill="none" xmlns="http://www.w3.org/2000/svg">
<path d="M32.6374 35.4974L0.535886 67.4237C0.175687 66.6606 -0.00742424 65.826 0.000230477 64.9821V6.01268C-0.00742424 5.16885 0.175687 4.33419 0.535886 3.57107L32.6374 35.4974ZM36.3025 39.1421L47.0377 49.8157L8.9202 70.2771C7.55872 71.008 5.9699 71.1925 4.47718 70.7931L36.3025 39.1421ZM36.3025 31.8527L4.4969 0.218289C5.98098 -0.195409 7.56772 -0.0166533 8.92256 0.716866L47.0377 21.1791L36.3025 31.8527ZM67.0558 35.4974C67.054 36.5851 66.7573 37.6521 66.1972 38.5845C65.637 39.517 64.8345 40.28 63.875 40.7924L51.805 47.2739L39.9677 35.4974L51.8089 23.7209L63.8789 30.2024C64.8377 30.7153 65.6394 31.4786 66.1989 32.411C66.7583 33.3434 67.0544 34.41 67.0558 35.4974Z" fill="white"/>
</svg>
