<svg width="71" height="71" viewBox="0 0 71 71" fill="none" xmlns="http://www.w3.org/2000/svg">
<g clip-path="url(#clip0_805_296)">
<path d="M59.7487 10.398C56.5163 7.10474 52.6637 4.48948 48.4149 2.70439C44.1661 0.919292 39.606 0 35 0C30.3939 0 25.8338 0.919292 21.585 2.70439C17.3362 4.48948 13.4836 7.10474 10.2512 10.398C3.68224 17.0897 0 26.1064 0 35.5002C0 44.894 3.68224 53.9107 10.2512 60.6025C13.4836 63.8956 17.3363 66.5108 21.5851 68.2958C25.8339 70.0809 30.3939 71.0001 35 71.0001C39.606 71.0001 44.1661 70.0809 48.4148 68.2958C52.6636 66.5108 56.5163 63.8956 59.7487 60.6025C66.3177 53.9107 69.9999 44.894 69.9999 35.5002C69.9999 26.1064 66.3177 17.0897 59.7487 10.398ZM4.99975 35.4999C4.99861 32.8076 5.35064 30.1269 6.04677 27.5269C7.19358 30.0306 8.85943 32.1942 9.99358 34.7629C11.4576 38.0656 15.3888 37.15 17.1246 40.0439C18.6654 42.6126 17.0196 45.8614 18.1732 48.5497C19.0109 50.5003 20.9858 50.927 22.3478 52.353C23.7396 53.7917 23.7106 55.7633 23.9228 57.6399C24.1625 59.844 24.5514 62.0291 25.0868 64.1801C25.0851 64.1975 25.0896 64.215 25.0994 64.2294C19.2063 62.1051 14.1117 58.2042 10.5135 53.0611C6.91528 47.918 4.98943 41.7842 4.99975 35.4999ZM35 65.9282C33.3245 65.9277 31.652 65.7857 30.0002 65.5037C30.0173 65.074 30.0255 64.6734 30.0672 64.3946C30.4953 61.8364 31.6406 59.4535 33.3691 57.5248C35.0268 55.6639 37.2988 54.406 38.6988 52.2932C39.3714 51.2284 39.8255 50.0396 40.0343 48.7964C40.2431 47.5532 40.2025 46.2807 39.9149 45.0535C39.0823 41.4975 34.3178 40.3099 31.7494 38.3817C30.2735 37.2711 28.9591 35.5567 27.0207 35.4176C26.1768 35.4684 25.3299 35.4348 24.4925 35.3175C23.6801 35.1038 23.0426 34.6598 22.1766 34.7757C20.5591 34.9909 19.5389 36.7442 17.8016 36.5066C16.1528 36.2823 14.455 34.3257 14.0782 32.7331C13.5971 30.6853 15.1952 30.0216 16.9079 29.8393C17.6401 29.7033 18.3937 29.7401 19.1092 29.9469C20.0125 30.2862 20.4392 31.1831 21.2502 31.636C22.7708 32.482 23.0784 31.1307 22.8453 29.7608C22.4968 27.71 22.0909 26.8752 23.8938 25.4627C25.1441 24.4911 26.2127 23.7856 26.0124 22.0383C25.894 21.0114 25.3422 20.5435 25.856 19.5249C26.424 18.7211 27.1658 18.0568 28.026 17.5817C29.8371 16.3859 35.7841 16.4726 33.3542 13.1192C32.6401 12.1349 31.3227 10.3756 30.0732 10.1349C28.5093 9.83597 27.8168 11.6042 26.728 12.3838C25.6028 13.1902 23.4127 14.1064 22.286 12.8591C20.7706 11.1805 23.2906 10.6312 23.8499 9.4578C23.9385 9.11071 23.9454 8.74768 23.87 8.39744C23.7947 8.0472 23.6391 7.71938 23.4157 7.43991C23.9792 7.19926 24.5521 6.97505 25.1344 6.76728C25.4985 7.0403 25.9318 7.20501 26.3847 7.2426C27.4273 7.31211 28.4162 6.73888 29.3285 7.46158C30.3412 8.25379 31.0703 9.25527 32.4144 9.50265C33.0585 9.6295 33.7266 9.50591 34.2832 9.1569C34.8399 8.80789 35.2436 8.25957 35.4125 7.62302C35.5402 6.77431 35.4761 5.90766 35.2249 5.08719C41.0761 5.12363 46.7853 6.89996 51.6309 10.1917C51.4426 10.1289 51.2434 10.1063 51.0459 10.1253C50.8484 10.1444 50.657 10.2047 50.4841 10.3023C49.5354 10.7508 48.192 11.8875 48.081 13.0153C47.9544 14.2955 49.8169 14.4764 50.7016 14.4764C52.0293 14.4764 53.375 13.874 52.9468 12.318C52.8075 11.6596 52.5177 11.0427 52.1001 10.5161C53.081 11.2069 54.0203 11.9556 54.9127 12.7582C54.8986 12.7724 54.8844 12.7851 54.8703 12.8008C53.97 13.7514 52.9252 14.5048 52.3093 15.6617C52.1444 16.0254 51.8944 16.3438 51.5805 16.5896C51.2666 16.8354 50.8981 17.0014 50.5065 17.0735C49.9949 17.1262 49.5016 17.2929 49.0625 17.5615C47.9313 18.4651 48.5747 20.6362 49.6471 21.2871C50.3571 21.6664 51.172 21.7996 51.9652 21.6661C52.7584 21.5326 53.4855 21.1398 54.0333 20.5488C54.8316 19.6295 55.2992 18.0339 56.7379 18.0354C57.3714 18.0346 57.9792 18.2859 58.4284 18.7341C59.0241 19.3582 58.905 19.9419 59.0316 20.7214C59.255 22.1063 60.4599 21.3552 61.1911 20.6564C61.7256 21.621 62.2076 22.614 62.6351 23.6309C61.8286 24.8088 61.1882 26.092 59.249 24.7198C58.0881 23.8977 57.3739 22.7019 55.9166 22.3327C54.6357 22.1415 53.3292 22.2209 52.0807 22.5659C50.6509 22.8178 48.953 22.9291 47.871 24.027C46.8225 25.086 46.2677 26.5023 45.1522 27.5658C42.9926 29.6263 42.0834 31.8751 43.4804 34.7876C44.1218 36.1241 45.1524 37.2336 46.4359 37.9694C47.7193 38.7051 49.1952 39.0324 50.668 38.9079C53.6468 38.7068 56.7432 36.9535 56.6568 41.345C56.6552 42.738 56.9123 44.119 57.4149 45.4174C57.7509 46.7225 57.9211 48.065 57.9212 49.4129C58.0164 51.0213 58.2645 52.617 58.6622 54.1781C55.88 57.8265 52.2989 60.7838 48.1958 62.8213C44.0928 64.8588 39.5778 65.9218 35 65.9282Z" fill="white"/>
</g>
<defs>
<clipPath id="clip0_805_296">
<rect width="70" height="71" fill="white"/>
</clipPath>
</defs>
</svg>
