<svg width="88" height="88" viewBox="0 0 88 88" fill="none" xmlns="http://www.w3.org/2000/svg">
<path d="M9.40641 69.3066L9.3335 69.3796C8.34912 67.2285 7.72933 64.7858 7.47412 62.0879C7.72933 64.7493 8.42204 67.1556 9.40641 69.3066Z" fill="white"/>
<path d="M32.8123 37.8444C37.6046 37.8444 41.4894 33.9595 41.4894 29.1673C41.4894 24.3751 37.6046 20.4902 32.8123 20.4902C28.0201 20.4902 24.1353 24.3751 24.1353 29.1673C24.1353 33.9595 28.0201 37.8444 32.8123 37.8444Z" fill="white"/>
<path d="M59.0259 7.2915H28.4738C15.203 7.2915 7.2915 15.203 7.2915 28.4738V59.0259C7.2915 62.9998 7.98421 66.4634 9.33317 69.38C12.4686 76.3071 19.1769 80.2082 28.4738 80.2082H59.0259C72.2967 80.2082 80.2082 72.2967 80.2082 59.0259V50.6769V28.4738C80.2082 15.203 72.2967 7.2915 59.0259 7.2915ZM74.2655 45.5728C71.4217 43.13 66.828 43.13 63.9842 45.5728L48.8175 58.5884C45.9738 61.0311 41.38 61.0311 38.5363 58.5884L37.2967 57.5675C34.7082 55.3071 30.5884 55.0884 27.6717 57.0571L14.0363 66.2082C13.2342 64.1665 12.7603 61.7967 12.7603 59.0259V28.4738C12.7603 18.1925 18.1925 12.7603 28.4738 12.7603H59.0259C69.3071 12.7603 74.7394 18.1925 74.7394 28.4738V45.9738L74.2655 45.5728Z" fill="white"/>
</svg>
