<svg width="55" height="55" viewBox="0 0 55 55" fill="none" xmlns="http://www.w3.org/2000/svg">
<path d="M50.3226 31.4393V48.3495H40.5189V32.5714C40.5189 28.6068 39.1003 25.9026 35.5528 25.9026C32.8441 25.9026 31.2308 27.7268 30.5226 29.4891C30.2637 30.1193 30.1972 30.997 30.1972 31.8793V48.3495H20.3889C20.3889 48.3495 20.5218 21.6287 20.3889 18.858H30.1972V23.038L30.133 23.1343H30.1972V23.038C31.4989 21.0328 33.8249 18.1659 39.0339 18.1659C45.4849 18.1659 50.3226 22.3826 50.3226 31.4393ZM10.1314 4.64282C6.77867 4.64282 4.58325 6.84282 4.58325 9.7372C4.58325 12.5674 6.7145 14.8339 10.003 14.8339H10.0672C13.4887 14.8339 15.613 12.5674 15.613 9.7372C15.5535 6.84282 13.4887 4.64282 10.1314 4.64282ZM5.16534 48.3495H14.9691V18.858H5.16534V48.3495Z" fill="white"/>
</svg>
