<svg width="68" height="71" viewBox="0 0 68 71" fill="none" xmlns="http://www.w3.org/2000/svg">
<g clip-path="url(#clip0_805_442)">
<path d="M55.6 42.6077H41.4C40.4585 42.6077 39.5555 42.9818 38.8898 43.6475C38.224 44.3133 37.85 45.2162 37.85 46.1578C37.85 47.0993 38.224 48.0022 38.8898 48.668C39.5555 49.3337 40.4585 49.7078 41.4 49.7078H54.393C53.3244 52.7184 51.5941 55.451 49.3295 57.7043C47.0649 59.9576 44.3236 61.6742 41.3077 62.7277C41.4782 63.7452 41.4249 64.7876 41.1515 65.7824C40.8782 66.7772 40.3913 67.7005 39.7248 68.488C39.0583 69.2755 38.2282 69.9082 37.2922 70.3422C36.3563 70.7762 35.337 71.0011 34.3053 71.0011C33.2737 71.0011 32.2544 70.7762 31.3184 70.3422C30.3825 69.9082 29.5524 69.2755 28.8859 68.488C28.2194 67.7005 27.7325 66.7772 27.4591 65.7824C27.1857 64.7876 27.1325 63.7452 27.3029 62.7277C24.2849 61.6755 21.5415 59.9594 19.275 57.7059C17.0085 55.4524 15.2766 52.7189 14.207 49.707H27.2C28.1415 49.707 29.0445 49.333 29.7102 48.6673C30.376 48.0015 30.75 47.0986 30.75 46.157C30.75 45.2155 30.376 44.3126 29.7102 43.6468C29.0445 42.9811 28.1415 42.607 27.2 42.607H13V35.507H27.2C28.1415 35.507 29.0445 35.133 29.7102 34.4673C30.376 33.8015 30.75 32.8986 30.75 31.957C30.75 31.0155 30.376 30.1126 29.7102 29.4468C29.0445 28.7811 28.1415 28.407 27.2 28.407H13V21.307H27.2C28.1415 21.307 29.0445 20.933 29.7102 20.2673C30.376 19.6015 30.75 18.6986 30.75 17.757C30.75 16.8155 30.376 15.9126 29.7102 15.2468C29.0445 14.5811 28.1415 14.207 27.2 14.207H14.207C15.6749 10.0513 18.3954 6.45302 21.9937 3.90791C25.5919 1.36279 29.8908 -0.00390625 34.2982 -0.00390625C38.7056 -0.00390625 43.0045 1.36279 46.6028 3.90791C50.201 6.45302 52.9215 10.0513 54.3894 14.207H41.4C40.4585 14.207 39.5555 14.5811 38.8898 15.2468C38.224 15.9126 37.85 16.8155 37.85 17.757C37.85 18.6986 38.224 19.6015 38.8898 20.2673C39.5555 20.933 40.4585 21.307 41.4 21.307H55.6V28.407H41.4C40.4585 28.407 39.5555 28.7811 38.8898 29.4468C38.224 30.1126 37.85 31.0155 37.85 31.957C37.85 32.8986 38.224 33.8015 38.8898 34.4673C39.5555 35.133 40.4585 35.507 41.4 35.507H55.6V42.6077Z" fill="white"/>
</g>
<defs>
<clipPath id="clip0_805_442">
<rect width="42.6" height="71" fill="white" transform="translate(13)"/>
</clipPath>
</defs>
</svg>
