<svg width="58" height="55" viewBox="0 0 58 55" fill="none" xmlns="http://www.w3.org/2000/svg">
<g clip-path="url(#clip0_3_331)">
<path d="M46.0784 34.2136C45.7085 34.5719 45.4311 35.0145 45.2698 35.5034C45.1084 35.9924 45.068 36.5132 45.152 37.0213L47.7281 51.2597C47.8341 51.8508 47.7677 52.4599 47.5367 53.0142C47.3058 53.5685 46.9201 54.0446 46.4258 54.3855C45.9404 54.7393 45.365 54.9488 44.7658 54.9898C44.1666 55.0307 43.568 54.9016 43.0391 54.6171L30.2187 47.934C29.7723 47.6975 29.2771 47.5675 28.772 47.5542H27.9877C27.714 47.5943 27.4495 47.6823 27.2064 47.8144L14.3838 54.5306C13.7492 54.8498 13.0302 54.9611 12.3288 54.8487C11.5044 54.6924 10.7738 54.2202 10.2925 53.5329C9.81131 52.8456 9.61758 51.9975 9.75266 51.1694L12.328 36.9317C12.4116 36.4197 12.3711 35.8951 12.2099 35.4019C12.0487 34.9088 11.7715 34.4616 11.4016 34.0978L0.952038 23.967C0.524074 23.5527 0.223449 23.0246 0.0855823 22.4451C-0.0522844 21.8656 -0.0216496 21.2588 0.173878 20.6961C0.364048 20.1343 0.704346 19.6352 1.1579 19.253C1.61145 18.8707 2.16097 18.6199 2.7469 18.5276L17.1328 16.4433C17.6714 16.3874 18.1872 16.1967 18.6325 15.8886C19.0778 15.5806 19.4382 15.1651 19.6804 14.6808L26.016 1.67907C26.1654 1.389 26.361 1.12514 26.595 0.897817L26.8583 0.694786C26.9924 0.546371 27.1486 0.419558 27.3215 0.318829L27.6372 0.20226L28.132 0H29.351C29.8866 0.0548899 30.4 0.242466 30.8448 0.545752C31.2896 0.849038 31.6518 1.25846 31.8986 1.73696L38.3215 14.6754C38.5501 15.1411 38.888 15.5447 39.3063 15.8516C39.7246 16.1584 40.211 16.3596 40.7239 16.4379L55.109 18.5276C55.705 18.6125 56.2661 18.8597 56.731 19.2422C57.1958 19.6247 57.5465 20.1277 57.7446 20.6961C57.9303 21.2647 57.95 21.8744 57.8014 22.4538C57.6527 23.0331 57.3419 23.5581 56.9054 23.967L46.0784 34.2136Z" fill="white"/>
</g>
<defs>
<clipPath id="clip0_3_331">
<rect width="57.8988" height="55" fill="white"/>
</clipPath>
</defs>
</svg>
