<svg width="72" height="71" viewBox="0 0 72 71" fill="none" xmlns="http://www.w3.org/2000/svg">
<path d="M35.5021 2.08205e-06C29.4123 -0.00195778 23.4244 1.56321 18.1144 4.54495C12.8045 7.52669 8.35117 11.8247 5.18286 17.0254C2.01455 22.2262 0.237854 28.1548 0.0236833 34.2409C-0.190488 40.3269 1.16507 46.3657 3.95996 51.7764L0.159884 65.3729C-0.0489569 66.1304 -0.0532814 66.9297 0.147351 67.6894C0.347984 68.4491 0.746404 69.1421 1.30202 69.6977C1.85765 70.2533 2.55061 70.6518 3.31033 70.8524C4.07005 71.053 4.86938 71.0487 5.62688 70.8399L19.2234 67.0414C23.9995 69.5082 29.2735 70.8582 34.6475 70.9894C40.0215 71.1207 45.3551 70.0298 50.246 67.799C55.1368 65.5683 59.4572 62.2559 62.8812 58.1119C66.3053 53.9679 68.7434 49.1004 70.0118 43.8766C71.2803 38.6528 71.3458 33.2091 70.2035 27.9563C69.0612 22.7035 66.7409 17.7787 63.4177 13.5535C60.0944 9.32819 55.855 5.91281 51.0192 3.56498C46.1835 1.21714 40.8777 -0.00183885 35.5021 2.08205e-06ZM53.8911 48.5821C53.1101 50.7658 49.2761 52.8776 47.5548 53.037C45.8334 53.1964 44.2178 53.818 36.3013 50.694C26.7557 46.931 20.7168 37.1504 20.2553 36.5121C19.7764 35.8905 16.4213 31.4356 16.4213 26.8033C16.3976 25.3423 16.6772 23.8923 17.2425 22.5448C17.8078 21.1974 18.6464 19.9819 19.7054 18.9751C20.0197 18.6183 20.4042 18.3301 20.8349 18.1286C21.2656 17.927 21.7332 17.8164 22.2085 17.8036C22.8475 17.8036 23.4708 17.8036 24.019 17.8218C24.6762 17.8573 25.4217 17.8928 26.1317 19.4548C26.9648 21.3 28.7966 25.9544 29.0238 26.4278C29.172 26.672 29.2562 26.9497 29.2686 27.2352C29.281 27.5206 29.2212 27.8046 29.0948 28.0608C28.8638 28.627 28.5463 29.154 28.1536 29.6228C27.6921 30.175 27.1778 30.8479 26.751 31.2731C26.2895 31.7346 25.7925 32.249 26.3423 33.1901C27.7521 35.601 29.5106 37.7902 31.5608 39.6866C33.7899 41.6628 36.3417 43.2416 39.105 44.3545C40.0461 44.816 40.596 44.7489 41.1466 44.106C41.6988 43.4851 43.4896 41.3725 44.1286 40.4313C44.7495 39.4902 45.3711 39.6503 46.2405 39.9698C47.0925 40.2712 51.7075 42.544 52.6486 43.0228C53.589 43.4843 54.2106 43.7147 54.441 44.106C54.6713 44.4973 54.6721 46.3804 53.8911 48.5821Z" fill="white"/>
</svg>
