<svg width="55" height="55" viewBox="0 0 55 55" fill="none" xmlns="http://www.w3.org/2000/svg">
<g clip-path="url(#clip0_3_229)">
<path d="M41.6586 50.7629C41.6729 49.9432 41.9289 49.1459 42.3944 48.4711C42.8599 47.7963 43.5143 47.2739 44.2754 46.9695C45.0366 46.665 45.8707 46.592 46.6732 46.7597C47.4757 46.9273 48.2109 47.3281 48.7865 47.9118C49.3621 48.4955 49.7527 49.2362 49.9091 50.041C50.0655 50.8457 49.9809 51.6787 49.6659 52.4356C49.3508 53.1924 48.8194 53.8395 48.1381 54.2955C47.4569 54.7516 46.6562 54.9964 45.8363 54.9993C44.7216 54.988 43.6567 54.5362 42.8739 53.7425C42.0912 52.9488 41.6543 51.8776 41.6586 50.7629ZM10.7453 50.7629C10.7596 49.9431 11.0157 49.1458 11.4813 48.4709C11.9469 47.796 12.6014 47.2736 13.3627 46.9692C14.124 46.6649 14.9582 46.592 15.7608 46.7598C16.5633 46.9276 17.2985 47.3287 17.874 47.9126C18.4496 48.4965 18.8399 49.2374 18.9961 50.0423C19.1523 50.8472 19.0674 51.6803 18.752 52.4371C18.4366 53.1939 17.9048 53.8408 17.2233 54.2966C16.5417 54.7524 15.7408 54.9968 14.9209 54.9993C13.8066 54.9875 12.7423 54.5354 11.9602 53.7417C11.178 52.948 10.7416 51.8772 10.7461 50.7629H10.7453ZM15.3609 42.0605C13.5946 42.0603 11.8956 41.3826 10.6141 40.1671C9.31612 38.9412 8.52047 37.2765 8.38184 35.4965L5.85555 4.9052L1.70493 4.17188C1.19441 4.06875 0.740172 3.78017 0.429899 3.36183C0.119626 2.94349 -0.024693 2.42506 0.024795 1.90657C0.074283 1.38809 0.31407 0.90631 0.697878 0.554221C1.08169 0.202133 1.58231 0.00469052 2.10313 0C2.20918 0.000823919 2.31505 0.00915575 2.41992 0.024933L8.97364 1.03252C9.4269 1.12042 9.83885 1.35447 10.1464 1.69884C10.4539 2.0432 10.6401 2.47889 10.6764 2.93916L11.1985 9.22594C11.2291 9.65085 11.4184 10.0487 11.7289 10.3404C12.0393 10.6321 12.4482 10.7963 12.8742 10.8004H49.9848C50.7347 10.7775 51.4789 10.9366 52.1539 11.2642C52.8289 11.5918 53.4144 12.0781 53.8604 12.6814C55.1598 14.2059 55.0733 16.3568 54.9046 17.5052L52.2933 35.9116C52.0643 37.5996 51.2361 39.149 49.9597 40.2771C48.6834 41.4053 47.044 42.0369 45.3406 42.0568L15.3609 42.0605ZM31.2703 23.2874C31.2654 23.8396 31.4797 24.3711 31.8661 24.7655C32.2526 25.1599 32.7796 25.3849 33.3317 25.3913H40.9436C41.4957 25.3849 42.0228 25.1599 42.4092 24.7655C42.7956 24.3711 43.0099 23.8396 43.005 23.2874C43.0107 23.013 42.9617 22.7402 42.8607 22.4851C42.7597 22.2299 42.6088 21.9974 42.4168 21.8012C42.2248 21.6051 41.9957 21.4493 41.7427 21.3428C41.4897 21.2364 41.2181 21.1815 40.9436 21.1813H33.3324C33.058 21.1815 32.7863 21.2364 32.5334 21.3428C32.2804 21.4493 32.0512 21.6051 31.8592 21.8012C31.6673 21.9974 31.5164 22.2299 31.4154 22.4851C31.3144 22.7402 31.2653 23.013 31.2711 23.2874H31.2703Z" fill="white"/>
</g>
<defs>
<clipPath id="clip0_3_229">
<rect width="54.9993" height="55" fill="white"/>
</clipPath>
</defs>
</svg>
