<svg width="55" height="55" viewBox="0 0 55 55" fill="none" xmlns="http://www.w3.org/2000/svg">
<g clip-path="url(#clip0_3_260)">
<path d="M27.5271 55C23.1271 55 19.5272 54.9663 16.1913 54.8937C6.80973 54.8937 0 48.2086 0 38.9987V27.1561C0 17.9447 6.82 11.2589 16.2191 11.2589C19.5345 11.2105 23.2921 11.1547 27.0424 11.1547V10.7067C27.0331 9.82053 26.6728 8.97425 26.0404 8.35342C25.408 7.73259 24.5552 7.3879 23.6691 7.39494H20.9953C19.5452 7.40981 18.1483 6.84881 17.1113 5.83502C16.0743 4.82123 15.4818 3.43746 15.4638 1.98734C15.4756 1.45752 15.6939 0.953271 16.0721 0.582048C16.4504 0.210824 16.9586 0.00197524 17.4885 4.74938e-06C18.0204 -0.00429681 18.5322 0.20251 18.9118 0.575067C19.2913 0.947623 19.5077 1.45551 19.5133 1.98734C19.5206 2.37343 19.6807 2.74086 19.9586 3.00906C20.2364 3.27727 20.6092 3.42435 20.9953 3.41807H23.6683C25.6088 3.41781 27.4721 4.17762 28.859 5.53469C30.246 6.89175 31.0462 8.7381 31.0882 10.6781V11.1804C32.7411 11.1804 34.4241 11.2031 36.0507 11.2259C36.9668 11.2386 37.8857 11.2498 38.8073 11.2596C48.1903 11.2589 55 17.9447 55 27.1561V38.9987C55 48.2086 48.1903 54.8929 38.8087 54.8929C35.4728 54.9663 31.8875 55 27.5271 55ZM14.5999 31.0765C14.07 31.0784 13.5618 31.2873 13.1835 31.6585C12.8053 32.0297 12.5871 32.534 12.5752 33.0638C12.5808 33.5956 12.7971 34.1035 13.1767 34.4761C13.5563 34.8486 14.0681 35.0554 14.5999 35.0511H17.4599V37.8605C17.4657 38.3921 17.6822 38.8997 18.0618 39.2718C18.4414 39.644 18.9531 39.8504 19.4847 39.8457C20.0139 39.8435 20.5214 39.6348 20.899 39.264C21.2767 38.8932 21.4946 38.3896 21.5065 37.8605V35.0533H24.3401C24.8719 35.0576 25.3837 34.8508 25.7633 34.4783C26.1429 34.1057 26.3592 33.5978 26.3648 33.066C26.353 32.5362 26.1347 32.0319 25.7565 31.6607C25.3782 31.2895 24.87 31.0806 24.3401 31.0787H21.5079V28.2942C21.4937 27.767 21.2743 27.2662 20.8965 26.8984C20.5186 26.5305 20.012 26.3247 19.4847 26.3247C18.9573 26.3247 18.4508 26.5305 18.0729 26.8984C17.695 27.2662 17.4756 27.767 17.4614 28.2942V31.0765H14.5999ZM40.4272 35.7133C39.8954 35.709 39.3835 35.9158 39.004 36.2884C38.6244 36.661 38.4081 37.1688 38.4025 37.7007C38.4021 37.9649 38.4545 38.2266 38.5566 38.4703C38.6587 38.714 38.8085 38.9349 38.997 39.12C39.1856 39.3051 39.4093 39.4507 39.6548 39.5482C39.9004 39.6458 40.163 39.6933 40.4272 39.688H40.7C41.2318 39.6923 41.7437 39.4855 42.1232 39.1129C42.5028 38.7404 42.7191 38.2325 42.7247 37.7007C42.7129 37.1709 42.4946 36.6666 42.1164 36.2954C41.7382 35.9242 41.2299 35.7153 40.7 35.7133H40.4272ZM35.8138 26.5987C35.282 26.5944 34.7701 26.8012 34.3906 27.1738C34.011 27.5464 33.7947 28.0542 33.7891 28.5861C33.7887 28.8503 33.8411 29.112 33.9432 29.3557C34.0453 29.5994 34.1951 29.8203 34.3836 30.0054C34.5722 30.1905 34.7959 30.3361 35.0414 30.4336C35.287 30.5312 35.5496 30.5787 35.8138 30.5734H36.08C36.3455 30.5806 36.6098 30.5346 36.8572 30.4379C37.1046 30.3413 37.3302 30.1961 37.5205 30.0108C37.7109 29.8256 37.8622 29.604 37.9655 29.3593C38.0688 29.1146 38.1221 28.8517 38.1221 28.5861C38.1221 28.3205 38.0688 28.0575 37.9655 27.8128C37.8622 27.5681 37.7109 27.3466 37.5205 27.1613C37.3302 26.9761 37.1046 26.8309 36.8572 26.7342C36.6098 26.6376 36.3455 26.5915 36.08 26.5987H35.8138Z" fill="white"/>
</g>
<defs>
<clipPath id="clip0_3_260">
<rect width="55" height="55" fill="white"/>
</clipPath>
</defs>
</svg>
