<svg width="374" height="534" viewBox="0 0 374 534" fill="none" xmlns="http://www.w3.org/2000/svg">
<path fill-rule="evenodd" clip-rule="evenodd" d="M0.458496 186.681C0.458496 111.823 0.458496 74.394 18.4238 47.5071C26.2013 35.8674 36.1951 25.8737 47.8347 18.0962C74.7216 0.130859 112.151 0.130859 187.008 0.130859C261.866 0.130859 299.296 0.130859 326.183 18.0962C337.821 25.8737 347.815 35.8674 355.594 47.5071C373.558 74.394 373.559 111.823 373.559 186.681V346.581C373.559 421.438 373.558 458.868 355.594 485.755C347.815 497.393 337.821 507.387 326.183 515.166C299.296 533.131 261.866 533.131 187.008 533.131C112.151 533.131 74.7216 533.131 47.8347 515.166C36.1951 507.387 26.2013 497.393 18.4238 485.755C0.458496 458.868 0.458496 421.438 0.458496 346.581V186.681ZM87.071 359.906C87.071 304.711 131.814 259.968 187.008 259.968C242.203 259.968 286.946 304.711 286.946 359.906C286.946 415.101 242.203 459.843 187.008 459.843C131.814 459.843 87.071 415.101 87.071 359.906ZM107.058 73.4184C96.0198 73.4184 87.071 82.3672 87.071 93.4059C87.071 104.445 96.0198 113.393 107.058 113.393H266.958C277.997 113.393 286.946 104.445 286.946 93.4059C286.946 82.3672 277.997 73.4184 266.958 73.4184H107.058ZM133.708 186.681C133.708 201.399 121.777 213.331 107.058 213.331C92.3402 213.331 80.4085 201.399 80.4085 186.681C80.4085 171.963 92.3402 160.031 107.058 160.031C121.777 160.031 133.708 171.963 133.708 186.681ZM187.008 213.331C201.727 213.331 213.658 201.399 213.658 186.681C213.658 171.963 201.727 160.031 187.008 160.031C172.29 160.031 160.358 171.963 160.358 186.681C160.358 201.399 172.29 213.331 187.008 213.331ZM293.608 186.681C293.608 201.399 281.677 213.331 266.958 213.331C252.24 213.331 240.308 201.399 240.308 186.681C240.308 171.963 252.24 160.031 266.958 160.031C281.677 160.031 293.608 171.963 293.608 186.681ZM187.008 299.943C153.893 299.943 127.046 326.791 127.046 359.906C127.046 393.021 153.893 419.868 187.008 419.868C220.124 419.868 246.971 393.021 246.971 359.906C246.971 326.791 220.124 299.943 187.008 299.943Z" fill="black"/>
</svg>
