<svg width="55" height="55" viewBox="0 0 55 55" fill="none" xmlns="http://www.w3.org/2000/svg">
<g clip-path="url(#clip0_3_9)">
<path d="M44.4593 34.0429C42.612 33.6454 41.1505 34.5034 39.8569 35.2521C38.5318 36.0243 36.012 38.0681 34.5681 37.5445C27.1732 34.5005 20.2182 28.0281 17.2079 20.6067C16.677 19.132 18.712 16.5961 19.4812 15.2534C20.2248 13.9554 21.0645 12.4807 20.6817 10.6195C20.3319 8.94675 15.8549 3.24875 14.2716 1.69115C13.4349 0.765767 12.2965 0.167956 11.0596 0.00448225C6.93096 -0.172984 2.31976 5.33582 1.51089 6.65362C-0.513106 9.46008 -0.503573 13.2001 1.54536 17.7365C6.48216 29.9149 25.1536 48.2937 37.3797 53.4161C39.297 54.3867 41.403 54.9273 43.5507 55.0001C45.2762 55.0277 46.9647 54.4985 48.3658 53.4909C49.413 52.8873 55.1476 48.0481 54.9966 43.8109C54.8297 42.5798 54.2387 41.4454 53.3253 40.6033C51.7787 39.0053 46.1181 34.3941 44.4586 34.0451" fill="white"/>
</g>
<defs>
<clipPath id="clip0_3_9">
<rect width="55" height="55" fill="white"/>
</clipPath>
</defs>
</svg>
