<svg width="534" height="533" viewBox="0 0 534 533" fill="none" xmlns="http://www.w3.org/2000/svg">
<path d="M262.468 130.59C338.69 114.066 415.978 111.667 492.466 124.193C445.294 49.5707 362.143 0 267.265 0C184.382 0 110.292 37.8443 61.2544 97.2759C72.9808 131.922 87.9053 164.969 105.761 196.417C115.889 214.54 141.74 213.741 152.134 195.884C174.787 157.774 215.563 132.189 262.468 130.59Z" fill="black"/>
<path d="M153.213 339.037C99.9113 282.004 58.3358 216.976 29.8193 145.019C-10.1571 223.905 -9.89059 320.648 38.8806 401.933C81.5221 473.091 151.881 517.332 228.102 528.792C251.821 500.808 272.609 470.959 290.465 439.778C300.859 421.655 286.734 400.068 265.946 400.068C221.439 400.334 178.532 378.481 153.213 339.037Z" fill="black"/>
<path d="M175.874 266.461C175.874 282.718 179.872 297.91 188.133 312.301C204.391 340.284 234.506 357.874 267.02 357.874C299.534 357.874 329.916 340.284 345.907 312.301C354.169 297.91 358.433 282.718 358.433 266.461C358.433 216.091 317.39 175.314 267.02 175.314C216.916 175.048 175.874 216.091 175.874 266.461Z" fill="black"/>
<path d="M516.203 171.081C479.692 163.352 442.647 159.088 405.869 158.555C384.814 158.288 372.821 181.208 383.215 199.597C393.876 218.519 400.005 240.373 400.005 263.559C400.005 285.946 394.142 308.066 383.215 327.788C358.163 404.542 320.852 472.769 271.548 533C416.795 530.601 533.793 412.271 533.793 266.491C533.793 232.91 527.663 200.663 516.203 171.081Z" fill="black"/>
</svg>
