<svg width="79" height="71" viewBox="0 0 79 71" fill="none" xmlns="http://www.w3.org/2000/svg">
<path d="M11.9875 4C7.58392 4 4 7.98231 4 12.875V23.7222H25.3939C26.4511 23.7137 27.4659 23.305 28.2339 22.5783L38.6125 12.9673L31.6411 6.51103C29.9503 4.91546 27.7186 4.01843 25.3939 4H11.9875ZM45.9689 13.8611L31.6411 27.1231C29.9511 28.7206 27.7193 29.6193 25.3939 29.6389H4V58.2361C4 63.1288 7.58392 67.1111 11.9875 67.1111H67.0125C71.4161 67.1111 75 63.1288 75 58.2361V22.7361C75 17.845 71.4161 13.8611 67.0125 13.8611H45.9689Z" fill="white"/>
</svg>
