<svg width="266" height="534" viewBox="0 0 266 534" fill="none" xmlns="http://www.w3.org/2000/svg">
<path fill-rule="evenodd" clip-rule="evenodd" d="M48.0782 217.512C45.6034 215.037 43.6402 212.099 42.3008 208.866C40.9615 205.633 40.2721 202.167 40.2721 198.667C40.2721 195.167 40.9615 191.702 42.3008 188.468C43.6402 185.235 45.6034 182.297 48.0782 179.822L179.989 47.9118C184.987 42.9138 191.765 40.106 198.834 40.106C205.902 40.106 212.681 42.9138 217.678 47.9118C222.676 52.9097 225.484 59.6884 225.484 66.7566C225.484 73.8248 222.676 80.6035 217.678 85.6015L85.7679 217.512C83.2932 219.987 80.3553 221.95 77.1219 223.289C73.8885 224.629 70.4229 225.318 66.923 225.318C63.4232 225.318 59.9576 224.629 56.7242 223.289C53.4908 221.95 50.5529 219.987 48.0782 217.512ZM114.037 245.778C88.0165 271.795 45.8329 271.795 19.8126 245.778C-6.20445 219.761 -6.20445 177.574 19.8126 151.557L151.723 19.6461C158.055 13.2966 165.607 8.29531 173.924 4.94373C182.241 1.59215 191.151 -0.0402258 200.116 0.145034C217.344 0.450219 233.779 7.44347 245.944 19.6461C252.141 25.8249 257.056 33.1679 260.405 41.253C263.754 49.338 265.472 58.0054 265.459 66.7566V466.506C265.459 503.303 235.631 533.131 198.834 533.131C162.04 533.131 132.209 503.303 132.209 466.506V227.602L114.037 245.778ZM172.184 187.627V466.506C172.184 473.574 174.991 480.353 179.989 485.35C184.987 490.348 191.766 493.156 198.834 493.156C205.902 493.156 212.68 490.348 217.678 485.35C222.676 480.353 225.484 473.574 225.484 466.506V134.328L172.184 187.627Z" fill="black"/>
</svg>
