<svg width="71" height="71" viewBox="0 0 71 71" fill="none" xmlns="http://www.w3.org/2000/svg">
<path d="M31.95 46.15H31.769C30.8755 46.15 30.0186 45.7951 29.3868 45.1633C28.755 44.5315 28.4 43.6746 28.4 42.7811C28.4 41.8395 28.026 40.9366 27.3602 40.2708C26.6945 39.6051 25.7915 39.2311 24.85 39.2311C23.9085 39.2311 23.0055 39.6051 22.3398 40.2708C21.674 40.9366 21.3 41.8395 21.3 42.7811C21.3 45.5576 22.403 48.2204 24.3663 50.1837C26.3296 52.147 28.9924 53.25 31.769 53.25H31.95V56.8C31.95 57.7415 32.324 58.6445 32.9898 59.3102C33.6555 59.976 34.5585 60.35 35.5 60.35C36.4415 60.35 37.3445 59.976 38.0102 59.3102C38.676 58.6445 39.05 57.7415 39.05 56.8V53.25C40.4486 53.25 41.8335 52.9745 43.1256 52.4393C44.4177 51.9041 45.5918 51.1196 46.5807 50.1307C47.5696 49.1417 48.3541 47.9677 48.8893 46.6756C49.4245 45.3835 49.7 43.9986 49.7 42.6C49.7 41.2014 49.4245 39.8165 48.8893 38.5244C48.3541 37.2323 47.5696 36.0583 46.5807 35.0693C45.5918 34.0804 44.4177 33.2959 43.1256 32.7607C41.8335 32.2255 40.4486 31.95 39.05 31.95V24.85H39.1281C40.0489 24.8502 40.9318 25.216 41.5829 25.8671C42.234 26.5182 42.5998 27.4012 42.6 28.3219C42.6 29.2634 42.974 30.1664 43.6398 30.8321C44.3055 31.4979 45.2085 31.8719 46.15 31.8719C47.0915 31.8719 47.9945 31.4979 48.6602 30.8321C49.326 30.1664 49.7 29.2634 49.7 28.3219C49.7 26.9336 49.4266 25.5589 48.8953 24.2762C48.364 22.9936 47.5853 21.8281 46.6036 20.8464C45.6219 19.8648 44.4564 19.086 43.1738 18.5548C41.8912 18.0235 40.5164 17.75 39.1281 17.75H39.05V14.2C39.05 13.2585 38.676 12.3555 38.0102 11.6898C37.3445 11.024 36.4415 10.65 35.5 10.65C34.5585 10.65 33.6555 11.024 32.9898 11.6898C32.324 12.3555 31.95 13.2585 31.95 14.2V17.75C29.1255 17.75 26.4166 18.8721 24.4193 20.8693C22.4221 22.8666 21.3 25.5755 21.3 28.4C21.3 31.2246 22.4221 33.9334 24.4193 35.9307C26.4166 37.928 29.1255 39.05 31.95 39.05V46.15ZM39.05 46.15V39.05C39.9915 39.05 40.8945 39.424 41.5602 40.0898C42.226 40.7555 42.6 41.6585 42.6 42.6C42.6 43.5415 42.226 44.4445 41.5602 45.1102C40.8945 45.776 39.9915 46.15 39.05 46.15ZM31.95 24.85V31.95C31.0085 31.95 30.1055 31.576 29.4398 30.9102C28.774 30.2445 28.4 29.3415 28.4 28.4C28.4 27.4585 28.774 26.5555 29.4398 25.8898C30.1055 25.224 31.0085 24.85 31.95 24.85ZM35.5 71C28.4788 71 21.6152 68.918 15.7773 65.0172C9.93933 61.1164 5.3892 55.572 2.70229 49.0853C0.0153815 42.5985 -0.687637 35.4606 0.682138 28.5743C2.05191 21.688 5.43296 15.3625 10.3977 10.3977C15.3625 5.43296 21.688 2.05191 28.5743 0.682138C35.4606 -0.687637 42.5985 0.0153817 49.0853 2.70229C55.572 5.3892 61.1164 9.93933 65.0172 15.7773C68.918 21.6152 71 28.4788 71 35.5C71 44.9152 67.2598 53.9448 60.6023 60.6023C53.9448 67.2598 44.9152 71 35.5 71Z" fill="white"/>
</svg>
