<svg width="90" height="90" viewBox="0 0 90 90" fill="none" xmlns="http://www.w3.org/2000/svg">
<path d="M45 7.5C35.175 7.5 27.1875 15.4875 27.1875 25.3125C27.1875 34.95 34.725 42.75 44.55 43.0875C44.85 43.05 45.15 43.05 45.375 43.0875C45.45 43.0875 45.4875 43.0875 45.5625 43.0875C45.6 43.0875 45.6 43.0875 45.6375 43.0875C55.2375 42.75 62.775 34.95 62.8125 25.3125C62.8125 15.4875 54.825 7.5 45 7.5Z" fill="white"/>
<path d="M64.0499 53.0623C53.5874 46.0873 36.5249 46.0873 25.9874 53.0623C21.2249 56.2498 18.5999 60.5623 18.5999 65.1748C18.5999 69.7873 21.2249 74.0623 25.9499 77.2123C31.1999 80.7373 38.0999 82.4998 44.9999 82.4998C51.8999 82.4998 58.7999 80.7373 64.0499 77.2123C68.7749 74.0248 71.3999 69.7498 71.3999 65.0998C71.3624 60.4873 68.7749 56.2123 64.0499 53.0623Z" fill="white"/>
</svg>
