<svg width="71" height="71" viewBox="0 0 71 71" fill="none" xmlns="http://www.w3.org/2000/svg">
<path d="M62.8878 25.2983L67.4486 20.7356C68.5765 19.6075 69.4711 18.2683 70.0813 16.7944C70.6916 15.3206 71.0056 13.741 71.0054 12.1457C71.0052 10.5505 70.6908 8.97099 70.0801 7.49729C69.4695 6.02359 68.5745 4.68459 67.4464 3.55676C66.3183 2.42892 64.9791 1.53433 63.5052 0.924059C62.0313 0.31379 60.4517 -0.000205929 58.8565 1.01325e-07C55.6348 0.000416198 52.5453 1.28062 50.2675 3.55898L45.7102 8.11629L62.8878 25.2983ZM41.7475 12.0834L7.98612 45.843C7.26546 46.5646 6.72303 47.4444 6.40194 48.4123L0.141511 67.3241C-0.0214541 67.8174 -0.0441535 68.3462 0.0759447 68.8517C0.196043 69.3571 0.454215 69.8192 0.821656 70.1865C1.1891 70.5537 1.65135 70.8117 2.15685 70.9315C2.66235 71.0514 3.1912 71.0284 3.68441 70.8652L22.5882 64.6039C23.5593 64.2838 24.4418 63.7403 25.1646 63.017L58.9286 29.2556L41.7475 12.0834Z" fill="white"/>
</svg>
