<svg width="533" height="533" viewBox="0 0 533 533" fill="none" xmlns="http://www.w3.org/2000/svg">
<path d="M201.13 43.845L222.749 82.5852C242.261 117.546 234.429 163.409 203.698 194.139C203.698 194.139 166.427 231.416 234.006 298.997C301.564 366.555 338.864 329.305 338.864 329.305C369.595 298.574 415.456 290.742 450.418 310.253L489.157 331.873C541.951 361.335 548.183 435.369 501.782 481.773C473.9 509.656 439.741 531.352 401.981 532.781C338.417 535.193 230.468 519.107 122.182 410.821C13.8972 302.535 -2.1901 194.586 0.219731 131.021C1.65117 93.2619 23.347 59.1042 51.2299 31.2216C97.6327 -15.1812 171.667 -8.94642 201.13 43.845Z" fill="black"/>
</svg>
