<svg width="534" height="533" viewBox="0 0 534 533" fill="none" xmlns="http://www.w3.org/2000/svg">
<path d="M400.259 0H133.625C60.0345 0 0.308594 59.4592 0.308594 132.783V292.23V318.893C0.308594 392.218 60.0345 451.677 133.625 451.677H173.62C180.819 451.677 190.418 456.476 194.951 462.342L234.946 515.402C252.544 538.866 281.34 538.866 298.938 515.402L338.933 462.342C343.999 455.676 351.998 451.677 360.264 451.677H400.259C473.849 451.677 533.575 392.218 533.575 318.893V132.783C533.575 59.4592 473.849 0 400.259 0ZM160.289 266.633C145.357 266.633 133.625 254.635 133.625 239.97C133.625 225.305 145.624 213.307 160.289 213.307C174.953 213.307 186.952 225.305 186.952 239.97C186.952 254.635 175.22 266.633 160.289 266.633ZM266.942 266.633C252.01 266.633 240.279 254.635 240.279 239.97C240.279 225.305 252.277 213.307 266.942 213.307C281.607 213.307 293.605 225.305 293.605 239.97C293.605 254.635 281.873 266.633 266.942 266.633ZM373.595 266.633C358.664 266.633 346.932 254.635 346.932 239.97C346.932 225.305 358.93 213.307 373.595 213.307C388.26 213.307 400.259 225.305 400.259 239.97C400.259 254.635 388.527 266.633 373.595 266.633Z" fill="black"/>
</svg>
