<svg width="561" height="533" viewBox="0 0 561 533" fill="none" xmlns="http://www.w3.org/2000/svg">
<path d="M84.5191 196.172C84.5191 87.8293 172.348 0 280.691 0C389.034 0 476.863 87.8293 476.863 196.172V225.189C524.396 231.99 560.937 272.87 560.937 322.283V329.289C560.937 379.038 518.031 422.65 467.553 420.315C446.804 479.725 394.09 519.763 337.158 529.925C324.006 534.731 308.405 532.467 294.703 532.467C271.488 532.467 252.667 513.646 252.667 490.43C252.667 467.215 271.488 448.393 294.703 448.393C316.938 448.393 341.538 445.179 356.54 465.449C392.888 448.166 420.814 411.639 420.814 364.32V196.172C420.814 118.784 358.078 56.0492 280.691 56.0492C203.303 56.0492 140.568 118.784 140.568 196.172V371.326C140.568 398.411 118.611 420.369 91.5252 420.369C41.223 420.369 0.445312 379.59 0.445312 329.289V322.283C0.445312 272.87 36.9852 231.99 84.5191 225.189V196.172Z" fill="black"/>
</svg>
