<svg width="534" height="534" viewBox="0 0 534 534" fill="none" xmlns="http://www.w3.org/2000/svg">
<path fill-rule="evenodd" clip-rule="evenodd" d="M27.2085 213.33C17.8939 213.33 9.07513 215.454 1.21046 219.244C-0.631848 192.912 1.21872 173.963 9.4962 156.698C23.8993 126.654 54.5561 108.392 115.869 71.8682L115.871 71.8675L152.776 49.8828C208.456 16.7149 236.296 0.130859 267.058 0.130859C297.82 0.130859 325.661 16.7149 381.338 49.8828L418.246 71.8677L418.253 71.8718C479.562 108.393 510.218 126.655 524.619 156.698C539.023 186.742 533.968 221.88 523.854 292.158L516.427 343.787L516.425 343.798C503.435 434.068 496.939 479.202 465.627 506.165C437.554 530.34 397.739 532.842 323.62 533.1C325.821 526.856 327.02 520.141 327.02 513.142C327.02 347.561 192.79 213.33 27.2085 213.33ZM27.2084 253.306C16.1698 253.306 7.22099 262.255 7.22099 273.294C7.22099 284.332 16.1698 293.281 27.2084 293.281C148.635 293.281 247.07 391.718 247.07 513.143C247.07 524.182 256.02 533.131 267.058 533.131C278.096 533.131 287.045 524.182 287.045 513.143C287.045 369.639 170.713 253.306 27.2084 253.306ZM27.2084 333.256C16.1698 333.256 7.22099 342.205 7.22099 353.244C7.22099 364.282 16.1698 373.231 27.2084 373.231C104.48 373.231 167.121 435.872 167.121 513.144C167.121 524.182 176.069 533.131 187.108 533.131C198.147 533.131 207.096 524.182 207.096 513.144C207.096 413.795 126.557 333.256 27.2084 333.256ZM27.2084 413.206C16.1698 413.206 7.22099 422.155 7.22099 433.194C7.22099 444.232 16.1698 453.181 27.2084 453.181C60.3247 453.181 87.1708 480.028 87.1708 513.143C87.1708 524.182 96.1196 533.131 107.158 533.131C118.197 533.131 127.146 524.182 127.146 513.143C127.146 457.949 82.4024 413.206 27.2084 413.206Z" fill="black"/>
</svg>
