<svg width="478" height="533" viewBox="0 0 478 533" fill="none" xmlns="http://www.w3.org/2000/svg">
<path fill-rule="evenodd" clip-rule="evenodd" d="M348.752 121.136C348.299 119.181 347.829 117.222 347.337 115.26C340.941 89.6743 330.869 61.8723 314.446 39.975C297.511 17.3957 272.785 0 239.038 0C205.292 0 180.565 17.3957 163.631 39.975C147.208 61.8723 137.135 89.6743 130.739 115.261C130.248 117.222 129.777 119.181 129.324 121.136H90.5519C52.2876 121.136 20.5765 150.804 18.0312 188.983L0.264338 455.482C-2.53222 497.434 30.7415 533 72.7853 533H405.291C447.335 533 480.609 497.434 477.813 455.482L460.044 188.983C457.501 150.804 425.789 121.136 387.525 121.136H348.752ZM142.129 242.273C156.011 242.273 166.31 231.816 166.357 218.001C166.36 217.425 166.367 216.849 166.377 216.272C166.398 214.996 166.442 213.068 166.531 210.582C166.708 205.605 167.066 198.421 167.787 189.773C168.298 183.637 168.987 176.826 169.912 169.591H308.166C309.089 176.826 309.777 183.637 310.291 189.773C311.01 198.421 311.369 205.605 311.546 210.582C311.635 213.068 311.679 214.996 311.701 216.272C311.711 216.867 311.718 217.461 311.72 218.055C311.72 218.055 311.72 242.273 335.947 242.273C360.175 242.273 360.175 218.013 360.175 218.013C360.172 217.164 360.163 216.314 360.148 215.465C360.121 213.903 360.071 211.666 359.969 208.853C359.77 203.23 359.37 195.272 358.576 185.749C358.164 180.784 357.638 175.36 356.974 169.591H387.525C400.281 169.591 410.851 179.48 411.699 192.207L429.465 458.707C430.398 472.691 419.306 484.545 405.291 484.545H72.7853C58.7708 484.545 47.6795 472.691 48.6116 458.707L66.3784 192.207C67.2268 179.48 77.7972 169.591 90.5519 169.591H121.102C120.437 175.36 119.914 180.784 119.5 185.75C118.706 195.272 118.308 203.23 118.107 208.853C118.006 211.666 117.955 213.903 117.929 215.465C117.915 216.297 117.905 217.13 117.902 217.963C117.884 231.787 128.279 242.273 142.129 242.273ZM179.282 121.136H298.795C293.194 100.621 285.579 82.2433 275.682 69.0477C265.361 55.2861 253.747 48.4545 239.038 48.4545C224.33 48.4545 212.715 55.2861 202.395 69.0477C192.498 82.2433 184.884 100.621 179.282 121.136Z" fill="black"/>
</svg>
