<svg width="50" height="55" viewBox="0 0 50 55" fill="none" xmlns="http://www.w3.org/2000/svg">
<g clip-path="url(#clip0_3_186)">
<path d="M14.1671 55.0001H14.1374C9.90479 55.0001 6.34932 53.6867 3.85514 51.2017C1.36096 48.7168 0.0343343 45.1574 0.0297142 40.9208L1.3759e-05 18.0184C-0.00460632 14.1355 1.15437 10.8038 3.35155 8.38224C5.52232 5.9963 8.64615 4.55418 12.3924 4.20767V2.1458C12.3871 1.86491 12.4376 1.58576 12.5409 1.32452C12.6442 1.06327 12.7983 0.825106 12.9943 0.623813C13.2917 0.334462 13.6679 0.139361 14.0757 0.0629837C14.4835 -0.013394 14.9048 0.0323519 15.2867 0.194483C15.6687 0.356615 15.9942 0.627913 16.2225 0.974347C16.4509 1.32078 16.5718 1.72693 16.5702 2.14184V4.06709L32.7002 4.04465V2.1194C32.6947 1.8393 32.7448 1.56089 32.8477 1.3003C32.9506 1.03972 33.1041 0.802152 33.2995 0.601373C33.5963 0.310988 33.9723 0.114751 34.3802 0.037296C34.7882 -0.0401589 35.2099 0.00462038 35.5925 0.166012C35.975 0.327404 36.3014 0.598217 36.5306 0.944452C36.7598 1.29069 36.8816 1.69691 36.8807 2.11214V4.17401C40.3328 4.33341 43.5961 5.7957 46.0126 8.26608C48.2699 10.6824 49.4652 13.9956 49.4685 17.8488L49.5008 41.0191C49.5107 49.6138 44.1065 54.9612 35.3984 54.973L14.1671 55.0001ZM35.8683 39.0278C35.2633 39.045 34.6896 39.3009 34.2727 39.7397C33.8558 40.1785 33.6295 40.7645 33.6434 41.3696C33.6553 41.8193 33.7998 42.2555 34.0589 42.6233C34.318 42.9911 34.6801 43.2741 35.0996 43.4367C35.5191 43.5993 35.9773 43.6343 36.4166 43.5372C36.8559 43.4402 37.2567 43.2154 37.5686 42.8911C37.8805 42.5669 38.0896 42.1577 38.1696 41.7149C38.2495 41.2722 38.1968 40.8157 38.0181 40.4028C37.8393 39.9899 37.5425 39.6391 37.1649 39.3945C36.7874 39.1498 36.3459 39.0223 35.896 39.0278H35.8683ZM13.521 39.0278C12.9163 39.058 12.3469 39.3214 11.9324 39.7626C11.5179 40.2039 11.2905 40.7886 11.2981 41.394C11.3147 41.9772 11.556 42.5315 11.9716 42.941C12.3871 43.3505 12.9448 43.5837 13.5283 43.5918C13.5635 43.5918 13.5989 43.5918 13.6345 43.5918C13.9284 43.5795 14.217 43.5089 14.4834 43.3843C14.7499 43.2597 14.989 43.0835 15.1869 42.8658C15.3892 42.6458 15.5459 42.3879 15.6479 42.1069C15.7499 41.826 15.7951 41.5275 15.7809 41.229C15.7704 40.6401 15.528 40.0791 15.1061 39.668C14.6843 39.2569 14.1172 39.029 13.5283 39.0338L13.521 39.0278ZM24.7082 39.0133C24.104 39.0463 23.5357 39.311 23.1218 39.7523C22.7079 40.1937 22.4801 40.7777 22.4859 41.3828C22.5031 41.9671 22.7455 42.5221 23.1625 42.9317C23.5796 43.3414 24.1388 43.5739 24.7233 43.5806C24.7557 43.5806 24.7894 43.5806 24.8224 43.5806C25.4202 43.5493 25.9813 43.2826 26.3829 42.8386C26.7845 42.3947 26.994 41.8098 26.9654 41.2118C26.955 40.6229 26.7125 40.0619 26.2907 39.6508C25.8688 39.2398 25.3018 39.0118 24.7128 39.0166L24.7082 39.0133ZM13.5091 29.1336C12.9039 29.1637 12.334 29.4274 11.9194 29.8692C11.5048 30.311 11.2778 30.8965 11.2862 31.5024C11.302 32.0862 11.5433 32.6412 11.9595 33.051C12.3757 33.4608 12.9343 33.6935 13.5184 33.7002C13.5533 33.7002 13.5903 33.7002 13.6246 33.7002C13.918 33.6879 14.2061 33.6173 14.472 33.4927C14.7379 33.368 14.9764 33.1918 15.1737 32.9742C15.3751 32.7538 15.5309 32.4957 15.632 32.2147C15.7332 31.9338 15.7777 31.6356 15.763 31.3374C15.753 30.7488 15.511 30.188 15.0896 29.777C14.6683 29.3659 14.1017 29.1378 13.5131 29.1422L13.5091 29.1336ZM24.6989 29.0373C24.094 29.0671 23.5242 29.3303 23.1092 29.7716C22.6943 30.2128 22.4666 30.7978 22.474 31.4034C22.4904 31.9887 22.7329 32.5448 23.1506 32.9551C23.5682 33.3654 24.1286 33.598 24.7141 33.6039C24.7464 33.6039 24.7801 33.6039 24.8131 33.6039C25.4101 33.5708 25.9699 33.3034 26.3708 32.8598C26.7717 32.4162 26.9814 31.8324 26.9542 31.2351C26.9431 30.6467 26.7005 30.0864 26.2791 29.6756C25.8577 29.2648 25.2914 29.0366 24.7029 29.0406L24.6989 29.0373ZM35.8927 29.0551H35.8835C35.2835 29.0681 34.7131 29.3179 34.2966 29.7499C33.8802 30.1819 33.6515 30.7612 33.6606 31.3612V31.3935C33.6715 31.9831 33.9148 32.5444 34.3375 32.9555C34.7602 33.3666 35.3282 33.5942 35.9178 33.5887H35.9706C36.56 33.5612 37.1155 33.3052 37.5192 32.8749C37.9229 32.4446 38.1431 31.874 38.1331 31.2841C38.123 30.6941 37.8835 30.1313 37.4654 29.7151C37.0472 29.2988 36.4833 29.0618 35.8934 29.0544L35.8927 29.0551ZM12.3963 8.41062C6.93672 8.95909 4.17194 12.1912 4.1792 18.0164L4.18448 18.8705L45.2926 18.8157V17.8527C45.1758 12.0446 42.3476 8.85546 36.8873 8.38092V10.4969C36.891 10.9138 36.7706 11.3223 36.5413 11.6705C36.312 12.0186 35.9843 12.2907 35.5999 12.452C35.2155 12.6133 34.7918 12.6566 34.3827 12.5763C33.9736 12.496 33.5977 12.2957 33.3028 12.0011C32.9157 11.5986 32.7023 11.06 32.7088 10.5015V8.27664L16.5788 8.29908L16.5834 10.5213C16.5866 10.9383 16.4658 11.3468 16.2363 11.6949C16.0068 12.043 15.6789 12.315 15.2945 12.4764C14.91 12.6378 14.4862 12.6812 14.077 12.6011C13.6678 12.5211 13.2916 12.3212 12.9963 12.0268C12.6089 11.6242 12.3955 11.0853 12.4023 10.5266V8.41062H12.3963Z" fill="white"/>
</g>
<defs>
<clipPath id="clip0_3_186">
<rect width="49.5008" height="55" fill="white"/>
</clipPath>
</defs>
</svg>
