<svg width="55" height="55" viewBox="0 0 55 55" fill="none" xmlns="http://www.w3.org/2000/svg">
<path d="M14.731 28.6322L31.4922 7.42969M22.9214 18.1845L16.1907 12.3522M40.5466 15.1091L21.4432 37.9776M21.771 21.7709C21.771 23.2904 22.3746 24.7476 23.449 25.8221C24.5234 26.8965 25.9807 27.5001 27.5001 27.5001C29.0196 27.5001 30.4768 26.8965 31.5513 25.8221C32.6257 24.7476 33.2293 23.2904 33.2293 21.7709C33.2293 20.2515 32.6257 18.7942 31.5513 17.7198C30.4768 16.6454 29.0196 16.0418 27.5001 16.0418C25.9807 16.0418 24.5234 16.6454 23.449 17.7198C22.3746 18.7942 21.771 20.2515 21.771 21.7709Z" stroke="white" stroke-width="8.33333" stroke-linecap="round" stroke-linejoin="round"/>
<path d="M40.3127 14.6118C41.3944 16.6903 41.9513 18.998 41.9375 21.3378C41.9469 23.8606 41.3827 26.3526 40.2875 28.6253C38.9154 31.0649 37.3123 33.3671 35.5002 35.5003C33.7035 37.6384 32.0856 39.9232 30.6648 42.3295C29.9452 43.7503 29.3631 45.2399 28.93 46.7707C28.6527 47.5957 28.2952 48.1251 27.5046 48.1251C26.7827 48.1251 26.4435 47.8134 26.07 46.7661C25.6284 45.1991 25.0303 43.6805 24.2848 42.2332C23.3103 40.5622 22.2207 38.961 21.0238 37.4413C19.014 34.728 16.0302 31.632 14.4856 28.112C13.5257 25.9749 13.0402 23.6552 13.0625 21.3126C13.0462 17.9108 14.2458 14.6152 16.445 12.0199C17.7924 10.4056 19.4787 9.10782 21.3842 8.21866C23.2896 7.3295 25.3675 6.87078 27.4702 6.8751C28.9597 6.86975 30.4416 7.08916 31.8656 7.52593C33.6716 8.09099 35.3479 9.00805 36.7977 10.2242C38.2475 11.4404 39.4421 12.9316 40.3127 14.6118Z" stroke="white" stroke-width="8.33333" stroke-linecap="round" stroke-linejoin="round"/>
</svg>
