<svg width="593" height="533" viewBox="0 0 593 533" fill="none" xmlns="http://www.w3.org/2000/svg">
<path fill-rule="evenodd" clip-rule="evenodd" d="M231.064 533H362.668C455.087 533 501.295 533 534.489 511.224C548.857 501.796 561.195 489.682 570.798 475.575C592.977 442.985 592.977 397.615 592.977 306.878C592.977 216.143 592.977 170.773 570.798 138.183C561.195 124.075 548.857 111.961 534.489 102.534C513.157 88.5411 486.457 83.5397 445.573 81.7521C426.062 81.7521 409.267 67.2374 405.441 48.4544C399.699 20.2804 374.503 0 345.242 0H248.49C219.227 0 194.031 20.2804 188.292 48.4544C184.466 67.2374 167.668 81.7521 148.159 81.7521C107.276 83.5397 80.5731 88.5411 59.2439 102.534C44.874 111.961 32.5359 124.075 22.9342 138.183C0.754886 170.773 0.754883 216.143 0.754883 306.878C0.754883 397.615 0.754886 442.985 22.9342 475.575C32.5359 489.682 44.874 501.796 59.2439 511.224C92.438 533 138.646 533 231.064 533ZM296.866 185.742C228.725 185.742 173.486 239.977 173.486 306.878C173.486 373.781 228.725 428.014 296.866 428.014C365.007 428.014 420.247 373.781 420.247 306.878C420.247 239.977 365.007 185.742 296.866 185.742ZM296.866 234.197C255.982 234.197 222.838 266.737 222.838 306.878C222.838 347.019 255.982 379.561 296.866 379.561C337.75 379.561 370.894 347.019 370.894 306.878C370.894 266.737 337.75 234.197 296.866 234.197ZM436.696 209.969C436.696 196.589 447.743 185.742 461.373 185.742H494.274C507.901 185.742 518.949 196.589 518.949 209.969C518.949 223.351 507.901 234.197 494.274 234.197H461.373C447.743 234.197 436.696 223.351 436.696 209.969Z" fill="black"/>
</svg>
