<svg width="62" height="71" viewBox="0 0 62 71" fill="none" xmlns="http://www.w3.org/2000/svg">
<g clip-path="url(#clip0_805_430)">
<path d="M31.9184 0.0175724C31.2964 -0.0555541 30.6696 0.107761 30.1624 0.475128C29.818 0.726073 29.5383 1.05532 29.3462 1.43568C29.1542 1.81605 29.0554 2.23663 29.0579 2.66272V48.1958C25.5911 45.6552 21.3905 44.3139 17.0929 44.3752C7.668 44.3752 0 50.3479 0 57.6877C0 65.0275 7.668 71.0002 17.0929 71.0002C26.5177 71.0002 34.1857 65.0275 34.1857 57.6877V22.4788L58.0685 31.7798C58.4558 31.9313 58.875 31.983 59.2874 31.93C59.6999 31.8771 60.0924 31.7213 60.4289 31.4769C60.7735 31.2258 61.0533 30.8963 61.2454 30.5156C61.4374 30.135 61.5361 29.7141 61.5333 29.2877V19.4629C61.5487 17.1483 60.8703 14.8823 59.5857 12.9569C58.301 11.0315 56.4691 9.5351 54.326 8.66064L32.5227 0.170617C32.3285 0.0943917 32.1255 0.0429707 31.9184 0.0175724Z" fill="white"/>
</g>
<defs>
<clipPath id="clip0_805_430">
<rect width="61.5333" height="71" fill="white"/>
</clipPath>
</defs>
</svg>
