<svg width="44" height="55" viewBox="0 0 44 55" fill="none" xmlns="http://www.w3.org/2000/svg">
<g clip-path="url(#clip0_3_328)">
<path d="M0 45.5722C0 38.0895 10.1331 36.2185 21.995 36.2185C33.9244 36.2185 43.99 38.1562 43.99 45.6338C43.99 53.1114 33.8584 54.9875 21.995 54.9875C10.0686 54.9875 0 53.0498 0 45.5722ZM7.44091 14.5475C7.4399 11.6686 8.29268 8.85404 9.8914 6.45981C11.4901 4.06559 13.763 2.19927 16.4225 1.09688C19.082 -0.00550687 22.0087 -0.294431 24.8324 0.266651C27.6561 0.827732 30.25 2.21361 32.286 4.24901C34.322 6.28441 35.7087 8.87789 36.2706 11.7014C36.8326 14.525 36.5445 17.4518 35.4429 20.1116C34.3414 22.7714 32.4757 25.0448 30.082 26.6443C27.6882 28.2437 24.8739 29.0974 21.995 29.0972C20.0821 29.1044 18.1867 28.733 16.4179 28.0044C14.6492 27.2758 13.0421 26.2044 11.6893 24.852C10.3364 23.4995 9.26457 21.8928 8.53544 20.1243C7.80631 18.3557 7.43432 16.4604 7.44091 14.5475Z" fill="white"/>
</g>
<defs>
<clipPath id="clip0_3_328">
<rect width="44.0007" height="55" fill="white"/>
</clipPath>
</defs>
</svg>
