<svg width="88" height="88" viewBox="0 0 88 88" fill="none" xmlns="http://www.w3.org/2000/svg">
<path d="M53.7031 7.2915H33.7969V23.1873H53.7031V7.2915Z" fill="white"/>
<path d="M59.1719 7.2915V23.1873H79.7344C77.875 13.1613 70.474 7.32796 59.1719 7.2915Z" fill="white"/>
<path d="M7.29175 28.6558V59.0256C7.29175 72.2964 15.2032 80.2078 28.474 80.2078H59.0261C72.297 80.2078 80.2084 72.2964 80.2084 59.0256V28.6558H7.29175ZM52.6459 58.9891L45.0626 63.3641C43.4584 64.2755 41.8907 64.7495 40.4324 64.7495C39.3386 64.7495 38.3542 64.4943 37.4428 63.9839C35.3282 62.7808 34.1615 60.3016 34.1615 57.0933V48.3433C34.1615 45.1349 35.3282 42.6558 37.4428 41.4526C39.5574 40.2131 42.2553 40.4318 45.0626 42.0724L52.6459 46.4474C55.4532 48.0516 56.9845 50.312 56.9845 52.7547C56.9845 55.1974 55.4167 57.3485 52.6459 58.9891Z" fill="white"/>
<path d="M28.3281 7.2915C17.026 7.32796 9.625 13.1613 7.76562 23.1873H28.3281V7.2915Z" fill="white"/>
</svg>
