<svg width="44" height="55" viewBox="0 0 44 55" fill="none" xmlns="http://www.w3.org/2000/svg">
<g clip-path="url(#clip0_3_250)">
<path d="M0 45.5826C0 38.0982 10.1354 36.2267 22 36.2267C33.9321 36.2267 44 38.1649 44 45.6442C44 53.1234 33.8661 55 22 55C10.0709 55 0 53.0618 0 45.5826ZM7.4426 14.5508C7.44159 11.6712 8.29456 8.85605 9.89364 6.46128C11.4927 4.06652 13.7661 2.19977 16.4262 1.09713C19.0863 -0.00550532 22.0136 -0.294495 24.838 0.266714C27.6624 0.827922 30.2569 2.21412 32.2933 4.24998C34.3298 6.28584 35.7168 8.87991 36.2789 11.7041C36.8409 14.5283 36.5528 17.4557 35.451 20.1162C34.3491 22.7766 32.4831 25.0505 30.0888 26.6503C27.6945 28.2501 24.8796 29.104 22 29.1038C20.0867 29.111 18.1908 28.7395 16.4217 28.0107C14.6525 27.282 13.0451 26.2103 11.6919 24.8576C10.3388 23.5049 9.26667 21.8977 8.53738 20.1288C7.80808 18.3599 7.43601 16.4642 7.4426 14.5508Z" fill="white"/>
</g>
<defs>
<clipPath id="clip0_3_250">
<rect width="44.0007" height="55" fill="white"/>
</clipPath>
</defs>
</svg>
