<svg width="534" height="533" viewBox="0 0 534 533" fill="none" xmlns="http://www.w3.org/2000/svg">
<path d="M373.2 0H160C53.4001 0 0.100098 53.3 0.100098 159.9V506.35C0.100098 521.008 12.0926 533 26.7501 533H373.2C479.8 533 533.1 479.7 533.1 373.1V159.9C533.1 53.3 479.8 0 373.2 0ZM319.9 353.112H133.35C122.424 353.112 113.363 344.051 113.363 333.125C113.363 322.198 122.424 313.137 133.35 313.137H319.9C330.827 313.137 339.888 322.198 339.888 333.125C339.888 344.051 330.827 353.112 319.9 353.112ZM399.85 219.863H133.35C122.424 219.863 113.363 210.801 113.363 199.875C113.363 188.949 122.424 179.887 133.35 179.887H399.85C410.777 179.887 419.838 188.949 419.838 199.875C419.838 210.801 410.777 219.863 399.85 219.863Z" fill="black"/>
</svg>
