<svg width="534" height="534" viewBox="0 0 534 534" fill="none" xmlns="http://www.w3.org/2000/svg">
<path d="M266.953 0.130859V266.631C340.547 266.631 400.203 206.971 400.203 133.381C400.203 59.7908 340.547 0.130859 266.953 0.130859ZM266.953 266.631V533.131C193.363 533.131 133.703 473.474 133.703 399.881C133.703 326.287 193.363 266.631 266.953 266.631ZM533.453 266.631H266.953C266.953 340.224 326.609 399.881 400.203 399.881C473.797 399.881 533.453 340.224 533.453 266.631ZM266.953 266.631H0.453125C0.453125 193.041 60.1131 133.381 133.703 133.381C207.293 133.381 266.953 193.041 266.953 266.631Z" fill="black"/>
</svg>
