<svg width="73" height="72" viewBox="0 0 73 72" fill="none" xmlns="http://www.w3.org/2000/svg">
<path d="M41.5717 34.6795L47.2569 28.9995C47.725 28.5175 48.2843 28.1334 48.9021 27.8694C49.52 27.6054 50.1842 27.4669 50.856 27.4618C51.5279 27.4567 52.1941 27.5852 52.8158 27.8398C53.4376 28.0944 54.0026 28.47 54.478 28.9448C54.9534 29.4197 55.3296 29.9842 55.5849 30.6057C55.8402 31.2272 55.9695 31.8932 55.9652 32.5651C55.9609 33.237 55.8231 33.9013 55.5598 34.5194C55.2966 35.1376 54.9131 35.6973 54.4317 36.166L40.0822 50.5154C39.6122 50.9886 39.0533 51.3642 38.4377 51.6204C37.822 51.8767 37.1617 52.0086 36.4948 52.0086C35.8279 52.0086 35.1676 51.8767 34.552 51.6204C33.9363 51.3642 33.3774 50.9886 32.9074 50.5154L18.558 36.166C18.0869 35.6944 17.7133 35.1347 17.4585 34.5188C17.2037 33.9029 17.0727 33.2428 17.073 32.5762C17.0733 31.9097 17.2049 31.2497 17.4603 30.634C17.7157 30.0183 18.0898 29.459 18.5613 28.9879C19.0329 28.5168 19.5926 28.1432 20.2085 27.8884C20.8244 27.6336 21.4845 27.5026 22.1511 27.5029C22.8176 27.5032 23.4776 27.6348 24.0933 27.8902C24.709 28.1456 25.2683 28.5197 25.7394 28.9912L31.4194 34.6765V6.07168C31.4113 5.40053 31.5364 4.73444 31.7876 4.11203C32.0388 3.48961 32.4111 2.92324 32.8828 2.44576C33.3545 1.96828 33.9163 1.58918 34.5357 1.33044C35.155 1.07171 35.8195 0.938477 36.4907 0.938477C37.1619 0.938477 37.8264 1.07171 38.4457 1.33044C39.0651 1.58918 39.6269 1.96828 40.0986 2.44576C40.5703 2.92324 40.9426 3.48961 41.1938 4.11203C41.445 4.73444 41.5701 5.40053 41.562 6.07168L41.5717 34.6795ZM6.07168 61.8575H66.9284C67.5995 61.8494 68.2656 61.9745 68.8881 62.2257C69.5105 62.4769 70.0768 62.8492 70.5543 63.3209C71.0318 63.7926 71.4109 64.3544 71.6696 64.9737C71.9284 65.5931 72.0616 66.2576 72.0616 66.9288C72.0616 67.6 71.9284 68.2645 71.6696 68.8838C71.4109 69.5031 71.0318 70.0649 70.5543 70.5367C70.0768 71.0084 69.5105 71.3806 68.8881 71.6318C68.2656 71.883 67.5995 72.0082 66.9284 72H6.07168C5.40053 72.0082 4.73444 71.883 4.11203 71.6318C3.48961 71.3806 2.92324 71.0084 2.44576 70.5367C1.96828 70.0649 1.58918 69.5031 1.33044 68.8838C1.07171 68.2645 0.938477 67.6 0.938477 66.9288C0.938477 66.2576 1.07171 65.5931 1.33044 64.9737C1.58918 64.3544 1.96828 63.7926 2.44576 63.3209C2.92324 62.8492 3.48961 62.4769 4.11203 62.2257C4.73444 61.9745 5.40053 61.8494 6.07168 61.8575Z" fill="white"/>
</svg>
