<svg width="602" height="533" viewBox="0 0 602 533" fill="none" xmlns="http://www.w3.org/2000/svg">
<path fill-rule="evenodd" clip-rule="evenodd" d="M425.356 341.371C426.381 343.131 428.289 344.213 430.326 344.213L595.774 343.503C600.212 343.503 603.001 338.716 600.812 334.855L600.745 334.737L409.26 3.07965L409.174 2.91819C408.207 1.12093 406.331 0 404.29 0L239.078 0.710666L238.769 0.717867C234.335 0.821083 231.638 5.64393 233.871 9.47594L425.356 341.371ZM212.602 378.331C210.569 378.331 208.656 379.41 207.629 381.165L125.454 524.499C123.251 528.265 125.967 533 130.329 533H130.664H513.594C515.628 533 517.541 531.921 518.567 530.166L600.742 387.068L600.795 386.975C602.99 383.12 600.205 378.331 595.769 378.331H212.602ZM285.721 169.878C286.69 171.68 286.653 173.856 285.623 175.623L94.1033 507.785C91.884 511.595 86.3796 511.595 84.1604 507.785L0.829212 364.583C-0.195034 362.825 -0.195014 360.651 0.829212 358.893L192.349 26.7315C194.568 22.9214 200.073 22.9214 202.292 26.7315L285.623 169.696L285.721 169.878Z" fill="black"/>
</svg>
