<svg width="541" height="534" viewBox="0 0 541 534" fill="none" xmlns="http://www.w3.org/2000/svg">
<path fill-rule="evenodd" clip-rule="evenodd" d="M270.135 170.69C223.035 170.69 184.855 132.509 184.855 85.4106C184.855 38.312 223.035 0.130859 270.135 0.130859C317.235 0.130859 355.414 38.312 355.414 85.4106C355.414 132.509 317.235 170.69 270.135 170.69ZM135.696 99.7308C143.488 108.559 142.648 122.032 133.82 129.823C90.9982 167.618 64.0419 222.846 64.0419 284.398C64.0419 296.172 54.4965 305.718 42.7219 305.718C30.9474 305.718 21.402 296.172 21.402 284.398C21.402 210.105 54.0005 143.4 105.604 97.8544C114.432 90.0627 127.905 90.9029 135.696 99.7308ZM404.573 99.7308C412.364 90.9029 425.839 90.0627 434.665 97.8544C486.268 143.4 518.867 210.105 518.867 284.398C518.867 296.172 509.322 305.718 497.547 305.718C485.773 305.718 476.227 296.172 476.227 284.398C476.227 222.846 449.27 167.618 406.449 129.823C397.622 122.032 396.781 108.559 404.573 99.7308ZM218.594 484.001C207.192 481.065 195.569 487.93 192.634 499.335C189.7 510.737 196.564 522.36 207.967 525.294C227.861 530.413 248.695 533.131 270.135 533.131C291.574 533.131 312.408 530.413 332.301 525.294C343.705 522.36 350.57 510.737 347.634 499.335C344.7 487.93 333.077 481.065 321.675 484.001C305.224 488.234 287.958 490.491 270.135 490.491C252.311 490.491 235.045 488.234 218.594 484.001ZM0.0822754 426.53C0.0822754 473.63 38.2634 511.81 85.362 511.81C132.461 511.81 170.642 473.63 170.642 426.53C170.642 379.43 132.461 341.25 85.362 341.25C38.2634 341.25 0.0822754 379.43 0.0822754 426.53ZM369.628 426.53C369.628 473.63 407.807 511.81 454.907 511.81C502.007 511.81 540.187 473.63 540.187 426.53C540.187 379.43 502.007 341.25 454.907 341.25C407.807 341.25 369.628 379.43 369.628 426.53Z" fill="black"/>
</svg>
