<svg width="539" height="533" viewBox="0 0 539 533" fill="none" xmlns="http://www.w3.org/2000/svg">
<path d="M241.962 507.306C241.962 523.226 228.164 535.778 212.594 532.464C99.4813 508.402 12.6485 413.29 1.02564 296.06C-0.441116 281.266 11.7519 269.18 26.6181 269.18H107.372C122.238 269.18 134.29 281.231 134.29 296.097C134.29 340.698 170.445 376.851 215.044 376.851C229.911 376.851 241.962 388.902 241.962 403.769V507.306Z" fill="black"/>
<path d="M403.47 455.678C403.47 476.41 425.758 488.921 441.647 475.608C462.942 457.767 481.435 436.693 496.369 413.139C506.762 396.752 493.933 376.851 474.525 376.851H430.388C415.521 376.851 403.47 388.902 403.47 403.769V455.678Z" fill="black"/>
<path d="M268.88 0C337.574 0 400.258 25.7317 447.817 68.0819C464.39 82.8389 452.549 107.672 430.358 107.672H426.46C384.029 107.672 349.634 142.068 349.634 184.498C349.634 193.207 344.713 201.167 336.926 205.062L334.753 206.147C327.176 209.936 318.255 209.936 310.678 206.147L308.506 205.062C300.718 201.167 295.798 193.207 295.798 184.498C295.798 142.068 261.402 107.672 218.971 107.672H215.044C200.178 107.672 188.126 95.6201 188.126 80.7538V32.083C188.126 20.3239 195.731 9.78952 207.18 7.10446C226.993 2.45788 247.65 0 268.88 0Z" fill="black"/>
<path d="M38.0199 215.342C21.0018 215.342 8.19962 199.686 13.6096 183.551C29.7757 135.336 59.2191 93.211 97.5963 61.5192C112.922 48.8634 134.294 60.8766 134.294 80.7526C134.294 125.352 170.449 161.506 215.049 161.506H218.976C231.673 161.506 241.967 171.8 241.967 184.497C241.967 213.597 258.406 240.2 284.435 253.212L286.605 254.299C309.34 265.667 336.099 265.667 358.834 254.299L361.006 253.212C387.033 240.2 403.475 213.597 403.475 184.497C403.475 171.8 413.768 161.506 426.465 161.506H498.051C508.751 161.506 518.552 167.802 522.18 177.867C532.46 206.378 538.064 237.123 538.064 269.177C538.064 280.046 537.418 290.765 536.167 301.295C534.657 314.009 523.478 323.013 510.675 323.013H430.393C385.792 323.013 349.639 359.169 349.639 403.767V506.275C349.639 518.033 342.032 528.569 330.583 531.253C328.783 531.675 326.974 532.079 325.157 532.467C309.587 535.778 295.803 523.223 295.803 507.306V403.767C295.803 359.169 259.647 323.013 215.049 323.013C200.181 323.013 188.13 310.962 188.13 296.095C188.13 251.497 151.975 215.342 107.376 215.342H38.0199Z" fill="black"/>
</svg>
