<svg width="603" height="533" viewBox="0 0 603 533" fill="none" xmlns="http://www.w3.org/2000/svg">
<path fill-rule="evenodd" clip-rule="evenodd" d="M426.089 341.371C427.115 343.131 429.023 344.213 431.06 344.213L596.508 343.503C600.946 343.503 603.735 338.716 601.546 334.855L601.479 334.737L409.994 3.07965L409.907 2.91819C408.941 1.12093 407.065 0 405.024 0L239.812 0.710666L239.503 0.717867C235.069 0.821083 232.371 5.64393 234.605 9.47594L426.089 341.371ZM213.337 378.331C211.303 378.331 209.39 379.41 208.364 381.165L126.189 524.499C123.986 528.265 126.701 533 131.064 533H131.399H514.329C516.362 533 518.275 531.921 519.302 530.166L601.477 387.068L601.53 386.975C603.724 383.12 600.94 378.331 596.504 378.331H213.337ZM286.455 169.878C287.424 171.68 287.386 173.856 286.357 175.623L94.8372 507.785C92.6179 511.595 87.1135 511.595 84.8942 507.785L1.5631 364.583C0.538853 362.825 0.538873 360.651 1.5631 358.893L193.083 26.7315C195.302 22.9214 200.806 22.9214 203.026 26.7315L286.357 169.696L286.455 169.878Z" fill="black"/>
</svg>
