<svg width="71" height="71" viewBox="0 0 71 71" fill="none" xmlns="http://www.w3.org/2000/svg">
<path fill-rule="evenodd" clip-rule="evenodd" d="M8.875 0C6.5212 0 4.26381 0.935042 2.59943 2.59943C0.935042 4.26381 0 6.5212 0 8.875V57.6875C0 61.2182 1.40256 64.6043 3.89914 67.1009C6.39572 69.5974 9.78181 71 13.3125 71C16.8432 71 20.2293 69.5974 22.7259 67.1009C25.2224 64.6043 26.625 61.2182 26.625 57.6875V8.875C26.625 6.5212 25.69 4.26381 24.0256 2.59943C22.3612 0.935042 20.1038 0 17.75 0H8.875ZM13.3125 62.125C14.1902 62.125 15.0481 61.8647 15.7778 61.3771C16.5076 60.8895 17.0764 60.1965 17.4122 59.3857C17.7481 58.5748 17.836 57.6826 17.6647 56.8218C17.4935 55.961 17.0709 55.1703 16.4503 54.5497C15.8297 53.9291 15.039 53.5065 14.1782 53.3353C13.3174 53.164 12.4252 53.2519 11.6143 53.5878C10.8035 53.9236 10.1105 54.4924 9.62285 55.2222C9.13525 55.9519 8.875 56.8098 8.875 57.6875C8.875 58.8644 9.34252 59.9931 10.1747 60.8253C11.0069 61.6575 12.1356 62.125 13.3125 62.125ZM35.5 54.3284L57.2441 32.5811C58.9081 30.9168 59.8428 28.6597 59.8428 26.3063C59.8428 23.9529 58.9081 21.6958 57.2441 20.0315L50.9622 13.7566C49.2979 12.0927 47.0408 11.158 44.6874 11.158C42.334 11.158 40.0769 12.0927 38.4126 13.7566L35.4937 16.6755L35.5 54.3284ZM62.125 71H31.3773L58.0023 44.375H62.125C63.2905 44.375 64.4446 44.6046 65.5213 45.0506C66.5981 45.4966 67.5764 46.1503 68.4006 46.9744C69.2247 47.7985 69.8784 48.7769 70.3244 49.8537C70.7704 50.9304 71 52.0845 71 53.25V62.125C71 63.2905 70.7704 64.4446 70.3244 65.5213C69.8784 66.5981 69.2247 67.5764 68.4006 68.4006C67.5764 69.2247 66.5981 69.8784 65.5213 70.3244C64.4446 70.7704 63.2905 71 62.125 71Z" fill="white"/>
</svg>
