<svg width="71" height="71" viewBox="0 0 71 71" fill="none" xmlns="http://www.w3.org/2000/svg">
<path d="M33.7256 31.062V39.937C33.7256 40.6431 34.0061 41.3204 34.5054 41.8197C35.0047 42.319 35.6819 42.5995 36.3881 42.5995H55.5739C54.6985 45.0735 53.3714 47.3635 51.6602 49.3532L62.3686 58.6345C65.6834 54.8528 68.1394 50.3979 69.5677 45.5763C70.9961 40.7546 71.3627 35.6808 70.6424 30.7038C70.5556 30.0654 70.2403 29.4802 69.7549 29.0565C69.2696 28.6327 68.6471 28.3993 68.0028 28.3995H36.3881C35.6819 28.3995 35.0047 28.68 34.5054 29.1793C34.0061 29.6786 33.7256 30.3559 33.7256 31.062ZM15.2869 42.1751C13.8386 37.8425 13.8386 33.1565 15.2869 28.8239L3.6484 19.9237C1.24861 24.7651 0 30.0956 0 35.4991C0 40.9027 1.24861 46.2331 3.6484 51.0745L15.2869 42.1751ZM47.6858 52.9568C45.3449 54.5959 42.6974 55.746 39.9018 56.3383C37.1062 56.9306 34.2198 56.953 31.4154 56.404C28.6109 55.855 25.946 54.746 23.5801 53.1433C21.2141 51.5406 19.1957 49.4772 17.6457 47.0764L6.3535 55.7116C9.17522 59.8004 12.8262 63.2492 17.069 65.8337C21.3117 68.4181 26.0511 70.0803 30.9786 70.712C35.9062 71.3437 40.9116 70.9309 45.6691 69.5002C50.4266 68.0696 54.8295 65.6533 58.5914 62.4085L47.6858 52.9568ZM59.4899 9.40227C55.7675 5.96014 51.3487 3.35839 46.5328 1.7733C41.717 0.188211 36.6167 -0.34317 31.5776 0.215162C26.5385 0.773495 21.6782 2.40849 17.3262 5.00937C12.9742 7.61025 9.23211 11.1162 6.3535 15.2897L17.6457 23.9249C19.3103 21.3461 21.5139 19.1586 24.1047 17.5128C26.6956 15.867 29.6122 14.802 32.654 14.3911C35.6958 13.9802 38.7905 14.2331 41.7251 15.1325C44.6598 16.0319 47.3648 17.5563 49.654 19.601C50.1615 20.0541 50.8232 20.2957 51.5032 20.2762C52.1832 20.2567 52.8299 19.9776 53.3105 19.4961L59.5672 13.241C59.8208 12.9873 60.0205 12.685 60.1544 12.3522C60.2882 12.0195 60.3534 11.663 60.346 11.3044C60.3387 10.9458 60.2589 10.5924 60.1115 10.2654C59.9641 9.93836 59.7521 9.64451 59.4883 9.40148L59.4899 9.40227Z" fill="white"/>
</svg>
