<svg width="652" height="534" viewBox="0 0 652 534" fill="none" xmlns="http://www.w3.org/2000/svg">
<path fill-rule="evenodd" clip-rule="evenodd" d="M369.737 271.352V160.028H151.442L151.042 382.709H0.557617V160.028V160.025H0.560891L151.696 0.130859L151.631 40.9294L151.705 0.130859H476.863C500.575 0.130859 519.822 19.212 519.822 42.7699V150.292L382.089 261.389L519.842 150.34V150.295L590.037 93.6915C590.037 93.6915 643.309 38.0119 651.772 86.5849V452.569C651.772 452.569 656.602 479.823 620.323 475.062L519.86 393.387V393.402L369.741 271.349L369.737 271.352ZM43.517 533.126C19.8039 533.126 0.557617 514.045 0.557617 490.486C0.557617 514.045 20.0583 533.126 44.1344 533.126H43.517ZM369.716 382.721H151.042L151.042 382.712H0.557617V490.483C0.557617 514.041 20.0583 533.122 44.1344 533.122H150.778L150.778 533.131H476.845C500.592 533.131 519.804 514.05 519.804 490.492V393.416L369.716 271.397V382.721Z" fill="black"/>
</svg>
