<svg width="534" height="533" viewBox="0 0 534 533" fill="none" xmlns="http://www.w3.org/2000/svg">
<path fill-rule="evenodd" clip-rule="evenodd" d="M174.284 0.000194355H360.304C366.5 -0.00140465 371.249 -0.00246912 375.402 0.403677C404.924 3.29174 429.091 21.0422 439.338 44.9526H95.2509C105.498 21.0422 129.663 3.29174 159.187 0.403677C163.339 -0.00246912 168.089 -0.00140465 174.284 0.000194355ZM115.671 72.5709C78.611 72.5709 48.223 94.9503 38.0819 124.639C37.8706 125.258 37.6678 125.881 37.474 126.505C48.0847 123.292 59.1277 121.193 70.3063 119.76C99.0984 116.069 135.485 116.071 177.752 116.073H361.426C403.693 116.071 440.081 116.069 468.874 119.76C480.051 121.193 491.095 123.292 501.704 126.505C501.512 125.881 501.31 125.258 501.096 124.639C490.956 94.9503 460.567 72.5709 423.508 72.5709H115.671ZM178.615 147.695H355.977C445.915 147.695 490.884 147.695 516.146 173.994C541.405 200.293 535.462 240.927 523.576 322.188L512.303 399.246L512.3 399.268C502.98 462.982 498.319 494.839 474.412 513.919C450.501 533 415.235 533 344.704 533H189.887C119.356 533 84.0913 533 60.1812 513.919C36.2711 494.837 31.6102 462.974 22.2886 399.246L11.0165 322.188L11.0164 322.187C-0.870275 240.924 -6.81341 200.293 18.4467 173.994C43.7069 147.695 88.6764 147.695 178.615 147.695ZM336.085 325.285C350.966 334.508 350.966 358.392 336.085 367.615L246.232 423.319C231.769 432.284 213.996 420.614 213.996 402.151V290.749C213.996 272.286 231.769 260.616 246.232 269.581L336.085 325.285Z" fill="black"/>
</svg>
