<svg width="55" height="55" viewBox="0 0 55 55" fill="none" xmlns="http://www.w3.org/2000/svg">
<path d="M13.0263 26.0526C11.3157 26.0526 9.62179 25.7157 8.04136 25.0611C6.46093 24.4064 5.02492 23.4469 3.81532 22.2373C2.60571 21.0277 1.6462 19.5917 0.991569 18.0113C0.336935 16.4308 0 14.737 0 13.0263C0 11.3157 0.336935 9.62179 0.991569 8.04136C1.6462 6.46093 2.60571 5.02492 3.81532 3.81532C5.02492 2.60571 6.46093 1.6462 8.04136 0.991569C9.62179 0.336936 11.3157 -2.54905e-08 13.0263 0C16.4811 5.14804e-08 19.7944 1.37241 22.2373 3.81532C24.6802 6.25823 26.0526 9.57152 26.0526 13.0263C26.0526 16.4811 24.6802 19.7944 22.2373 22.2373C19.7944 24.6802 16.4811 26.0526 13.0263 26.0526ZM13.0263 55C9.57152 55 6.25823 53.6276 3.81532 51.1847C1.37241 48.7418 0 45.4285 0 41.9737C0 38.5189 1.37241 35.2056 3.81532 32.7627C6.25823 30.3198 9.57152 28.9474 13.0263 28.9474C16.4811 28.9474 19.7944 30.3198 22.2373 32.7627C24.6802 35.2056 26.0526 38.5189 26.0526 41.9737C26.0526 45.4285 24.6802 48.7418 22.2373 51.1847C19.7944 53.6276 16.4811 55 13.0263 55ZM41.9737 26.0526C40.263 26.0526 38.5692 25.7157 36.9887 25.0611C35.4083 24.4064 33.9723 23.4469 32.7627 22.2373C31.5531 21.0277 30.5936 19.5917 29.9389 18.0113C29.2843 16.4308 28.9474 14.737 28.9474 13.0263C28.9474 11.3157 29.2843 9.62179 29.9389 8.04136C30.5936 6.46093 31.5531 5.02492 32.7627 3.81532C33.9723 2.60571 35.4083 1.6462 36.9887 0.991569C38.5692 0.336936 40.263 -2.54905e-08 41.9737 0C45.4285 5.14804e-08 48.7418 1.37241 51.1847 3.81532C53.6276 6.25823 55 9.57152 55 13.0263C55 16.4811 53.6276 19.7944 51.1847 22.2373C48.7418 24.6802 45.4285 26.0526 41.9737 26.0526ZM41.9737 55C38.5189 55 35.2056 53.6276 32.7627 51.1847C30.3198 48.7418 28.9474 45.4285 28.9474 41.9737C28.9474 38.5189 30.3198 35.2056 32.7627 32.7627C35.2056 30.3198 38.5189 28.9474 41.9737 28.9474C45.4285 28.9474 48.7418 30.3198 51.1847 32.7627C53.6276 35.2056 55 38.5189 55 41.9737C55 45.4285 53.6276 48.7418 51.1847 51.1847C48.7418 53.6276 45.4285 55 41.9737 55Z" fill="white"/>
</svg>
