<svg width="75" height="68" viewBox="0 0 75 68" fill="none" xmlns="http://www.w3.org/2000/svg">
<path d="M54.7897 60.9999H20.323C16.7929 60.9982 13.4076 59.5962 10.9099 57.1016C8.41217 54.6069 7.00604 51.2233 7 47.6932L7 29.562C7.00604 26.0321 8.41195 22.6488 10.9093 20.1542C13.4067 17.6596 16.7915 16.2574 20.3214 16.2552C20.4443 16.2609 20.566 16.2289 20.6703 16.1635C20.7745 16.0981 20.8563 16.0025 20.9048 15.8894L21.0865 15.5235L21.3407 14.9882C22.1392 13.3064 23.0412 11.403 23.5921 10.3038C24.1896 9.01676 25.143 7.92757 26.3396 7.16494C27.5363 6.4023 28.9262 5.99807 30.3452 5.99999H44.7357C46.1593 5.99493 47.5547 6.39753 48.7569 7.16018C49.9591 7.92284 50.9178 9.01369 51.5198 10.3038C52.0006 11.2645 52.7306 12.8086 53.4371 14.3013L53.8714 15.218L54.1794 15.8894C54.2381 16.0002 54.326 16.0928 54.4336 16.1573C54.5411 16.2217 54.6643 16.2556 54.7897 16.2552C58.3195 16.2574 61.7044 17.6596 64.2017 20.1542C66.6991 22.6488 68.105 26.0321 68.1111 29.562V47.6932C68.105 51.2231 66.6991 54.6064 64.2017 57.101C61.7044 59.5956 58.3195 60.9978 54.7897 60.9999ZM37.5555 25.5637C35.9709 25.561 34.4014 25.8727 32.938 26.4807C31.4746 27.0887 30.1464 27.9809 29.0301 29.1057C27.9168 30.2126 27.0353 31.5303 26.4371 32.9818C25.8389 34.4333 25.5359 35.9895 25.546 37.5594C25.5452 39.136 25.8555 40.6974 26.4589 42.154C27.0623 43.6106 27.9471 44.9339 29.0627 46.0482C30.1782 47.1624 31.5025 48.0457 32.9598 48.6474C34.4172 49.2492 35.9789 49.5576 37.5555 49.5551C39.1283 49.5583 40.6861 49.2498 42.1389 48.6474C43.5917 48.0451 44.9108 47.1608 46.0198 46.0457C47.1403 44.9358 48.0304 43.6153 48.6387 42.1602C49.247 40.7051 49.5616 39.144 49.5644 37.5669C49.5672 35.9897 49.2582 34.4276 48.655 32.9703C48.0519 31.513 47.1665 30.1894 46.05 29.0755C44.9366 27.9576 43.6126 27.0716 42.1545 26.4688C40.6964 25.866 39.1333 25.5583 37.5555 25.5637ZM54.6968 24.8303C54.152 24.8345 53.6207 24.9997 53.1696 25.3051C52.7185 25.6104 52.3677 26.0424 52.1615 26.5465C51.9552 27.0507 51.9026 27.6047 52.0103 28.1386C52.118 28.6726 52.3812 29.1629 52.7668 29.5477C53.1524 29.9325 53.6432 30.1947 54.1774 30.3013C54.7116 30.4079 55.2654 30.3542 55.7692 30.1469C56.2729 29.9396 56.7042 29.5879 57.0086 29.1362C57.313 28.6845 57.4771 28.1528 57.4802 27.608C57.4809 27.2427 57.4094 26.8807 57.2697 26.5431C57.13 26.2055 56.9249 25.8988 56.6662 25.6408C56.4075 25.3827 56.1003 25.1784 55.7623 25.0396C55.4243 24.9008 55.0622 24.8302 54.6968 24.832V24.8303ZM37.5555 44.9758C36.5805 44.9787 35.6145 44.789 34.713 44.4175C33.8115 44.046 32.9922 43.5001 32.3023 42.8112C31.6123 42.1222 31.0653 41.3037 30.6925 40.4027C30.3197 39.5018 30.1286 38.536 30.1301 37.561V37.5308C30.1177 36.5661 30.3009 35.6089 30.6686 34.717C31.0364 33.825 31.5811 33.0169 32.2698 32.3413C33.1284 31.47 34.189 30.8244 35.3573 30.4618C36.5256 30.0993 37.7653 30.031 38.9663 30.2631C40.1673 30.4953 41.2924 31.0206 42.2414 31.7923C43.1905 32.5641 43.9341 33.5584 44.4062 34.6869C44.8783 35.8154 45.0642 37.043 44.9475 38.2606C44.8307 39.4783 44.4149 40.6482 43.7369 41.6664C43.059 42.6846 42.14 43.5195 41.0616 44.0969C39.9831 44.6742 38.7788 44.9761 37.5555 44.9758Z" fill="white"/>
</svg>
