<svg width="533" height="533" viewBox="0 0 533 533" fill="none" xmlns="http://www.w3.org/2000/svg">
<path fill-rule="evenodd" clip-rule="evenodd" d="M39.0281 39.0281C-3.17693e-06 78.056 0 140.871 0 266.5C0 392.128 -3.17693e-06 454.945 39.0281 493.971C78.056 533 140.871 533 266.5 533C392.128 533 454.945 533 493.971 493.971C533 454.945 533 392.128 533 266.5C533 140.871 533 78.056 493.971 39.0281C454.945 -3.17693e-06 392.128 0 266.5 0C140.871 0 78.056 -3.17693e-06 39.0281 39.0281ZM373.1 213.2C402.538 213.2 426.4 189.337 426.4 159.9C426.4 130.463 402.538 106.6 373.1 106.6C343.662 106.6 319.8 130.463 319.8 159.9C319.8 189.337 343.662 213.2 373.1 213.2ZM115.153 295.916C131.785 280.467 157.766 281.333 173.331 297.856L243.887 372.751C265.191 395.369 300.068 398.415 324.973 379.834C341.315 367.645 364.066 369.031 378.806 383.112L439.243 440.852C447.224 448.477 459.878 448.189 467.502 440.207C475.127 432.226 474.839 419.572 466.857 411.948L406.42 354.208C377.575 326.649 333.048 323.939 301.07 347.793C292.444 354.229 280.363 353.174 272.984 345.341L202.428 270.447C171.799 237.934 120.675 236.228 87.9477 266.625L66.3478 286.687C58.2596 294.2 57.7927 306.845 65.305 314.934C72.8174 323.022 85.4641 323.491 93.5524 315.978L115.153 295.916Z" fill="black"/>
</svg>
