<svg width="533" height="533" viewBox="0 0 533 533" fill="none" xmlns="http://www.w3.org/2000/svg">
<path d="M201.128 43.845L222.748 82.5852C242.259 117.546 234.427 163.409 203.696 194.139C203.696 194.139 166.426 231.416 234.004 298.997C301.562 366.555 338.862 329.305 338.862 329.305C369.593 298.574 415.455 290.742 450.416 310.253L489.155 331.873C541.949 361.335 548.182 435.369 501.781 481.773C473.898 509.656 439.739 531.352 401.98 532.781C338.416 535.193 230.466 519.107 122.181 410.821C13.8957 302.535 -2.19157 194.586 0.218266 131.021C1.64971 93.2619 23.3455 59.1042 51.2285 31.2216C97.6312 -15.1812 171.665 -8.94642 201.128 43.845Z" fill="black"/>
</svg>
