<svg width="76" height="71" viewBox="0 0 76 71" fill="none" xmlns="http://www.w3.org/2000/svg">
<path d="M75.0807 42.9738H50.7033L26.7763 0H46.9933C48.2726 0.00875463 49.5261 0.35996 50.6237 1.01712C51.7213 1.67427 52.6229 2.6134 53.2348 3.73689L75.0807 42.9738ZM74.72 48.5787L64.3312 67.259C63.7198 68.3836 62.8182 69.3237 61.7202 69.9817C60.6223 70.6396 59.368 70.9912 58.0881 71H15.9655L28.4517 48.5787H74.72ZM34.8841 25.7844L11.3537 68.0482L0.964899 49.3825C0.332012 48.2387 0 46.9529 0 45.6457C0 44.3384 0.332012 43.0526 0.964899 41.9088L22.4159 3.38189L34.8841 25.7844Z" fill="white"/>
</svg>
