<svg width="72" height="72" viewBox="0 0 72 72" fill="none" xmlns="http://www.w3.org/2000/svg">
<path d="M58.9257 3.61884e-08C56.6598 0.00199876 54.4396 0.637857 52.5162 1.83569C50.5928 3.03352 49.0428 4.74555 48.0415 6.77823C47.0403 8.81091 46.6276 11.0832 46.8502 13.3381C47.0728 15.5931 47.9218 17.7408 49.3012 19.5384L38.884 32.6971H24.0316C23.3519 29.7906 21.6282 27.235 19.188 25.5159C16.7479 23.7968 13.7613 23.034 10.7956 23.3724C7.82992 23.7107 5.09185 25.1266 3.10161 27.3512C1.11136 29.5757 0.00760113 32.4538 3.91142e-05 35.4387C-0.0075229 38.4236 1.08164 41.3073 3.06059 43.5419C5.03954 45.7765 7.77039 47.2063 10.7343 47.5597C13.6982 47.913 16.6887 47.1653 19.1375 45.4586C21.5864 43.7519 23.323 41.2051 24.0174 38.3021H38.884L49.3028 51.4616C47.4734 53.8324 46.5788 56.7928 46.7892 59.78C46.9996 62.7672 48.3002 65.573 50.4439 67.664C52.5875 69.755 55.4248 70.9855 58.4163 71.1215C61.4078 71.2575 64.345 70.2896 66.6696 68.4018C68.9942 66.5139 70.5441 63.8378 71.0247 60.882C71.5053 57.9262 70.8831 54.8969 69.2764 52.3698C67.6697 49.8427 65.1904 47.9941 62.3099 47.1754C59.4294 46.3566 56.3485 46.6248 53.6528 47.9289L43.8177 35.5L53.6488 23.0782C55.2921 23.8713 57.093 24.2838 58.9177 24.2852C60.7423 24.2865 62.5438 23.8766 64.1883 23.0859C65.8327 22.2953 67.2779 21.1442 68.4163 19.7181C69.5546 18.2921 70.357 16.6279 70.7637 14.8492C71.1704 13.0704 71.171 11.2228 70.7655 9.44382C70.36 7.6648 69.5587 6.00004 68.4213 4.57328C67.2838 3.14653 65.8395 1.99446 64.1955 1.2027C62.5516 0.410944 60.7504 -0.000140826 58.9257 3.61884e-08Z" fill="white"/>
</svg>
