<svg width="55" height="55" viewBox="0 0 55 55" fill="none" xmlns="http://www.w3.org/2000/svg">
<path d="M42.9229 12.3979L39.9896 14.6895L27.5 23.9708L15.0104 14.5979L12.0771 12.3062C11.3861 11.7345 10.5425 11.3782 9.65088 11.2812C8.75928 11.1843 7.85884 11.3511 7.06111 11.761C6.26339 12.1708 5.60343 12.8057 5.163 13.5869C4.72257 14.3682 4.52103 15.2615 4.58334 16.1562V42.7166C4.58334 43.5432 4.91171 44.3359 5.49619 44.9204C6.08068 45.5049 6.87342 45.8333 7.70001 45.8333H15.0104V28.1416L27.5 37.5145L39.9896 28.1416V45.8333H47.3C48.1266 45.8333 48.9193 45.5049 49.5038 44.9204C50.0883 44.3359 50.4167 43.5432 50.4167 42.7166V16.1562C50.4597 15.2692 50.2441 14.3889 49.7962 13.6221C49.3483 12.8554 48.6872 12.2352 47.8935 11.8371C47.0997 11.4391 46.2074 11.2801 45.325 11.3797C44.4426 11.4792 43.6081 11.8329 42.9229 12.3979Z" fill="white"/>
</svg>
