<svg width="82" height="71" viewBox="0 0 82 71" fill="none" xmlns="http://www.w3.org/2000/svg">
<g clip-path="url(#clip0_805_425)">
<path d="M41.9184 0.0175724C41.2964 -0.0555541 40.6696 0.107761 40.1624 0.475128C39.818 0.726073 39.5383 1.05532 39.3462 1.43568C39.1542 1.81605 39.0554 2.23663 39.0579 2.66272V48.1958C35.5911 45.6552 31.3905 44.3139 27.0929 44.3752C17.668 44.3752 10 50.3479 10 57.6877C10 65.0275 17.668 71.0002 27.0929 71.0002C36.5177 71.0002 44.1857 65.0275 44.1857 57.6877V22.4788L68.0685 31.7798C68.4558 31.9313 68.875 31.983 69.2874 31.93C69.6999 31.8771 70.0924 31.7213 70.4289 31.4769C70.7735 31.2258 71.0533 30.8963 71.2454 30.5156C71.4374 30.135 71.5361 29.7141 71.5333 29.2877V19.4629C71.5487 17.1483 70.8703 14.8823 69.5857 12.9569C68.301 11.0315 66.4691 9.5351 64.326 8.66064L42.5227 0.170617C42.3285 0.0943917 42.1255 0.0429707 41.9184 0.0175724Z" fill="white"/>
</g>
<defs>
<clipPath id="clip0_805_425">
<rect width="61.5333" height="71" fill="white" transform="translate(10)"/>
</clipPath>
</defs>
</svg>
