<svg width="55" height="55" viewBox="0 0 55 55" fill="none" xmlns="http://www.w3.org/2000/svg">
<g clip-path="url(#clip0_3_192)">
<path d="M37.8116 54.9971H17.1591C6.57472 54.9971 0 48.4136 0 37.8116V17.1591C0 5.77396 5.05973 0 15.0421 0H19.4719C20.7146 0.000529022 21.9406 0.285963 23.0557 0.834365C24.1708 1.38277 25.1453 2.17953 25.9044 3.16343L28.3242 6.38113C28.7015 6.85929 29.1819 7.24611 29.7295 7.51275C30.2771 7.77938 30.8778 7.91895 31.4869 7.92104H39.9271C44.7566 7.92104 48.462 9.18011 50.939 11.6608C53.6456 14.374 55.0103 18.6748 54.9963 24.4451V37.838C54.9963 43.0444 53.4051 47.3913 50.3942 50.3993C47.3833 53.4073 43.0312 54.9971 37.8116 54.9971ZM14.7678 32.4211C14.4959 32.4182 14.2262 32.4696 13.9744 32.5723C13.7226 32.675 13.4939 32.8269 13.3016 33.0192C13.1094 33.2114 12.9574 33.4402 12.8547 33.6919C12.752 33.9437 12.7006 34.2135 12.7036 34.4854C12.7046 35.0323 12.9224 35.5564 13.3094 35.9429C13.6964 36.3293 14.2209 36.5465 14.7678 36.5467H40.2315C40.7741 36.5416 41.2927 36.322 41.6738 35.9357C42.055 35.5495 42.2678 35.028 42.2656 34.4854C42.2705 34.2155 42.2214 33.9473 42.1213 33.6966C42.0212 33.446 41.872 33.2178 41.6826 33.0255C41.4931 32.8333 41.2672 32.6808 41.018 32.577C40.7688 32.4732 40.5014 32.4202 40.2315 32.4211H14.7678Z" fill="white"/>
</g>
<defs>
<clipPath id="clip0_3_192">
<rect width="54.9971" height="55" fill="white"/>
</clipPath>
</defs>
</svg>
