<svg width="55" height="55" viewBox="0 0 55 55" fill="none" xmlns="http://www.w3.org/2000/svg">
<path d="M9.08185 16.5802C7.39826 16.5803 5.74783 17.0484 4.31487 17.9322C2.88191 18.816 1.72283 20.0807 0.967061 21.5852C0.331171 22.8505 0 24.247 0 25.6632C0 27.0793 0.331171 28.4759 0.967061 29.7412C1.72283 31.2456 2.88191 32.5104 4.31487 33.3942C5.74783 34.278 7.39826 34.7461 9.08185 34.7462C11.5339 34.7462 13.5964 33.9395 15.1021 32.5531C16.8162 30.9718 17.8062 28.6343 17.8062 25.8706C17.8057 25.2514 17.752 24.6335 17.6458 24.0235H9.08414V27.5206H13.9883C13.8885 28.0792 13.6766 28.6119 13.3655 29.0864C13.0543 29.561 12.6504 29.9677 12.1779 30.282C11.3621 30.8343 10.3125 31.1506 9.08414 31.1506C6.71456 31.1506 4.70477 29.5533 3.98519 27.4014C3.60514 26.2738 3.60514 25.0526 3.98519 23.925C4.70477 21.7708 6.71456 20.1758 9.08414 20.1758C10.3789 20.1546 11.6301 20.6436 12.5675 21.537L15.1616 18.9475C13.5179 17.4025 11.3375 16.5541 9.08185 16.5802ZM23.98 17.8406V33.6531H26.0104V27.2479H29.3677C30.7496 27.2479 31.9114 26.7987 32.8556 25.9004C33.3256 25.4791 33.699 24.9611 33.9502 24.382C34.2013 23.803 34.3244 23.1764 34.3108 22.5454C34.3204 21.9176 34.1954 21.295 33.9444 20.7195C33.6934 20.144 33.3222 19.6289 32.8556 19.2087C32.3935 18.7613 31.8474 18.4098 31.2487 18.1746C30.6501 17.9393 30.0108 17.8251 29.3677 17.8383L23.98 17.8406ZM29.5419 19.7885C29.8962 19.7947 30.2457 19.8719 30.5696 20.0156C30.8936 20.1593 31.1855 20.3665 31.4279 20.625C31.6861 20.8761 31.8913 21.1765 32.0315 21.5083C32.1716 21.8401 32.2438 22.1966 32.2438 22.5568C32.2438 22.917 32.1716 23.2736 32.0315 23.6054C31.8913 23.9372 31.6861 24.2376 31.4279 24.4887C31.1683 24.7575 30.8555 24.9691 30.5094 25.11C30.1633 25.2509 29.7916 25.3179 29.4181 25.3068H26.0104V19.7885H29.4181C29.4593 19.7875 29.5006 19.7875 29.5419 19.7885ZM38.9927 22.4812C37.0631 22.4812 35.6079 23.187 34.6225 24.601L36.4123 25.7262C37.0723 24.7706 37.9706 24.2916 39.105 24.2916C39.8287 24.2827 40.5292 24.5471 41.0666 25.0318C41.3312 25.2506 41.5438 25.5256 41.6889 25.8367C41.8339 26.1479 41.9079 26.4875 41.9054 26.8308V27.2937C41.1262 26.8514 40.1316 26.6314 38.9262 26.6314C37.5123 26.6314 36.3825 26.9637 35.5369 27.626C34.6889 28.286 34.2673 29.1775 34.2673 30.2958C34.2581 30.7991 34.3613 31.298 34.5694 31.7564C34.7776 32.2147 35.0854 32.6207 35.4704 32.945C36.2725 33.6508 37.2694 34.006 38.461 34.006C39.8589 34.006 40.9773 33.3873 41.8183 32.1498H41.9054V33.6508H43.8487V26.9843C43.8487 25.5864 43.4133 24.4864 42.5471 23.6843C41.6762 22.8823 40.4937 22.4812 38.9927 22.4812ZM44.1787 22.8341L48.6383 32.9679L46.1221 38.422H48.2189L55 22.8318H52.7885L49.6535 30.6029H49.6077L46.3856 22.8341H44.1787ZM39.2608 28.2608C40.3929 28.2608 41.2775 28.5129 41.91 29.017C41.91 29.8695 41.5731 30.612 40.9016 31.2468C40.2956 31.853 39.474 32.1942 38.6169 32.1956C38.0442 32.2065 37.4854 32.0186 37.0356 31.6639C36.8263 31.5125 36.6562 31.3133 36.5394 31.083C36.4226 30.8526 36.3625 30.5976 36.3641 30.3393C36.3641 29.7504 36.6391 29.2623 37.196 28.8566C37.746 28.4602 38.4358 28.2608 39.2608 28.2608Z" fill="white"/>
</svg>
