<svg width="516" height="533" viewBox="0 0 516 533" fill="none" xmlns="http://www.w3.org/2000/svg">
<path d="M501.7 402.907C478.852 362.293 441.431 316.29 380.509 290.139C345.666 314.515 303.337 328.867 257.705 328.867C212.048 328.867 169.719 314.516 134.875 290.139C73.954 316.29 36.5317 362.294 13.697 402.907C-16.609 456.777 7.15155 533 59.5644 533C111.979 533 257.706 533 257.706 533C257.706 533 403.419 533 455.835 533C508.246 533 532.007 456.777 501.7 402.907Z" fill="black"/>
<path d="M257.711 290.446C337.92 290.446 402.922 232.377 402.922 160.756V129.689C402.922 58.0698 337.92 0 257.711 0C177.489 0 112.476 58.0698 112.476 129.69V160.757C112.476 232.377 177.49 290.446 257.711 290.446Z" fill="black"/>
</svg>
