<svg width="538" height="533" viewBox="0 0 538 533" fill="none" xmlns="http://www.w3.org/2000/svg">
<path d="M241.12 507.306C241.12 523.226 227.322 535.778 211.753 532.464C98.64 508.402 11.8072 413.29 0.184334 296.06C-1.28242 281.266 10.9106 269.18 25.7768 269.18H106.531C121.397 269.18 133.449 281.231 133.449 296.097C133.449 340.698 169.603 376.851 214.202 376.851C229.069 376.851 241.12 388.902 241.12 403.769V507.306Z" fill="black"/>
<path d="M402.628 455.678C402.628 476.41 424.916 488.921 440.806 475.608C462.101 457.767 480.594 436.693 495.528 413.139C505.921 396.752 493.092 376.851 473.684 376.851H429.546C414.68 376.851 402.628 388.902 402.628 403.769V455.678Z" fill="black"/>
<path d="M268.038 0C336.733 0 399.416 25.7317 446.975 68.0819C463.548 82.8389 451.707 107.672 429.516 107.672H425.618C383.188 107.672 348.792 142.068 348.792 184.498C348.792 193.207 343.871 201.167 336.084 205.062L333.912 206.147C326.334 209.936 317.414 209.936 309.836 206.147L307.664 205.062C299.877 201.167 294.956 193.207 294.956 184.498C294.956 142.068 260.56 107.672 218.129 107.672H214.202C199.336 107.672 187.284 95.6201 187.284 80.7538V32.083C187.284 20.3239 194.889 9.78952 206.338 7.10446C226.151 2.45788 246.808 0 268.038 0Z" fill="black"/>
<path d="M37.1785 215.342C20.1605 215.342 7.35831 199.686 12.7683 183.551C28.9344 135.336 58.3778 93.211 96.755 61.5192C112.081 48.8634 133.453 60.8766 133.453 80.7526C133.453 125.352 169.608 161.506 214.208 161.506H218.135C230.832 161.506 241.126 171.8 241.126 184.497C241.126 213.597 257.564 240.2 283.594 253.212L285.764 254.299C308.499 265.667 335.258 265.667 357.993 254.299L360.165 253.212C386.192 240.2 402.633 213.597 402.633 184.497C402.633 171.8 412.927 161.506 425.624 161.506H497.21C507.909 161.506 517.71 167.802 521.339 177.867C531.619 206.378 537.223 237.123 537.223 269.177C537.223 280.046 536.577 290.765 535.325 301.295C533.815 314.009 522.636 323.013 509.834 323.013H429.551C384.951 323.013 348.797 359.169 348.797 403.767V506.275C348.797 518.033 341.19 528.569 329.742 531.253C327.941 531.675 326.132 532.079 324.316 532.467C308.746 535.778 294.962 523.223 294.962 507.306V403.767C294.962 359.169 258.805 323.013 214.208 323.013C199.34 323.013 187.289 310.962 187.289 296.095C187.289 251.497 151.134 215.342 106.535 215.342H37.1785Z" fill="black"/>
</svg>
