<svg width="72" height="71" viewBox="0 0 72 71" fill="none" xmlns="http://www.w3.org/2000/svg">
<path d="M35.5947 0C26.6074 0.0289499 17.9615 3.44567 11.3823 9.56833C4.8032 15.691 0.774653 24.0693 0.10063 33.0313C-0.573394 41.9934 2.15668 50.88 7.74604 57.9178C13.3354 64.9557 21.373 69.6271 30.2548 71V44.6568H23.1351C22.9007 44.6565 22.6686 44.61 22.4523 44.5199C22.2359 44.4298 22.0394 44.2979 21.8741 44.1317C21.7087 43.9656 21.5778 43.7685 21.4887 43.5516C21.3997 43.3348 21.3543 43.1026 21.3551 42.8682V37.5094C21.3546 37.2752 21.4002 37.0432 21.4894 36.8266C21.5786 36.6101 21.7096 36.4132 21.8749 36.2474C22.0402 36.0815 22.2366 35.9498 22.4528 35.8598C22.669 35.7699 22.9009 35.7234 23.1351 35.7231H30.2548V29.2362C30.2548 20.7502 34.575 16.0757 42.4186 16.0757C45.5972 16.0757 48.1057 16.2972 48.2101 16.3059C48.6541 16.346 49.0671 16.5508 49.3676 16.8801C49.6682 17.2094 49.8347 17.6392 49.8342 18.085V24.1131C49.8347 24.3473 49.7891 24.5793 49.6999 24.7958C49.6107 25.0124 49.4797 25.2092 49.3144 25.3751C49.1491 25.541 48.9528 25.6727 48.7365 25.7626C48.5203 25.8526 48.2885 25.8991 48.0543 25.8994H44.4944C43.5488 25.9019 42.6429 26.2795 41.9755 26.9493C41.3081 27.6191 40.9337 28.5264 40.9345 29.4719V35.7215H48.0543C48.307 35.7215 48.5568 35.7753 48.787 35.8794C49.0173 35.9834 49.2227 36.1354 49.3896 36.3251C49.5566 36.5155 49.6815 36.739 49.756 36.981C49.8306 37.2229 49.8532 37.478 49.8224 37.7293L49.1547 43.0881C49.101 43.5193 48.8918 43.9161 48.5665 44.2042C48.2412 44.4922 47.8219 44.6518 47.3874 44.6529H40.9345V70.996C49.8111 69.6176 57.8421 64.9442 63.4263 57.9078C69.0104 50.8714 71.7375 41.9888 71.0637 33.0311C70.39 24.0734 66.365 15.6987 59.7911 9.57669C53.2173 3.4547 44.5776 0.0352136 35.5947 0Z" fill="white"/>
</svg>
