<svg width="55" height="55" viewBox="0 0 55 55" fill="none" xmlns="http://www.w3.org/2000/svg">
<g clip-path="url(#clip0_6_64)">
<path d="M44.4593 34.0428C42.612 33.6454 41.1505 34.5034 39.8569 35.2521C38.5318 36.0243 36.012 38.0681 34.5681 37.5445C27.1732 34.5004 20.2182 28.028 17.2079 20.6067C16.677 19.132 18.712 16.5961 19.4812 15.2534C20.2248 13.9554 21.0645 12.4806 20.6817 10.6194C20.3319 8.9467 15.8549 3.2487 14.2716 1.6911C13.4349 0.765721 12.2965 0.16791 11.0596 0.00443647C6.93096 -0.17303 2.31976 5.33577 1.51089 6.65357C-0.513106 9.46004 -0.503573 13.2 1.54536 17.7364C6.48216 29.9149 25.1536 48.2937 37.3797 53.416C39.297 54.3867 41.403 54.9272 43.5507 55C45.2762 55.0277 46.9647 54.4985 48.3658 53.4908C49.413 52.8873 55.1476 48.048 54.9966 43.8108C54.8297 42.5797 54.2387 41.4454 53.3253 40.6032C51.7787 39.0053 46.1181 34.3941 44.4586 34.045" fill="white"/>
</g>
<defs>
<clipPath id="clip0_6_64">
<rect width="55" height="55" fill="white"/>
</clipPath>
</defs>
</svg>
