<svg width="74" height="71" viewBox="0 0 74 71" fill="none" xmlns="http://www.w3.org/2000/svg">
<path d="M25.6026 54.4676C22.2791 52.4971 19.5317 49.6879 17.6355 46.3214C15.7393 42.955 14.7609 39.1494 14.7984 35.2858C14.8358 31.4222 15.8878 27.6362 17.8489 24.3071C19.8099 20.978 22.6113 18.2227 25.9724 16.3169C26.085 16.2479 26.2139 16.2099 26.3459 16.2067C27.2393 15.894 28.2187 15.937 29.0812 16.3268C29.9438 16.7166 30.6232 17.4233 30.9789 18.3005C31.3345 19.1777 31.339 20.158 30.9914 21.0384C30.6438 21.9188 29.9709 22.6317 29.1119 23.0294C26.9545 24.3749 25.183 26.2569 23.9704 28.4917C22.7578 30.7265 22.1457 33.2377 22.1938 35.7798C22.2418 38.3219 22.9485 40.8081 24.2446 42.9955C25.5408 45.1829 27.3822 46.9966 29.589 48.2596C30.3827 48.7708 30.95 49.5671 31.1738 50.4843C31.3976 51.4016 31.2608 52.3697 30.7917 53.189C30.3226 54.0084 29.557 54.6164 28.6527 54.8878C27.7484 55.1591 26.7744 55.073 25.9317 54.6473C25.8911 54.6302 25.8516 54.6104 25.8134 54.5882L25.7727 54.5623C25.715 54.5317 25.6583 54.5006 25.6026 54.4676ZM48.6961 54.265C48.2951 54.5833 47.8321 54.8146 47.3367 54.9442C46.8414 55.0738 46.3245 55.0987 45.8189 55.0176C45.3133 54.9364 44.8302 54.7508 44.4004 54.4726C43.9705 54.1945 43.6032 53.8298 43.322 53.402C43.0408 52.9741 42.8517 52.4923 42.7669 51.9873C42.6821 51.4824 42.7034 50.9653 42.8295 50.469C42.9555 49.9727 43.1835 49.5081 43.4989 49.1048C43.8144 48.7015 44.2104 48.3683 44.6617 48.1264C44.6851 48.0937 44.7139 48.0652 44.7467 48.0421C46.9248 46.7097 48.7183 44.833 49.9506 42.5968C51.1828 40.3606 51.8115 37.842 51.7745 35.289C51.7376 32.736 51.0363 30.2367 49.7398 28.0371C48.4434 25.8375 46.5963 24.0135 44.3806 22.7447V22.7395C43.5613 22.206 42.9875 21.3688 42.7854 20.4122C42.5833 19.4556 42.7695 18.4579 43.3031 17.6386C43.8366 16.8193 44.6738 16.2454 45.6304 16.0434C46.587 15.8413 47.5847 16.0275 48.404 16.561C51.6613 18.5003 54.3634 21.2467 56.2496 24.5351C58.1357 27.8234 59.142 31.5425 59.1714 35.3333C59.2008 39.124 58.2522 42.8583 56.4172 46.1755C54.5823 49.4927 51.923 52.2806 48.6961 54.2701V54.265ZM36.9848 42.8658C35.5297 42.8595 34.109 42.4222 32.9022 41.6092C31.6954 40.7962 30.7565 39.6439 30.204 38.2977C29.6515 36.9515 29.5103 35.4718 29.798 34.0454C30.0858 32.619 30.7897 31.3099 31.821 30.2832C32.8522 29.2565 34.1644 28.5584 35.5921 28.2769C37.0197 27.9954 38.4988 28.1432 39.8425 28.7016C41.1863 29.26 42.3344 30.204 43.1421 31.4144C43.9498 32.6248 44.3808 34.0473 44.3806 35.5025C44.3785 36.4716 44.1855 37.4308 43.8127 38.3253C43.4399 39.2198 42.8945 40.0321 42.2077 40.7159C41.521 41.3996 40.7062 41.9414 39.8101 42.3103C38.9139 42.6791 37.9539 42.8679 36.9848 42.8658ZM47.1874 70.8767C46.714 70.9768 46.2256 70.9826 45.7501 70.8939C45.2745 70.8052 44.821 70.6237 44.4156 70.3597C44.0101 70.0958 43.6607 69.7545 43.3871 69.3555C43.1136 68.9565 42.9213 68.5075 42.8212 68.0342C42.7212 67.5608 42.7154 67.0724 42.8041 66.5968C42.8928 66.1213 43.0743 65.6678 43.3383 65.2624C43.6022 64.8569 43.9435 64.5075 44.3425 64.2339C44.7415 63.9604 45.1905 63.7681 45.6638 63.668C51.7219 61.8287 57.0254 58.085 60.7874 52.9928C64.5494 47.9006 66.5692 41.7311 66.5472 35.4C66.5252 29.0689 64.4625 22.9136 60.6652 17.8476C56.868 12.7816 51.5385 9.07499 45.4678 7.27776C45.428 7.26395 45.3906 7.24399 45.3569 7.21859C44.8743 7.07693 44.4258 6.83795 44.0391 6.51637C43.6524 6.1948 43.3356 5.79743 43.1083 5.34877C42.881 4.90011 42.748 4.40966 42.7174 3.90763C42.6869 3.4056 42.7594 2.90263 42.9307 2.42972C43.1019 1.95681 43.3681 1.52397 43.713 1.15787C44.0579 0.791768 44.4741 0.500168 44.9359 0.301035C45.3978 0.101901 45.8955 -0.000547042 46.3985 2.19675e-06C46.9014 0.000551436 47.399 0.104087 47.8604 0.304228C55.4522 2.60818 62.0957 7.30478 66.7998 13.6934C71.504 20.082 74.0166 27.8203 73.963 35.7538C73.9093 43.6873 71.2922 51.3909 66.5021 57.7153C61.712 64.0398 55.0056 68.6461 47.3834 70.8472C47.3196 70.8654 47.2537 70.8753 47.1874 70.8767ZM26.431 70.8028C18.811 68.5674 12.1191 63.9263 7.35505 57.573C2.59106 51.2197 0.0108533 43.4954 3.4164e-05 35.5543C-0.010785 27.6133 2.54836 19.882 7.29503 13.5157C12.0417 7.14944 18.721 2.4901 26.3348 0.233968C26.4561 0.190794 26.5795 0.154011 26.7046 0.12377H26.7342C27.0058 0.0609076 27.2837 0.0286581 27.5625 0.0276242C28.4592 0.0164715 29.3291 0.333113 30.0088 0.918068C30.6886 1.50302 31.1313 2.31604 31.2539 3.20438C31.3765 4.09272 31.1705 4.99527 30.6747 5.74246C30.1788 6.48966 29.4272 7.03009 28.561 7.26223C22.453 9.0541 17.0905 12.7776 13.2775 17.8745C9.46442 22.9714 7.40631 29.167 7.41173 35.5323C7.41714 41.8977 9.48579 48.0897 13.3075 53.1801C17.1292 58.2705 22.4981 61.9849 28.609 63.7664C29.0866 63.8958 29.5331 64.1201 29.922 64.4259C30.311 64.7317 30.6343 65.1127 30.8728 65.5462C31.1112 65.9797 31.2599 66.4568 31.3099 66.949C31.3599 67.4412 31.3102 67.9384 31.1639 68.411C31.0175 68.8836 30.7774 69.3219 30.4579 69.6996C30.1384 70.0774 29.7461 70.3869 29.3044 70.6098C28.8626 70.8326 28.3805 70.9641 27.8869 70.9965C27.3932 71.0289 26.898 70.9615 26.431 70.7984V70.8028Z" fill="white"/>
</svg>
