<svg width="57" height="71" viewBox="0 0 57 71" fill="none" xmlns="http://www.w3.org/2000/svg">
<path d="M28.4 7.5828L7.1 15.5703V28.4C7.1008 32.9629 8.07677 37.4729 9.96251 41.6279C11.8482 45.7829 14.6002 49.4869 18.034 52.4917L28.4 61.5641V7.5828ZM2.30395 9.7838L28.4 0L54.496 9.78735C55.1726 10.0409 55.7556 10.4949 56.1673 11.0887C56.579 11.6824 56.7997 12.3876 56.8 13.1101V28.4C56.7993 33.9756 55.6071 39.4868 53.3032 44.5642C50.9993 49.6416 47.6369 54.168 43.4413 57.8401L28.4 71L13.3586 57.8401C9.1626 54.1683 5.79991 49.642 3.49597 44.5645C1.19203 39.4871 7.63248e-05 33.9757 0 28.4L0 13.1101C0.00027129 12.3876 0.220991 11.6824 0.632677 11.0887C1.04436 10.4949 1.62741 10.0409 2.30395 9.78735V9.7838Z" fill="white"/>
</svg>
