<svg width="67" height="67" viewBox="0 0 67 67" fill="none" xmlns="http://www.w3.org/2000/svg">
<path d="M35.8857 39.7191C35.8857 37.602 37.602 35.8857 39.7191 35.8857H42.2748C44.392 35.8857 46.1083 37.602 46.1083 39.7191V42.2748C46.1083 44.392 44.392 46.1083 42.2748 46.1083H39.7191C37.602 46.1083 35.8857 44.392 35.8857 42.2748V39.7191Z" fill="white"/>
<path d="M66.5535 39.7191C66.5535 37.602 64.8372 35.8857 62.72 35.8857H60.1644C58.0472 35.8857 56.3309 37.602 56.3309 39.7191V42.2748C56.3309 44.392 58.0472 46.1083 60.1644 46.1083H62.72C64.8372 46.1083 66.5535 44.392 66.5535 42.2748V39.7191Z" fill="white"/>
<path d="M46.1083 49.9418C46.1083 47.8246 47.8246 46.1083 49.9418 46.1083H52.4974C54.6146 46.1083 56.3309 47.8246 56.3309 49.9418V52.4974C56.3309 54.6146 54.6146 56.3309 52.4974 56.3309H49.9418C47.8246 56.3309 46.1083 54.6146 46.1083 52.4974V49.9418Z" fill="white"/>
<path d="M56.3309 60.1644C56.3309 58.0472 58.0472 56.3309 60.1644 56.3309H62.72C64.8372 56.3309 66.5535 58.0472 66.5535 60.1644V62.72C66.5535 64.8372 64.8372 66.5535 62.72 66.5535H60.1644C58.0472 66.5535 56.3309 64.8372 56.3309 62.72V60.1644Z" fill="white"/>
<path d="M46.1083 60.1644C46.1083 58.0472 44.392 56.3309 42.2748 56.3309H39.7191C37.602 56.3309 35.8857 58.0472 35.8857 60.1644V62.72C35.8857 64.8372 37.602 66.5535 39.7191 66.5535H42.2748C44.392 66.5535 46.1083 64.8372 46.1083 62.72V60.1644Z" fill="white"/>
<path fill-rule="evenodd" clip-rule="evenodd" d="M20.4585 35.6927C19.148 35.6003 17.544 35.6003 15.591 35.6004H15.4012C13.4482 35.6003 11.8443 35.6003 10.5337 35.6927C9.17694 35.7883 7.93505 35.9923 6.74791 36.502C4.11704 37.6316 2.02288 39.7323 0.897849 42.3664C0.39049 43.5543 0.187266 44.7971 0.0920042 46.1562C-4.23972e-05 47.4694 -2.30394e-05 49.077 7.61973e-07 51.0355V51.2248C-2.30394e-05 53.1834 -4.23972e-05 54.7909 0.0920042 56.1042C0.187266 57.4632 0.39049 58.7061 0.897849 59.894C2.02288 62.5281 4.11704 64.6288 6.74791 65.7584C7.93504 66.2681 9.17693 66.4721 10.5337 66.5677C11.8442 66.66 13.4482 66.66 15.4011 66.66H15.5912C17.5441 66.66 19.148 66.66 20.4585 66.5677C21.8153 66.4721 23.0572 66.2681 24.2443 65.7584C26.8752 64.6288 28.9694 62.5281 30.0944 59.894C30.6017 58.7061 30.805 57.4632 30.9002 56.1042C30.9923 54.7909 30.9923 53.1834 30.9922 51.2247V51.0356C30.9923 49.077 30.9923 47.4695 30.9002 46.1562C30.805 44.7971 30.6017 43.5543 30.0944 42.3664C28.9694 39.7323 26.8752 37.6316 24.2443 36.502C23.0572 35.9923 21.8153 35.7883 20.4585 35.6927ZM14.1626 46.1083C12.0454 46.1083 10.3291 47.8246 10.3291 49.9418V52.4974C10.3291 54.6146 12.0454 56.3309 14.1626 56.3309H16.7182C18.8354 56.3309 20.5517 54.6146 20.5517 52.4974V49.9418C20.5517 47.8246 18.8354 46.1083 16.7182 46.1083H14.1626Z" fill="white"/>
<path fill-rule="evenodd" clip-rule="evenodd" d="M20.4585 0.0922972C19.148 -4.3018e-05 17.5441 -2.33427e-05 15.5911 7.76058e-07H15.4011C13.4482 -2.33427e-05 11.8442 -4.3018e-05 10.5337 0.0922972C9.17694 0.187897 7.93505 0.391936 6.74791 0.901633C4.11704 2.03119 2.02288 4.13195 0.897849 6.76603C0.390491 7.95394 0.187266 9.19676 0.0920042 10.5558C-4.23972e-05 11.8691 -2.30394e-05 13.4766 7.61973e-07 15.4352V15.6244C-2.30394e-05 17.583 -4.23972e-05 19.1906 0.0920042 20.5038C0.187266 21.8629 0.39049 23.1057 0.897849 24.2936C2.02288 26.9277 4.11704 29.0284 6.74791 30.158C7.93505 30.6677 9.17694 30.8717 10.5337 30.9673C11.8443 31.0597 13.4482 31.0597 15.4012 31.0596H15.591C17.544 31.0597 19.148 31.0597 20.4585 30.9673C21.8153 30.8717 23.0572 30.6677 24.2443 30.158C26.8752 29.0284 28.9694 26.9277 30.0944 24.2936C30.6017 23.1057 30.805 21.8629 30.9002 20.5038C30.9923 19.1905 30.9923 17.583 30.9922 15.6244V15.4353C30.9923 13.4766 30.9923 11.8691 30.9002 10.5558C30.805 9.19676 30.6017 7.95394 30.0944 6.76603C28.9694 4.13195 26.8752 2.03119 24.2443 0.901633C23.0572 0.391936 21.8153 0.187897 20.4585 0.0922972ZM14.1626 10.3291C12.0454 10.3291 10.3291 12.0454 10.3291 14.1626V16.7182C10.3291 18.8354 12.0454 20.5517 14.1626 20.5517H16.7182C18.8354 20.5517 20.5517 18.8354 20.5517 16.7182V14.1626C20.5517 12.0454 18.8354 10.3291 16.7182 10.3291H14.1626Z" fill="white"/>
<path fill-rule="evenodd" clip-rule="evenodd" d="M56.1263 0.0922972C54.8158 -4.3018e-05 53.2118 -2.33427e-05 51.2589 7.76058e-07H51.0689C49.1159 -2.33427e-05 47.512 -4.3018e-05 46.2015 0.0922972C44.8447 0.187897 43.6028 0.391935 42.4157 0.901633C39.7848 2.03119 37.6906 4.13195 36.5656 6.76603C36.0583 7.95394 35.855 9.19676 35.7598 10.5558C35.6677 11.8691 35.6677 13.4766 35.6678 15.4353V15.6244C35.6677 17.583 35.6677 19.1905 35.7598 20.5038C35.855 21.8629 36.0583 23.1057 36.5656 24.2936C37.6906 26.9277 39.7848 29.0284 42.4157 30.158C43.6028 30.6677 44.8447 30.8717 46.2015 30.9673C47.512 31.0597 49.116 31.0597 51.069 31.0596H51.2588C53.2118 31.0597 54.8157 31.0597 56.1263 30.9673C57.4831 30.8717 58.725 30.6677 59.9121 30.158C62.543 29.0284 64.6371 26.9277 65.7621 24.2936C66.2695 23.1057 66.4727 21.8629 66.568 20.5038C66.66 19.1905 66.66 17.5829 66.66 15.6242V15.4354C66.66 13.4767 66.66 11.8691 66.568 10.5558C66.4727 9.19676 66.2695 7.95394 65.7621 6.76603C64.6371 4.13195 62.543 2.0312 59.9121 0.901633C58.725 0.391935 57.4831 0.187897 56.1263 0.0922972ZM49.9418 10.3291C47.8246 10.3291 46.1083 12.0454 46.1083 14.1626V16.7182C46.1083 18.8354 47.8246 20.5517 49.9418 20.5517H52.4974C54.6146 20.5517 56.3309 18.8354 56.3309 16.7182V14.1626C56.3309 12.0454 54.6146 10.3291 52.4974 10.3291H49.9418Z" fill="white"/>
</svg>
