<svg width="71" height="71" viewBox="0 0 71 71" fill="none" xmlns="http://www.w3.org/2000/svg">
<g clip-path="url(#clip0_805_315)">
<g clip-path="url(#clip1_805_315)">
<path d="M60.3854 2.21875H8.61458C6.65483 2.22441 4.77695 3.00543 3.39119 4.39119C2.00543 5.77695 1.22441 7.65483 1.21875 9.61458V61.3854C1.22441 63.3452 2.00543 65.223 3.39119 66.6088C4.77695 67.9946 6.65483 68.7756 8.61458 68.7812H60.3854C62.3452 68.7756 64.223 67.9946 65.6088 66.6088C66.9946 65.223 67.7756 63.3452 67.7812 61.3854V9.61458C67.7756 7.65483 66.9946 5.77695 65.6088 4.39119C64.223 3.00543 62.3452 2.22441 60.3854 2.21875ZM38.3089 17.2323L42.2286 13.3125L47.4427 18.5266L52.6568 13.3125L56.5766 17.2323L51.3625 22.4464L56.5766 27.6604L52.6568 31.5802L47.4427 26.4031L42.2286 31.6172L38.3089 27.6974L43.5229 22.4833L38.3089 17.2323ZM13.237 19.6729H31.7266V25.2198H13.237V19.6729ZM32.651 50.2917H25.2552V57.6875H19.7083V50.2917H12.3125V44.7448H19.7083V37.349H25.2552V44.7448H32.651V50.2917ZM56.6875 54.9141H38.1979V49.3672H56.6875V54.9141ZM56.6875 45.6693H38.1979V40.1224H56.6875V45.6693Z" fill="white"/>
</g>
</g>
<defs>
<clipPath id="clip0_805_315">
<rect width="71" height="71" fill="white"/>
</clipPath>
<clipPath id="clip1_805_315">
<rect width="71" height="71" fill="white" transform="translate(-1)"/>
</clipPath>
</defs>
</svg>
