<svg width="55" height="42" viewBox="0 0 55 42" fill="none" xmlns="http://www.w3.org/2000/svg">
<g clip-path="url(#clip0_3_227)">
<path d="M11.3109 41.2515C4.6508 41.2515 0 36.6601 0 30.0843V11.1643C0 4.58847 4.6508 0 11.3109 0H27.2404C33.9005 0 38.5513 4.58847 38.5513 11.1672V30.0872C38.5513 36.663 33.9005 41.2544 27.2404 41.2544L11.3109 41.2515ZM49.3819 34.7072L45.3105 32.6539C44.5716 32.2785 43.9517 31.7048 43.5203 30.9972C43.0889 30.2895 42.8629 29.4757 42.8677 28.6469V12.6031C42.8621 11.7748 43.0878 10.9614 43.5193 10.2544C43.9509 9.54737 44.5712 8.97486 45.3105 8.60127L49.3841 6.54133C49.9745 6.23925 50.6334 6.09658 51.2959 6.12745C51.9583 6.15832 52.6011 6.36165 53.1608 6.71733C53.727 7.07409 54.1929 7.56918 54.5147 8.15592C54.8365 8.74266 55.0035 9.40169 55 10.0709V31.1806C55.0041 31.8499 54.8374 32.5092 54.5155 33.096C54.1937 33.6828 53.7274 34.1778 53.1608 34.5341C52.5486 34.9203 51.8401 35.1262 51.1163 35.1281C50.513 35.1272 49.9185 34.9829 49.3819 34.7072Z" fill="white"/>
</g>
<defs>
<clipPath id="clip0_3_227">
<rect width="55" height="41.2515" fill="white"/>
</clipPath>
</defs>
</svg>
