<svg width="59" height="71" viewBox="0 0 59 71" fill="none" xmlns="http://www.w3.org/2000/svg">
<path fill-rule="evenodd" clip-rule="evenodd" d="M8.61308 8.61246C11.344 5.88151 14.5861 3.7152 18.1543 2.23722C21.7225 0.759242 25.5468 -0.00146481 29.4089 -0.00146484C33.2711 -0.00146487 37.0954 0.759242 40.6636 2.23722C44.2317 3.7152 47.4738 5.88151 50.2048 8.61246C52.9357 11.3434 55.1021 14.5855 56.58 18.1537C58.058 21.7218 58.8187 25.5462 58.8187 29.4083C58.8187 33.2705 58.058 37.0948 56.58 40.663C55.1021 44.2311 52.9357 47.4732 50.2048 50.2042L29.4089 71L8.61308 50.2042C5.88195 47.4733 3.71549 44.2312 2.23739 40.6631C0.759303 37.0949 -0.00146484 33.2705 -0.00146484 29.4083C-0.00146484 25.5461 0.759303 21.7217 2.23739 18.1536C3.71549 14.5854 5.88195 11.3433 8.61308 8.61246ZM29.4089 37.8107C31.0708 37.8107 32.6953 37.3179 34.077 36.3946C35.4588 35.4714 36.5358 34.1591 37.1717 32.6238C37.8077 31.0884 37.9741 29.399 37.6499 27.7691C37.3257 26.1392 36.5254 24.642 35.3503 23.4669C34.1752 22.2919 32.6781 21.4916 31.0482 21.1674C29.4183 20.8432 27.7288 21.0096 26.1935 21.6455C24.6582 22.2815 23.3459 23.3585 22.4226 24.7402C21.4994 26.122 21.0066 27.7465 21.0066 29.4083C21.0066 31.6368 21.8918 33.7739 23.4676 35.3497C25.0433 36.9254 27.1805 37.8107 29.4089 37.8107Z" fill="white"/>
</svg>
