<svg width="534" height="533" viewBox="0 0 534 533" fill="none" xmlns="http://www.w3.org/2000/svg">
<path fill-rule="evenodd" clip-rule="evenodd" d="M118.384 159.9C118.384 84.5224 118.384 46.8336 140.167 23.4168C161.95 0 197.009 0 267.128 0C337.247 0 372.305 0 394.089 23.4168C415.872 46.8336 415.872 84.5224 415.872 159.9V373.1C415.872 448.477 415.872 486.165 394.089 509.583C372.305 533 337.247 533 267.128 533C197.009 533 161.95 533 140.167 509.583C118.384 486.165 118.384 448.477 118.384 373.1V159.9ZM81.1976 157.268V375.73C81.1962 401.922 81.1952 425.435 82.429 445.793C82.8648 452.981 83.4543 459.774 84.2522 466.154C84.6106 469.019 85.0181 471.87 85.4845 474.706C86.4324 480.468 81.9789 485.899 76.1634 485.387C64.6788 484.38 54.3066 482.229 44.6199 476.923C29.4595 468.619 17.1341 455.369 9.40965 439.072C4.4738 428.657 2.47238 417.507 1.53404 405.163C0.627404 393.234 0.627672 378.558 0.627939 360.612V172.388C0.627672 154.442 0.627404 139.766 1.53404 127.838C2.47238 115.492 4.4738 104.342 9.40965 93.9287C17.1341 77.6315 29.4595 64.3816 44.6199 56.0777C54.3066 50.772 64.6788 48.6203 76.1634 47.6116C81.9789 47.1009 86.4324 52.5338 85.4845 58.2942C85.0181 61.1287 84.6106 63.981 84.2522 66.8465C83.4543 73.2265 82.8648 80.0204 82.429 87.2076C81.1952 107.565 81.1962 131.077 81.1976 157.268ZM453.057 157.269V375.73C453.06 401.922 453.06 425.435 451.826 445.793C451.391 452.981 450.802 459.774 450.003 466.154C449.646 469.019 449.238 471.87 448.772 474.706C447.823 480.468 452.276 485.899 458.091 485.387C469.577 484.38 479.95 482.229 489.637 476.923C504.795 468.619 517.121 455.369 524.847 439.072C529.782 428.657 531.784 417.507 532.722 405.163C533.628 393.234 533.628 378.558 533.628 360.615V172.388C533.628 154.443 533.628 139.765 532.722 127.838C531.784 115.492 529.782 104.342 524.847 93.9287C517.121 77.6315 504.795 64.3816 489.637 56.0777C479.95 50.772 469.577 48.6203 458.091 47.6116C452.276 47.1009 447.823 52.5338 448.772 58.2942C449.238 61.1287 449.646 63.981 450.003 66.8465C450.802 73.2265 451.391 80.0204 451.826 87.2076C453.06 107.566 453.06 131.078 453.057 157.269ZM343.571 170.872C345.434 170.061 346.292 169.801 346.505 169.738C349.436 169.485 352.187 171.186 353.271 173.919C353.311 174.139 353.463 175.024 353.57 177.051C353.735 180.187 353.74 184.419 353.74 191.108C353.74 193.963 353.738 195.591 353.692 196.824C353.666 197.595 353.629 197.921 353.618 198.003C353.309 199.599 352.427 201.027 351.137 202.018C351.07 202.064 350.793 202.243 350.116 202.613C349.034 203.203 347.579 203.934 345.023 205.211L309.933 222.757C303.95 225.747 300.163 227.634 297.285 228.889C295.422 229.699 294.564 229.96 294.351 230.024C291.419 230.277 288.669 228.574 287.584 225.843C287.544 225.622 287.393 224.737 287.286 222.711C287.121 219.575 287.115 215.343 287.115 208.653C287.115 205.798 287.118 204.17 287.163 202.938C287.19 202.166 287.227 201.84 287.238 201.758C287.547 200.162 288.429 198.734 289.719 197.743C289.786 197.697 290.063 197.518 290.74 197.148C291.822 196.558 293.277 195.827 295.833 194.551L330.923 177.005C336.906 174.014 340.693 172.127 343.571 170.872ZM390.928 160.493C383.559 140.149 363.167 127.546 341.673 130.053C336.386 130.67 331.618 132.475 327.597 134.228C323.637 135.955 318.896 138.325 313.491 141.028L276.98 159.281C273.119 161.206 269.023 163.246 265.452 165.977C256.348 172.937 250.125 183.004 247.972 194.259C247.127 198.674 247.132 203.251 247.14 207.565V209.152C247.14 209.611 247.14 210.066 247.14 210.516C247.14 211.43 247.138 212.325 247.14 213.2V281.155C237.147 276.046 225.823 273.163 213.828 273.163C173.352 273.163 140.54 305.977 140.54 346.45C140.54 386.926 173.352 419.738 213.828 419.738C254.304 419.738 287.115 386.926 287.115 346.45V269.549C291.044 270.116 295.092 270.186 299.183 269.709C304.47 269.09 309.238 267.286 313.259 265.533C317.219 263.806 321.96 261.437 327.365 258.734L362.903 240.967L363.875 240.479C367.737 238.555 371.833 236.516 375.404 233.784C384.508 226.823 390.731 216.758 392.884 205.503C393.729 201.087 393.723 196.51 393.715 192.196V190.609C393.715 184.566 393.715 179.266 393.489 174.951C393.257 170.571 392.74 165.498 390.928 160.493ZM213.828 313.138C232.227 313.138 247.14 328.053 247.14 346.45C247.14 364.849 232.227 379.763 213.828 379.763C195.43 379.763 180.515 364.849 180.515 346.45C180.515 328.053 195.43 313.138 213.828 313.138Z" fill="black"/>
</svg>
