<svg width="75" height="75" viewBox="0 0 75 75" fill="none" xmlns="http://www.w3.org/2000/svg">
<path d="M37.505 64.9999C32.0658 65.0006 26.7486 63.3885 22.2257 60.3673C17.7027 57.3461 14.1773 53.0515 12.095 48.0267C10.0128 43.0019 9.46731 37.4725 10.5276 32.1377C11.5879 26.8029 14.2062 21.9022 18.0517 18.0555C20.6057 15.5015 23.6378 13.4756 26.9749 12.0935C30.3119 10.7113 33.8884 9.99995 37.5004 10C41.1123 10.0001 44.6889 10.7116 48.0258 12.0939C51.3628 13.4762 54.3948 15.5022 56.9488 18.0562C59.5028 20.6103 61.5287 23.6424 62.9109 26.9794C64.293 30.3165 65.0044 33.893 65.0043 37.505C65.0042 41.1169 64.2927 44.6935 62.9105 48.0304C61.5282 51.3674 59.5021 54.3994 56.9481 56.9534C54.3998 59.513 51.3694 61.542 48.0321 62.9231C44.6948 64.3043 41.1168 65.0101 37.505 64.9999ZM46.9317 26.8237C46.8036 26.8239 46.6762 26.8437 46.554 26.8823L32.4734 31.2825C32.1887 31.3711 31.9298 31.5275 31.719 31.7383C31.5082 31.9491 31.3518 32.2079 31.2633 32.4926L26.8631 46.6012C26.8042 46.7825 26.7895 46.9753 26.8203 47.1635C26.851 47.3516 26.9263 47.5297 27.0398 47.6829C27.1535 47.8403 27.3026 47.9688 27.4751 48.058C27.6476 48.1472 27.8386 48.1945 28.0328 48.1962C28.1574 48.1956 28.2811 48.1755 28.3995 48.1368L42.4259 43.7366C42.7134 43.6535 42.9751 43.499 43.1867 43.2874C43.3983 43.0758 43.5529 42.814 43.636 42.5266L48.0912 28.4459C48.1525 28.2574 48.1679 28.057 48.1363 27.8614C48.1047 27.6657 48.0269 27.4805 47.9093 27.3209C47.7963 27.1677 47.649 27.043 47.4793 26.9567C47.3096 26.8703 47.1221 26.8248 46.9317 26.8237Z" fill="white"/>
</svg>
