<svg width="55" height="39" viewBox="0 0 55 39" fill="none" xmlns="http://www.w3.org/2000/svg">
<g clip-path="url(#clip0_3_338)">
<path d="M53.8508 6.01182C53.5374 4.8463 52.9233 3.78359 52.0698 2.93017C51.2164 2.07675 50.1537 1.46257 48.9882 1.14917C44.6988 -4.31958e-06 27.5 0 27.5 0C27.5 0 10.3012 -4.31958e-06 6.01118 1.14917C4.84568 1.46263 3.78301 2.07683 2.9296 2.93024C2.07618 3.78366 1.46199 4.84633 1.14853 6.01182C0 10.3012 0 19.2506 0 19.2506C0 19.2506 0 28.1995 1.14918 32.4882C1.46269 33.6536 2.07691 34.7163 2.93031 35.5697C3.78372 36.4231 4.84636 37.0373 6.01182 37.3508C10.3012 38.5 27.5 38.5 27.5 38.5C27.5 38.5 44.6988 38.5 48.9882 37.3508C50.1537 37.0374 51.2163 36.4232 52.0698 35.5698C52.9232 34.7163 53.5374 33.6537 53.8508 32.4882C55 28.1995 55 19.2506 55 19.2506C55 19.2506 55 10.3012 53.8508 6.01247V6.01182ZM22 27.5V11L36.289 19.25L22 27.5Z" fill="white"/>
</g>
<defs>
<clipPath id="clip0_3_338">
<rect width="55" height="38.5" fill="white"/>
</clipPath>
</defs>
</svg>
