<svg width="55" height="55" viewBox="0 0 55 55" fill="none" xmlns="http://www.w3.org/2000/svg">
<g clip-path="url(#clip0_3_11)">
<path d="M27.5 54.9998C22.7559 54.9995 18.0932 53.7663 13.9693 51.4211C13.081 50.7611 12.0285 50.3575 10.9267 50.2544C10.5688 50.2555 10.2135 50.3142 9.87433 50.4282L4.3164 52.0819C4.11533 52.1461 3.90562 52.1792 3.69453 52.1801C3.42983 52.1845 3.16775 52.1271 2.92908 52.0125C2.69041 51.898 2.48171 51.7294 2.31953 51.5201C2.15482 51.2942 2.04563 51.0327 2.00078 50.7568C1.95594 50.4808 1.9767 50.1982 2.0614 49.9317L3.905 43.7615C4.05984 43.3608 4.12296 42.9305 4.08971 42.5022C4.05646 42.0739 3.92769 41.6585 3.71287 41.2865C1.35461 37.0836 0.0786951 32.3602 0 27.5416C0.0372905 20.3791 2.82452 13.5046 7.7858 8.33854C10.3433 5.68077 13.4146 3.57097 16.813 2.13744C20.2114 0.703918 23.8659 -0.023371 27.5543 -0.000195489C31.204 -0.0152596 34.8193 0.706267 38.1837 2.12119C41.548 3.53612 44.5923 5.61534 47.1343 8.2344C49.5991 10.7568 51.5589 13.7274 52.9078 16.986C54.2904 20.3041 55.0015 23.8634 55 27.458C55.0285 31.4074 54.2177 35.3178 52.6211 38.9303C51.1491 42.2171 49.02 45.1679 46.365 47.6012C41.2119 52.3218 34.4883 54.9587 27.5 54.9998ZM40.1229 24.0443C39.4256 24.0435 38.7438 24.2494 38.1636 24.6362C37.5835 25.0229 37.131 25.573 36.8636 26.217C36.5962 26.8609 36.5258 27.5697 36.6613 28.2536C36.7967 28.9376 37.1321 29.566 37.6248 30.0593C38.1175 30.5526 38.7455 30.8887 39.4293 31.0251C40.1131 31.1614 40.8219 31.0919 41.4662 30.8253C42.1104 30.5587 42.6611 30.1069 43.0486 29.5272C43.4361 28.9476 43.6429 28.266 43.6429 27.5687C43.6425 26.6349 43.2716 25.7393 42.6117 25.0786C41.9518 24.4179 41.0567 24.0459 40.1229 24.0443ZM27.3929 24.0443C26.4698 24.0496 25.5865 24.4207 24.9367 25.0763C24.2868 25.7319 23.9235 26.6185 23.9265 27.5416C23.922 28.2387 24.1246 28.9215 24.5086 29.5034C24.8926 30.0852 25.4408 30.5399 26.0836 30.8098C26.7264 31.0797 27.4348 31.1527 28.1191 31.0195C28.8034 30.8862 29.4328 30.5528 29.9273 30.0614C30.4219 29.57 30.7594 28.9429 30.8971 28.2595C31.0347 27.576 30.9664 26.8671 30.7006 26.2226C30.4349 25.5781 29.9838 25.027 29.4044 24.6392C28.8251 24.2514 28.1436 24.0444 27.4465 24.0443H27.3937H27.3929ZM14.7686 24.0443C14.0714 24.0435 13.3895 24.2494 12.8094 24.6362C12.2292 25.0229 11.7768 25.573 11.5093 26.217C11.2419 26.8609 11.1715 27.5697 11.307 28.2536C11.4425 28.9376 11.7778 29.566 12.2705 30.0593C12.7632 30.5526 13.3912 30.8887 14.075 31.0251C14.7588 31.1614 15.4677 31.0919 16.1119 30.8253C16.7562 30.5587 17.3069 30.1069 17.6943 29.5272C18.0818 28.9476 18.2886 28.266 18.2886 27.5687C18.2878 26.635 17.9169 25.7397 17.257 25.079C16.5972 24.4184 15.7023 24.0463 14.7686 24.0443Z" fill="white"/>
</g>
<defs>
<clipPath id="clip0_3_11">
<rect width="55" height="55" fill="white"/>
</clipPath>
</defs>
</svg>
