<svg width="401" height="533" viewBox="0 0 401 533" fill="none" xmlns="http://www.w3.org/2000/svg">
<path fill-rule="evenodd" clip-rule="evenodd" d="M59.3888 58.6058C96.8601 21.1345 147.666 0.0577555 200.658 0C253.65 0.0577555 304.456 21.1345 341.927 58.6058C379.398 96.0771 400.475 146.883 400.533 199.875C400.533 380.361 228.765 519.857 221.478 525.713C215.564 530.431 208.223 533 200.658 533C193.093 533 185.752 530.431 179.838 525.713C172.551 519.857 0.782959 380.361 0.782959 199.875C0.840715 146.883 21.9175 96.0771 59.3888 58.6058ZM67.408 199.875C67.408 314.452 158.562 414.78 200.658 454.989C242.754 414.78 333.908 314.452 333.908 199.875C333.908 164.535 319.869 130.642 294.88 105.653C269.891 80.6638 235.998 66.625 200.658 66.625C165.318 66.625 131.425 80.6638 106.436 105.653C81.4468 130.642 67.408 164.535 67.408 199.875ZM163.643 144.478C174.599 137.157 187.481 133.25 200.658 133.25C218.321 133.273 235.254 140.3 247.743 152.789C260.233 165.279 267.26 182.212 267.283 199.875C267.283 213.052 263.375 225.933 256.054 236.89C248.734 247.846 238.328 256.386 226.154 261.428C213.98 266.471 200.584 267.791 187.66 265.22C174.736 262.649 162.865 256.304 153.547 246.986C144.229 237.668 137.884 225.797 135.313 212.873C132.742 199.949 134.062 186.553 139.104 174.379C144.147 162.205 152.687 151.799 163.643 144.478Z" fill="black"/>
</svg>
