<svg width="508" height="533" viewBox="0 0 508 533" fill="none" xmlns="http://www.w3.org/2000/svg">
<path fill-rule="evenodd" clip-rule="evenodd" d="M301.273 4.0572C291.405 1.19135e-06 278.893 0 253.868 0C228.844 0 216.332 1.19135e-06 206.463 4.0572C193.303 9.46688 182.848 19.8431 177.398 32.9029C174.909 38.8648 173.936 45.798 173.555 55.9114C172.995 70.7739 165.315 84.5309 152.336 91.9673C139.358 99.4034 123.514 99.1257 110.264 92.1759C101.249 87.4466 94.7116 84.8168 88.2649 83.9747C74.1431 82.1294 59.8611 85.9273 48.561 94.5329C40.0857 100.987 33.8296 111.741 21.3177 133.248C8.80583 154.756 2.55 165.509 1.15568 176.021C-0.703694 190.036 3.12324 204.21 11.7944 215.425C15.7521 220.545 21.3143 224.846 29.947 230.229C42.638 238.144 50.8038 251.627 50.803 266.5C50.8022 281.373 42.6367 294.853 29.947 302.765C21.3129 308.151 15.7498 312.455 11.7917 317.575C3.12058 328.789 -0.70609 342.962 1.15301 356.977C2.54734 367.488 8.80342 378.243 21.3151 399.75C33.827 421.257 40.0831 432.012 48.5583 438.464C59.8584 447.07 74.1404 450.867 88.2623 449.023C94.7086 448.181 101.245 445.551 110.26 440.823C123.51 433.873 139.356 433.595 152.335 441.031C165.314 448.469 172.994 462.226 173.555 477.091C173.936 487.202 174.909 494.136 177.398 500.098C182.848 513.156 193.303 523.534 206.463 528.944C216.332 533 228.844 533 253.868 533C278.893 533 291.405 533 301.273 528.944C314.433 523.534 324.888 513.156 330.338 500.098C332.827 494.136 333.802 487.202 334.183 477.088C334.743 462.226 342.421 448.469 355.399 441.031C368.378 433.593 384.224 433.873 397.474 440.823C406.49 445.551 413.025 448.178 419.471 449.021C433.593 450.867 447.875 447.07 459.175 438.464C467.652 432.01 473.907 421.257 486.419 399.747C498.931 378.241 505.186 367.488 506.582 356.977C508.44 342.962 504.613 328.786 495.944 317.572C491.983 312.453 486.422 308.149 477.787 302.765C465.099 294.853 456.933 281.371 456.933 266.497C456.933 251.624 465.099 238.147 477.787 230.235C486.424 224.849 491.986 220.547 495.946 215.425C504.615 204.212 508.442 190.038 506.585 176.022C505.188 165.511 498.934 154.757 486.422 133.25C473.909 111.743 467.655 100.989 459.177 94.5347C447.878 85.9292 433.596 82.1313 419.474 83.9766C413.027 84.8187 406.49 87.4482 397.477 92.177C384.227 99.1271 368.381 99.405 355.402 91.9681C342.424 84.5314 334.743 70.7733 334.181 55.9101C333.8 45.7975 332.827 38.8645 330.338 32.9029C324.888 19.8431 314.433 9.46688 301.273 4.0572ZM253.868 346.45C298.36 346.45 334.426 310.656 334.426 266.5C334.426 222.344 298.36 186.55 253.868 186.55C209.376 186.55 173.31 222.344 173.31 266.5C173.31 310.656 209.376 346.45 253.868 346.45Z" fill="black"/>
</svg>
