<svg width="534" height="533" viewBox="0 0 534 533" fill="none" xmlns="http://www.w3.org/2000/svg">
<path fill-rule="evenodd" clip-rule="evenodd" d="M0.552734 131.911C0.552734 108.391 0.552734 96.6316 2.40091 86.8361C10.5369 43.7143 44.267 9.98416 87.3888 1.84818C97.1843 0 108.944 0 132.464 0C142.768 0 147.921 0 152.873 0.463177C174.221 2.45953 194.472 10.8476 210.98 24.5316C214.807 27.7045 218.449 31.3466 225.73 38.6281L225.737 38.6358L240.403 53.3C262.144 75.0405 273.014 85.9108 286.03 93.1532C293.18 97.1315 300.768 100.273 308.637 102.517C322.962 106.6 338.333 106.6 369.08 106.6H379.039C449.192 106.6 484.266 106.6 507.068 127.106C509.165 128.992 511.161 130.988 513.046 133.086C533.553 155.885 533.553 190.962 533.553 261.114V319.8C533.553 420.302 533.553 470.556 502.33 501.777C471.109 533 420.855 533 320.353 533H213.753C113.249 533 62.9977 533 31.7751 501.777C0.552738 470.556 0.552734 420.302 0.552734 319.8V131.911ZM273.716 213.2C273.716 202.161 282.665 193.212 293.703 193.212H426.953C437.992 193.212 446.941 202.161 446.941 213.2C446.941 224.238 437.992 233.187 426.953 233.187H293.703C282.665 233.187 273.716 224.238 273.716 213.2ZM381.208 26.6499C390.954 26.6499 395.828 26.6499 399.919 27.208C427.067 30.9099 448.656 52.3173 453.603 79.9499C449.661 79.039 445.565 78.3347 441.314 77.7812C424.274 75.562 402.739 75.5623 376.025 75.5628H367.113C342.014 75.5628 332.502 75.4176 323.828 72.8565C318.794 71.3697 313.941 69.2873 309.365 66.6505C301.482 62.108 294.659 55.2451 276.911 36.8601L267.053 26.6499H381.208Z" fill="black"/>
</svg>
