<svg width="534" height="534" viewBox="0 0 534 534" fill="none" xmlns="http://www.w3.org/2000/svg">
<path fill-rule="evenodd" clip-rule="evenodd" d="M0.0385742 266.631C0.0385742 141.001 0.038571 78.1868 39.0667 39.159C78.0946 0.130856 140.909 0.130859 266.539 0.130859C392.167 0.130859 454.983 0.130856 494.01 39.159C533.039 78.1868 533.039 141.001 533.039 266.631C533.039 392.259 533.039 455.076 494.01 494.102C454.983 533.131 392.167 533.131 266.539 533.131C140.909 533.131 78.0946 533.131 39.0667 494.102C0.038571 455.076 0.0385742 392.259 0.0385742 266.631ZM213.345 100.114C224.384 100.055 233.285 91.0591 233.226 80.0204C233.167 68.9819 224.17 60.0806 213.133 60.1392C184.304 60.2919 160.36 60.9502 140.82 64.3686C120.783 67.8738 103.65 74.5494 89.621 87.9104C77.4925 99.461 69.3795 111.159 64.9649 127.965C60.9637 143.197 60.2508 161.937 60.0626 186.528C59.9781 197.566 68.8579 206.583 79.8964 206.668C90.9348 206.752 99.9518 197.872 100.036 186.834C100.23 161.549 101.096 147.759 103.628 138.121C105.747 130.055 109.121 124.543 117.19 116.858C123.638 110.716 132.439 106.417 147.709 103.746C163.474 100.988 184.209 100.268 213.345 100.114ZM319.948 60.1392C308.909 60.0806 299.912 68.9817 299.854 80.0204C299.795 91.0591 308.696 100.055 319.735 100.114C348.871 100.268 369.605 100.988 385.368 103.746C400.639 106.417 409.439 110.717 415.888 116.858C423.957 124.542 427.331 130.055 429.45 138.121C431.982 147.759 432.848 161.549 433.04 186.834C433.125 197.872 442.143 206.752 453.182 206.668C464.22 206.583 473.1 197.566 473.015 186.528C472.826 161.937 472.114 143.197 468.111 127.965C463.698 111.159 455.586 99.461 443.457 87.9104C429.426 74.5494 412.295 67.8741 392.257 64.3688C372.717 60.9504 348.775 60.2922 319.948 60.1392ZM79.9886 246.646C68.9499 246.646 60.0011 255.592 60.0011 266.634C60.0011 277.672 68.9499 286.621 79.9886 286.621H453.089C464.127 286.621 473.076 277.672 473.076 266.634C473.076 255.592 464.127 246.646 453.089 246.646H79.9886ZM100.036 346.432C99.9518 335.393 90.9348 326.513 79.8964 326.596C68.8579 326.681 59.9781 335.697 60.0626 346.735C60.2508 371.328 60.9637 390.068 64.9649 405.301C69.3795 422.104 77.4925 433.804 89.621 445.354C103.65 458.716 120.783 465.389 140.819 468.896C160.359 472.316 184.302 472.974 213.13 473.126C224.168 473.184 233.165 464.283 233.223 453.245C233.282 442.206 224.381 433.209 213.342 433.151C184.207 432.996 163.473 432.277 147.708 429.518C132.439 426.848 123.638 422.549 117.19 416.407C109.121 408.723 105.747 403.209 103.628 395.145C101.096 385.506 100.23 371.714 100.036 346.432ZM473.015 346.735C473.1 335.697 464.22 326.681 453.182 326.596C442.143 326.513 433.125 335.393 433.04 346.432C432.848 371.714 431.982 385.506 429.45 395.145C427.331 403.209 423.957 408.723 415.888 416.407C409.439 422.549 400.639 426.848 385.368 429.518C369.605 432.277 348.871 432.996 319.735 433.151C308.696 433.209 299.795 442.206 299.854 453.245C299.912 464.283 308.909 473.184 319.948 473.126C348.775 472.974 372.717 472.316 392.257 468.896C412.295 465.389 429.426 458.716 443.457 445.354C455.586 433.804 463.698 422.104 468.111 405.301C472.114 390.068 472.826 371.328 473.015 346.735Z" fill="black"/>
</svg>
