<svg width="62" height="55" viewBox="0 0 62 55" fill="none" xmlns="http://www.w3.org/2000/svg">
<g clip-path="url(#clip0_3_231)">
<path d="M52.9116 55.0016H8.18833C7.23661 54.9399 6.29949 54.7361 5.4081 54.397C4.34734 53.9735 3.38178 53.3426 2.56801 52.5411C1.75424 51.7396 1.10862 50.7838 0.668992 49.7296C0.232003 48.7017 0.00460592 47.5968 0.00012847 46.4798C-0.00434898 45.3628 0.214184 44.2562 0.642918 43.2248L23.0054 4.37895C23.7875 2.98073 24.9536 1.8356 26.3658 1.07886C27.6421 0.371909 29.0771 0.000689572 30.5361 1.00897e-05C32.078 -0.0023354 33.593 0.40429 34.9266 1.17842C36.2601 1.95255 37.3645 3.0665 38.1271 4.40666L60.3364 42.9526C60.7696 43.9189 61.0284 44.9542 61.1007 46.0107C61.1621 47.1372 60.9963 48.2645 60.6132 49.3255C60.23 50.3866 59.6374 51.3598 58.8705 52.1872C57.3313 53.872 55.1906 54.8831 52.9116 55.0016ZM30.5516 37.4997C30.2015 37.4997 29.8548 37.5687 29.5313 37.7027C29.2078 37.8366 28.9139 38.033 28.6663 38.2806C28.4188 38.5282 28.2224 38.8221 28.0884 39.1456C27.9544 39.469 27.8854 39.8157 27.8854 40.1659C27.8854 40.516 27.9544 40.8627 28.0884 41.1862C28.2224 41.5096 28.4188 41.8035 28.6663 42.0511C28.9139 42.2987 29.2078 42.4951 29.5313 42.6291C29.8548 42.7631 30.2015 42.832 30.5516 42.832C31.2614 42.8258 31.9397 42.5382 32.4377 42.0324C32.9357 41.5266 33.2127 40.8439 33.208 40.1341C33.2043 39.4327 32.9225 38.7615 32.4245 38.2676C31.9265 37.7737 31.253 37.4975 30.5516 37.4997ZM30.5516 18.6101C29.8459 18.6038 29.1666 18.8776 28.6625 19.3714C28.1584 19.8653 27.8708 20.5389 27.8626 21.2445V29.8109C27.8747 30.5183 28.1625 31.1931 28.6648 31.6914C29.1671 32.1897 29.8441 32.4722 30.5516 32.4787C31.2573 32.4763 31.9334 32.1941 32.4313 31.694C32.9293 31.1939 33.2086 30.5167 33.208 29.8109V21.2445C33.2043 20.5431 32.9225 19.8719 32.4245 19.378C31.9265 18.8841 31.253 18.6079 30.5516 18.6101Z" fill="white"/>
</g>
<defs>
<clipPath id="clip0_3_231">
<rect width="61.1129" height="55" fill="white"/>
</clipPath>
</defs>
</svg>
