<svg width="85" height="61" viewBox="0 0 85 61" fill="none" xmlns="http://www.w3.org/2000/svg">
<path d="M42.2313 0.00144706C29.9592 0.00144706 18.5569 0.856169 12.0507 2.18595L12.0091 2.19728C7.10745 3.27017 2.49195 6.707 1.51823 12.0799V12.1026C0.474672 18.0858 -0.0310508 24.1503 0.0071155 30.2237C-0.0715027 36.3287 0.501556 42.4246 1.71656 48.408C2.712 53.6261 7.22078 57.163 12.1999 58.251L12.2717 58.2699C19.0622 59.5779 30.1424 60.4421 42.4146 60.4421C54.6867 60.4421 65.7735 59.5742 72.565 58.2699L72.6368 58.251C77.5385 57.1772 82.154 53.7441 83.1258 48.3674L83.1333 48.3268C84.2283 42.3119 84.8548 36.2212 85.0071 30.1094C85.0071 30.0886 85.0071 30.0678 85.0071 30.0471C85.04 23.8825 84.4067 17.7325 83.1182 11.7041C82.1303 6.47561 77.6168 2.92828 72.6349 1.83934C72.5587 1.82297 72.4819 1.80943 72.4045 1.79872C62.3945 0.566718 52.3168 -0.0335626 42.2313 0.00144706ZM35.0819 16.057C35.8334 16.0419 36.5754 16.2263 37.2324 16.5916L53.8546 25.7744C54.4904 26.1122 55.0223 26.6167 55.3933 27.2338C55.7642 27.8509 55.9601 28.5573 55.9601 29.2773C55.9601 29.9973 55.7642 30.7038 55.3933 31.3209C55.0223 31.938 54.4904 32.4425 53.8546 32.7803L37.2324 41.9631C36.6063 42.3205 35.8985 42.5098 35.1776 42.5126C34.4568 42.5154 33.7474 42.3317 33.1186 41.9793C32.4897 41.6269 31.9628 41.1178 31.5889 40.5015C31.215 39.8852 31.0069 39.1826 30.9849 38.4621V20.0964C31.0025 19.0206 31.4416 17.9947 32.2077 17.2393C32.9739 16.4839 34.006 16.0593 35.0819 16.057Z" fill="white"/>
</svg>
