<svg width="55" height="55" viewBox="0 0 55 55" fill="none" xmlns="http://www.w3.org/2000/svg">
<g clip-path="url(#clip0_3_333)">
<path d="M27.4998 0C20.2192 0.0415589 13.2486 2.95222 8.10031 8.10049C2.95204 13.2488 0.0413811 20.2194 -0.000177752 27.5C-0.0314892 33.0481 1.63762 38.4726 4.78249 43.0433L1.67355 52.3695C1.58492 52.5685 1.56034 52.7902 1.60319 53.0039C1.64604 53.2175 1.75422 53.4126 1.91275 53.562C2.11527 53.7138 2.35126 53.8147 2.60088 53.8564C2.85051 53.898 3.10648 53.8791 3.34728 53.8012L12.9126 50.6923C17.253 53.5156 22.322 55.013 27.4998 55.0014C34.7809 54.9602 41.7521 52.0495 46.9007 46.9009C52.0493 41.7523 54.96 34.7811 55.0012 27.5C54.9596 20.2191 52.0488 13.2483 46.9002 8.10001C41.7517 2.9517 34.7807 0.0411994 27.4998 0ZM44 38.7391C43.281 40.8912 40.4133 42.8014 38.022 43.2812C37.5422 43.2812 37.0624 43.5204 36.3482 43.5204C34.4353 43.5204 32.044 42.8028 28.2181 41.3682C23.4354 39.4553 18.6528 35.151 14.8269 29.648L14.5877 29.4088C13.1518 27.5 10.999 24.1525 10.999 20.5652C10.999 16.5001 13.1511 14.348 13.8687 13.3912C14.3373 12.9201 14.8974 12.55 15.5145 12.3036C16.1316 12.0573 16.7926 11.9399 17.4568 11.9587H18.4163C19.6116 11.9587 20.3292 12.4385 21.0469 13.8717L21.5266 14.8312C22.2442 16.5049 23.2004 19.1355 23.4396 19.6139C23.6747 19.9683 23.8002 20.3842 23.8002 20.8095C23.8002 21.2349 23.6747 21.6508 23.4396 22.0052C23.2052 22.5354 22.8805 23.0208 22.48 23.4397C22.2408 23.6789 22.0002 23.9195 22.0002 24.1573L21.2799 24.8695V25.1087C22.379 26.9745 23.749 28.6669 25.3449 30.1305C26.9614 31.6298 28.8214 32.8427 30.8452 33.7172H31.0844C31.3236 33.7172 31.5642 33.9564 31.5642 33.7172C32.044 33.2374 32.5237 32.2827 33.2379 31.5651L33.4771 31.3259C33.7229 30.9776 34.044 30.6893 34.4166 30.4823C34.7892 30.2754 35.2037 30.1551 35.6293 30.1305C35.9673 30.0944 36.3073 30.1792 36.5888 30.3697C36.828 30.3697 37.3064 30.6089 41.8499 33.0003L42.3297 33.2395C43.0473 33.4787 43.525 33.7192 43.7642 34.4348C44.7203 34.9132 44.4784 37.0653 44 38.7391Z" fill="white"/>
</g>
<defs>
<clipPath id="clip0_3_333">
<rect width="55" height="55" fill="white"/>
</clipPath>
</defs>
</svg>
