<svg width="534" height="533" viewBox="0 0 534 533" fill="none" xmlns="http://www.w3.org/2000/svg">
<path d="M201.682 43.845L223.302 82.5852C242.813 117.546 234.981 163.409 204.25 194.139C204.25 194.139 166.979 231.416 234.558 298.997C302.116 366.555 339.416 329.305 339.416 329.305C370.147 298.574 416.008 290.742 450.97 310.253L489.709 331.873C542.503 361.335 548.735 435.369 502.334 481.773C474.452 509.656 440.293 531.352 402.533 532.781C338.97 535.193 231.02 519.107 122.734 410.821C14.4494 302.535 -1.63785 194.586 0.771977 131.021C2.20342 93.2619 23.8992 59.1042 51.7822 31.2216C98.185 -15.1812 172.219 -8.94642 201.682 43.845Z" fill="black"/>
</svg>
