<svg width="62" height="55" viewBox="0 0 62 55" fill="none" xmlns="http://www.w3.org/2000/svg">
<g clip-path="url(#clip0_3_217)">
<path d="M44.1643 54.1468C43.6964 53.775 43.2535 53.3727 42.8386 52.9425C39.6542 49.9667 34.8694 42.5533 33.3318 38.7912C32.8547 37.7437 32.5256 36.635 32.354 35.4968V35.3542C32.3563 34.5442 32.5788 33.7502 32.9978 33.057C33.4168 32.3639 34.0164 31.7978 34.7325 31.4193C35.7664 31.0469 36.8293 30.7607 37.9104 30.5637C40.8408 30.1835 43.7941 30.007 46.749 30.0357C49.8009 29.982 52.8519 30.1834 55.8703 30.6379C56.7326 30.8012 57.5847 31.0142 58.4224 31.2759C59.343 31.682 60.1044 32.3798 60.589 33.2617C60.935 33.9559 61.1144 34.7211 61.113 35.4968C60.9724 36.5082 60.7015 37.4972 60.3071 38.4392C58.7727 42.4099 53.737 50.0001 50.6659 52.9099C50.177 53.4045 49.5822 53.9382 49.4436 54.0784C48.6658 54.6847 47.7058 55.01 46.7196 55.0016C45.7967 55.0077 44.8978 54.707 44.1643 54.1468ZM10.738 47.1066L11.5243 33.1175C11.5243 32.3611 11.8248 31.6357 12.3596 31.1008C12.8945 30.566 13.6199 30.2655 14.3762 30.2655C15.1326 30.2655 15.858 30.566 16.3929 31.1008C16.9277 31.6357 17.2282 32.3611 17.2282 33.1175L18.0121 47.1066C18.0121 48.0715 17.6287 48.9969 16.9464 49.6792C16.2641 50.3615 15.3387 50.7449 14.3738 50.7449C13.4089 50.7449 12.4835 50.3615 11.8012 49.6792C11.1189 48.9969 10.7355 48.0715 10.7355 47.1066H10.738ZM5.23864 24.3636C4.37707 24.2001 3.52576 23.9865 2.68901 23.724C1.76725 23.3196 1.00537 22.6213 0.52235 21.7382C0.175906 21.0451 -0.00299687 20.2804 3.79757e-05 19.5056C0.141063 18.4948 0.40994 17.5061 0.80021 16.5632C2.33781 12.5892 7.37026 5.00225 10.4446 2.09246C10.9335 1.59785 11.5284 1.06413 11.6669 0.920718C12.4469 0.314767 13.4089 -0.00971729 14.3966 -4.94543e-05C15.3177 -0.00561501 16.2148 0.293146 16.9487 0.849828C17.4168 1.22356 17.8604 1.62692 18.2769 2.05742C21.4547 5.0381 26.2436 12.4499 27.7812 16.2087C28.2568 17.2576 28.5858 18.367 28.759 19.5056V19.6482C28.7552 20.4575 28.532 21.2506 28.1132 21.9431C27.6943 22.6356 27.0955 23.2015 26.3804 23.5806C25.3469 23.954 24.2839 24.2402 23.2026 24.4362C20.2713 24.8165 17.3172 24.9929 14.3616 24.9642C11.3092 25.0186 8.25757 24.8177 5.23864 24.3636ZM43.8816 21.8857L43.0952 7.89248C43.0952 6.92756 43.4786 6.00215 44.1609 5.31984C44.8432 4.63754 45.7686 4.25422 46.7335 4.25422C47.6984 4.25422 48.6238 4.63754 49.3061 5.31984C49.9884 6.00215 50.3718 6.92756 50.3718 7.89248L49.5879 21.8841C49.5879 22.6405 49.2874 23.3659 48.7526 23.9007C48.2177 24.4355 47.4923 24.736 46.7359 24.736C45.9796 24.736 45.2542 24.4355 44.7193 23.9007C44.1845 23.3659 43.884 22.6405 43.884 21.8841L43.8816 21.8857Z" fill="white"/>
</g>
<defs>
<clipPath id="clip0_3_217">
<rect width="61.1129" height="55" fill="white"/>
</clipPath>
</defs>
</svg>
