<svg width="55" height="55" viewBox="0 0 55 55" fill="none" xmlns="http://www.w3.org/2000/svg">
<g clip-path="url(#clip0_3_242)">
<path d="M27.5 55C20.2065 55 13.2118 52.1027 8.05456 46.9454C2.89731 41.7882 0 34.7935 0 27.5C0 20.2065 2.89731 13.2118 8.05456 8.05456C13.2118 2.89731 20.2065 0 27.5 0C32.9389 0.00220514 38.2551 1.6165 42.7768 4.63891C47.2986 7.66132 50.823 11.9562 52.9048 16.9809C54.9866 22.0056 55.5323 27.5346 54.473 32.8693C53.4136 38.2041 50.7968 43.1051 46.9531 46.9531C44.4037 49.514 41.3717 51.5439 38.0326 52.9251C34.6935 54.3064 31.1135 55.0116 27.5 55ZM26.5371 13.5579C25.9905 13.5586 25.4665 13.7762 25.0801 14.1628C24.6937 14.5493 24.4763 15.0734 24.4757 15.62V29.5071C24.4779 29.8635 24.5729 30.2132 24.7512 30.5218C24.9296 30.8304 25.1852 31.0873 25.4929 31.2671L36.2729 37.7021C36.5961 37.8981 36.9663 38.0033 37.3443 38.0065C37.701 38.004 38.0508 37.9086 38.3595 37.7297C38.6681 37.5508 38.9248 37.2947 39.1043 36.9864C39.3816 36.5153 39.462 35.9539 39.3282 35.4239C39.1943 34.8939 38.857 34.438 38.3893 34.155L28.6 28.3243V15.62C28.5992 15.0732 28.3816 14.549 27.9949 14.1624C27.6082 13.7759 27.0839 13.5584 26.5371 13.5579Z" fill="white"/>
</g>
<defs>
<clipPath id="clip0_3_242">
<rect width="55" height="55" fill="white"/>
</clipPath>
</defs>
</svg>
