<svg width="534" height="533" viewBox="0 0 534 533" fill="none" xmlns="http://www.w3.org/2000/svg">
<path fill-rule="evenodd" clip-rule="evenodd" d="M267.438 533C141.808 533 78.9935 533 39.9656 493.971C0.937497 454.945 0.9375 392.128 0.9375 266.5C0.9375 140.871 0.937497 78.056 39.9656 39.0281C78.9935 -3.17693e-06 141.808 0 267.438 0C393.066 0 455.882 -3.17693e-06 494.909 39.0281C533.938 78.056 533.938 140.871 533.938 266.5C533.938 392.128 533.938 454.945 494.909 493.971C455.882 533 393.066 533 267.438 533ZM180.825 119.924C180.825 108.885 171.876 99.937 160.837 99.937C149.799 99.937 140.85 108.885 140.85 119.924V153.237H107.537C96.4988 153.237 87.55 162.186 87.55 173.225C87.55 184.264 96.4988 193.212 107.537 193.212H140.85V226.525C140.85 237.563 149.799 246.512 160.837 246.512C171.876 246.512 180.825 237.563 180.825 226.525V193.212H214.137C225.176 193.212 234.125 184.264 234.125 173.225C234.125 162.186 225.176 153.237 214.137 153.237H180.825V119.924ZM320.737 153.237C309.699 153.237 300.75 162.186 300.75 173.224C300.75 184.263 309.699 193.212 320.737 193.212H427.337C438.376 193.212 447.325 184.263 447.325 173.224C447.325 162.186 438.376 153.237 427.337 153.237H320.737ZM320.737 313.137C309.699 313.137 300.75 322.087 300.75 333.125C300.75 344.163 309.699 353.112 320.737 353.112H427.337C438.376 353.112 447.325 344.163 447.325 333.125C447.325 322.087 438.376 313.137 427.337 313.137H320.737ZM134.996 318.992C127.19 311.187 114.535 311.187 106.729 318.992C98.9237 326.798 98.9237 339.452 106.729 347.258L132.571 373.1L106.729 398.943C98.924 406.748 98.924 419.402 106.729 427.207C114.535 435.013 127.191 435.013 134.996 427.207L160.838 401.368L186.679 427.207C194.484 435.013 207.14 435.013 214.945 427.207C222.751 419.402 222.751 406.748 214.945 398.943L189.104 373.1L214.945 347.258C222.751 339.452 222.751 326.798 214.945 318.992C207.14 311.187 194.485 311.187 186.679 318.992L160.838 344.832L134.996 318.992ZM320.737 393.087C309.699 393.087 300.75 402.037 300.75 413.075C300.75 424.113 309.699 433.062 320.737 433.062H427.337C438.376 433.062 447.325 424.113 447.325 413.075C447.325 402.037 438.376 393.087 427.337 393.087H320.737Z" fill="black"/>
</svg>
