<svg width="47" height="55" viewBox="0 0 47 55" fill="none" xmlns="http://www.w3.org/2000/svg">
<g clip-path="url(#clip0_3_252)">
<path d="M20.7137 52.3687V47.0747C15.0505 46.4604 9.81077 43.7856 5.99144 39.5592C2.17211 35.3329 0.0397241 29.85 0 24.1538C0.00195847 23.8061 0.0724049 23.4623 0.207313 23.1419C0.342222 22.8214 0.538948 22.5308 0.786249 22.2864C1.03355 22.0421 1.32658 21.8488 1.64859 21.7178C1.97059 21.5867 2.31527 21.5204 2.66292 21.5226C3.01071 21.5203 3.35554 21.5866 3.67773 21.7176C3.99992 21.8486 4.29314 22.0417 4.54066 22.2861C4.78817 22.5304 4.98513 22.8211 5.12028 23.1416C5.25543 23.462 5.32613 23.806 5.32833 24.1538C5.40703 28.8879 7.34288 33.4014 10.7186 36.7214C14.0942 40.0415 18.6394 41.902 23.3741 41.902C28.1088 41.902 32.654 40.0415 36.0296 36.7214C39.4053 33.4014 41.3412 28.8879 41.4199 24.1538C41.4306 23.4542 41.716 22.7868 42.2145 22.2959C42.713 21.8049 43.3847 21.5297 44.0843 21.5297C44.784 21.5297 45.4556 21.8049 45.9542 22.2959C46.4527 22.7868 46.7381 23.4542 46.7488 24.1538C46.7092 29.8494 44.5774 35.3317 40.759 39.5579C36.9406 43.7841 31.7019 46.4594 26.0395 47.0747V52.3687C26.0288 53.068 25.7435 53.735 25.2452 54.2258C24.7469 54.7165 24.0756 54.9915 23.3763 54.9915C22.6769 54.9915 22.0056 54.7165 21.5073 54.2258C21.009 53.735 20.7237 53.068 20.713 52.3687H20.7137ZM22.8954 36.3457C19.7417 36.3661 16.7092 35.133 14.4647 32.9175C12.2203 30.7021 10.9478 27.6858 10.9272 24.5321V11.8159C10.9473 8.66216 12.2194 5.64551 14.4636 3.42959C16.7078 1.21367 19.7403 -0.0200308 22.8941 -0.00012911H23.8572C26.4521 -0.0105365 28.9798 0.824106 31.0583 2.37763C33.1368 3.93115 34.653 6.1191 35.3778 8.61072C35.4227 8.77 35.4299 8.93752 35.3988 9.10006C35.3678 9.26259 35.2994 9.41569 35.1991 9.54724C35.0987 9.6788 34.9691 9.78522 34.8205 9.85809C34.672 9.93096 34.5085 9.96829 34.3431 9.96712H31.2295C31.007 9.96564 30.7864 10.008 30.5802 10.0918C30.3741 10.1756 30.1865 10.2991 30.0282 10.4554C29.8698 10.6117 29.7437 10.7976 29.6572 11.0026C29.5707 11.2076 29.5255 11.4276 29.524 11.6501C29.5255 11.8726 29.5707 12.0927 29.6572 12.2977C29.7437 12.5026 29.8698 12.6886 30.0282 12.8449C30.1865 13.0012 30.3741 13.1247 30.5802 13.2085C30.7864 13.2923 31.007 13.3346 31.2295 13.3332H34.1006C34.5512 13.3332 34.9834 13.5122 35.3021 13.8309C35.6208 14.1495 35.7998 14.5817 35.7998 15.0324C35.7998 15.4831 35.6208 15.9153 35.3021 16.2339C34.9834 16.5526 34.5512 16.7316 34.1006 16.7316H31.2295C30.7824 16.7316 30.3537 16.9092 30.0376 17.2253C29.7215 17.5414 29.5439 17.9701 29.5439 18.4171C29.5439 18.8642 29.7215 19.2929 30.0376 19.609C30.3537 19.9251 30.7824 20.1027 31.2295 20.1027H34.1006C34.5512 20.1027 34.9834 20.2817 35.3021 20.6004C35.6208 20.919 35.7998 21.3512 35.7998 21.8019C35.7998 22.2526 35.6208 22.6848 35.3021 23.0034C34.9834 23.3221 34.5512 23.5011 34.1006 23.5011H31.2295C30.7831 23.5011 30.355 23.6784 30.0394 23.9941C29.7238 24.3097 29.5464 24.7378 29.5464 25.1842C29.5464 25.6305 29.7238 26.0586 30.0394 26.3742C30.355 26.6899 30.7831 26.8672 31.2295 26.8672H34.1922C34.3608 26.8654 34.5275 26.9037 34.6783 26.9791C34.8292 27.0544 34.96 27.1646 35.0599 27.3004C35.1598 27.4363 35.2259 27.594 35.2528 27.7605C35.2796 27.927 35.2665 28.0974 35.2145 28.2579C34.4055 30.6248 32.8745 32.6784 30.8369 34.1293C28.7993 35.5802 26.3579 36.3554 23.8566 36.3457H22.8954Z" fill="white"/>
</g>
<defs>
<clipPath id="clip0_3_252">
<rect width="46.7507" height="55" fill="white"/>
</clipPath>
</defs>
</svg>
