<svg width="534" height="533" viewBox="0 0 534 533" fill="none" xmlns="http://www.w3.org/2000/svg">
<path d="M201.921 43.845L223.541 82.5852C243.052 117.546 235.22 163.409 204.489 194.139C204.489 194.139 167.219 231.416 234.797 298.997C302.355 366.555 339.655 329.305 339.655 329.305C370.386 298.574 416.248 290.742 451.209 310.253L489.948 331.873C542.742 361.335 548.975 435.369 502.574 481.773C474.691 509.656 440.532 531.352 402.773 532.781C339.209 535.193 231.259 519.107 122.974 410.821C14.6887 302.535 -1.3986 194.586 1.01124 131.021C2.44268 93.2619 24.1385 59.1042 52.0215 31.2216C98.4242 -15.1812 172.458 -8.94642 201.921 43.845Z" fill="black"/>
</svg>
