<svg width="71" height="71" viewBox="0 0 71 71" fill="none" xmlns="http://www.w3.org/2000/svg">
<g clip-path="url(#clip0_805_334)">
<path d="M27.3114 5C25.8879 5.00988 24.502 5.45777 23.342 6.28279C22.182 7.10782 21.3041 8.26997 20.8277 9.61134L18.6157 15.6632H8.66104C7.50857 15.6782 6.37034 15.92 5.31134 16.3749C4.25234 16.8298 3.29332 17.4889 2.48904 18.3144C1.68476 19.14 1.05097 20.1159 0.623856 21.1864C0.196746 22.2569 -0.0153174 23.4011 -0.000223955 24.5535V58.3283C-0.0301231 60.655 0.865159 62.8983 2.48879 64.565C4.11242 66.2317 6.33149 67.1854 8.65812 67.2165H62.3414C64.6681 67.1854 66.8871 66.2317 68.5108 64.565C70.1344 62.8983 71.0297 60.655 70.9998 58.3283V24.5535C71.0297 22.2269 70.1344 19.9836 68.5108 18.3169C66.8871 16.6502 64.6681 15.6964 62.3414 15.6654H54.1157L51.9037 9.61134C51.4272 8.26997 50.5494 7.10782 49.3894 6.28279C48.2293 5.45777 46.8435 5.00988 45.42 5H27.3114ZM36.3657 24.5535C45.4361 24.5535 52.8172 32.1301 52.8172 41.4406C52.8172 50.7511 45.4361 58.3283 36.3657 58.3283C27.2952 58.3283 19.9142 50.7525 19.9142 41.4413C19.9142 32.1301 27.2952 24.5535 36.3657 24.5535ZM36.3657 29.8866C34.0676 29.8265 31.8037 30.453 29.8636 31.6861C27.9234 32.9192 26.395 34.7029 25.4737 36.8091C24.5524 38.9153 24.2802 41.2484 24.6917 43.5102C25.1033 45.772 26.18 47.8596 27.7841 49.5063C29.3882 51.153 31.447 52.284 33.6972 52.7546C35.9474 53.2252 38.2868 53.0141 40.4164 52.1483C42.5461 51.2825 44.3691 49.8013 45.6526 47.8941C46.9361 45.9868 47.6217 43.7402 47.6217 41.4413C47.6581 38.4174 46.4934 35.5025 44.3832 33.3363C42.2729 31.17 39.3895 29.9294 36.3657 29.8866Z" fill="white"/>
</g>
<defs>
<clipPath id="clip0_805_334">
<rect width="71" height="62.2165" fill="white" transform="translate(0 5)"/>
</clipPath>
</defs>
</svg>
