<svg width="55" height="55" viewBox="0 0 55 55" fill="none" xmlns="http://www.w3.org/2000/svg">
<path d="M47.3193 23.7617H27.9136V31.7378H38.9995C38.5215 34.3159 37.0713 36.4966 34.8853 37.9575C33.0376 39.1929 30.6797 39.9233 27.9082 39.9233C22.5425 39.9233 18.0039 36.2979 16.3818 31.4263C15.9736 30.1909 15.7373 28.8696 15.7373 27.5107C15.7373 26.1519 15.9736 24.8306 16.3818 23.5952C18.0093 18.729 22.5479 15.1035 27.9136 15.1035C30.9375 15.1035 33.6499 16.1455 35.7876 18.1865L41.6958 12.2729C38.124 8.94287 33.4673 6.90186 27.9136 6.90186C19.8623 6.90186 12.896 11.521 9.50684 18.2563C8.11035 21.0386 7.31543 24.186 7.31543 27.5161C7.31543 30.8462 8.11035 33.9883 9.50684 36.7705C12.896 43.5059 19.8623 48.125 27.9136 48.125C33.478 48.125 38.1401 46.2773 41.5454 43.1299C45.4395 39.542 47.6899 34.2568 47.6899 27.978C47.6899 26.5171 47.561 25.1152 47.3193 23.7617Z" fill="white"/>
</svg>
