<svg width="534" height="533" viewBox="0 0 534 533" fill="none" xmlns="http://www.w3.org/2000/svg">
<path fill-rule="evenodd" clip-rule="evenodd" d="M528.866 133.235C552.978 54.3326 479.895 -20.0377 400.757 4.90538L400.707 4.921L72.0565 106.759C-22.4552 136.411 -23.5623 270.213 70.6116 301.779L160.475 332.049L160.54 332.072C179.961 338.534 195.301 353.526 201.68 373.053L201.74 373.234L232.051 462.905L232.058 462.932C263.775 557.842 397.232 555.524 426.812 460.895L528.866 133.235ZM120.16 252.189C110.429 248.912 105.198 238.367 108.476 228.637C111.754 218.905 122.299 213.674 132.03 216.952L221.857 247.212L221.89 247.222C231.589 250.454 240.682 255.072 248.897 260.885C254.182 264.626 259.105 268.862 263.59 273.542C273.827 284.226 281.777 297.208 286.569 311.834L316.873 401.483C320.16 411.21 314.94 421.763 305.213 425.05C295.485 428.337 284.935 423.119 281.646 413.392L251.314 323.656L251.255 323.475C248.235 314.229 243.225 306.033 236.743 299.271C233.905 296.309 230.781 293.619 227.415 291.237C222.177 287.528 216.355 284.569 210.116 282.491L120.16 252.189Z" fill="black"/>
</svg>
