<svg width="55" height="55" viewBox="0 0 55 55" fill="none" xmlns="http://www.w3.org/2000/svg">
<g clip-path="url(#clip0_3_215)">
<path d="M53.4476 1.60014C52.772 0.908364 51.9205 0.413947 50.9849 0.170111C50.0492 -0.0737237 49.0647 -0.0577414 48.1375 0.216338L3.87202 13.0885C2.90694 13.3531 2.03692 13.8865 1.36333 14.6266C0.689754 15.3666 0.240348 16.2829 0.0674847 17.2685C-0.323382 19.3336 1.04135 21.9553 2.82408 23.0516L16.665 31.5583C17.3546 31.982 18.1672 32.16 18.9708 32.0635C19.7744 31.967 20.5218 31.6015 21.0914 31.0266L36.9402 15.0817C37.1286 14.8848 37.355 14.7281 37.6056 14.621C37.8562 14.5139 38.1259 14.4587 38.3984 14.4587C38.671 14.4587 38.9407 14.5139 39.1913 14.621C39.4419 14.7281 39.6683 14.8848 39.8567 15.0817C40.2399 15.4737 40.4545 16.0002 40.4545 16.5484C40.4545 17.0966 40.2399 17.6231 39.8567 18.0151L23.98 33.9665C23.4074 34.5428 23.0441 35.2941 22.9479 36.1008C22.8517 36.9074 23.0281 37.7231 23.4491 38.4179L31.9059 52.3981C32.3716 53.1948 33.0389 53.8547 33.8406 54.3114C34.6424 54.7682 35.5504 55.0057 36.4731 55C36.7027 55.0046 36.9324 54.9952 37.1609 54.9721C38.1997 54.8427 39.1779 54.412 39.9747 53.7332C40.7716 53.0544 41.3523 52.1572 41.6453 51.1522L54.7675 6.9432C55.0466 6.01605 55.0713 5.03093 54.8391 4.09095C54.6068 3.15097 54.1262 2.29069 53.4476 1.60014Z" fill="white"/>
</g>
<defs>
<clipPath id="clip0_3_215">
<rect width="55" height="55" fill="white"/>
</clipPath>
</defs>
</svg>
